<svg width="173" height="29" viewBox="0 0 173 29" fill="none" xmlns="http://www.w3.org/2000/svg">
<path d="M15.4022 13.9991C16.7456 13.4085 17.416 12.4746 17.416 11.1946V9.48232C17.416 8.10943 16.6781 7.12475 15.205 6.52695C14.1716 6.10777 12.8525 5.89752 11.247 5.89752H0.902352C0.301439 5.89752 0 6.2007 0 6.80509V19.1545C0 19.5961 0.184795 19.8775 0.555042 19.9915C0.655303 20.0475 1.02555 20.0732 1.66644 20.0732C2.268 20.0732 2.56879 19.7674 2.56879 19.1538V14.9528L14.2908 19.9922C14.5222 20.0548 14.8387 20.0864 15.2397 20.0864C16.2509 20.0864 16.7561 19.7964 16.7561 19.2125C16.7561 18.817 16.5267 18.5178 16.0733 18.3161L7.48684 14.6516H11.7221C13.1113 14.6516 14.3367 14.4341 15.4022 14.001V13.9991ZM2.56879 12.5451V8.00529H11.2358C13.6434 8.00529 14.8465 8.47984 14.8465 9.42563V11.217C14.8465 12.1029 13.7967 12.5451 11.6978 12.5451H2.56879ZM21.3655 12.7995C20.1689 13.3815 19.5713 14.2548 19.5713 15.4174V16.8378C19.5713 17.9174 20.2004 18.7577 21.4572 19.3621C22.3904 19.8366 23.4972 20.0739 24.7783 20.0739H30.7501C34.083 20.0739 35.7501 18.9567 35.7501 16.7211V12.3447C35.7501 10.8321 34.8608 9.82241 33.0876 9.3182C32.0535 9.04666 30.5601 8.91089 28.6086 8.91089C28.007 8.91089 27.7062 9.21736 27.7062 9.83098C27.7062 10.5995 28.0077 10.9844 28.6086 10.9844H29.1885C29.2567 10.9844 29.2947 10.9798 29.3032 10.9712C29.4572 10.9626 29.5948 10.958 29.7141 10.9534C29.8333 10.9501 29.9369 10.9481 30.0207 10.9481C32.0954 10.9481 33.199 11.3396 33.33 12.1233H24.6984C23.3629 12.1233 22.2521 12.3487 21.3668 12.7989L21.3655 12.7995ZM33.3117 14.5922C33.3156 14.7557 33.3222 14.9449 33.33 15.1624L33.3471 15.7325C33.3503 15.8959 33.3516 16.0317 33.3516 16.1411C33.3516 16.9702 33.1177 17.5054 32.6472 17.746C32.3064 17.924 31.6826 18.0136 30.7717 18.0136H24.7082C24.0988 18.0136 23.5634 17.9292 23.1001 17.7585C22.3753 17.541 22.0123 17.2266 22.0123 16.816V15.4056C22.0123 15.0193 22.3629 14.705 23.0647 14.4644C23.6053 14.2772 24.1296 14.1836 24.6394 14.1836H33.3064C33.3064 14.2937 33.3097 14.4275 33.313 14.5922H33.3117ZM43.9446 20.0739H47.6694C49.1353 20.0739 50.3889 19.838 51.4321 19.3634C52.9052 18.7439 53.6405 17.8356 53.6405 16.6394V6.82948C53.6405 6.39448 53.4753 6.11766 53.1438 6.00298C52.8816 5.94036 52.5343 5.90939 52.1018 5.90939C51.5009 5.90939 51.2001 6.21652 51.2001 6.82948V9.00579H43.9092C40.1989 9.00579 38.2736 10.1618 38.134 12.4746C38.0882 13.2424 38.0646 14.2357 38.0646 15.4537C38.0646 16.06 38.0777 16.5478 38.1006 16.9208C38.2225 19.022 40.1701 20.0739 43.944 20.0739H43.9446ZM40.5764 12.5207C40.5764 11.5499 41.6674 11.0641 43.8516 11.0641H51.2001V16.5939C51.2001 17.541 49.942 18.0136 47.4269 18.0136H43.9092C42.8673 18.0136 42.1687 17.9688 41.8155 17.8752C40.9899 17.6662 40.577 17.2009 40.577 16.4779V12.5207H40.5764ZM58.2138 8.95834C58.1136 8.90429 57.7702 8.87661 57.1837 8.87661C56.5743 8.87661 56.2709 9.17979 56.2709 9.78418V19.1532C56.2709 19.5961 56.4281 19.8768 56.7447 19.9915C56.8429 20.0469 57.1922 20.0732 57.7866 20.0732C58.396 20.0732 58.7001 19.7674 58.7001 19.1538V9.78484C58.7001 9.35116 58.5389 9.07632 58.2138 8.959V8.95834ZM59.0362 7.38707C59.0362 6.98502 58.8659 6.66536 58.5271 6.4327C58.2335 6.23102 57.875 6.12952 57.4504 6.12952C57.0245 6.12952 56.6667 6.23102 56.3738 6.4327C56.0343 6.66536 55.8652 6.98502 55.8652 7.38707C55.8652 7.79175 56.0356 8.10877 56.3744 8.34143C56.6673 8.54311 57.0258 8.64461 57.4511 8.64461C57.8757 8.64461 58.2342 8.54311 58.5277 8.34143C58.8665 8.10877 59.0362 7.79175 59.0362 7.38707Z" fill="#014386"/>
<path d="M62.9615 12.7995C61.7656 13.3815 61.168 14.2548 61.168 15.4174V16.8378C61.168 17.9174 61.7971 18.7577 63.0539 19.3621C63.9884 19.8366 65.0959 20.0739 66.375 20.0739H72.3474C75.6803 20.0739 77.3474 18.9567 77.3474 16.7211V12.3447C77.3474 10.8321 76.4595 9.8224 74.6869 9.31819C73.6515 9.04665 72.1574 8.91087 70.2072 8.91087C69.6057 8.91087 69.3049 9.21735 69.3049 9.83096C69.3049 10.5995 69.605 10.9844 70.2066 10.9844H70.7839C70.8527 10.9844 70.8914 10.9798 70.8992 10.9712C71.0532 10.9626 71.1908 10.958 71.3121 10.9534C71.43 10.9501 71.5322 10.9481 71.6168 10.9481C73.6908 10.9481 74.795 11.3396 74.9261 12.1233H66.2937C64.9569 12.1233 63.8475 12.3487 62.9609 12.7989L62.9615 12.7995ZM74.9097 14.5922C74.9143 14.7557 74.9195 14.9448 74.9274 15.1623L74.9457 15.7325C74.9477 15.8959 74.9503 16.0317 74.9503 16.1411C74.9503 16.9702 74.7144 17.5054 74.2445 17.746C73.9038 17.9239 73.2812 18.0136 72.3691 18.0136H66.3055C65.6961 18.0136 65.1607 17.9292 64.6974 17.7585C63.9727 17.541 63.6096 17.2266 63.6096 16.816V15.4056C63.6096 15.0193 63.9602 14.7049 64.662 14.4644C65.2014 14.2772 65.7269 14.1836 66.2348 14.1836H74.9044C74.9044 14.2937 74.9057 14.4275 74.909 14.5922H74.9097ZM84.58 10.9844H94.0819C94.7136 10.9844 95.0301 10.6397 95.0301 9.94828C95.0301 9.25755 94.7136 8.91219 94.0812 8.91219H84.4063C80.9352 8.91219 79.1993 10.0425 79.1993 12.2999V16.6974C79.1993 18.0881 79.8546 19.0457 81.1665 19.573C81.9306 19.9071 83.1796 20.0739 84.9148 20.0739H93.9541C94.709 20.0739 95.0878 19.7674 95.0878 19.1538C95.0878 18.3945 94.7811 18.0136 94.173 18.0136H84.9843C82.7563 18.0136 81.6409 17.541 81.6409 16.5952V12.2294C81.6409 11.3989 82.62 10.985 84.58 10.985V10.9844ZM100.136 5.97792C100.037 5.92519 99.688 5.89685 99.0936 5.89685C98.4921 5.89685 98.1913 6.20003 98.1913 6.80442V9.00578C97.8682 9.00578 97.6048 9.01105 97.3997 9.02358C97.1952 9.03478 97.0504 9.04796 96.9645 9.06312C96.5805 9.19494 96.3879 9.5179 96.3879 10.03C96.3879 10.5415 96.5805 10.8631 96.9645 10.9956C97.0497 11.0127 97.1959 11.0239 97.3997 11.0364C97.6048 11.0483 97.8682 11.0542 98.1926 11.0542V19.1545C98.1926 19.5895 98.3564 19.8696 98.6906 19.9928C98.7902 20.0482 99.1375 20.0746 99.7325 20.0746C100.334 20.0746 100.635 19.7681 100.635 19.1545V11.0529H104.499C105.108 11.0529 105.413 10.7497 105.413 10.1454C105.413 9.38542 105.108 9.00512 104.499 9.00512H100.634V6.80376C100.633 6.37074 100.465 6.0959 100.135 5.97858L100.136 5.97792ZM109.327 8.95833C109.225 8.90428 108.883 8.8766 108.296 8.8766C107.687 8.8766 107.383 9.17978 107.383 9.78417V19.1531C107.383 19.5961 107.54 19.8768 107.858 19.9915C107.957 20.0469 108.304 20.0732 108.9 20.0732C109.508 20.0732 109.813 19.7674 109.813 19.1538V9.78483C109.813 9.35115 109.651 9.07631 109.328 8.95899L109.327 8.95833ZM110.147 7.38706C110.147 6.98501 109.978 6.66535 109.639 6.43269C109.347 6.23101 108.987 6.12951 108.563 6.12951C108.137 6.12951 107.779 6.23101 107.484 6.43269C107.147 6.66535 106.977 6.98501 106.977 7.38706C106.977 7.79174 107.147 8.10876 107.484 8.34142C107.779 8.5431 108.137 8.6446 108.563 8.6446C108.987 8.6446 109.346 8.5431 109.639 8.34142C109.978 8.10876 110.147 7.79174 110.147 7.38706ZM117.914 20.0739H121.977C123.45 20.0739 124.631 19.8478 125.517 19.3996C126.766 18.8091 127.39 17.8771 127.39 16.6051V12.4746C127.39 10.0999 125.585 8.91219 121.977 8.91219H117.902C116.452 8.91219 115.236 9.16067 114.257 9.65828C112.923 10.3016 112.254 11.2467 112.254 12.4976V16.6058C112.254 17.8554 112.926 18.7827 114.269 19.3871C115.357 19.8459 116.573 20.0739 117.915 20.0739H117.914ZM114.698 12.4963C114.698 11.946 115.114 11.5354 115.947 11.2638C116.534 11.076 117.198 10.9844 117.938 10.9844H121.907C123.914 10.9844 124.915 11.426 124.915 12.3105V16.6051C124.915 17.1021 124.521 17.4777 123.736 17.7348C123.164 17.9193 122.559 18.0136 121.918 18.0136H117.947C117.192 18.0136 116.533 17.9325 115.97 17.7697C115.122 17.5219 114.697 17.133 114.697 16.6058V12.4963H114.698ZM142.797 19.9915C142.897 20.0469 143.248 20.0732 143.85 20.0732C144.459 20.0732 144.764 19.7674 144.764 19.1538V12.0666C144.764 9.9641 142.918 8.91285 139.22 8.91285H135.228C131.496 8.91285 129.627 9.97267 129.627 12.091V19.1551C129.627 19.5967 129.79 19.8781 130.114 19.9922C130.214 20.0482 130.565 20.0746 131.166 20.0746C131.769 20.0746 132.07 19.7687 132.07 19.1551V12.0659C132.07 11.5617 132.464 11.2328 133.25 11.0773C133.42 11.0457 133.648 11.0226 133.938 11.0074C134.228 10.9943 134.585 10.985 135.01 10.985H139.222C139.685 10.985 140.067 10.9916 140.374 11.0035C140.679 11.014 140.905 11.0364 141.051 11.0661C141.884 11.221 142.3 11.5499 142.3 12.0547V19.1545C142.3 19.5961 142.466 19.8768 142.798 19.9915H142.797ZM151.617 20.3237C151.6 20.3982 151.591 20.5016 151.591 20.6335C151.591 20.9024 151.652 21.1383 151.771 21.3466C151.893 21.5529 152.047 21.6544 152.229 21.6544C152.306 21.6544 152.38 21.6346 152.456 21.5964C152.53 21.5555 152.604 21.4962 152.682 21.4165L157.093 15.8702C157.185 15.7384 157.258 15.5512 157.312 15.31C157.367 15.0694 157.391 14.8012 157.391 14.5092C157.391 14.2021 157.37 13.9384 157.317 13.7183C157.269 13.4995 157.193 13.3268 157.093 13.2075L152.682 7.62499C152.604 7.54194 152.531 7.48328 152.456 7.44505C152.381 7.40419 152.306 7.38574 152.229 7.38574C152.047 7.38574 151.892 7.4846 151.771 7.69353C151.652 7.89983 151.592 8.13644 151.592 8.40535C151.592 8.53717 151.603 8.64526 151.623 8.72435C151.643 8.80476 151.676 8.87858 151.72 8.94515L155.193 14.5092L151.72 20.093C151.67 20.1741 151.635 20.2512 151.617 20.3237ZM163.59 15.3106C163.641 15.0701 163.669 14.8018 163.669 14.5098C163.669 14.2027 163.644 13.9391 163.594 13.7189C163.545 13.4988 163.47 13.3274 163.37 13.2081L158.956 7.62565C158.881 7.5426 158.806 7.48394 158.733 7.44571C158.655 7.40485 158.58 7.3864 158.505 7.3864C158.325 7.3864 158.169 7.48526 158.051 7.69419C157.931 7.90049 157.868 8.1371 157.868 8.40601C157.868 8.53783 157.879 8.64592 157.899 8.72501C157.921 8.80542 157.952 8.87924 157.994 8.9458L161.471 14.5098L157.994 20.0937C157.945 20.1754 157.914 20.2518 157.896 20.3243C157.881 20.3988 157.87 20.5023 157.87 20.6341C157.87 20.903 157.933 21.139 158.053 21.3473C158.171 21.5529 158.326 21.6544 158.507 21.6544C158.581 21.6544 158.657 21.6346 158.735 21.5964C158.808 21.5555 158.883 21.4962 158.958 21.4165L163.372 15.8702C163.463 15.7371 163.535 15.5506 163.59 15.31V15.3106Z" fill="#3979B9"/>
<path d="M163.135 28.0628L171.962 16.9742C172.143 16.708 172.291 16.3329 172.398 15.8538C172.508 15.3726 172.56 14.8388 172.56 14.2496C172.56 13.6379 172.51 13.1093 172.409 12.6704C172.311 12.2288 172.162 11.8894 171.961 11.6488L163.134 0.477853C162.986 0.319671 162.833 0.201035 162.685 0.119308C162.536 0.0402168 162.386 0.000671387 162.235 0.000671387C161.867 0.000671387 161.565 0.206308 161.32 0.621535C161.08 1.03413 160.958 1.50735 160.958 2.04319C160.958 2.30881 160.979 2.52235 161.022 2.68251C161.063 2.84201 161.127 2.98833 161.212 3.12278L168.16 14.2496L161.212 25.4211C161.111 25.5793 161.047 25.7362 161.01 25.8799C160.978 26.0288 160.958 26.2358 160.958 26.5014C160.958 27.0339 161.081 27.5065 161.321 27.9224C161.565 28.335 161.868 28.5419 162.236 28.5419C162.387 28.5419 162.537 28.5004 162.687 28.4233C162.834 28.3429 162.988 28.2229 163.135 28.0621V28.0628Z" fill="#014386"/>
</svg>
