<svg xmlns="http://www.w3.org/2000/svg" xmlns:xlink="http://www.w3.org/1999/xlink" width="25.547" height="20.625" viewBox="0 0 25.547 20.625"><defs><path id="a" d="M0 0h25.547v20.625H0z"/></defs><clipPath id="b"><use xlink:href="#a" overflow="visible"/></clipPath><path clip-path="url(#b)" d="M21.62 8.848V4.922h-.995v3.926H16.7v.996h3.925v3.926h.996V9.844h3.927v-.996H21.62zm-3.925 10.84H.995v-2.46c0-.118.02-.216.06-.294s.137-.156.293-.234c.234-.117.557-.254.967-.41s.85-.313 1.318-.47c.508-.155 1.006-.32 1.494-.497s.928-.323 1.318-.44c.43-.117.674-.332.732-.645s.088-.605.088-.88c0-.39-.02-.722-.06-.995s-.116-.527-.233-.762c-.078-.194-.166-.43-.264-.702s-.166-.547-.205-.82v-.293L6.27 9.55c-.04-.038-.118-.165-.235-.38s-.215-.557-.293-1.025c-.078-.352-.107-.586-.088-.704s.03-.214.03-.292c.04-.04.068-.078.087-.117s.03-.077.03-.116v-.06c.04-.194.04-.575 0-1.142s-.097-1.044-.175-1.435c-.04-.156-.02-.45.06-.88s.272-.84.585-1.23l.38-.38s.322-.264.557-.38c.195-.118.43-.216.703-.294s.586-.137.938-.176h.938c.273.04.537.088.79.146s.48.146.675.264c.235.078.44.186.616.322s.342.302.498.497c.313.39.508.8.586 1.23s.098.723.06.88c-.08.39-.138.868-.177 1.435s-.04.967 0 1.2v.06c.04 0 .06.02.06.06v.118c.038.077.067.175.087.292s-.01.352-.088.703c-.078.47-.176.81-.293 1.025s-.196.342-.235.38l-.234.235v.293c-.038.273-.106.547-.204.82s-.186.508-.264.703c-.117.235-.225.5-.322.792s-.146.615-.146.967c0 .233.04.517.117.85s.333.556.763.673c.39.117.82.254 1.29.41s.956.313 1.464.47c.47.155.908.312 1.318.468s.752.294 1.025.41c.195.08.332.187.41.323s.117.225.117.264v2.46zm-.117-3.926c-.273-.117-.625-.254-1.055-.41s-.898-.332-1.406-.527c-.47-.156-.947-.313-1.436-.47s-.927-.292-1.317-.41c-.078-.038-.127-.077-.146-.116s-.03-.196-.03-.47c0-.234.04-.47.118-.703s.156-.45.234-.645c.116-.234.224-.508.32-.82s.167-.645.206-.996c.117-.117.254-.322.41-.615s.273-.712.352-1.26c.117-.43.166-.75.146-.966s-.068-.4-.146-.557V6.71s-.02-.03-.058-.03c0-.117.01-.4.03-.85s.067-.908.145-1.377c.078-.273.06-.693-.06-1.26s-.37-1.104-.76-1.61c-.118-.196-.274-.382-.47-.558s-.43-.322-.703-.44c-.273-.155-.586-.292-.938-.41S10.254 0 9.784 0H8.79c-.43 0-.82.06-1.173.176s-.664.254-.937.41c-.274.117-.508.264-.703.44s-.352.36-.47.556c-.39.508-.644 1.045-.76 1.61s-.138.988-.06 1.26c.08.47.127.93.147 1.378s.03.732.03.85c-.04 0-.06.01-.06.03v.087c-.077.156-.126.342-.146.557s.03.537.147.966c.078.547.195.967.35 1.26s.294.498.41.615c.04.352.108.684.206.996s.206.587.323.82c.078.157.127.343.146.558s.028.48.028.79c0 .274-.01.44-.03.5s-.048.087-.087.087c-.43.117-.888.264-1.376.44s-.986.34-1.494.497c-.47.195-.918.37-1.348.527s-.762.292-.996.41c-.39.155-.645.37-.762.644S0 16.992 0 17.227V19.688c0 .195.068.4.205.615s.38.322.732.322h16.816c.352 0 .596-.107.732-.322s.205-.42.205-.615v-1.143-1.318c0-.234-.098-.498-.293-.79s-.467-.52-.82-.675z"/></svg>