<svg xmlns="http://www.w3.org/2000/svg" xmlns:xlink="http://www.w3.org/1999/xlink" width="24.375" height="24.375" viewBox="0 0 24.375 24.375"><defs><path id="a" d="M0 0h24.375v24.375H0z"/></defs><clipPath id="b"><use xlink:href="#a" overflow="visible"/></clipPath><path clip-path="url(#b)" fill="#D4D434" d="M14.063 5.39l-2.87-2.812.76-.703 2.814 2.813-.704.703zm7.734 7.794l-2.813-2.87.703-.704 2.813 2.87-.703.704zM22.5 2.52l-2.813 2.87-.703-.702 2.813-2.87.703.702zM16.348 0h.996v3.984h-.996V0zm0 11.016h.996V15h-.996v-3.984zm3.984-4.043h4.043v.996h-4.043v-.997zm-10.957 0h3.984v.996H9.374v-.997zM0 23.673l13.066-13.067.703.703L.702 24.374 0 23.672z"/></svg>