<svg xmlns="http://www.w3.org/2000/svg" xmlns:xlink="http://www.w3.org/1999/xlink" width="22.969" height="26.953" viewBox="0 0 22.969 26.953"><defs><path id="a" d="M0 0h22.97v26.953H0z"/></defs><clipPath id="b"><use xlink:href="#a" overflow="visible"/></clipPath><path clip-path="url(#b)" fill="#D4D434" d="M8.965 0h.996v5.977h-.995V0zm4.043 1.465h.996v4.512h-.996V1.465zm-8.028 0h.996v4.512H4.98V1.465zM0 25.957h18.983v.996H0v-.996zm9.492-.996c1.172 0 2.274-.224 3.31-.673s1.925-1.045 2.667-1.787c.78-.78 1.395-1.69 1.845-2.725.45-1.036.674-2.14.674-3.312V9.96H.995v6.505c0 1.172.225 2.275.674 3.31.45 1.038 1.045 1.944 1.787 2.727.78.742 1.688 1.338 2.725 1.787 1.036.446 2.138.67 3.31.67zm9.492-8.964h2.988V9.96h-2.988v6.036zm0 .996c-.078 1.25-.38 2.422-.907 3.516-.527 1.094-1.2 2.05-2.02 2.87-.86.782-1.855 1.407-2.99 1.876-1.132.47-2.322.703-3.572.703-1.328 0-2.568-.244-3.722-.732-1.152-.488-2.158-1.162-3.018-2.02-.86-.86-1.533-1.866-2.02-3.02C.244 19.033 0 17.793 0 16.465v-7.5h22.97v8.027h-3.986z"/></svg>