<svg xmlns="http://www.w3.org/2000/svg" xmlns:xlink="http://www.w3.org/1999/xlink" width="25.547" height="24.492" viewBox="0 0 25.547 24.492"><defs><path id="a" d="M0 0h25.547v24.492H0z"/></defs><clipPath id="b"><use xlink:href="#a" overflow="visible"/></clipPath><path clip-path="url(#b)" fill="#D4D434" d="M23.32 13.125h-1.7v.996h.47c.156 0 .313.04.47.118s.292.176.41.293c.116.08.214.196.292.353.078.157.117.332.117.527 0 .156-.04.313-.118.47s-.176.292-.293.41-.255.204-.41.263-.314.088-.47.088h-1.465v.997h.41c.156 0 .313.04.47.117s.292.156.41.234c.077.117.155.254.233.41s.117.313.117.47-.04.312-.117.468-.156.293-.234.41c-.117.117-.254.205-.41.264s-.313.088-.47.088h-1.347v.996h.117c.194 0 .37.03.526.088.155.06.293.146.41.264.116.12.204.244.264.382.06.137.088.303.088.498 0 .155-.028.313-.088.47-.06.155-.146.27-.264.352-.117.117-.255.215-.41.293-.156.08-.33.116-.526.116H12.07c-.234 0-.508-.05-.82-.146s-.664-.205-1.055-.322c-.352-.117-.713-.264-1.084-.438-.37-.176-.712-.342-1.024-.498-.664-.273-1.22-.498-1.67-.674-.45-.177-.81-.265-1.084-.265H.996V11.72H5.04c.43 0 .84-.06 1.23-.176s.78-.293 1.17-.527.812-.537 1.26-.908l1.67-1.378s1.183-1.19 1.554-1.934c.37-.743.654-1.465.85-2.168.196-.703.313-1.328.352-1.875s.06-.938.06-1.172c0-.195.116-.352.35-.47.235-.116.41-.175.528-.175.272 0 .625.107 1.055.322.43.215.644.967.644 2.256 0 1.64-.272 3.135-.82 4.482l-.82 2.02-.352.704h6.035v0h3.517c.39 0 .702.117.938.352.234.235.352.508.352.82 0 .195-.04.36-.117.498-.078.137-.176.264-.293.38-.078.118-.195.206-.352.265-.16.06-.336.088-.532.088zm2.227-1.23c0-.313-.05-.596-.146-.85-.095-.254-.242-.48-.437-.674-.233-.194-.48-.34-.73-.438-.255-.097-.56-.146-.91-.146h-7.968c.117-.313.264-.693.438-1.143.175-.45.32-.947.438-1.494.157-.548.284-1.124.382-1.73.1-.606.146-1.24.146-1.904 0-.742-.078-1.338-.234-1.787-.155-.45-.37-.812-.645-1.085s-.567-.45-.88-.528C14.688.04 14.375 0 14.063 0c-.194 0-.4.03-.614.088-.216.06-.42.166-.616.322-.195.117-.352.283-.47.498-.116.215-.175.44-.175.674s-.108 1.113-.323 2.637c-.215 1.523-.928 2.792-2.14 3.808-.625.507-1.163.937-1.612 1.288-.45.35-.85.625-1.2.82-.314.234-.616.39-.91.47s-.614.116-.966.116H.47l-.47.06v11.425h5.332c.195 0 .518.098.967.293.448.195.907.39 1.376.586.39.156.78.322 1.172.498.39.176.78.322 1.172.44.39.155.762.27 1.113.35.35.08.664.118.938.118h7.735c.313 0 .605-.06.88-.176.273-.117.526-.273.76-.47.196-.194.354-.43.47-.702.118-.273.177-.547.177-.82s-.04-.518-.116-.732c-.078-.214-.195-.42-.353-.615.233-.04.448-.127.646-.264.194-.137.37-.303.525-.498.117-.195.215-.4.293-.615s.117-.46.117-.73c0-.235-.04-.47-.117-.704s-.176-.45-.293-.646c.194-.078.392-.186.586-.32.196-.137.372-.284.528-.44.116-.194.215-.41.293-.645.078-.235.117-.47.117-.703 0-.272-.04-.52-.116-.73-.077-.216-.176-.422-.292-.616.233-.078.448-.176.645-.293s.37-.273.527-.47c.155-.196.272-.41.353-.645.077-.236.114-.49.114-.763z"/></svg>