<svg xmlns="http://www.w3.org/2000/svg" xmlns:xlink="http://www.w3.org/1999/xlink" width="20.039" height="29.063" viewBox="0 0 20.039 29.063"><defs><path id="a" d="M0 0h20.04v29.063H0z"/></defs><clipPath id="b"><use xlink:href="#a" overflow="visible"/></clipPath><path clip-path="url(#b)" d="M15.41 17.227h-.06c-.272.195-.546.45-.82.762s-.526.663-.76 1.054c-.235.43-.42.89-.558 1.377s-.205 1.026-.205 1.612v1.992h-2.46v-12.07c.194-.04.38-.127.556-.264s.342-.283.498-.44c.118-.155.216-.34.294-.556s.117-.44.117-.674c0-.273-.048-.527-.145-.762s-.244-.45-.44-.645-.41-.342-.644-.44-.487-.145-.76-.145-.528.048-.762.146-.45.244-.645.44-.342.41-.44.644-.146.488-.146.762c0 .234.04.46.117.674s.176.4.293.557c.156.157.322.304.498.44s.36.225.557.264v12.07h-2.46v-1.992c0-.547-.07-1.064-.206-1.553s-.322-.93-.556-1.32c-.195-.39-.43-.742-.703-1.055s-.547-.566-.82-.762v-.03-.028c-.04 0-.06-.01-.06-.03s-.02-.028-.058-.028v-.03s-.02-.028-.06-.028c-.547-.43-1.045-.91-1.494-1.437s-.83-1.104-1.143-1.73c-.273-.585-.497-1.22-.673-1.903s-.264-1.377-.264-2.08c0-1.25.244-2.422.732-3.516S2.85 4.474 3.632 3.69c.82-.82 1.777-1.464 2.87-1.933s2.268-.702 3.518-.702 2.422.234 3.516.703 2.05 1.113 2.87 1.934c.782.78 1.417 1.72 1.905 2.813s.733 2.266.733 3.516c0 .704-.088 1.397-.264 2.08s-.42 1.34-.733 1.964c-.273.586-.635 1.152-1.084 1.7s-.967 1.033-1.553 1.463zm-5.39-6.21c-.273 0-.508-.1-.703-.294s-.293-.43-.293-.703.098-.508.293-.703.43-.293.703-.293.508.098.703.293.293.43.293.703-.098.508-.293.703-.43.293-.703.293zm-2.99 16.99V25.02h5.978v2.988H7.03zM20.04 10.02c0-1.367-.265-2.656-.792-3.867s-1.24-2.285-2.14-3.223c-.937-.898-2.01-1.61-3.222-2.14S11.386 0 10.02 0 7.363.264 6.152.79 3.867 2.03 2.93 2.93c-.9.937-1.612 2.01-2.14 3.222S0 8.652 0 10.02c0 .82.098 1.61.293 2.373s.47 1.475.82 2.14.77 1.288 1.26 1.874 1.025 1.113 1.61 1.582c.04 0 .07.01.09.028s.028.05.028.088h.06c.194.156.4.36.614.615s.42.538.615.85c.155.353.302.733.438 1.144s.205.85.205 1.318v7.03h7.97v-7.03c0-.508.067-.977.204-1.406s.303-.82.498-1.172c.195-.313.41-.596.645-.85s.45-.46.645-.615c.625-.43 1.182-.94 1.67-1.524s.908-1.21 1.26-1.875c.352-.702.625-1.435.82-2.196s.294-1.554.294-2.374z"/></svg>