<svg xmlns="http://www.w3.org/2000/svg" xmlns:xlink="http://www.w3.org/1999/xlink" width="27.402" height="17.969" viewBox="0 0 27.402 17.969"><defs><path id="a" d="M0 0h27.402v17.97H0z"/></defs><clipPath id="b"><use xlink:href="#a" overflow="visible"/></clipPath><path clip-path="url(#b)" fill="#D4D434" d="M22.656 17.03h2.93v.94h-2.93v-.94zm-19.687 0h2.986v.94H2.97v-.94zm15.76 0h2.93v.94h-2.93v-.94zm-11.835 0h2.987v.94H6.895v-.94zm-1.23-5.448c.155-.313.243-.635.264-.967.02-.332-.012-.635-.09-.908-.078-.312-.225-.596-.44-.85s-.46-.46-.732-.615c-.313-.156-.635-.254-.967-.293-.33-.04-.634 0-.907.116-.313.08-.596.225-.85.44s-.46.46-.615.732c-.156.313-.254.625-.293.938-.04.313 0 .625.117.938.078.313.215.596.41.85.194.254.45.46.762.615.313.154.625.243.938.263.313.02.625-.01.938-.088.313-.078.596-.225.85-.438.254-.215.458-.462.614-.735zm.35-5.977c.314.195.626.303.94.322.312.02.624-.01.937-.088.313-.118.596-.274.85-.47.254-.196.46-.45.615-.762.155-.272.243-.575.262-.907.02-.33-.01-.653-.09-.966-.077-.273-.223-.537-.438-.79-.215-.255-.46-.48-.733-.674-.313-.157-.635-.245-.967-.264s-.636.01-.908.088c-.313.117-.596.273-.85.47-.254.195-.46.448-.615.76-.157.274-.254.576-.293.908s0 .654.117.967c.078.273.224.536.44.79.214.254.458.46.732.615zM23.888 9.59c-.548-.313-1.173-.576-1.875-.79-.703-.216-1.484-.343-2.345-.382-.86-.04-1.787.06-2.783.293-.995.235-2.06.685-3.192 1.35l11.133.06c-.156-.08-.313-.167-.47-.266-.155-.098-.312-.186-.468-.264zm-7.09 7.44h.938v.94h-2.93v-.94h.82l-3.165-4.687c0 .47.03.918.088 1.35.06.43.146.84.265 1.228s.233.764.352 1.114.254.684.41.996h.234v.352l.027.03c.02.018.03.048.03.087h-.06v.468h-2.93v-.938h1.64c-.155-.43-.312-.86-.47-1.29-.154-.43-.27-.897-.35-1.405-.118-.508-.196-1.035-.235-1.582s-.04-1.133 0-1.758H6.894c-.04.155-.088.32-.146.498-.058.176-.127.36-.205.557-.233.392-.526.732-.88 1.025-.35.293-.74.498-1.17.614-.43.116-.87.155-1.32.116-.447-.04-.888-.156-1.316-.352-.43-.234-.78-.527-1.056-.88-.272-.35-.468-.74-.585-1.17C.06 10.976 0 10.536.04 10.087s.175-.89.41-1.318c.233-.39.526-.732.878-1.025.352-.293.742-.5 1.172-.616.392-.157.82-.216 1.29-.177s.897.176 1.288.41c.274.157.518.323.733.498.216.176.382.382.5.616.155.234.282.48.38.732.098.253.165.52.205.792h3.983L8.535 6.602c-.234.117-.478.195-.732.234-.254.04-.498.06-.733.06-.273 0-.537-.03-.79-.09s-.5-.165-.733-.322c-.39-.195-.73-.48-1.024-.85-.294-.37-.5-.75-.617-1.142-.156-.43-.215-.87-.176-1.318.04-.45.176-.89.41-1.318.233-.43.527-.782.88-1.055.352-.272.742-.487 1.172-.644C6.622.04 7.062 0 7.51.04c.45.038.89.175 1.318.41.392.194.732.478 1.025.85s.498.75.614 1.142c.117.43.166.87.146 1.318-.02.45-.146.89-.38 1.318-.116.195-.243.38-.38.557-.135.176-.302.342-.498.498L11.992 10c4.14-2.93 7.598-3.623 10.37-2.08s4.18 2.334 4.22 2.373l.82.82-14.648-.117 4.043 6.035z"/></svg>