<svg xmlns="http://www.w3.org/2000/svg" xmlns:xlink="http://www.w3.org/1999/xlink" width="15.938" height="26.953" viewBox="0 0 15.938 26.953"><defs><path id="a" d="M0 0h15.938v26.953H0z"/></defs><clipPath id="b"><use xlink:href="#a" overflow="visible"/></clipPath><path clip-path="url(#b)" fill="#D4D434" d="M6.445 23.965h3.048v-.996H6.445v.995zM14.94 2.988H.997v-1.64c0-.117.028-.205.088-.264.06-.06.146-.088.264-.088H14.59c.117 0 .205.03.264.088.06.06.088.146.088.264v1.64zm0 16.992H.997V3.984H14.94V19.98zm0 5.625c0 .117-.027.205-.087.264-.06.058-.146.087-.264.087H1.347c-.117 0-.205-.03-.264-.088-.06-.06-.088-.147-.088-.265v-4.63H14.94v4.63zM14.59 0H1.348C1.152 0 .968.03.79.088S.47.234.353.352C.234.508.146.664.088.82.03.976 0 1.152 0 1.348v24.257c0 .195.028.37.088.527.06.156.146.313.264.47.117.116.265.204.44.264.174.06.36.088.556.088H14.59c.195 0 .38-.03.557-.088.177-.06.322-.146.44-.265.116-.155.204-.312.263-.468.06-.156.088-.332.088-.527V1.348c0-.195-.028-.37-.088-.527-.06-.155-.146-.312-.264-.468-.117-.117-.265-.205-.44-.264S14.787 0 14.59 0z"/></svg>