<svg xmlns="http://www.w3.org/2000/svg" xmlns:xlink="http://www.w3.org/1999/xlink" width="22.969" height="26.953" viewBox="0 0 22.969 26.953"><defs><path id="a" d="M0 0h22.97v26.953H0z"/></defs><clipPath id="b"><use xlink:href="#a" overflow="visible"/></clipPath><path clip-path="url(#b)" d="M8.965 0h.996v5.977h-.995V0zm4.043 1.465h.996v4.512h-.996V1.465zm-8.028 0h.996v4.512H4.98V1.465zM0 25.957h18.984v.996H0v-.996zm9.492-.996c1.172 0 2.275-.224 3.31-.673s1.925-1.045 2.667-1.787c.78-.78 1.395-1.69 1.845-2.725s.674-2.14.674-3.31V9.96H.995v6.505c0 1.172.225 2.275.674 3.31s1.045 1.944 1.787 2.726c.78.743 1.69 1.34 2.725 1.788s2.138.673 3.31.673zm9.492-8.964h2.988V9.96h-2.988v6.036zm0 .996c-.078 1.25-.38 2.422-.908 3.516s-1.2 2.05-2.02 2.87c-.86.782-1.856 1.407-2.99 1.876s-2.323.703-3.573.703c-1.328 0-2.568-.244-3.72-.732s-2.16-1.162-3.02-2.02-1.532-1.866-2.02-3.02S0 17.794 0 16.466v-7.5h22.97v8.027h-3.986z"/></svg>