<svg xmlns="http://www.w3.org/2000/svg" xmlns:xlink="http://www.w3.org/1999/xlink" width="17.695" height="27.539" viewBox="0 0 17.695 27.539"><defs><path id="a" d="M0 0h17.695v27.54H0z"/></defs><clipPath id="b"><use xlink:href="#a" overflow="visible"/></clipPath><path clip-path="url(#b)" fill="#D4D434" d="M8.848 23.613c-.664 0-1.3-.127-1.904-.38-.605-.255-1.123-.616-1.553-1.085-.47-.43-.83-.947-1.083-1.554-.254-.605-.382-1.24-.382-1.903s.128-1.298.382-1.903.614-1.123 1.084-1.553c.43-.47.947-.83 1.554-1.084.605-.254 1.24-.38 1.904-.38s1.3.126 1.903.38c.606.254 1.124.616 1.555 1.084.47.43.83.947 1.084 1.553.253.605.38 1.24.38 1.904s-.127 1.3-.38 1.904c-.256.605-.616 1.123-1.085 1.554-.43.47-.947.83-1.554 1.084-.604.254-1.238.38-1.902.38zm0-10.84c-.82 0-1.582.156-2.285.47s-1.328.74-1.875 1.288c-.547.51-.978 1.124-1.29 1.847-.31.723-.468 1.494-.468 2.314 0 .82.155 1.583.47 2.286.312.703.74 1.328 1.288 1.875s1.172.978 1.875 1.29c.703.312 1.465.47 2.285.47.82 0 1.592-.157 2.313-.47.723-.313 1.34-.742 1.847-1.29.548-.546.978-1.17 1.29-1.874.312-.703.47-1.466.47-2.285 0-.82-.157-1.59-.47-2.313-.314-.722-.742-1.338-1.29-1.846-.508-.546-1.123-.976-1.846-1.288s-1.492-.47-2.312-.47zm0 13.77c-1.095 0-2.12-.205-3.076-.615s-1.787-.967-2.49-1.67-1.26-1.533-1.67-2.49-.615-1.98-.615-3.076c0-1.094.205-2.118.615-3.075s.967-1.787 1.67-2.49 1.533-1.26 2.49-1.67 1.98-.615 3.076-.615c1.094 0 2.118.205 3.075.615s1.787.967 2.49 1.67 1.26 1.533 1.67 2.49.615 1.98.615 3.075c0 1.095-.205 2.12-.615 3.076s-.967 1.787-1.67 2.49-1.533 1.26-2.49 1.67-1.982.615-3.075.615zM3.458 3.81V.995H8.32v6.738h.996V.996h4.922V3.81c0 .272-.244 1.073-.732 2.4-.487 1.33-1.045 2.716-1.67 4.16l-.703-.233c-.233-.078-.487-.137-.762-.176-.232-.038-.478-.067-.73-.087s-.52-.03-.792-.03c-.273 0-.537.01-.79.03s-.52.05-.792.088c-.235.04-.48.1-.733.177-.254.078-.498.156-.732.234-.507-1.21-1.025-2.538-1.552-3.983-.527-1.445-.79-2.305-.79-2.578zm9.315 6.97c.156-.39.37-.917.645-1.58.274-.665.547-1.368.82-2.11.273-.703.508-1.367.703-1.992s.294-1.055.294-1.29V0H2.46v3.81c0 .233.1.663.294 1.288.195.625.43 1.31.703 2.05.273.704.547 1.397.82 2.08.272.685.488 1.202.645 1.554-.74.35-1.416.8-2.02 1.347-.607.546-1.124 1.15-1.554 1.815C.918 14.65.585 15.4.352 16.2.117 17.003 0 17.833 0 18.69c0 1.212.234 2.355.703 3.43s1.094 2.02 1.875 2.84c.82.782 1.77 1.407 2.842 1.876 1.074.47 2.218.703 3.43.703s2.353-.235 3.427-.704 2.02-1.094 2.842-1.875c.78-.82 1.405-1.767 1.874-2.84s.703-2.218.703-3.43c0-.858-.117-1.688-.352-2.49-.235-.8-.566-1.552-.996-2.255-.432-.664-.958-1.27-1.583-1.816s-1.29-.997-1.994-1.35z"/></svg>