<svg xmlns="http://www.w3.org/2000/svg" xmlns:xlink="http://www.w3.org/1999/xlink" width="24.023" height="24.023" viewBox="0 0 24.023 24.023"><defs><path id="a" d="M0 0h24.023v24.023H0z"/></defs><clipPath id="b"><use xlink:href="#a" overflow="visible"/></clipPath><path clip-path="url(#b)" fill="#D4D434" d="M17.87 21.27l-2.46-3.69c.195-.157.4-.314.615-.47s.42-.332.615-.527c.155-.194.32-.39.498-.586.176-.195.32-.41.438-.645l3.75 2.52c-.234.353-.48.685-.73.996-.255.313-.52.605-.792.88-.273.312-.576.595-.908.85-.332.253-.673.476-1.025.672zm-10.897.527l2.577-3.81c.156.08.343.157.558.235.215.077.42.137.615.176.194.04.4.067.614.088.216.02.44.03.675.03.233 0 .46-.012.674-.03.215-.02.42-.05.614-.088.195-.04.4-.1.615-.176.215-.078.42-.156.615-.234l2.52 3.81c-.39.194-.79.37-1.2.526-.41.156-.812.273-1.2.352-.43.117-.86.205-1.29.265-.43.06-.88.09-1.348.09-.47 0-.918-.03-1.35-.09-.43-.06-.857-.145-1.288-.264-.39-.077-.79-.194-1.2-.352-.41-.157-.81-.332-1.2-.527zM2.695 17.87l3.75-2.52c.117.234.264.45.438.646.176.196.343.392.498.586.196.195.4.37.616.527s.42.312.615.468L6.15 21.27c-.352-.195-.692-.42-1.024-.674-.332-.255-.635-.537-.907-.85-.274-.273-.538-.566-.792-.88-.254-.312-.498-.643-.733-.995zM2.227 6.974l3.81 2.52c-.08.195-.157.4-.235.615-.077.215-.137.42-.176.615-.04.194-.067.4-.088.614-.02.215-.03.44-.03.675 0 .234.012.448.03.645.02.196.05.39.088.586.04.234.088.45.146.646.058.194.127.39.205.585l-3.75 2.52c-.195-.39-.37-.78-.527-1.172s-.273-.8-.352-1.23c-.117-.39-.205-.81-.265-1.26-.06-.45-.088-.89-.088-1.317 0-.47.03-.918.088-1.35.06-.43.146-.86.265-1.29.077-.43.194-.84.352-1.23.157-.39.33-.783.527-1.173zm3.925-4.278l2.52 3.75c-.234.157-.45.313-.645.47l-.586.468c-.194.195-.37.39-.526.586-.156.195-.293.41-.41.645l-3.75-2.52c.195-.314.42-.636.675-.968.253-.332.535-.635.85-.908.27-.273.565-.537.878-.792.312-.254.643-.498.994-.733zm10.84-.468l-2.52 3.75c-.195-.078-.392-.146-.586-.205-.195-.06-.392-.107-.587-.146-.234-.04-.45-.067-.646-.088-.196-.02-.41-.03-.646-.03-.234 0-.448.012-.645.03-.196.02-.41.05-.645.088-.195.04-.392.088-.587.146-.19.058-.384.126-.58.205l-2.52-3.75c.392-.195.782-.37 1.173-.527.392-.156.8-.273 1.23-.352.39-.117.81-.205 1.26-.265.45-.06.89-.088 1.318-.088.43 0 .87.03 1.318.088.45.06.87.146 1.26.265.43.077.84.194 1.23.352s.784.33 1.174.527zm4.278 3.867l-3.75 2.52c-.117-.233-.254-.448-.41-.645-.156-.196-.332-.392-.527-.587l-.586-.47s-.41-.312-.645-.468l2.52-3.75c.353.234.685.48.996.73.313.255.605.52.88.792.312.273.595.576.85.908.253.333.476.656.672.97zm-3.282 3.398l3.81-2.52c.194.39.37.78.526 1.172.156.39.273.8.352 1.23.117.43.205.858.265 1.288.06.43.09.88.09 1.348 0 .43-.03.87-.09 1.318-.06.45-.145.87-.264 1.26-.077.43-.194.84-.352 1.23s-.332.78-.527 1.172l-3.75-2.52c.078-.195.146-.392.205-.587.06-.194.107-.39.146-.586.04-.233.067-.448.088-.645.02-.196.03-.41.03-.646 0-.234-.012-.46-.03-.674-.02-.215-.05-.42-.088-.615-.04-.194-.1-.4-.176-.614-.078-.213-.156-.415-.234-.61zm-5.976 8.028c-.742 0-1.455-.146-2.14-.44-.684-.292-1.26-.69-1.73-1.2-.507-.47-.907-1.045-1.2-1.73-.293-.684-.44-1.395-.44-2.138 0-.743.147-1.455.44-2.14.293-.684.693-1.26 1.2-1.73.47-.508 1.046-.907 1.73-1.2.685-.293 1.396-.44 2.14-.44.742 0 1.454.147 2.14.44.683.293 1.26.692 1.728 1.2.51.47.908 1.046 1.2 1.73.294.685.44 1.396.44 2.14 0 .742-.146 1.454-.44 2.14-.292.683-.69 1.26-1.2 1.728-.47.51-1.045.908-1.73 1.2-.683.294-1.396.44-2.138.44zm0-17.52C10.37 0 8.82.313 7.354.938S4.61 2.422 3.516 3.516C2.423 4.61 1.563 5.89.938 7.354S0 10.37 0 12.012c0 1.64.313 3.192.938 4.657s1.483 2.743 2.578 3.837c1.094 1.095 2.373 1.953 3.838 2.578s3.018.938 4.658.938c1.64 0 3.192-.313 4.657-.938s2.743-1.483 3.837-2.578c1.095-1.094 1.953-2.373 2.578-3.838s.938-3.02.938-4.658c0-1.64-.313-3.193-.938-4.658s-1.483-2.744-2.578-3.838C19.413 2.42 18.134 1.563 16.67.938S13.65 0 12.01 0z"/></svg>