<svg xmlns="http://www.w3.org/2000/svg" xmlns:xlink="http://www.w3.org/1999/xlink" width="24.023" height="24.258" viewBox="0 0 24.023 24.258"><defs><path id="a" d="M0 0h24.023v24.258H0z"/></defs><clipPath id="b"><use xlink:href="#a" overflow="visible"/></clipPath><path clip-path="url(#b)" fill="#D4D434" d="M.996 11.953c0-1.484.293-2.9.88-4.248C2.46 6.357 3.24 5.195 4.22 4.22 5.236 3.202 6.408 2.41 7.736 1.845s2.754-.85 4.277-.85c1.522 0 2.948.283 4.276.85 1.327.567 2.5 1.357 3.516 2.373.977.976 1.758 2.138 2.344 3.485.586 1.347.88 2.764.88 4.248 0 1.523-.294 2.95-.88 4.277s-1.367 2.5-2.344 3.516c-1.017.977-2.188 1.758-3.517 2.344s-2.755.88-4.277.88c-1.523 0-2.95-.294-4.277-.88s-2.5-1.367-3.516-2.344c-.978-1.016-1.76-2.188-2.345-3.516s-.88-2.753-.88-4.277zm23.027 0c0-1.64-.313-3.193-.938-4.658s-1.483-2.725-2.578-3.78C19.413 2.423 18.134 1.564 16.67.94S13.65 0 12.01 0c-1.64 0-3.194.313-4.658.938S4.61 2.422 3.516 3.516C2.422 4.57 1.563 5.83.938 7.296S0 10.312 0 11.952c0 .938.1 1.836.293 2.695.195.858.488 1.66.88 2.4.352.782.79 1.516 1.317 2.198s1.104 1.3 1.73 1.846L2.166 23.67l.763.586 2.05-2.52c.51.352 1.036.663 1.583.937s1.112.51 1.7.703c.585.195 1.19.342 1.814.438.625.098 1.27.146 1.935.146.663 0 1.31-.05 1.934-.146.625-.097 1.23-.243 1.816-.438.586-.194 1.143-.43 1.67-.703.526-.272 1.045-.586 1.553-.938l2.05 2.52.763-.585-1.99-2.578c.624-.547 1.2-1.15 1.728-1.815s.967-1.387 1.318-2.168c.39-.782.684-1.604.88-2.462.193-.86.29-1.757.29-2.695zm-11.953 7.03c-.978 0-1.885-.186-2.725-.557-.84-.37-1.593-.868-2.257-1.493-.625-.625-1.123-1.367-1.493-2.228-.37-.86-.558-1.776-.558-2.754 0-.937.187-1.835.558-2.694.37-.86.87-1.6 1.494-2.226.663-.625 1.415-1.123 2.256-1.494.84-.37 1.748-.557 2.724-.557s1.885.185 2.725.556 1.572.87 2.197 1.494c.664.625 1.172 1.367 1.523 2.227.35.86.526 1.758.526 2.695 0 .977-.175 1.895-.525 2.754-.352.86-.86 1.602-1.523 2.227-.625.625-1.357 1.123-2.197 1.494s-1.748.557-2.725.557zm0-15c-1.094 0-2.13.206-3.105.616-.976.41-1.836.986-2.577 1.728-.703.703-1.27 1.543-1.7 2.52-.43.977-.645 2.012-.645 3.105 0 1.133.215 2.178.646 3.135.43.957.995 1.807 1.698 2.55.74.702 1.602 1.27 2.577 1.698.977.43 2.013.645 3.105.645s2.13-.214 3.104-.644c.977-.43 1.816-.996 2.52-1.7.743-.74 1.32-1.59 1.73-2.548.41-.957.615-2.002.615-3.135 0-1.094-.206-2.13-.616-3.105-.41-.976-.985-1.816-1.73-2.52-.702-.742-1.542-1.318-2.52-1.73-.976-.41-2.01-.614-3.104-.614zm0 11.017c-.43 0-.82-.088-1.172-.264-.353-.176-.664-.38-.938-.615-.272-.272-.487-.595-.645-.966s-.234-.77-.234-1.2c0-.392.08-.772.235-1.144s.37-.693.645-.967c.274-.274.586-.488.938-.645.352-.157.742-.234 1.172-.234.39 0 .77.078 1.143.234.372.156.693.37.968.645.274.274.488.596.646.967s.234.752.234 1.143c0 .43-.078.83-.234 1.2s-.37.694-.645.968c-.272.235-.596.44-.967.616S12.46 15 12.07 15zm0-7.03c-.547 0-1.064.106-1.553.32-.49.216-.908.5-1.26.85-.39.352-.683.772-.878 1.26-.195.488-.294 1.006-.294 1.553s.1 1.064.293 1.553c.194.49.487.928.878 1.318.353.352.77.635 1.26.85.49.215 1.007.322 1.554.322s1.063-.107 1.553-.322.908-.498 1.26-.85c.353-.39.636-.83.85-1.318s.323-1.006.323-1.553-.107-1.064-.322-1.553c-.215-.49-.498-.908-.85-1.26-.353-.352-.772-.635-1.26-.85s-1.01-.32-1.556-.32z"/></svg>