<svg xmlns="http://www.w3.org/2000/svg" xmlns:xlink="http://www.w3.org/1999/xlink" width="133.547" height="17.648" viewBox="0 0 133.547 17.648"><path fill="#FFF" d="M0 .316V17.38h11.11v-2.556h-8.1V9.996h7.337V7.43h-7.37V2.87h7.792V.317"/><defs><path id="a" d="M0 0h133.547v17.648H0z"/></defs><clipPath id="b"><use xlink:href="#a" overflow="visible"/></clipPath><path clip-path="url(#b)" fill="#FFF" d="M12.55 17.38L19.406.316h3.023l6.913 17.062H25.98l-1.652-4.16h-6.89l-1.618 4.16h-3.27zm4.888-4.16l5.684-2.778c-.9-2.664-1.653-4.88-2.262-6.645-.508 1.477-2.392 6.47-3.422 9.422M39.47 17.648c-2.806 0-4.964-.766-6.476-2.297-1.51-1.53-2.267-3.604-2.267-6.222 0-.976.123-1.916.37-2.818.245-.902.62-1.736 1.124-2.502.505-.765 1.112-1.43 1.823-1.998C34.753 1.245 35.6.8 36.58.48 37.56.16 38.625 0 39.774 0c.804 0 1.537.056 2.197.17.66.113 1.226.275 1.694.486.47.21.817.385 1.043.52.227.138.477.312.75.523l-1.195 2.085c-1.117-.813-2.61-1.22-4.477-1.22-.984 0-1.867.185-2.648.552-.78.367-1.406.86-1.875 1.476-.47.617-.824 1.3-1.066 2.05-.243.752-.364 1.536-.364 2.357 0 .898.12 1.718.364 2.46.242.742.597 1.385 1.066 1.928.47.543 1.072.965 1.81 1.266.74.3 1.585.45 2.538.45.945 0 1.918-.147 2.918-.444v-4.03h-3.985V8.084h7.008v8.262c-1.944.868-3.972 1.3-6.08 1.3M49.746 17.38V.316h2.977v14.507h7.898v2.555M63.492 17.38V.316h10.77V2.87H66.47v4.56h7.37v2.566h-7.336v4.828h8.098v2.555M78.13 17.38V.316h10.768V2.87h-7.793v4.56h7.372v2.566H81.14v4.828h8.098v2.555M96.457 17.38v-6.6L90.375.318h3.387l4.23 7.816 4.195-7.816h3.47L99.433 10.77v6.61M107.766 17.38V.316h10.77V2.87h-7.794v4.56h7.37v2.566h-7.335v4.828h8.098v2.555M127.477 17.648c-1.172 0-2.3-.172-3.387-.516s-1.94-.82-2.566-1.43l1.267-2.133c.555.43 1.275.792 2.162 1.09s1.666.444 2.34.444c1.053 0 1.832-.195 2.336-.586s.756-.984.756-1.78c0-.314-.023-.565-.07-.757s-.152-.39-.315-.597c-.166-.207-.41-.398-.734-.574s-.76-.362-1.307-.558c-.235-.078-.632-.207-1.19-.387s-.967-.317-1.225-.41c-1.406-.532-2.426-1.16-3.06-1.88-.632-.724-.948-1.702-.948-2.937 0-1 .264-1.855.79-2.566.528-.71 1.23-1.235 2.105-1.57.875-.336 1.875-.504 3-.504 1.523 0 2.707.148 3.55.445.845.297 1.643.805 2.393 1.523l-1.524 1.97c-.96-.915-2.292-1.372-3.995-1.372-.93 0-1.686.16-2.268.48-.582.32-.873.81-.873 1.465 0 .32.027.583.082.79s.17.41.346.61c.176.2.428.382.756.55s.766.35 1.313.545c.196.07.605.205 1.226.405.62.2 1.084.357 1.39.474 1.39.555 2.358 1.192 2.905 1.91.548.72.82 1.72.82 3 0 .853-.167 1.6-.503 2.245s-.793 1.15-1.37 1.517-1.22.64-1.923.82-1.465.27-2.277.27"/></svg>