<?xml version="1.0" standalone="no"?>
<!DOCTYPE svg PUBLIC "-//W3C//DTD SVG 1.1//EN" "http://www.w3.org/Graphics/SVG/1.1/DTD/svg11.dtd" >
<svg>
<metadata>
Created by FontForge 20090914 at Tue Nov  3 17:12:35 2020
 By www-data
Copyright (c) 1998, Adobe
</metadata>
<defs>
<font id="GillSansMT-Bk" horiz-adv-x="323" >
  <font-face 
    font-family="Gill Sans MT Book"
    font-weight="350"
    font-stretch="normal"
    units-per-em="1000"
    panose-1="2 0 5 3 0 0 0 0 0 0"
    ascent="800"
    descent="-200"
    x-height="449"
    cap-height="682"
    bbox="-178 -230.003 1039 911.005"
    underline-thickness="50"
    underline-position="-50"
    unicode-range="U+0020-U+FB04"
  />
<missing-glyph horiz-adv-x="500" 
d="M12 0v665h475v-665h-475zM88 618l162 -243l161 243h-323zM60 575v-484l40 61l80 120l41 61zM440 575l-162 -242l162 -243v485zM411 48l-161 242l-162 -242h323z" />
    <glyph glyph-name=".notdef" horiz-adv-x="500" 
d="M12 0v665h475v-665h-475zM88 618l162 -243l161 243h-323zM60 575v-484l40 61l80 120l41 61zM440 575l-162 -242l162 -243v485zM411 48l-161 242l-162 -242h323z" />
    <glyph glyph-name="space" unicode=" " horiz-adv-x="250" 
 />
    <glyph glyph-name="exclam" unicode="!" horiz-adv-x="240" 
d="M120 691c32 0 48 -42 48 -126c0 -58 -5 -124 -15 -198s-21 -111 -33 -111s-23 37 -33 111s-15 140 -15 198c0 84 16 126 48 126zM120 99c14.667 0 27.334 -5.33105 38.001 -15.998s16 -23.334 16 -38.001c0 -15.333 -5.33301 -28.166 -16 -38.499
s-23.334 -15.5 -38.001 -15.5s-27.334 5.16699 -38.001 15.5s-16 23.166 -16 38.499s5.33301 28.166 16 38.499s23.334 15.5 38.001 15.5z" />
    <glyph glyph-name="quotedbl" unicode="&#x22;" 
d="M220 431l-20 135v116h69v-116l-20 -135h-29zM74 431l-20 135v116h69v-116l-20 -135h-29z" />
    <glyph glyph-name="numbersign" unicode="#" horiz-adv-x="667" 
d="M43 493h159l43 198h60l-43 -198h206l41 198h60l-41 -198h96v-60h-109l-37 -184h146v-60h-158l-43 -198h-60l43 198h-206l-42 -198h-60l42 198h-97v60h110l37 184h-147v60zM455 433h-205l-38 -184h206z" />
    <glyph glyph-name="dollar" unicode="$" horiz-adv-x="531" 
d="M462 598l0.000976562 -83.998c-47.333 41.333 -100.666 66.666 -159.999 75.999v-229c65.333 -19.333 113.5 -45.5 144.5 -78.5s46.5 -69.833 46.5 -110.5c0 -14.667 -2.83301 -30.5 -8.5 -47.5s-15 -35.167 -28 -54.5s-32.833 -36.333 -59.5 -51
s-58.334 -24 -95.001 -28v-109h-65v109c-69.333 6 -134 31 -194 75v89c34 -27.333 64.667 -48.333 92 -63s61.333 -25.334 102 -32.001v246c-24 7.33301 -45.5 15.333 -64.5 24s-38.833 20 -59.5 34s-36.834 31.5 -48.501 52.5s-17.5 44.5 -17.5 70.5
c0 38.667 14.5 74.667 43.5 108s77.833 54.333 146.5 63v33h65v-33c66 -8 119.333 -28 160 -60zM237.001 381.002v208.998c-32 -1.33301 -59.5 -11.166 -82.5 -29.499s-34.5 -41.166 -34.5 -68.499c0 -16 3 -29.833 9 -41.5s15.333 -22 28 -31s24.5 -16 35.5 -21
s25.833 -10.833 44.5 -17.5zM302.001 281v-220.002c35.333 3.33301 63.5 14.833 84.5 34.5s31.5 42.834 31.5 69.501c0 30.667 -8.66699 53.334 -26 68.001s-47.333 30.667 -90 48z" />
    <glyph glyph-name="percent" unicode="%" horiz-adv-x="698" 
d="M514 303c42.667 0 79.334 -15.167 110.001 -45.5s46 -67.166 46 -110.499s-15.333 -80.166 -46 -110.499s-67.334 -45.5 -110.001 -45.5s-79.334 15.167 -110.001 45.5s-46 67.166 -46 110.499s15.333 80.166 46 110.499s67.334 45.5 110.001 45.5zM514 49
c26.667 0 49.667 9.5 69 28.5s29 42.167 29 69.5s-9.66699 50.5 -29 69.5s-42.333 28.5 -69 28.5s-49.667 -9.5 -69 -28.5s-29 -42.167 -29 -69.5s9.66699 -50.5 29 -69.5s42.333 -28.5 69 -28.5zM184 691c42.667 0 79.334 -15.167 110.001 -45.5s46 -67.166 46 -110.499
s-15.333 -80.166 -46 -110.499s-67.334 -45.5 -110.001 -45.5s-79.334 15.167 -110.001 45.5s-46 67.166 -46 110.499s15.333 80.166 46 110.499s67.334 45.5 110.001 45.5zM184 437c26.667 0 49.667 9.5 69 28.5s29 42.167 29 69.5s-9.66699 50.5 -29 69.5
s-42.333 28.5 -69 28.5s-49.667 -9.5 -69 -28.5s-29 -42.167 -29 -69.5s9.66699 -50.5 29 -69.5s42.333 -28.5 69 -28.5zM630 682l-499 -682h-63l499 682h63z" />
    <glyph glyph-name="ampersand" unicode="&#x26;" horiz-adv-x="625" 
d="M479 153l138 -152.999h-96l-91 100l-12 -11.5l-17.5 -16.5c-4.33301 -4 -11.333 -9.83301 -21 -17.5s-18.5 -14 -26.5 -19s-18 -10.5 -30 -16.5s-23.833 -10.833 -35.5 -14.5s-24.834 -6.83398 -39.501 -9.50098s-29.667 -4 -45 -4c-46 0 -86.333 15.333 -121 46
s-52 69.667 -52 117c0 41.333 14.833 79.333 44.5 114s69.834 64.667 120.501 90c-54 58.667 -81 111.667 -81 159c0 44 15.333 80.333 46 109s70.667 43 120 43c48.667 0 87.334 -14.667 116.001 -44s43 -63.333 43 -102c0 -22.667 -4.33301 -44 -13 -64
s-21.334 -37.667 -38.001 -53s-30.5 -27.166 -41.5 -35.499s-24.833 -17.5 -41.5 -27.5l125 -136c27.333 35.333 52 79.666 74 132.999h77c-23.333 -66.667 -57.333 -129 -102 -187zM259 394.001c72.667 33.333 109.002 75 109.002 125c0 22 -7.83301 41.5 -23.5 58.5
s-37.834 25.5 -66.501 25.5c-30.667 0 -53.834 -8.5 -69.501 -25.5s-23.5 -35.5 -23.5 -55.5c0 -38 24.667 -80.667 74 -128zM382.002 153.001l-141.999 154c-30 -19.333 -54.333 -36.333 -73 -51s-31.834 -28 -39.501 -40s-12.5 -21.667 -14.5 -29s-3 -16.333 -3 -27
c0 -28 9.33301 -51.333 28 -70s44.334 -28 77.001 -28c23.333 0 46.166 5.16699 68.499 15.5s39.333 20.5 51 30.5s27.5 25 47.5 45z" />
    <glyph glyph-name="quotesingle" unicode="'" horiz-adv-x="198" 
d="M85 431l-20 135v116h69v-116l-20 -135h-29z" />
    <glyph glyph-name="parenleft" unicode="(" horiz-adv-x="333" 
d="M321 -230l-52.999 -0.00195312c-24 27.333 -43.5 51 -58.5 71s-34.667 50.5 -59 91.5s-43 86.833 -56 137.5s-19.5 104.334 -19.5 161.001c0 45.333 5.16699 89.833 15.5 133.5s21.666 80.334 33.999 110.001s29.333 61 51 94s37.834 56.167 48.501 69.5l44 53h53
c-114 -132 -171 -285.333 -171 -460c0 -94.667 16.167 -181.667 48.5 -261s73.166 -146 122.499 -200z" />
    <glyph glyph-name="parenright" unicode=")" horiz-adv-x="333" 
d="M12 691l52.999 0.00195312c24 -27.333 43.5 -51 58.5 -71s34.667 -50.5 59 -91.5s43 -86.833 56 -137.5s19.5 -104.334 19.5 -161.001c0 -45.333 -5.16699 -89.833 -15.5 -133.5s-21.666 -80.334 -33.999 -110.001s-29.333 -61 -51 -94s-37.834 -56.167 -48.501 -69.5
l-44 -53h-53c114 132 171 285.333 171 460c0 94.667 -16.167 181.667 -48.5 261s-73.166 146 -122.499 200z" />
    <glyph glyph-name="asterisk" unicode="*" horiz-adv-x="375" 
d="M212 523l71.998 68c14 14 27 21 39 21c6.66699 0 12.667 -2.83301 18 -8.5s8 -12.834 8 -21.501c0 -9.33301 -3 -16.833 -9 -22.5s-16.667 -11.167 -32 -16.5l-91 -33c2.66699 -7.33301 2.66699 -13.666 0 -18.999l86 -31c31.333 -10.667 47 -24.667 47 -42
c0 -6 -2.66699 -12.5 -8 -19.5s-12 -10.5 -20 -10.5c-12.667 0 -28.667 9.66699 -48 29l-62 62c-5.33301 -5.33301 -11 -8.33301 -17 -9l17 -91c2.66699 -16 4 -29.667 4 -41c0 -7.33301 -2.33301 -14.166 -7 -20.499s-11.667 -9.5 -21 -9.5c-20 0 -30 10.333 -30 31
c0 4 2.33301 18 7 42l17 89c-6.66699 1.33301 -12 4.33301 -16 9l-67 -62c-20.667 -18.667 -36 -28 -46 -28c-9.33301 0 -16.333 3.33301 -21 10s-7 13.667 -7 21c0 8 3.33301 14.833 10 20.5s20.334 12.167 41.001 19.5l84 31c-1.33301 2.66699 -2 5.66699 -2 9
c0 2.66699 0.666992 6 2 10l-96 36c-24.667 9.33301 -37 21.333 -37 36c0 8.66699 2.83301 16 8.5 22s12.167 9 19.5 9c10.667 0 23.334 -7.33301 38.001 -22l73 -68c4 5.33301 9.33301 8 16 8l-16 86c-4 19.333 -6 32 -6 38c0 24 9.66699 36 29 36c18.667 0 28 -11 28 -33
c0 -8.66699 -1.66699 -22.334 -5 -41.001l-17 -86c5.33301 0.666992 11 -2 17 -8z" />
    <glyph glyph-name="plus" unicode="+" horiz-adv-x="667" 
d="M68 373h233v233h65v-233h233v-65h-233v-233h-65v233h-233v65z" />
    <glyph glyph-name="comma" unicode="," horiz-adv-x="240" 
d="M75 -121l-0.00195312 15.998c27.333 27.333 39 57.333 35 90c-29.333 9.33301 -44 28 -44 56c0 17.333 5.16699 31.333 15.5 42s21.833 16 34.5 16c18.667 0 33 -7.66699 43 -23s15 -34.666 15 -57.999c0 -10.667 -1.16699 -21.667 -3.5 -33
s-6.66602 -24.166 -12.999 -38.499s-16.666 -27.5 -30.999 -39.5s-31.5 -21.333 -51.5 -28z" />
    <glyph glyph-name="hyphen" unicode="-" 
d="M282 259v-46h-241v46h241z" />
    <glyph glyph-name="period" unicode="." horiz-adv-x="240" 
d="M120 99c14.667 0 27.334 -5.16699 38.001 -15.5s16 -23.166 16 -38.499s-5.33301 -28.166 -16 -38.499s-23.334 -15.5 -38.001 -15.5s-27.334 5.16699 -38.001 15.5s-16 23.166 -16 38.499s5.33301 28.166 16 38.499s23.334 15.5 38.001 15.5z" />
    <glyph glyph-name="slash" unicode="/" horiz-adv-x="531" 
d="M407 691h67l-350 -700h-67z" />
    <glyph glyph-name="zero" unicode="0" horiz-adv-x="500" 
d="M31 341c0 108 21.167 193.333 63.5 256s94.166 94 155.499 94s113.166 -31.333 155.499 -94s63.5 -148 63.5 -256s-21.167 -193.333 -63.5 -256s-94.166 -94 -155.499 -94s-113.166 31.333 -155.499 94s-63.5 148 -63.5 256zM394 341c0 78 -13 144.167 -39 198.5
s-61 81.5 -105 81.5s-79 -27.167 -105 -81.5s-39 -120.5 -39 -198.5s13 -144.167 39 -198.5s60.667 -81.5 104 -81.5c44.667 0 80 27 106 81s39 120.333 39 199z" />
    <glyph glyph-name="one" unicode="1" horiz-adv-x="500" 
d="M287 682v-682h-75v682h75z" />
    <glyph glyph-name="two" unicode="2" horiz-adv-x="500" 
d="M180 71l288.002 -0.00292969v-71h-433v4c61.333 64.667 119.666 133.667 174.999 207c45.333 60.667 77.666 111.5 96.999 152.5s29 80.5 29 118.5c0 46 -14.333 80.5 -43 103.5s-59.667 34.5 -93 34.5c-54.667 0 -105.667 -28 -153 -84v91c50 42.667 103.667 64 161 64
c56.667 0 104.667 -19.167 144 -57.5s59 -86.166 59 -143.499c0 -32.667 -5.83301 -66.167 -17.5 -100.5s-30.5 -71.166 -56.5 -110.499s-49.333 -72.666 -70 -99.999s-49.667 -63.333 -87 -108z" />
    <glyph glyph-name="three" unicode="3" horiz-adv-x="500" 
d="M54 28l-0.000976562 75.998c48.667 -28 99.667 -42 153 -42c34.667 0 66.5 10.667 95.5 32s43.5 53 43.5 95c0 14 -2.33301 27.667 -7 41s-12.5 27.333 -23.5 42s-28.167 26.5 -51.5 35.5s-51.666 13.5 -84.999 13.5v69c28.667 0 53.5 3.83301 74.5 11.5
s36.333 16.334 46 26.001s17.167 21.167 22.5 34.5s8.16602 22.833 8.49902 28.5s0.5 11.5 0.5 17.5c0 34 -12.5 61.5 -37.5 82.5s-56.833 31.5 -95.5 31.5c-46 0 -90 -13 -132 -39v71c42.667 24.667 88.334 37 137.001 37c59.333 0 108 -16 146 -48s57 -75 57 -129
c0 -24 -3.66699 -45.5 -11 -64.5s-17.833 -34.5 -31.5 -46.5s-24.5 -20.5 -32.5 -25.5s-18.333 -10.5 -31 -16.5c80.667 -30 121 -86.333 121 -169c0 -63.333 -21.667 -112.666 -65 -147.999s-92.333 -53 -147 -53c-56 0 -107.667 12.333 -155 37z" />
    <glyph glyph-name="four" unicode="4" horiz-adv-x="500" 
d="M384 691v-386h86v-61h-86v-244h-71v244h-300v30l343 417h28zM122 305h191v233z" />
    <glyph glyph-name="five" unicode="5" horiz-adv-x="500" 
d="M395 682l-0.000976562 -66h-226v-195c13.333 1.33301 25.333 2 36 2c72 0 127.833 -20.5 167.5 -61.5s59.5 -91.167 59.5 -150.5c0 -62 -20.5 -114.167 -61.5 -156.5s-94.833 -63.5 -161.5 -63.5c-54 0 -108.333 14.667 -163 44v79c56.667 -34.667 109 -52 157 -52
c45.333 0 82.333 14.667 111 44s43 64.333 43 105c0 40 -15 74.333 -45 103s-72.333 43 -127 43c-35.333 0 -63.666 -3.66699 -84.999 -11v336h295z" />
    <glyph glyph-name="six" unicode="6" horiz-adv-x="500" 
d="M331 691l44 -56.0039c-65.333 -52.667 -108.666 -90 -129.999 -112c-49.333 -52 -83 -112.667 -101 -182c41.333 27.333 84.333 41 129 41c55.333 0 101 -19.167 137 -57.5s54 -83.166 54 -134.499c0 -59.333 -19.667 -107.333 -59 -144s-86.333 -55 -141 -55
c-64.667 0 -116.167 22.333 -154.5 67s-57.5 102.334 -57.5 173.001c0 47.333 7.16699 93.333 21.5 138s31.166 82.334 50.499 113.001s43.5 61.334 72.5 92.001s52.667 53.5 71 68.5s39.5 31.167 63.5 48.5zM129 260.996
c-1.33301 -14.667 -1.99902 -28.666 -1.99902 -41.999c0 -42.667 12 -79.834 36 -111.501s57.333 -47.5 100 -47.5c34.667 0 64.334 11.333 89.001 34s37 53 37 91c0 34.667 -10.833 64.5 -32.5 89.5s-54.834 37.5 -99.501 37.5c-48.667 0 -91.334 -17 -128.001 -51z" />
    <glyph glyph-name="seven" unicode="7" horiz-adv-x="500" 
d="M482 682l-310 -691l-66 29l267 591h-334v71h443z" />
    <glyph glyph-name="eight" unicode="8" horiz-adv-x="500" 
d="M358 352c33.333 -20 57.998 -43.001 73.998 -69.001s24 -58.667 24 -98c0 -54.667 -19.5 -100.667 -58.5 -138s-88.167 -56 -147.5 -56c-58 0 -106.833 18.833 -146.5 56.5s-59.5 83.5 -59.5 137.5c0 68.667 33 124.334 99 167.001c-58.667 43.333 -88 94 -88 152
c0 52 19.333 96.167 58 132.5s84.334 54.5 137.001 54.5s98.334 -18.167 137.001 -54.5s58 -80.5 58 -132.5c0 -65.333 -29 -116 -87 -152zM249.998 382.999c33.333 0 61.666 11.833 84.999 35.5s35 51.834 35 84.501s-11.667 60.667 -35 84s-51.666 35 -84.999 35
s-61.666 -11.667 -84.999 -35s-35 -51.333 -35 -84s11.667 -60.834 35 -84.501s51.666 -35.5 84.999 -35.5zM249.998 311.999c-41.333 0 -73.5 -12.666 -96.5 -37.999s-34.5 -54.333 -34.5 -87c0 -36 12.333 -65.833 37 -89.5s56 -35.5 94 -35.5c39.333 0 71 12.667 95 38
s36 55 36 89c0 37.333 -12.667 67.166 -38 89.499s-56.333 33.5 -93 33.5z" />
    <glyph glyph-name="nine" unicode="9" horiz-adv-x="500" 
d="M169 -9l-44 56.0039c65.333 52.667 108.666 90 129.999 112c49.333 52 83 112.667 101 182c-41.333 -27.333 -84.333 -41 -129 -41c-55.333 0 -101 19.167 -137 57.5s-54 83.166 -54 134.499c0 59.333 19.667 107.333 59 144s86.333 55 141 55
c64.667 0 116.167 -22.333 154.5 -67s57.5 -102.334 57.5 -173.001c0 -47.333 -7.16699 -93.333 -21.5 -138s-31.166 -82.334 -50.499 -113.001s-43.5 -61.334 -72.5 -92.001s-52.667 -53.5 -71 -68.5s-39.5 -31.167 -63.5 -48.5zM371 421.004
c1.33301 14.667 1.99902 28.666 1.99902 41.999c0 42.667 -12 79.834 -36 111.501s-57.333 47.5 -100 47.5c-34.667 0 -64.334 -11.333 -89.001 -34s-37 -53 -37 -91c0 -34.667 10.833 -64.5 32.5 -89.5s54.834 -37.5 99.501 -37.5c48.667 0 91.334 17 128.001 51z" />
    <glyph glyph-name="colon" unicode=":" horiz-adv-x="240" 
d="M120 99c14.667 0 27.334 -5.16699 38.001 -15.5s16 -23.166 16 -38.499s-5.33301 -28.166 -16 -38.499s-23.334 -15.5 -38.001 -15.5s-27.334 5.16699 -38.001 15.5s-16 23.166 -16 38.499s5.33301 28.166 16 38.499s23.334 15.5 38.001 15.5zM120 458
c14.667 0 27.334 -5.33301 38.001 -16s16 -23.334 16 -38.001s-5.33301 -27.334 -16 -38.001s-23.334 -16 -38.001 -16s-27.334 5.33301 -38.001 16s-16 23.334 -16 38.001s5.33301 27.334 16 38.001s23.334 16 38.001 16z" />
    <glyph glyph-name="semicolon" unicode=";" horiz-adv-x="240" 
d="M120 458c14.667 0 27.334 -5.33301 38.001 -16s16 -23.334 16 -38.001s-5.33301 -27.334 -16 -38.001s-23.334 -16 -38.001 -16s-27.334 5.33301 -38.001 16s-16 23.334 -16 38.001s5.33301 27.334 16 38.001s23.334 16 38.001 16zM75 -121l-0.00195312 15.998
c27.333 27.333 39 57.333 35 90c-29.333 9.33301 -44 28 -44 56c0 17.333 5.16699 31.333 15.5 42s21.833 16 34.5 16c18.667 0 33 -7.66699 43 -23s15 -34.666 15 -57.999c0 -10.667 -1.16699 -21.667 -3.5 -33s-6.66602 -24.166 -12.999 -38.499
s-16.666 -27.5 -30.999 -39.5s-31.5 -21.333 -51.5 -28z" />
    <glyph glyph-name="less" unicode="&#x3c;" horiz-adv-x="667" 
d="M68 370l531 223v-69l-444 -183l444 -183v-69l-531 223v58z" />
    <glyph glyph-name="equal" unicode="=" horiz-adv-x="667" 
d="M68 485h531v-65h-531v65zM68 261h531v-65h-531v65z" />
    <glyph glyph-name="greater" unicode="&#x3e;" horiz-adv-x="667" 
d="M599 312l-531 -223v69l444 183l-444 183v69l531 -223v-58z" />
    <glyph glyph-name="question" unicode="?" horiz-adv-x="313" 
d="M51 589h-5l44 93c14.667 6 30.334 9 47.001 9c36 0 66.667 -13.833 92 -41.5s38 -61.834 38 -102.501c0 -43.333 -21.333 -101 -64 -173l-16 -27c-26 -43.333 -42.5 -72.333 -49.5 -87s-10.5 -28.667 -10.5 -42c0 -9.33301 1 -17 3 -23l7 -19
c0 -4.66699 -2.66699 -7 -8 -7c-4 0 -9.83301 4.16699 -17.5 12.5s-15.167 20 -22.5 35s-11 30.167 -11 45.5c0 22 4.66699 42.833 14 62.5s29.333 54.167 60 103.5c26 40.667 39 79.334 39 116.001c0 22.667 -6.83301 41.667 -20.5 57s-30.834 23 -51.501 23
c-27.333 0 -50 -11.667 -68 -35zM121 99c15.333 0 28.1641 -5.16895 38.4971 -15.502s15.5 -23.166 15.5 -38.499s-5.16699 -28.166 -15.5 -38.499s-23.166 -15.5 -38.499 -15.5s-28.166 5.16699 -38.499 15.5s-15.5 23.166 -15.5 38.499c0 14.667 5.33301 27.334 16 38.001
s23.334 16 38.001 16z" />
    <glyph glyph-name="at" unicode="@" horiz-adv-x="906" 
d="M608 491h74.9971l-77 -360c-6.66699 -26.667 -10 -46 -10 -58c0 -7.33301 2.83301 -13.333 8.5 -18s12.167 -7 19.5 -7c16 0 34.5 6.5 55.5 19.5s41.833 30.667 62.5 53s38 51.833 52 88.5s21 75.334 21 116.001c0 35.333 -6.33301 70.666 -19 105.999
s-31.5 68.5 -56.5 99.5s-59 56.167 -102 75.5s-91.5 29 -145.5 29c-71.333 0 -137.5 -15.333 -198.5 -46s-111.333 -77.334 -151 -140.001s-59.5 -135.667 -59.5 -219c0 -120.667 38.167 -213.834 114.5 -279.501s173.166 -98.5 290.499 -98.5
c108.667 0 197.334 26.667 266.001 80c18.667 14.667 41.334 38 68.001 70h69c-36 -63.333 -89 -113.5 -159 -150.5s-151 -55.5 -243 -55.5c-140 0 -252 38.833 -336 116.5s-126 182.5 -126 314.5c0 92.667 21.167 174.834 63.5 246.501s97.5 125.834 165.5 162.501
s142.333 55 223 55c61.333 0 116.333 -10 165 -30s86.667 -44.5 114 -73.5s50 -61.5 68 -97.5s30 -68.167 36 -96.5s9 -53.833 9 -76.5c0 -87.333 -28.833 -164.5 -86.5 -231.5s-120.167 -100.5 -187.5 -100.5c-59.333 0 -83.666 28.667 -72.999 86
c-49.333 -57.333 -102.666 -86 -159.999 -86c-51.333 0 -92.833 21.667 -124.5 65s-47.5 91.333 -47.5 144c0 48 10.5 95.667 31.5 143s51.167 87 90.5 119s82 48 128 48c36 0 67.5 -9.66699 94.5 -29s45.5 -40.333 55.5 -63zM565.997 305
c0 41.333 -10.834 75.168 -32.501 101.501s-50.167 39.5 -85.5 39.5c-51.333 0 -94.333 -27.167 -129 -81.5s-52 -113.166 -52 -176.499c0 -40.667 11.333 -74.834 34 -102.501s50 -41.5 82 -41.5c48.667 0 91.334 28.167 128.001 84.5s55 115.166 55 176.499z" />
    <glyph glyph-name="A" unicode="A" horiz-adv-x="668" 
d="M355 686l311 -686h-78l-99 219h-312l-97 -219h-78l303 686h50zM458 285l-128 283l-124 -283h252z" />
    <glyph glyph-name="B" unicode="B" horiz-adv-x="552" 
d="M80 682l171 -0.000976562c21.333 0 41.833 -1.66699 61.5 -5s39.167 -9.16602 58.5 -17.499s36 -19 50 -32s25.333 -30 34 -51s13 -44.833 13 -71.5c0 -22.667 -3.83301 -43.334 -11.5 -62.001s-17.5 -33.667 -29.5 -45s-22.667 -19.833 -32 -25.5
s-18.666 -10.5 -27.999 -14.5c58.667 -11.333 100.167 -34 124.5 -68s36.5 -69.667 36.5 -107c0 -45.333 -17.333 -87.166 -52 -125.499s-84.334 -57.5 -149.001 -57.5h-247v682zM229 615.999l-74.001 0.000976562v-238h74c106 0 159 40.333 159 121
c0 41.333 -12.667 71.166 -38 89.499s-65.666 27.5 -120.999 27.5zM273.999 312h-119v-246h121c114.667 0 172 41 172 123c0 34 -13.5 63 -40.5 87s-71.5 36 -133.5 36z" />
    <glyph glyph-name="C" unicode="C" horiz-adv-x="694" 
d="M650 634v-80.999c-82 44.667 -161 67 -237 67c-81.333 0 -149.333 -26.667 -204 -80s-82 -120.333 -82 -201s27 -147 81 -199s121.333 -78 202 -78c82 0 164.333 24 247 72v-81c-77.333 -41.333 -159 -62 -245 -62c-107.333 0 -195 33.667 -263 101
s-102 149.666 -102 246.999c0 103.333 36 187.833 108 253.5s156 98.5 252 98.5c76 0 157 -19 243 -57z" />
    <glyph glyph-name="D" unicode="D" horiz-adv-x="746" 
d="M80 682h211c56.667 0 108.834 -6.33301 156.501 -19s90.667 -32 129 -58s68.333 -61.5 90 -106.5s32.5 -97.5 32.5 -157.5s-10.833 -112.5 -32.5 -157.5s-51.667 -80.5 -90 -106.5s-81.333 -45.333 -129 -58s-99.834 -19 -156.501 -19h-211v682zM155 616v-549.998h141
c31.333 0 60.666 2 87.999 6s55.833 12.167 85.5 24.5s55.167 28.166 76.5 47.499s38.833 46 52.5 80s20.5 73 20.5 117s-6.83301 83 -20.5 117s-31.167 60.667 -52.5 80s-46.833 35.166 -76.5 47.499s-58.167 20.5 -85.5 24.5s-56.666 6 -87.999 6h-141z" />
    <glyph glyph-name="E" unicode="E" horiz-adv-x="499" 
d="M460 682v-66h-305v-239h296v-66h-296v-245h313v-66h-388v682h380z" />
    <glyph glyph-name="F" unicode="F" horiz-adv-x="458" 
d="M436 682v-66h-281v-224h267v-66h-267v-326h-75v682h356z" />
    <glyph glyph-name="G" unicode="G" horiz-adv-x="726" 
d="M651 633l-0.000976562 -80.001c-75.333 46.667 -156 70 -242 70c-81.333 0 -148.666 -27.167 -201.999 -81.5s-80 -121.166 -80 -200.499c0 -87.333 28.5 -156.5 85.5 -207.5s122.167 -76.5 195.5 -76.5c54 0 114.667 12.667 182 38v162h-138v66h213v-275
c-86.667 -38 -170 -57 -250 -57c-111.333 0 -200.5 34.167 -267.5 102.5s-100.5 150.5 -100.5 246.5c0 98.667 34.167 181.834 102.5 249.501s156.5 101.5 264.5 101.5c30.667 0 61.5 -3.33301 92.5 -10s55.667 -13.334 74 -20.001s41.833 -16 70.5 -28z" />
    <glyph glyph-name="H" unicode="H" horiz-adv-x="729" 
d="M649 682v-682h-75v312h-419v-312h-75v682h75v-304h419v304h75z" />
    <glyph glyph-name="I" unicode="I" horiz-adv-x="240" 
d="M157 682v-682h-75v682h75z" />
    <glyph glyph-name="J" unicode="J" horiz-adv-x="234" 
d="M157 682l-0.000976562 -671.999c0 -67.333 -9 -116 -27 -146c-31.333 -52.667 -80 -79 -146 -79c-10 0 -17.667 0.333008 -23 1l-13 72c10.667 -1.33301 20 -2 28 -2c20 0 36.833 3.33301 50.5 10s24.167 14.5 31.5 23.5s12.833 21.667 16.5 38
s5.83398 30.666 6.50098 42.999s1 28.5 1 48.5v663h75z" />
    <glyph glyph-name="K" unicode="K" horiz-adv-x="598" 
d="M556 682l-310 -331l363 -351h-101l-353 340v-340h-75v682h75v-326l308 326h93z" />
    <glyph glyph-name="L" unicode="L" horiz-adv-x="482" 
d="M155 682v-616h322v-66h-397v682h75z" />
    <glyph glyph-name="M" unicode="M" horiz-adv-x="789" 
d="M709 682v-682h-75v568l-235 -291h-8l-236 291v-568h-75v682h72l243 -299l242 299h72z" />
    <glyph glyph-name="N" unicode="N" horiz-adv-x="784" 
d="M704 682v-682h-64l-487 562v-562h-73v682h64l487 -562v562h73z" />
    <glyph glyph-name="O" unicode="O" horiz-adv-x="823" 
d="M407 -9c-100.667 0 -185.833 33.3311 -255.5 99.998s-104.5 150 -104.5 250c0 45.333 8.33301 88.833 25 130.5s40.167 78.834 70.5 111.501s68.833 58.834 115.5 78.501s97.667 29.5 153 29.5c108 0 195.833 -34.333 263.5 -103s101.5 -151 101.5 -247
c0 -100.667 -35.5 -184.167 -106.5 -250.5s-158.5 -99.5 -262.5 -99.5zM406.001 61.998c82 0 150.834 26.5 206.501 79.5s83.5 120.167 83.5 201.5c0 72.667 -26 137 -78 193s-121 84 -207 84c-84.667 0 -153.167 -27.5 -205.5 -82.5s-78.5 -120.833 -78.5 -197.5
c0 -80.667 27.667 -147.167 83 -199.5s120.666 -78.5 195.999 -78.5z" />
    <glyph glyph-name="P" unicode="P" horiz-adv-x="516" 
d="M80 682h195c78.667 0 135.834 -17.833 171.501 -53.5s53.5 -80.167 53.5 -133.5s-17.833 -97.833 -53.5 -133.5s-92.834 -53.5 -171.501 -53.5h-120v-308h-75v682zM267 616h-112v-242h112c102 0 153 40.333 153 121s-51 121 -153 121z" />
    <glyph glyph-name="Q" unicode="Q" horiz-adv-x="823" 
d="M748 -54l5.99805 -5.00195l-79 -82c-111.333 10.667 -218.666 56 -321.999 136c-92 13.333 -166 52.666 -222 117.999s-84 141.333 -84 228c0 45.333 8.33301 88.833 25 130.5s40.167 78.834 70.5 111.501s68.833 58.834 115.5 78.501s97.667 29.5 153 29.5
c108 0 195.833 -34.333 263.5 -103s101.5 -150.667 101.5 -246c0 -86.667 -27.667 -162.167 -83 -226.5s-128.666 -104.166 -219.999 -119.499c32.667 -16 57.167 -27.667 73.5 -35s37.5 -14.833 63.5 -22.5s50 -11.5 72 -11.5c20.667 0 42.667 6.33301 66 19z
M405.998 61.998c82 0 150.834 26.5 206.501 79.5s83.5 120.167 83.5 201.5c0 72.667 -26 137 -78 193s-121 84 -207 84c-84.667 0 -153.167 -27.5 -205.5 -82.5s-78.5 -120.833 -78.5 -197.5c0 -80.667 27.667 -147.167 83 -199.5s120.666 -78.5 195.999 -78.5z" />
    <glyph glyph-name="R" unicode="R" horiz-adv-x="592" 
d="M80 682h173.999c80 0 137.5 -18.167 172.5 -54.5s52.5 -79.166 52.5 -128.499c0 -81.333 -40.667 -137 -122 -167c22.667 -14.667 44.334 -35.834 65.001 -63.501s54.667 -78.834 102 -153.501c18.667 -29.333 44.667 -67.666 78 -114.999h-90l-65 103
c-27.333 44 -56.666 86 -87.999 126c-23.333 29.333 -46.333 50.5 -69 63.5s-51.334 19.5 -86.001 19.5h-49v-312h-75v682zM242.999 616l-87.998 -0.000976562v-238h88c49.333 0 87.666 10.333 114.999 31s41 50.334 41 89.001c0 36.667 -13.333 65.5 -40 86.5
s-65.334 31.5 -116.001 31.5z" />
    <glyph glyph-name="S" unicode="S" horiz-adv-x="458" 
d="M396 646l-0.00195312 -85.0049c-56 41.333 -107.667 62 -155 62c-25.333 0 -47 -4.16699 -65 -12.5s-31.167 -18.666 -39.5 -30.999s-14.166 -23.666 -17.499 -33.999s-5 -19.5 -5 -27.5c0 -16.667 3.5 -31.667 10.5 -45s18 -25.833 33 -37.5s28 -20.667 39 -27
s26.5 -14.5 46.5 -24.5c70 -34.667 117.667 -65.5 143 -92.5s38 -64.833 38 -113.5c0 -59.333 -20.5 -105.333 -61.5 -138s-86.833 -49 -137.5 -49c-60 0 -119.667 20.667 -179 62v92c57.333 -57.333 116.333 -86 177 -86c42.667 0 74.5 12.333 95.5 37
s31.5 50.334 31.5 77.001c0 26 -9.66699 50 -29 72s-60.666 48 -123.999 78c-56 26.667 -96.167 54.834 -120.5 84.501s-36.5 63.834 -36.5 102.501c0 52.667 19.333 96 58 130s86.667 51 144 51c52 0 103.333 -15 154 -45z" />
    <glyph glyph-name="T" unicode="T" horiz-adv-x="594" 
d="M580 682v-66h-246v-616h-75v616h-246v66h567z" />
    <glyph glyph-name="U" unicode="U" horiz-adv-x="698" 
d="M638 682l0.000976562 -365.995c0 -48 -2.66699 -86 -8 -114s-15.333 -54.333 -30 -79c-19.333 -34 -49.666 -64.5 -90.999 -91.5s-94.333 -40.5 -159 -40.5c-15.333 0 -31.5 1.16699 -48.5 3.5s-37.833 7.16602 -62.5 14.499s-48.834 19.666 -72.501 36.999
s-43.834 38.666 -60.501 63.999c-18 27.333 -30.167 55.666 -36.5 84.999s-9.5 69.666 -9.5 120.999v366h75v-370c0 -50 4.16699 -88.833 12.5 -116.5s22.5 -52.167 42.5 -73.5c40 -42 93.333 -63 160 -63c48 0 88.167 10.833 120.5 32.5s55.833 47.5 70.5 77.5
s22 77.667 22 143v370h75z" />
    <glyph glyph-name="V" unicode="V" horiz-adv-x="601" 
d="M599 682l-287 -689h-19l-291 689h76l224 -528l222 528h75z" />
    <glyph glyph-name="W" unicode="W" horiz-adv-x="1042" 
d="M1039 682l-274 -689h-18l-226 567l-226 -567h-19l-273 689h75l208 -518l208 518h55l208 -518l207 518h75z" />
    <glyph glyph-name="X" unicode="X" horiz-adv-x="698" 
d="M679 682l-282 -331l300 -351h-93l-254 297l-256 -297h-93l303 351l-284 331h93l237 -277l237 277h92z" />
    <glyph glyph-name="Y" unicode="Y" horiz-adv-x="599" 
d="M596 682l-260 -318v-364h-75v364l-258 318h91l204 -252l207 252h91z" />
    <glyph glyph-name="Z" unicode="Z" horiz-adv-x="646" 
d="M39 682h581v-9l-472 -607h474v-66h-609v7l474 609h-448v66z" />
    <glyph glyph-name="bracketleft" unicode="[" 
d="M309 682v-64h-156v-775h156v-64h-229v903h229z" />
    <glyph glyph-name="backslash" unicode="\" horiz-adv-x="531" 
d="M124 691l350 -700h-67l-350 700h67z" />
    <glyph glyph-name="bracketright" unicode="]" 
d="M14 -221v64h156v775h-156v64h229v-903h-229z" />
    <glyph glyph-name="asciicircum" unicode="^" horiz-adv-x="563" 
d="M129 342l-61 13l196 327h35l196 -327l-60 -13l-154 259z" />
    <glyph glyph-name="underscore" unicode="_" horiz-adv-x="500" 
d="M-6 -75h512v-50h-512v50z" />
    <glyph glyph-name="grave" unicode="`" horiz-adv-x="333" 
d="M38 686h90l89 -157h-44z" />
    <glyph glyph-name="a" unicode="a" horiz-adv-x="438" 
d="M427 79l-0.00195312 -47c-38 -27.333 -67.667 -41 -89 -41c-26 0 -42.333 17 -49 51c-45.333 -34 -89 -51 -131 -51c-32 0 -59.333 10.833 -82 32.5s-34 48.834 -34 81.501c0 39.333 18.833 72.666 56.5 99.999s100.834 49 189.501 65v40c0 58 -29.667 87 -89 87
c-46 0 -92.667 -22 -140 -66v72c42.667 36.667 91.334 55 146.001 55c30 0 55.667 -4.83301 77 -14.5s37.166 -22.167 47.499 -37.5s17.5 -30.333 21.5 -45s6 -29.334 6 -44.001v-246c0 -9.33301 0.833008 -15.666 2.5 -18.999s4.83398 -5 9.50098 -5
c12.667 0 32 10.667 58 32zM287.998 89v135.999c-118 -21.333 -177 -59.666 -177 -114.999c0 -24 8.33301 -41.5 25 -52.5s33.667 -16.5 51 -16.5c33.333 0 67 16 101 48z" />
    <glyph glyph-name="b" unicode="b" horiz-adv-x="515" 
d="M65 25l-0.000976562 657h69v-281c34.667 26.667 66 43.667 94 51c15.333 4 31.333 6 48 6c60 0 107.833 -22 143.5 -66s53.5 -96.333 53.5 -157c0 -74 -21.833 -133.167 -65.5 -177.5s-102.5 -66.5 -176.5 -66.5c-57.333 0 -112.666 11.333 -165.999 34zM133.999 331
l0.00195312 -261.001c34 -12 68.333 -18 103 -18c47.333 0 86.666 16.833 117.999 50.5s47 75.834 47 126.501c0 48 -13.5 88 -40.5 120s-60.167 48 -99.5 48c-44.667 0 -87.334 -22 -128.001 -66z" />
    <glyph glyph-name="c" unicode="c" horiz-adv-x="429" 
d="M386 431l0.000976562 -74c-42.667 24.667 -83.667 37 -123 37c-36.667 0 -67 -10.667 -91 -32s-39.833 -44 -47.5 -68s-11.5 -47.667 -11.5 -71c0 -44 13.167 -83 39.5 -117s67.166 -51 122.499 -51c37.333 0 77.333 9.66699 120 29v-68
c-44 -16.667 -86.333 -25 -127 -25c-70.667 0 -126 21.5 -166 64.5s-60 98.167 -60 165.5c0 72 20.833 129.5 62.5 172.5s94.5 64.5 158.5 64.5c38.667 0 79.667 -9 123 -27z" />
    <glyph glyph-name="d" unicode="d" horiz-adv-x="513" 
d="M448 0h-158c-78.667 -0 -139.667 19.333 -183 58s-65 94 -65 166c0 66 19.833 121.5 59.5 166.5s94.167 67.5 163.5 67.5c33.333 0 71.333 -9 114 -27v251h69v-682zM379 61v307.002c-34.667 19.333 -69 29 -103 29c-52.667 0 -93 -16.333 -121 -49
s-42 -73.334 -42 -122.001c0 -52.667 16.167 -93.334 48.5 -122.001s75.5 -43 129.5 -43h88z" />
    <glyph glyph-name="e" unicode="e" horiz-adv-x="481" 
d="M446 236v-15.999h-333c0 -52 15.5 -93 46.5 -123s69.167 -45 114.5 -45c58.667 0 113.667 21 165 63v-70c-53.333 -36 -111 -54 -173 -54c-71.333 0 -126.5 22.833 -165.5 68.5s-58.5 101.167 -58.5 166.5c0 73.333 20.5 130.333 61.5 171s89.167 61 144.5 61
c56 0 103 -20.833 141 -62.5s57 -94.834 57 -159.501zM117 270.001h258.001c-4.66699 44 -19.334 76.167 -44.001 96.5s-51.667 30.5 -81 30.5c-30.667 0 -58.5 -10.5 -83.5 -31.5s-41.5 -52.833 -49.5 -95.5z" />
    <glyph glyph-name="f" unicode="f" horiz-adv-x="240" 
d="M311 677v-64.001c-21.333 8 -42 12 -62 12c-34.667 0 -60 -10.667 -76 -32s-24 -54.666 -24 -99.999v-44h84v-61h-84v-388h-69v388h-72v61h72v42c0 68 15 118.333 45 151s67.333 49 112 49c18 0 42.667 -4.66699 74 -14z" />
    <glyph glyph-name="g" unicode="g" horiz-adv-x="427" 
d="M419 449l0.000976562 -55h-97c36.667 -33.333 55 -70 55 -110c0 -38.667 -12.333 -70.5 -37 -95.5s-56.334 -42.167 -95.001 -51.5c-42.667 -10 -71.5 -18.333 -86.5 -25s-22.5 -16.667 -22.5 -30c0 -12.667 7.16699 -22.334 21.5 -29.001s39.833 -12.334 76.5 -17.001
c66 -8.66699 113.167 -23.334 141.5 -44.001s42.5 -49.667 42.5 -87c0 -44 -19.5 -77.5 -58.5 -100.5s-87.5 -34.5 -145.5 -34.5c-64.667 0 -115 12.5 -151 37.5s-54 56.167 -54 93.5c0 24.667 9.16699 47.834 27.5 69.501s49.833 36.5 94.5 44.5
c-20 7.33301 -35 16.833 -45 28.5s-15 22.167 -15 31.5c0 10 2 18.667 6 26s10.833 13.833 20.5 19.5s17.667 9.83398 24 12.501s16.833 6.66699 31.5 12c-13.333 5.33301 -25 11 -35 17s-21.333 14.5 -34 25.5s-22.5 25.333 -29.5 43s-10.5 37.5 -10.5 59.5
c0 19.333 2.83301 37.5 8.5 54.5s15.5 33.833 29.5 50.5s35.167 29.834 63.5 39.501s62.5 14.5 102.5 14.5h171zM314.001 289c0 28 -10 51.833 -30 71.5s-44.333 29.5 -73 29.5s-53.167 -9.83301 -73.5 -29.5s-30.5 -43.5 -30.5 -71.5c0 -24.667 9.5 -47.5 28.5 -68.5
s44.167 -31.5 75.5 -31.5s56.333 9.66699 75 29s28 43 28 71zM353.001 -98c0 19.333 -11.167 36.666 -33.5 51.999s-60.166 23 -113.499 23c-48.667 0 -82.834 -7.66699 -102.501 -23s-29.5 -32.666 -29.5 -51.999c0 -51.333 47.333 -77 142 -77
c42.667 0 76.167 7.33301 100.5 22s36.5 33 36.5 55z" />
    <glyph glyph-name="h" unicode="h" horiz-adv-x="492" 
d="M65 682l68.999 -0.000976562v-301c38.667 51.333 85.667 77 141 77c50 0 89.333 -17 118 -51s43 -80.333 43 -139v-268h-69v262c0 40.667 -8.66699 73.334 -26 98.001s-44.666 37 -81.999 37c-52 0 -93.667 -26.333 -125 -79v-318h-69v682z" />
    <glyph glyph-name="i" unicode="i" horiz-adv-x="199" 
d="M134 449v-449h-69v449h69zM100 632c12.667 0 23.334 -4.33301 32.001 -13s13 -19.334 13 -32.001s-4.33301 -23.334 -13 -32.001s-19.334 -13 -32.001 -13s-23.334 4.33301 -32.001 13s-13 19.334 -13 32.001s4.33301 23.334 13 32.001s19.334 13 32.001 13z" />
    <glyph glyph-name="j" unicode="j" horiz-adv-x="197" 
d="M134 449v-472.001c0 -59.333 -6 -102.666 -18 -129.999c-2.66699 -6.66699 -6.66699 -14.167 -12 -22.5s-15.5 -18.5 -30.5 -30.5s-31.833 -20 -50.5 -24l-40 53c34.667 6.66699 57 22.167 67 46.5s15 61.833 15 112.5v467h69zM100 631.999
c12.667 0 23.334 -4.33301 32.001 -13s13 -19.334 13 -32.001s-4.33301 -23.334 -13 -32.001s-19.334 -13 -32.001 -13s-23.334 4.33301 -32.001 13s-13 19.334 -13 32.001s4.33301 23.334 13 32.001s19.334 13 32.001 13z" />
    <glyph glyph-name="k" unicode="k" horiz-adv-x="460" 
d="M134 682v-682h-69v682h69zM447 449l-218 -216l258 -233h-94l-254 233l223 216h85z" />
    <glyph glyph-name="l" unicode="l" horiz-adv-x="199" 
d="M134 682v-682h-69v682h69z" />
    <glyph glyph-name="m" unicode="m" horiz-adv-x="774" 
d="M134 449v-69c22.667 26.667 44.5 46.334 65.5 59.001s45.833 19 74.5 19c37.333 0 67 -10 89 -30s38 -41.333 48 -64c44.667 62.667 95.667 94 153 94c30 0 55.667 -6 77 -18s37.166 -28 47.499 -48s17.833 -40 22.5 -60s7 -41 7 -63v-269h-69v269
c0 33.333 -7.16699 63 -21.5 89s-39.5 39 -75.5 39c-22 0 -44.667 -6.83301 -68 -20.5s-42.666 -33.834 -57.999 -60.501v-316h-69v267c0 86.667 -34.333 130 -103 130c-43.333 0 -83.333 -25.667 -120 -77v-320h-69v449h69z" />
    <glyph glyph-name="n" unicode="n" horiz-adv-x="492" 
d="M65 449l68.999 -0.000976562v-68c38.667 51.333 85.667 77 141 77c50 0 89.333 -17 118 -51s43 -80.333 43 -139v-268h-69v262c0 40.667 -8.66699 73.334 -26 98.001s-44.666 37 -81.999 37c-52 0 -93.667 -26.333 -125 -79v-318h-69v449z" />
    <glyph glyph-name="o" unicode="o" horiz-adv-x="552" 
d="M275 458c64.667 0 119.834 -22.667 165.501 -68s68.5 -100.333 68.5 -165s-22.833 -119.834 -68.5 -165.501s-100.834 -68.5 -165.501 -68.5s-119.667 22.833 -165 68.5s-68 100.834 -68 165.501s22.667 119.667 68 165s100.333 68 165 68zM276 397
c-46.667 0 -85.5 -16.667 -116.5 -50s-46.5 -74 -46.5 -122s15.5 -88.833 46.5 -122.5s69.833 -50.5 116.5 -50.5s85.334 16.833 116.001 50.5s46 74.5 46 122.5s-15.333 88.667 -46 122s-69.334 50 -116.001 50z" />
    <glyph glyph-name="p" unicode="p" horiz-adv-x="513" 
d="M65 449h158c78.667 0 139.667 -19.333 183 -58s65 -94 65 -166c0 -66 -19.833 -121.5 -59.5 -166.5s-94.167 -67.5 -163.5 -67.5c-33.333 0 -71.333 9 -114 27v-239h-69v670zM134 388v-307.002c34.667 -19.333 69 -29 103 -29c52.667 0 93 16.333 121 49
s42 73.334 42 122.001c0 52.667 -16.167 93.334 -48.5 122.001s-75.5 43 -129.5 43h-88z" />
    <glyph glyph-name="q" unicode="q" horiz-adv-x="513" 
d="M448 449v-670h-69v239c-42.667 -18 -80.667 -27 -114 -27c-69.333 0 -123.833 22.5 -163.5 67.5s-59.5 100.5 -59.5 166.5c0 72 21.667 127.333 65 166s104.333 58 183 58h158zM379 388l-88 0.00195312c-54 0 -97.167 -14.333 -129.5 -43s-48.5 -69.334 -48.5 -122.001
c0 -48.667 14 -89.334 42 -122.001s68.333 -49 121 -49c34 0 68.333 9.66699 103 29v307z" />
    <glyph glyph-name="r" unicode="r" horiz-adv-x="363" 
d="M65 449h68.998v-99c24 37.333 49 65 75 83c24.667 16.667 47.334 25 68.001 25c28.667 0 64.334 -17.667 107.001 -53l-37 -60c-32 28 -61 42 -87 42c-20 0 -40.667 -8.16699 -62 -24.5s-37.333 -36.5 -48 -60.5s-16 -60 -16 -108v-194h-69v449z" />
    <glyph glyph-name="s" unicode="s" horiz-adv-x="375" 
d="M319 420l-0.00195312 -69.002c-50 30.667 -92.333 46 -127 46c-22.667 0 -41 -5.66699 -55 -17s-21 -25 -21 -41c0 -16.667 7.83301 -30.834 23.5 -42.501s50.5 -31.5 104.5 -59.5c4.66699 -2 8 -3.66699 10 -5c54.667 -29.333 82 -67.666 82 -114.999
c0 -29.333 -12.167 -57.666 -36.5 -84.999s-61.5 -41 -111.5 -41c-44.667 0 -92.667 13.667 -144 41v71c56 -34 104.333 -51 145 -51c19.333 0 36.833 5.5 52.5 16.5s23.5 25.5 23.5 43.5c0 19.333 -7.83301 35.333 -23.5 48s-41.167 27.334 -76.5 44.001
c-18 8.66699 -32.333 16 -43 22s-22.667 14.5 -36 25.5s-23.166 23.5 -29.499 37.5s-9.5 30 -9.5 48c0 31.333 12.5 59.333 37.5 84s60.5 37 106.5 37c40.667 0 83.334 -12.667 128.001 -38z" />
    <glyph glyph-name="t" unicode="t" horiz-adv-x="313" 
d="M10 388l0.00195312 11l146 155v-105h135v-61h-135v-235c0 -17.333 0.5 -30.833 1.5 -40.5s3.66699 -19.5 8 -29.5s11.166 -17.167 20.499 -21.5s21.666 -6.5 36.999 -6.5c22.667 0 53 9 91 27v-65c-36.667 -17.333 -71.667 -26 -105 -26c-42 0 -72.833 12.5 -92.5 37.5
s-29.5 57.167 -29.5 96.5v263h-77z" />
    <glyph glyph-name="u" unicode="u" horiz-adv-x="492" 
d="M427 0l-68.999 0.000976562v68c-38.667 -51.333 -85.667 -77 -141 -77c-50 0 -89.333 17 -118 51s-43 80.333 -43 139v268h69v-262c0 -40.667 8.66699 -73.334 26 -98.001s44.666 -37 81.999 -37c52 0 93.667 26.333 125 79v318h69v-449z" />
    <glyph glyph-name="v" unicode="v" horiz-adv-x="434" 
d="M432 449l-196 -458h-30l-204 458h73l146 -327l139 327h72z" />
    <glyph glyph-name="w" unicode="w" horiz-adv-x="718" 
d="M716 449l-196 -458h-26l-135 339l-135 -339h-26l-196 458h71l136 -319l128 319h45l126 -319l136 319h72z" />
    <glyph glyph-name="x" unicode="x" horiz-adv-x="472" 
d="M232 178l-148 -178h-83l188 228l-188 221h87l144 -169l141 169h84l-182 -219l196 -230h-87z" />
    <glyph glyph-name="y" unicode="y" horiz-adv-x="432" 
d="M430 449l-327 -679h-74l155 322l-182 357h75l143 -283l135 283h75z" />
    <glyph glyph-name="z" unicode="z" horiz-adv-x="406" 
d="M24 449h371v-9l-266 -376h266v-64h-384v8l266 377h-253v64z" />
    <glyph glyph-name="braceleft" unicode="{" horiz-adv-x="333" 
d="M38 195v70.999c16 0 29.667 1.83301 41 5.5s20.666 10.667 27.999 21s13 20 17 29s6.83301 23.333 8.5 43s2.66699 36 3 49s0.5 33.5 0.5 61.5v11c0 43.333 2.83301 78 8.5 104s15.667 45.833 30 59.5s30.666 22.5 48.999 26.5s43.166 6 74.499 6v-64
c-42 0 -68 -7.33301 -78 -22s-15 -52.667 -15 -114c0 -80 -5.66699 -137 -17 -171s-39 -60.667 -83 -80c44 -19.333 71.667 -46.166 83 -80.499s17 -91.5 17 -171.5c0 -61.333 5 -99.333 15 -114s36 -22 78 -22v-64c-31.333 0 -56.166 2 -74.499 6
s-34.666 12.833 -48.999 26.5s-24.333 33.5 -30 59.5s-8.5 60.667 -8.5 104v11c0 28 -0.166992 48.5 -0.5 61.5s-1.33301 29.333 -3 49s-4.5 34 -8.5 43s-9.66699 18.667 -17 29s-16.666 17.333 -27.999 21s-25 5.5 -41 5.5z" />
    <glyph glyph-name="bar" unicode="|" horiz-adv-x="223" 
d="M79 691h65v-921h-65v921z" />
    <glyph glyph-name="braceright" unicode="}" horiz-adv-x="333" 
d="M295 195c-16 0 -29.667 -1.83203 -41 -5.49902s-20.666 -10.667 -27.999 -21s-13 -20 -17 -29s-6.83301 -23.333 -8.5 -43s-2.66699 -36 -3 -49s-0.5 -33.5 -0.5 -61.5v-11c0 -43.333 -2.83301 -78 -8.5 -104s-15.667 -45.833 -30 -59.5s-30.666 -22.5 -48.999 -26.5
s-43.166 -6 -74.499 -6v64c42 0 68 7.33301 78 22s15 52.667 15 114c0 80 5.66699 137.167 17 171.5s39 61.166 83 80.499c-44 19.333 -71.667 46 -83 80s-17 91 -17 171c0 61.333 -5 99.333 -15 114s-36 22 -78 22v64c31.333 0 56.166 -2 74.499 -6
s34.666 -12.833 48.999 -26.5s24.333 -33.5 30 -59.5s8.5 -60.667 8.5 -104v-11c0 -28 0.166992 -48.5 0.5 -61.5s1.33301 -29.333 3 -49s4.5 -34 8.5 -43s9.66699 -18.667 17 -29s16.666 -17.333 27.999 -21s25 -5.5 41 -5.5v-71z" />
    <glyph glyph-name="asciitilde" unicode="~" horiz-adv-x="667" 
d="M68 281l0.00195312 70.001c54.667 40.667 102.667 61 144 61c31.333 0 79.333 -15.333 144 -46c45.333 -21.333 79 -32 101 -32c39.333 0 86.666 22.333 141.999 67v-70c-52 -40.667 -98.667 -61 -140 -61c-20.667 0 -40.834 3.33301 -60.501 10s-51.5 20 -95.5 40
c-39.333 18.667 -69.666 28 -90.999 28c-12.667 0 -25.334 -1.5 -38.001 -4.5s-24.667 -7.66699 -36 -14s-20.5 -11.833 -27.5 -16.5s-15.5 -10.834 -25.5 -18.501s-15.667 -12.167 -17 -13.5z" />
    <glyph glyph-name="uni00A0" unicode="&#xa0;" horiz-adv-x="250" 
 />
    <glyph glyph-name="exclamdown" unicode="&#xa1;" horiz-adv-x="240" 
d="M120 -230c-32 0 -48 42 -48 126c0 58 5 124 15 198s21 111 33 111s23 -37 33 -111s15 -140 15 -198c0 -84 -16 -126 -48 -126zM120 362c-14.667 0 -27.334 5.33301 -38.001 16s-16 23.334 -16 38.001s5.33301 27.334 16 38.001s23.334 16 38.001 16
s27.334 -5.33301 38.001 -16s16 -23.334 16 -38.001s-5.33301 -27.334 -16 -38.001s-23.334 -16 -38.001 -16z" />
    <glyph glyph-name="cent" unicode="&#xa2;" horiz-adv-x="429" 
d="M386 431v-74c-20.667 12 -41.667 21.333 -63 28l-114 -318c20.667 -8 42.667 -12 66 -12c31.333 0 71.333 9.66699 120 29v-68c-44 -16.667 -86.333 -25 -127 -25c-30 0 -57.333 4.33301 -82 13l-69 -193h-44l75 209c-38.667 21.333 -66 50.833 -82 88.5
s-24 75.167 -24 112.5c0 78 22.167 137 66.5 177s95.833 60 154.5 60c12.667 0 26 -1 40 -3l63 174h44l-65 -183c6 -2 19.667 -7 41 -15zM172 88l109 305c-54 5.33301 -95.5 -9.66699 -124.5 -45s-43.5 -77 -43.5 -125c0 -58.667 19.667 -103.667 59 -135z" />
    <glyph glyph-name="sterling" unicode="&#xa3;" horiz-adv-x="542" 
d="M480 685l39.0039 -76c-18 7.33301 -39 11 -63 11c-26 0 -50.5 -7.16699 -73.5 -21.5s-42 -32.833 -57 -55.5s-27.333 -44.334 -37 -65.001s-17.167 -41 -22.5 -61l-15 -53h90v-69h-110l-59 -220c33.333 3.33301 58.333 5 75 5c31.333 0 64.333 -3.33301 99 -10
c32 -5.33301 56.333 -8 73 -8c40.667 0 74 7.66699 100 23v-74c-28.667 -13.333 -59.334 -20 -92.001 -20c-14.667 0 -46.334 3.66699 -95.001 11c-28 4.66699 -63.333 7 -106 7c-60 0 -109.667 -6 -149 -18l83 304h-78v69h96c10 31.333 18.167 55.333 24.5 72l28 71
c12.333 30.667 24.666 54.834 36.999 72.501s27.166 36.167 44.499 55.5s36.666 33.5 57.999 42.5s44.333 13.5 69 13.5c12.667 0 26.334 -2 41.001 -6z" />
    <glyph glyph-name="currency" unicode="&#xa4;" horiz-adv-x="552" 
d="M467 576c4.66699 -5.33301 12.001 -12.999 22.001 -22.999l22 -22l-66 -65c28 -38.667 42 -80.334 42 -125.001c0 -40.667 -14 -82.667 -42 -126l66 -64l-22 -22c-10 -10 -17.333 -17.667 -22 -23l-33 32.5l-33 32.5c-38 -27.333 -80 -41 -126 -41
c-46.667 0 -88.334 13.667 -125.001 41l-65 -65c-4.66699 5.33301 -12 13 -22 23l-22 22l64 64c-27.333 42 -41 84 -41 126s13.667 83.667 41 125l-64 65l22 22c10 10 17.333 17.667 22 23l32.5 -33l32.5 -33c40.667 28 82.667 42 126 42c42 0 83.667 -14 125 -42z
M275.001 489.001c-40.667 0 -75.5 -14.5 -104.5 -43.5s-43.5 -63.833 -43.5 -104.5s14.5 -75.5 43.5 -104.5s63.833 -43.5 104.5 -43.5s75.5 14.5 104.5 43.5s43.5 63.833 43.5 104.5s-14.5 75.5 -43.5 104.5s-63.833 43.5 -104.5 43.5z" />
    <glyph glyph-name="yen" unicode="&#xa5;" horiz-adv-x="552" 
d="M15 682h78l186 -335l178 335h80l-195 -335h179v-58h-207v-74h207v-58h-207v-157h-75v157h-209v58h209v74h-209v58h181z" />
    <glyph glyph-name="brokenbar" unicode="&#xa6;" horiz-adv-x="223" 
d="M79 153h65v-383h-65v383zM79 691h65v-383h-65v383z" />
    <glyph glyph-name="section" unicode="&#xa7;" horiz-adv-x="406" 
d="M175 56l-64 65.999c-29.333 30.667 -50.666 57.334 -63.999 80.001s-20 50 -20 82c0 60.667 26.333 112.334 79 155.001c-25.333 36 -38 72 -38 108c0 40 12.833 74 38.5 102s62.5 42 110.5 42c39.333 0 69.833 -9.16699 91.5 -27.5s32.5 -38.166 32.5 -59.499
c0 -14.667 -4.33301 -25.334 -13 -32.001s-18 -10 -28 -10c-12 0 -21.167 3.66699 -27.5 11s-12.833 18.333 -19.5 33c-9.33301 20.667 -24.333 31 -45 31c-22.667 0 -41 -7.33301 -55 -22s-21 -32.667 -21 -54c0 -39.333 21 -79.333 63 -120l102 -98
c55.333 -53.333 83 -107.333 83 -162c0 -28 -6.83301 -53.833 -20.5 -77.5s-34.834 -49.167 -63.501 -76.5c28 -38 42 -76.667 42 -116c0 -42 -14.833 -76 -44.5 -102s-65.5 -39 -107.5 -39c-34.667 0 -64.667 8.5 -90 25.5s-38 38.167 -38 63.5c0 12 4.16699 22 12.5 30
s18.833 12 31.5 12c12 0 20.833 -2.83301 26.5 -8.5s13.167 -17.834 22.5 -36.501c11.333 -21.333 27.333 -32 48 -32c22 0 40 8.16699 54 24.5s21 34.5 21 54.5c0 23.333 -7 44.833 -21 64.5s-40 49.167 -78 88.5zM254 290.999l-109 108
c-32.667 -40.667 -49 -77.334 -49 -110.001s13 -62.667 39 -90l123 -132c20.667 26 34.667 46.333 42 61s11 31.334 11 50.001c0 37.333 -19 75 -57 113z" />
    <glyph glyph-name="dieresis" unicode="&#xa8;" horiz-adv-x="333" 
d="M74 652c12.667 0 23.334 -4.33301 32.001 -13s13 -19.334 13 -32.001s-4.33301 -23.334 -13 -32.001s-19.334 -13 -32.001 -13s-23.334 4.33301 -32.001 13s-13 19.334 -13 32.001s4.33301 23.334 13 32.001s19.334 13 32.001 13zM259 652
c12.667 0 23.334 -4.33301 32.001 -13s13 -19.334 13 -32.001s-4.33301 -23.334 -13 -32.001s-19.334 -13 -32.001 -13s-23.334 4.33301 -32.001 13s-13 19.334 -13 32.001s4.33301 23.334 13 32.001s19.334 13 32.001 13z" />
    <glyph glyph-name="copyright" unicode="&#xa9;" horiz-adv-x="769" 
d="M755 320c0 -101.333 -36 -188.333 -108 -261s-159.333 -109 -262 -109s-190.167 36.167 -262.5 108.5s-108.5 159.5 -108.5 261.5c0 102.667 36.167 190.167 108.5 262.5s159.833 108.5 262.5 108.5s190 -36.5 262 -109.5s108 -160.167 108 -261.5zM702 320
c0 87.333 -30.834 162.167 -92.501 224.5s-136.5 93.5 -224.5 93.5c-87.333 0 -162.166 -31 -224.499 -93s-93.5 -137 -93.5 -225c0 -87.333 31 -162 93 -224s137 -93 225 -93s162.833 31.167 224.5 93.5s92.5 136.833 92.5 223.5zM550.999 414.001l-53.001 -13.999
c-21.333 52 -58 78 -110 78c-40 0 -72.167 -14.333 -96.5 -43s-36.5 -65.334 -36.5 -110.001c0 -48 11 -87.667 33 -119s53.333 -47 94 -47c60.667 0 101.667 32.333 123 97l52 -17c-14.667 -44.667 -37.667 -77.667 -69 -99c-30 -21.333 -64.333 -32 -103 -32
c-57.333 0 -103.166 20.333 -137.499 61s-51.5 91 -51.5 151c0 58.667 17 107.5 51 146.5s81.333 58.5 142 58.5c76 0 130 -37 162 -111z" />
    <glyph glyph-name="ordfeminine" unicode="&#xaa;" horiz-adv-x="281" 
d="M276 474l0.000976562 -38.999c-24 -17.333 -45.667 -26 -65 -26c-16 0 -27.667 8.66699 -35 26c-23.333 -17.333 -50 -26 -80 -26c-23.333 0 -42.333 7.16699 -57 21.5s-22 30.833 -22 49.5c0 22.667 10.833 42 32.5 58s63.5 30 125.5 42v21
c0 8.66699 -0.666992 15.834 -2 21.501s-6 11.5 -14 17.5s-19.333 9 -34 9c-29.333 0 -61.333 -15 -96 -45v52c29.333 23.333 62.333 35 99 35c20 0 37 -2.83301 51 -8.5s24.333 -11.834 31 -18.501s11.667 -15.834 15 -27.501s5.16602 -20 5.49902 -25
s0.5 -12.167 0.5 -21.5v-117c0 -15.333 3.33301 -23 10 -23c5.33301 0 17 8 35 24zM175.001 471.001v76c-68 -11.333 -102 -32.666 -102 -63.999c0 -12.667 4.5 -21.834 13.5 -27.501s19.167 -8.5 30.5 -8.5c22.667 0 42 8 58 24z" />
    <glyph glyph-name="guillemotleft" unicode="&#xab;" horiz-adv-x="500" 
d="M260 0h-68l-168 224l168 225h68l-168 -225zM460 0h-68l-168 224l168 225h68l-168 -225z" />
    <glyph glyph-name="logicalnot" unicode="&#xac;" horiz-adv-x="667" 
d="M68 485h531v-289h-65v224h-466v65z" />
    <glyph glyph-name="uni00AD" unicode="&#xad;" 
d="M282 259v-46h-241v46h241z" />
    <glyph glyph-name="registered" unicode="&#xae;" horiz-adv-x="769" 
d="M755 320c0 -101.333 -36 -188.333 -108 -261s-159.333 -109 -262 -109s-190.167 36.167 -262.5 108.5s-108.5 159.5 -108.5 261.5c0 102.667 36.167 190.167 108.5 262.5s159.833 108.5 262.5 108.5s190 -36.333 262 -109s108 -160 108 -262zM702 320
c0 87.333 -30.833 162.166 -92.5 224.499s-136.5 93.5 -224.5 93.5s-163 -31.167 -225 -93.5s-93 -137.166 -93 -224.499s31 -162 93 -224s137 -93 225 -93s162.833 31.167 224.5 93.5s92.5 136.833 92.5 223.5zM228 513l158.997 -0.00390625c28.667 0 53 -3.66699 73 -11
s34.667 -17 44 -29s15.833 -23.333 19.5 -34s5.5 -21.334 5.5 -32.001c0 -64 -38.333 -101.333 -115 -112c6.66699 -2 12.834 -4.5 18.501 -7.5s11.167 -7 16.5 -12l13 -12c3.33301 -3 7.33301 -8 12 -15l9 -13.5c1.33301 -2 4.33301 -7.16699 9 -15.5
s7.33398 -12.833 8.00098 -13.5l50 -88h-68l-56 101c0 0.666992 -1 2.83398 -3 6.50098s-3.83301 6.83398 -5.5 9.50098s-4.16699 6.33398 -7.5 11.001s-6.66602 8.66699 -9.99902 12s-7.66602 6.83301 -12.999 10.5s-10.833 6.83398 -16.5 9.50098
s-12.334 4.83398 -20.001 6.50098s-15.5 2.5 -23.5 2.5h-42v-169h-57v395zM284.997 465.996v-131h71c42.667 0 71.667 5.66699 87 17s23 28 23 50s-8.5 38.167 -25.5 48.5s-44.833 15.5 -83.5 15.5h-72z" />
    <glyph glyph-name="macron" unicode="&#xaf;" horiz-adv-x="333" 
d="M316 639v-63h-299v63h299z" />
    <glyph glyph-name="degree" unicode="&#xb0;" horiz-adv-x="396" 
d="M60 553c0 38 13.5 70.5 40.5 97.5s59.5 40.5 97.5 40.5s70.5 -13.333 97.5 -40s40.5 -59.334 40.5 -98.001c0 -38 -13.5 -70.5 -40.5 -97.5s-59.5 -40.5 -97.5 -40.5s-70.5 13.333 -97.5 40s-40.5 59.334 -40.5 98.001zM107 553c0 -24.667 8.83301 -46 26.5 -64
s39.167 -27 64.5 -27s46.833 8.83301 64.5 26.5s26.5 39.167 26.5 64.5s-8.83301 46.833 -26.5 64.5s-39.167 26.5 -64.5 26.5s-46.833 -8.83301 -64.5 -26.5s-26.5 -39.167 -26.5 -64.5z" />
    <glyph glyph-name="plusminus" unicode="&#xb1;" horiz-adv-x="667" 
d="M68 65h531v-65h-531v65zM68 456h233v233h65v-233h233v-65h-233v-233h-65v233h-233v65z" />
    <glyph glyph-name="uni00B2" unicode="&#xb2;" 
d="M131 374l167 -0.000976562v-42h-270v4c46 46 84.333 85.667 115 119c20 22 35.167 42 45.5 60s16.166 30.5 17.499 37.5s2 15.833 2 26.5c0 19.333 -6.5 35.833 -19.5 49.5s-31.5 20.5 -55.5 20.5c-34 0 -66 -17.667 -96 -53v60c0.666992 0 3.5 1.83301 8.5 5.5
s8.83301 6.33398 11.5 8.00098s7.33398 4.16699 14.001 7.5s13 5.83301 19 7.5s13.333 3.16699 22 4.5s17.667 2 27 2c42.667 0 74.167 -11 94.5 -33s30.5 -46.333 30.5 -73s-10.167 -56 -30.5 -88s-54.5 -73 -102.5 -123z" />
    <glyph glyph-name="uni00B3" unicode="&#xb3;" 
d="M40 347l-0.00195312 48c32.667 -17.333 64.334 -26 95.001 -26c23.333 0 41.5 5.83301 54.5 17.5s19.5 26.5 19.5 44.5c0 42.667 -31.667 64 -95 64v42c59.333 0 89 19 89 57c0 36.667 -24 55 -72 55c-26.667 0 -54.667 -8 -84 -24v45c24.667 14 53.334 21 86.001 21
c46 0 78.5 -9.66699 97.5 -29s28.5 -41.333 28.5 -66c0 -38 -19.333 -63.667 -58 -77c22.667 -6 39 -17.667 49 -35s15 -34.333 15 -51c0 -34.667 -13.5 -61 -40.5 -79s-55.833 -27 -86.5 -27c-33.333 0 -66 6.66699 -98 20z" />
    <glyph glyph-name="acute" unicode="&#xb4;" horiz-adv-x="333" 
d="M295 686l-134 -157h-44l88 157h90z" />
    <glyph glyph-name="mu" unicode="&#xb5;" horiz-adv-x="552" 
d="M463 449v-449h-66v54c-29.333 -42 -69.666 -63 -120.999 -63c-47.333 0 -86.333 19.667 -117 59v-271h-70v670h69v-230c0 -36 3.5 -66 10.5 -90s16.667 -41.333 29 -52s24.5 -18 36.5 -22s25.667 -6 41 -6s29.166 2 41.499 6s24.833 11.333 37.5 22s22.5 28 29.5 52
s10.5 54 10.5 90v230h69z" />
    <glyph glyph-name="paragraph" unicode="&#xb6;" horiz-adv-x="583" 
d="M341 644l-0.000976562 -872h-50v441c-81.333 0 -147.166 20.167 -197.499 60.5s-75.5 97.833 -75.5 172.5c0 80.667 24 140.167 72 178.5s115 57.5 201 57.5h277v-38h-84v-872h-50v872h-93z" />
    <glyph glyph-name="periodcentered" unicode="&#xb7;" horiz-adv-x="240" 
d="M120 395c14.667 0 27.334 -5.16699 38.001 -15.5s16 -23.166 16 -38.499s-5.33301 -28.166 -16 -38.499s-23.334 -15.5 -38.001 -15.5s-27.334 5.16699 -38.001 15.5s-16 23.166 -16 38.499s5.33301 28.166 16 38.499s23.334 15.5 38.001 15.5z" />
    <glyph glyph-name="cedilla" unicode="&#xb8;" horiz-adv-x="333" 
d="M227 8l-9.00293 -34.002c39.333 -10 59 -31.333 59 -64c0 -20 -8.33301 -39 -25 -57c-18 -17.333 -47.333 -26 -88 -26c-11.333 0 -23.666 1.33301 -36.999 4l3 43h5c3.33301 -0.666992 7 -1 11 -1h14.5c5.66699 0 11.167 0.333008 16.5 1s10.833 1.83398 16.5 3.50098
s10.334 3.66699 14.001 6s6.83398 5.33301 9.50098 9s4 8.16699 4 13.5c0 24.667 -20 35.334 -60 32.001l23 70h43z" />
    <glyph glyph-name="uni00B9" unicode="&#xb9;" 
d="M190 686v-354h-56v354h56z" />
    <glyph glyph-name="ordmasculine" unicode="&#xba;" horiz-adv-x="365" 
d="M338 550c0 -40.667 -14.833 -74.5 -44.5 -101.5s-66.834 -40.5 -111.501 -40.5s-81.667 13.5 -111 40.5s-44 60.833 -44 101.5s14.667 74.334 44 101.001s66.333 40 111 40s81.834 -13.333 111.501 -40s44.5 -60.334 44.5 -101.001zM182 649
c-27.333 0 -50.666 -9.66699 -69.999 -29s-29 -42.666 -29 -69.999s9.66699 -50.833 29 -70.5s42.666 -29.5 69.999 -29.5s50.833 9.83301 70.5 29.5s29.5 43.167 29.5 70.5s-9.83301 50.666 -29.5 69.999s-43.167 29 -70.5 29z" />
    <glyph glyph-name="guillemotright" unicode="&#xbb;" horiz-adv-x="500" 
d="M240 449h68l168 -225l-168 -224h-68l168 224zM40 449h68l168 -225l-168 -224h-68l168 224z" />
    <glyph glyph-name="onequarter" unicode="&#xbc;" horiz-adv-x="833" 
d="M712 359v-202h50v-38h-50v-119h-56v119h-158v24l193 216h21zM560 157h96v108zM223 686v-354h-56v354h56zM689 691l-491 -718h-53l490 718h54z" />
    <glyph glyph-name="onehalf" unicode="&#xbd;" horiz-adv-x="833" 
d="M223 686v-354h-56v354h56zM689 691l-491 -718h-53l490 718h54zM627 42l167 -0.000976562v-42h-270v4c46 46 84.333 85.667 115 119c20 22 35.167 42 45.5 60s16.166 30.5 17.499 37.5s2 15.833 2 26.5c0 19.333 -6.5 35.833 -19.5 49.5s-31.5 20.5 -55.5 20.5
c-34 0 -66 -17.667 -96 -53v60c0.666992 0 3.5 1.83301 8.5 5.5s8.83301 6.33398 11.5 8.00098s7.33398 4.16699 14.001 7.5s13 5.83301 19 7.5s13.333 3.16699 22 4.5s17.667 2 27 2c42.667 0 74.167 -11 94.5 -33s30.5 -46.333 30.5 -73s-10.167 -56 -30.5 -88
s-54.5 -73 -102.5 -123z" />
    <glyph glyph-name="threequarters" unicode="&#xbe;" horiz-adv-x="833" 
d="M712 359v-202h50v-38h-50v-119h-56v119h-158v24l193 216h21zM560 157h96v108zM64 347l-0.00195312 48c32.667 -17.333 64.334 -26 95.001 -26c23.333 0 41.5 5.83301 54.5 17.5s19.5 26.5 19.5 44.5c0 42.667 -31.667 64 -95 64v42c59.333 0 89 19 89 57
c0 36.667 -24 55 -72 55c-26.667 0 -54.667 -8 -84 -24v45c24.667 14 53.334 21 86.001 21c46 0 78.5 -9.66699 97.5 -29s28.5 -41.333 28.5 -66c0 -38 -19.333 -63.667 -58 -77c22.667 -6 39 -17.667 49 -35s15 -34.333 15 -51c0 -34.667 -13.5 -61 -40.5 -79
s-55.833 -27 -86.5 -27c-33.333 0 -66 6.66699 -98 20zM688.998 691l-491 -718h-53l490 718h54z" />
    <glyph glyph-name="questiondown" unicode="&#xbf;" horiz-adv-x="313" 
d="M262 -128h4.99902l-44 -93c-15.333 -6 -31 -9 -47 -9c-36 0 -66.667 13.833 -92 41.5s-38 61.834 -38 102.501c0 43.333 21.333 101 64 173l16 27c26 43.333 42.5 72.333 49.5 87s10.5 28.667 10.5 42c0 9.33301 -1 17 -3 23l-7 19c0 4.66699 2.66699 7 8 7
c4 0 9.83301 -4.16699 17.5 -12.5s15.167 -20 22.5 -35s11 -30.167 11 -45.5c0 -22 -4.66699 -42.833 -14 -62.5s-29.333 -54.167 -60 -103.5c-26 -40.667 -39 -79.334 -39 -116.001c0 -22.667 6.83301 -41.667 20.5 -57s30.834 -23 51.501 -23c27.333 0 50 11.667 68 35z
M191.999 362c-14.667 0 -27.334 5.33301 -38.001 16s-16 23.334 -16 38.001s5.33301 27.334 16 38.001s23.334 16 38.001 16s27.334 -5.33301 38.001 -16s16 -23.334 16 -38.001s-5.33301 -27.334 -16 -38.001s-23.334 -16 -38.001 -16z" />
    <glyph glyph-name="Agrave" unicode="&#xc0;" horiz-adv-x="668" 
d="M355 686l311 -686h-78l-99 219h-312l-97 -219h-78l303 686h50zM458 285l-128 283l-124 -283h252zM221 885h90l89 -157h-44z" />
    <glyph glyph-name="Aacute" unicode="&#xc1;" horiz-adv-x="668" 
d="M355 686l311 -686h-78l-99 219h-312l-97 -219h-78l303 686h50zM458 285l-128 283l-124 -283h252zM448 885l-134 -157h-44l88 157h90z" />
    <glyph glyph-name="Acircumflex" unicode="&#xc2;" horiz-adv-x="668" 
d="M355 686l311 -686h-78l-99 219h-312l-97 -219h-78l303 686h50zM458 285l-128 283l-124 -283h252zM373 885l100 -157h-47l-92 98l-92 -98h-46l100 157h77z" />
    <glyph glyph-name="Atilde" unicode="&#xc3;" horiz-adv-x="668" 
d="M355 686l311 -686h-78l-99 219h-312l-97 -219h-78l303 686h50zM458 285l-128 283l-124 -283h252zM215 753h-35.999l3 23.5c0.666992 5 3 13.667 7 26s8.5 21.666 13.5 27.999s12.5 12.5 22.5 18.5s21.667 9 35 9c22 0 51.667 -8 89 -24c30 -12.667 52 -19 66 -19
c10 0 18 3 24 9s9.66699 11.333 11 16s2.66602 11.334 3.99902 20.001h36c0 -34.667 -8.33301 -61.167 -25 -79.5s-35.667 -27.5 -57 -27.5c-18 0 -42 6 -72 18c-42.667 16.667 -70 25 -82 25c-21.333 0 -34.333 -14.333 -39 -43z" />
    <glyph glyph-name="Adieresis" unicode="&#xc4;" horiz-adv-x="668" 
d="M355 686l311 -686h-78l-99 219h-312l-97 -219h-78l303 686h50zM458 285l-128 283l-124 -283h252zM242 851c12.667 0 23.334 -4.33301 32.001 -13s13 -19.334 13 -32.001s-4.33301 -23.334 -13 -32.001s-19.334 -13 -32.001 -13s-23.334 4.33301 -32.001 13
s-13 19.334 -13 32.001s4.33301 23.334 13 32.001s19.334 13 32.001 13zM427 851c12.667 0 23.334 -4.33301 32.001 -13s13 -19.334 13 -32.001s-4.33301 -23.334 -13 -32.001s-19.334 -13 -32.001 -13s-23.334 4.33301 -32.001 13s-13 19.334 -13 32.001
s4.33301 23.334 13 32.001s19.334 13 32.001 13z" />
    <glyph glyph-name="Aring" unicode="&#xc5;" horiz-adv-x="668" 
d="M355 686l311 -686h-78l-99 219h-312l-97 -219h-78l303 686h50zM458 285l-128 283l-124 -283h252zM334 724c-26 0 -48 9 -66 27s-27 40 -27 66s9 48.167 27 66.5s40 27.5 66 27.5s48.167 -9.16699 66.5 -27.5s27.5 -40.5 27.5 -66.5s-9.16699 -48 -27.5 -66
s-40.5 -27 -66.5 -27zM334 767c14 0 26 4.83301 36 14.5s15 21.5 15 35.5s-5 26 -15 36s-22 15 -36 15s-25.833 -5 -35.5 -15s-14.5 -22 -14.5 -36s4.83301 -25.833 14.5 -35.5s21.5 -14.5 35.5 -14.5z" />
    <glyph glyph-name="AE" unicode="&#xc6;" horiz-adv-x="884" 
d="M842 682v-66h-300v-239h293v-66h-293v-245h310v-66h-385v311h-193l-189 -311h-83l415 682h425zM467 377v254l-153 -254h153z" />
    <glyph glyph-name="Ccedilla" unicode="&#xc7;" horiz-adv-x="694" 
d="M650 634v-81c-82 44.667 -161 67 -237 67c-81.333 0 -149.333 -26.667 -204 -80s-82 -120.333 -82 -201s27 -147 81 -199s121.333 -78 202 -78c82 0 164.333 24 247 72v-81c-73.333 -39.333 -152 -60 -236 -62l-4 -16c29.333 -4 50.333 -13.167 63 -27.5
s19 -30.5 19 -48.5c0 -26.667 -13.833 -49.167 -41.5 -67.5s-63.5 -27.5 -107.5 -27.5c-24 0 -46.333 1.33301 -67 4l3 51c14.667 -2 31 -3 49 -3c59.333 0 89 12.667 89 38c0 24 -29 36 -87 36l21 64c-93.333 11.333 -168.5 49.5 -225.5 114.5s-85.5 141.833 -85.5 230.5
c0 103.333 36 187.833 108 253.5s156 98.5 252 98.5c76 0 157 -19 243 -57z" />
    <glyph glyph-name="Egrave" unicode="&#xc8;" horiz-adv-x="499" 
d="M460 682v-66h-305v-239h296v-66h-296v-245h313v-66h-388v682h380zM141 885h90l89 -157h-44z" />
    <glyph glyph-name="Eacute" unicode="&#xc9;" horiz-adv-x="499" 
d="M460 682v-66h-305v-239h296v-66h-296v-245h313v-66h-388v682h380zM398 885l-134 -157h-44l88 157h90z" />
    <glyph glyph-name="Ecircumflex" unicode="&#xca;" horiz-adv-x="499" 
d="M460 682v-66h-305v-239h296v-66h-296v-245h313v-66h-388v682h380zM308 885l100 -157h-47l-92 98l-92 -98h-46l100 157h77z" />
    <glyph glyph-name="Edieresis" unicode="&#xcb;" horiz-adv-x="499" 
d="M460 682v-66h-305v-239h296v-66h-296v-245h313v-66h-388v682h380zM177 851c12.667 0 23.334 -4.33301 32.001 -13s13 -19.334 13 -32.001s-4.33301 -23.334 -13 -32.001s-19.334 -13 -32.001 -13s-23.334 4.33301 -32.001 13s-13 19.334 -13 32.001
s4.33301 23.334 13 32.001s19.334 13 32.001 13zM362 851c12.667 0 23.334 -4.33301 32.001 -13s13 -19.334 13 -32.001s-4.33301 -23.334 -13 -32.001s-19.334 -13 -32.001 -13s-23.334 4.33301 -32.001 13s-13 19.334 -13 32.001s4.33301 23.334 13 32.001
s19.334 13 32.001 13z" />
    <glyph glyph-name="Igrave" unicode="&#xcc;" horiz-adv-x="240" 
d="M157 682v-682h-75v682h75zM7 885h90l89 -157h-44z" />
    <glyph glyph-name="Iacute" unicode="&#xcd;" horiz-adv-x="240" 
d="M157 682v-682h-75v682h75zM249 885l-134 -157h-44l88 157h90z" />
    <glyph glyph-name="Icircumflex" unicode="&#xce;" horiz-adv-x="240" 
d="M157 682v-682h-75v682h75zM159 885l100 -157h-47l-92 98l-92 -98h-46l100 157h77z" />
    <glyph glyph-name="Idieresis" unicode="&#xcf;" horiz-adv-x="240" 
d="M157 682v-682h-75v682h75zM28 851c12.667 0 23.334 -4.33301 32.001 -13s13 -19.334 13 -32.001s-4.33301 -23.334 -13 -32.001s-19.334 -13 -32.001 -13s-23.334 4.33301 -32.001 13s-13 19.334 -13 32.001s4.33301 23.334 13 32.001s19.334 13 32.001 13zM213 851
c12.667 0 23.334 -4.33301 32.001 -13s13 -19.334 13 -32.001s-4.33301 -23.334 -13 -32.001s-19.334 -13 -32.001 -13s-23.334 4.33301 -32.001 13s-13 19.334 -13 32.001s4.33301 23.334 13 32.001s19.334 13 32.001 13z" />
    <glyph glyph-name="Eth" unicode="&#xd0;" horiz-adv-x="746" 
d="M80 682h211c56.667 0 108.834 -6.33301 156.501 -19s90.667 -32 129 -58s68.333 -61.5 90 -106.5s32.5 -97.5 32.5 -157.5s-10.833 -112.5 -32.5 -157.5s-51.667 -80.5 -90 -106.5s-81.333 -45.333 -129 -58s-99.834 -19 -156.501 -19h-211v314h-91v54h91v314zM155 616
v-247.998h207v-54h-207v-248h141c31.333 0 60.666 2 87.999 6s55.833 12.167 85.5 24.5s55.167 28.166 76.5 47.499s38.833 46 52.5 80s20.5 73 20.5 117s-6.83301 83 -20.5 117s-31.167 60.667 -52.5 80s-46.833 35.166 -76.5 47.499s-58.167 20.5 -85.5 24.5
s-56.666 6 -87.999 6h-141z" />
    <glyph glyph-name="Ntilde" unicode="&#xd1;" horiz-adv-x="784" 
d="M704 682v-682h-64l-487 562v-562h-73v682h64l487 -562v562h73zM273 753h-35.999l3 23.5c0.666992 5 3 13.667 7 26s8.5 21.666 13.5 27.999s12.5 12.5 22.5 18.5s21.667 9 35 9c22 0 51.667 -8 89 -24c30 -12.667 52 -19 66 -19c10 0 18 3 24 9s9.66699 11.333 11 16
s2.66602 11.334 3.99902 20.001h36c0 -34.667 -8.33301 -61.167 -25 -79.5s-35.667 -27.5 -57 -27.5c-18 0 -42 6 -72 18c-42.667 16.667 -70 25 -82 25c-21.333 0 -34.333 -14.333 -39 -43z" />
    <glyph glyph-name="Ograve" unicode="&#xd2;" horiz-adv-x="823" 
d="M407 -9c-100.667 0 -185.833 33.3311 -255.5 99.998s-104.5 150 -104.5 250c0 45.333 8.33301 88.833 25 130.5s40.167 78.834 70.5 111.501s68.833 58.834 115.5 78.501s97.667 29.5 153 29.5c108 0 195.833 -34.333 263.5 -103s101.5 -151 101.5 -247
c0 -100.667 -35.5 -184.167 -106.5 -250.5s-158.5 -99.5 -262.5 -99.5zM406.001 61.998c82 0 150.834 26.5 206.501 79.5s83.5 120.167 83.5 201.5c0 72.667 -26 137 -78 193s-121 84 -207 84c-84.667 0 -153.167 -27.5 -205.5 -82.5s-78.5 -120.833 -78.5 -197.5
c0 -80.667 27.667 -147.167 83 -199.5s120.666 -78.5 195.999 -78.5zM298.002 884.998h90l89 -157h-44z" />
    <glyph glyph-name="Oacute" unicode="&#xd3;" horiz-adv-x="823" 
d="M407 -9c-100.667 0 -185.833 33.3311 -255.5 99.998s-104.5 150 -104.5 250c0 45.333 8.33301 88.833 25 130.5s40.167 78.834 70.5 111.501s68.833 58.834 115.5 78.501s97.667 29.5 153 29.5c108 0 195.833 -34.333 263.5 -103s101.5 -151 101.5 -247
c0 -100.667 -35.5 -184.167 -106.5 -250.5s-158.5 -99.5 -262.5 -99.5zM406.001 61.998c82 0 150.834 26.5 206.501 79.5s83.5 120.167 83.5 201.5c0 72.667 -26 137 -78 193s-121 84 -207 84c-84.667 0 -153.167 -27.5 -205.5 -82.5s-78.5 -120.833 -78.5 -197.5
c0 -80.667 27.667 -147.167 83 -199.5s120.666 -78.5 195.999 -78.5zM540.002 884.998l-134 -157h-44l88 157h90z" />
    <glyph glyph-name="Ocircumflex" unicode="&#xd4;" horiz-adv-x="823" 
d="M407 -9c-100.667 0 -185.833 33.3311 -255.5 99.998s-104.5 150 -104.5 250c0 45.333 8.33301 88.833 25 130.5s40.167 78.834 70.5 111.501s68.833 58.834 115.5 78.501s97.667 29.5 153 29.5c108 0 195.833 -34.333 263.5 -103s101.5 -151 101.5 -247
c0 -100.667 -35.5 -184.167 -106.5 -250.5s-158.5 -99.5 -262.5 -99.5zM406.001 61.998c82 0 150.834 26.5 206.501 79.5s83.5 120.167 83.5 201.5c0 72.667 -26 137 -78 193s-121 84 -207 84c-84.667 0 -153.167 -27.5 -205.5 -82.5s-78.5 -120.833 -78.5 -197.5
c0 -80.667 27.667 -147.167 83 -199.5s120.666 -78.5 195.999 -78.5zM450.002 884.998l100 -157h-47l-92 98l-92 -98h-46l100 157h77z" />
    <glyph glyph-name="Otilde" unicode="&#xd5;" horiz-adv-x="823" 
d="M407 -9c-100.667 0 -185.833 33.3311 -255.5 99.998s-104.5 150 -104.5 250c0 45.333 8.33301 88.833 25 130.5s40.167 78.834 70.5 111.501s68.833 58.834 115.5 78.501s97.667 29.5 153 29.5c108 0 195.833 -34.333 263.5 -103s101.5 -151 101.5 -247
c0 -100.667 -35.5 -184.167 -106.5 -250.5s-158.5 -99.5 -262.5 -99.5zM406.001 61.998c82 0 150.834 26.5 206.501 79.5s83.5 120.167 83.5 201.5c0 72.667 -26 137 -78 193s-121 84 -207 84c-84.667 0 -153.167 -27.5 -205.5 -82.5s-78.5 -120.833 -78.5 -197.5
c0 -80.667 27.667 -147.167 83 -199.5s120.666 -78.5 195.999 -78.5zM292.002 752.998h-35.999l3 23.5c0.666992 5 3 13.667 7 26s8.5 21.666 13.5 27.999s12.5 12.5 22.5 18.5s21.667 9 35 9c22 0 51.667 -8 89 -24c30 -12.667 52 -19 66 -19c10 0 18 3 24 9
s9.66699 11.333 11 16s2.66602 11.334 3.99902 20.001h36c0 -34.667 -8.33301 -61.167 -25 -79.5s-35.667 -27.5 -57 -27.5c-18 0 -42 6 -72 18c-42.667 16.667 -70 25 -82 25c-21.333 0 -34.333 -14.333 -39 -43z" />
    <glyph glyph-name="Odieresis" unicode="&#xd6;" horiz-adv-x="823" 
d="M407 -9c-100.667 0 -185.833 33.3311 -255.5 99.998s-104.5 150 -104.5 250c0 45.333 8.33301 88.833 25 130.5s40.167 78.834 70.5 111.501s68.833 58.834 115.5 78.501s97.667 29.5 153 29.5c108 0 195.833 -34.333 263.5 -103s101.5 -151 101.5 -247
c0 -100.667 -35.5 -184.167 -106.5 -250.5s-158.5 -99.5 -262.5 -99.5zM406.001 61.998c82 0 150.834 26.5 206.501 79.5s83.5 120.167 83.5 201.5c0 72.667 -26 137 -78 193s-121 84 -207 84c-84.667 0 -153.167 -27.5 -205.5 -82.5s-78.5 -120.833 -78.5 -197.5
c0 -80.667 27.667 -147.167 83 -199.5s120.666 -78.5 195.999 -78.5zM319.002 850.998c12.667 0 23.334 -4.33301 32.001 -13s13 -19.334 13 -32.001s-4.33301 -23.334 -13 -32.001s-19.334 -13 -32.001 -13s-23.334 4.33301 -32.001 13s-13 19.334 -13 32.001
s4.33301 23.334 13 32.001s19.334 13 32.001 13zM504.002 850.998c12.667 0 23.334 -4.33301 32.001 -13s13 -19.334 13 -32.001s-4.33301 -23.334 -13 -32.001s-19.334 -13 -32.001 -13s-23.334 4.33301 -32.001 13s-13 19.334 -13 32.001s4.33301 23.334 13 32.001
s19.334 13 32.001 13z" />
    <glyph glyph-name="multiply" unicode="&#xd7;" horiz-adv-x="667" 
d="M90 143l198 198l-198 198l45 46l199 -199l198 199l45 -46l-198 -198l198 -198l-45 -46l-198 199l-199 -199z" />
    <glyph glyph-name="Oslash" unicode="&#xd8;" horiz-adv-x="823" 
d="M196 55l-57.002 -64l-41 32l57 65c-72 72 -108 156.333 -108 253c0 94.667 33.333 176.667 100 246s154.334 104 263.001 104c84.667 0 157.334 -21.667 218.001 -65l57 65l40 -33l-56 -65c71.333 -69.333 107 -153.333 107 -252c0 -99.333 -35.167 -182.5 -105.5 -249.5
s-157.5 -100.5 -261.5 -100.5c-76.667 0 -147.667 21.333 -213 64zM617.998 536l-373 -423.999c48.667 -33.333 103.667 -50 165 -50c80.667 0 148.5 27 203.5 81s82.5 120.667 82.5 200c0 75.333 -26 139.666 -78 192.999zM204.998 145.001l373 425
c-46 33.333 -101.667 50 -167 50c-84.667 0 -153.167 -27.5 -205.5 -82.5s-78.5 -120.833 -78.5 -197.5c0 -74.667 26 -139.667 78 -195z" />
    <glyph glyph-name="Ugrave" unicode="&#xd9;" horiz-adv-x="698" 
d="M638 682l0.000976562 -365.995c0 -48 -2.66699 -86 -8 -114s-15.333 -54.333 -30 -79c-19.333 -34 -49.666 -64.5 -90.999 -91.5s-94.333 -40.5 -159 -40.5c-15.333 0 -31.5 1.16699 -48.5 3.5s-37.833 7.16602 -62.5 14.499s-48.834 19.666 -72.501 36.999
s-43.834 38.666 -60.501 63.999c-18 27.333 -30.167 55.666 -36.5 84.999s-9.5 69.666 -9.5 120.999v366h75v-370c0 -50 4.16699 -88.833 12.5 -116.5s22.5 -52.167 42.5 -73.5c40 -42 93.333 -63 160 -63c48 0 88.167 10.833 120.5 32.5s55.833 47.5 70.5 77.5
s22 77.667 22 143v370h75zM236.001 885.005h90l89 -157h-44z" />
    <glyph glyph-name="Uacute" unicode="&#xda;" horiz-adv-x="698" 
d="M638 682l0.000976562 -365.995c0 -48 -2.66699 -86 -8 -114s-15.333 -54.333 -30 -79c-19.333 -34 -49.666 -64.5 -90.999 -91.5s-94.333 -40.5 -159 -40.5c-15.333 0 -31.5 1.16699 -48.5 3.5s-37.833 7.16602 -62.5 14.499s-48.834 19.666 -72.501 36.999
s-43.834 38.666 -60.501 63.999c-18 27.333 -30.167 55.666 -36.5 84.999s-9.5 69.666 -9.5 120.999v366h75v-370c0 -50 4.16699 -88.833 12.5 -116.5s22.5 -52.167 42.5 -73.5c40 -42 93.333 -63 160 -63c48 0 88.167 10.833 120.5 32.5s55.833 47.5 70.5 77.5
s22 77.667 22 143v370h75zM478.001 885.005l-134 -157h-44l88 157h90z" />
    <glyph glyph-name="Ucircumflex" unicode="&#xdb;" horiz-adv-x="698" 
d="M638 682l0.000976562 -365.995c0 -48 -2.66699 -86 -8 -114s-15.333 -54.333 -30 -79c-19.333 -34 -49.666 -64.5 -90.999 -91.5s-94.333 -40.5 -159 -40.5c-15.333 0 -31.5 1.16699 -48.5 3.5s-37.833 7.16602 -62.5 14.499s-48.834 19.666 -72.501 36.999
s-43.834 38.666 -60.501 63.999c-18 27.333 -30.167 55.666 -36.5 84.999s-9.5 69.666 -9.5 120.999v366h75v-370c0 -50 4.16699 -88.833 12.5 -116.5s22.5 -52.167 42.5 -73.5c40 -42 93.333 -63 160 -63c48 0 88.167 10.833 120.5 32.5s55.833 47.5 70.5 77.5
s22 77.667 22 143v370h75zM388.001 885.005l100 -157h-47l-92 98l-92 -98h-46l100 157h77z" />
    <glyph glyph-name="Udieresis" unicode="&#xdc;" horiz-adv-x="698" 
d="M638 682l0.000976562 -365.995c0 -48 -2.66699 -86 -8 -114s-15.333 -54.333 -30 -79c-19.333 -34 -49.666 -64.5 -90.999 -91.5s-94.333 -40.5 -159 -40.5c-15.333 0 -31.5 1.16699 -48.5 3.5s-37.833 7.16602 -62.5 14.499s-48.834 19.666 -72.501 36.999
s-43.834 38.666 -60.501 63.999c-18 27.333 -30.167 55.666 -36.5 84.999s-9.5 69.666 -9.5 120.999v366h75v-370c0 -50 4.16699 -88.833 12.5 -116.5s22.5 -52.167 42.5 -73.5c40 -42 93.333 -63 160 -63c48 0 88.167 10.833 120.5 32.5s55.833 47.5 70.5 77.5
s22 77.667 22 143v370h75zM257.001 851.005c12.667 0 23.334 -4.33301 32.001 -13s13 -19.334 13 -32.001s-4.33301 -23.334 -13 -32.001s-19.334 -13 -32.001 -13s-23.334 4.33301 -32.001 13s-13 19.334 -13 32.001s4.33301 23.334 13 32.001s19.334 13 32.001 13z
M442.001 851.005c12.667 0 23.334 -4.33301 32.001 -13s13 -19.334 13 -32.001s-4.33301 -23.334 -13 -32.001s-19.334 -13 -32.001 -13s-23.334 4.33301 -32.001 13s-13 19.334 -13 32.001s4.33301 23.334 13 32.001s19.334 13 32.001 13z" />
    <glyph glyph-name="Yacute" unicode="&#xdd;" horiz-adv-x="599" 
d="M596 682l-260 -318v-364h-75v364l-258 318h91l204 -252l207 252h91zM428 885l-134 -157h-44l88 157h90z" />
    <glyph glyph-name="Thorn" unicode="&#xde;" horiz-adv-x="516" 
d="M80 682l75 -0.000976562v-154h82c36.667 0 64.167 -0.666992 82.5 -2s39.833 -6.33301 64.5 -15s46 -22 64 -40c34.667 -34 52 -77.333 52 -130c0 -45.333 -11.333 -81.666 -34 -108.999s-48.667 -47.333 -78 -60c-30 -12 -80.333 -18 -151 -18h-82v-154h-75v682z
M236 461.999l-81 -0.000976562v-242h87c56 0 97.667 6.66699 125 20c16.667 8.66699 29.667 22.5 39 41.5s14 39.167 14 60.5c0 46.667 -18 80.334 -54 101.001c-24 12.667 -67.333 19 -130 19z" />
    <glyph glyph-name="germandbls" unicode="&#xdf;" horiz-adv-x="509" 
d="M224 0l0.000976562 68c22 -7.33301 40.667 -11 56 -11c40.667 0 70.334 14.667 89.001 44s28 61.333 28 96c0 47.333 -12.833 83.666 -38.5 108.999s-59.834 38 -102.501 38v63c74.667 0 112 37.667 112 113c0 42.667 -12.333 72.834 -37 90.501
s-51.334 26.5 -80.001 26.5c-20.667 0 -38.334 -3.33301 -53.001 -10s-26.167 -15 -34.5 -25s-14.666 -23.333 -18.999 -40s-7.16602 -32.5 -8.49902 -47.5s-2 -33.5 -2 -55.5v-459h-69v480c0 140.667 61.333 211 184 211c34.667 0 65 -5.33301 91 -16
s45.667 -24.667 59 -42s23.166 -34.833 29.499 -52.5s9.5 -35.5 9.5 -53.5c0 -67.333 -31.333 -117 -94 -149c82 -28 123 -88.333 123 -181c0 -53.333 -15.167 -101 -45.5 -143s-74.5 -63 -132.5 -63c-19.333 0 -41 3 -65 9z" />
    <glyph glyph-name="agrave" unicode="&#xe0;" horiz-adv-x="438" 
d="M427 79l-0.00195312 -47c-38 -27.333 -67.667 -41 -89 -41c-26 0 -42.333 17 -49 51c-45.333 -34 -89 -51 -131 -51c-32 0 -59.333 10.833 -82 32.5s-34 48.834 -34 81.501c0 39.333 18.833 72.666 56.5 99.999s100.834 49 189.501 65v40c0 58 -29.667 87 -89 87
c-46 0 -92.667 -22 -140 -66v72c42.667 36.667 91.334 55 146.001 55c30 0 55.667 -4.83301 77 -14.5s37.166 -22.167 47.499 -37.5s17.5 -30.333 21.5 -45s6 -29.334 6 -44.001v-246c0 -9.33301 0.833008 -15.666 2.5 -18.999s4.83398 -5 9.50098 -5
c12.667 0 32 10.667 58 32zM287.998 89v135.999c-118 -21.333 -177 -59.666 -177 -114.999c0 -24 8.33301 -41.5 25 -52.5s33.667 -16.5 51 -16.5c33.333 0 67 16 101 48zM105.998 685.999h90l89 -157h-44z" />
    <glyph glyph-name="aacute" unicode="&#xe1;" horiz-adv-x="438" 
d="M427 79l-0.00195312 -47c-38 -27.333 -67.667 -41 -89 -41c-26 0 -42.333 17 -49 51c-45.333 -34 -89 -51 -131 -51c-32 0 -59.333 10.833 -82 32.5s-34 48.834 -34 81.501c0 39.333 18.833 72.666 56.5 99.999s100.834 49 189.501 65v40c0 58 -29.667 87 -89 87
c-46 0 -92.667 -22 -140 -66v72c42.667 36.667 91.334 55 146.001 55c30 0 55.667 -4.83301 77 -14.5s37.166 -22.167 47.499 -37.5s17.5 -30.333 21.5 -45s6 -29.334 6 -44.001v-246c0 -9.33301 0.833008 -15.666 2.5 -18.999s4.83398 -5 9.50098 -5
c12.667 0 32 10.667 58 32zM287.998 89v135.999c-118 -21.333 -177 -59.666 -177 -114.999c0 -24 8.33301 -41.5 25 -52.5s33.667 -16.5 51 -16.5c33.333 0 67 16 101 48zM332.998 685.999l-134 -157h-44l88 157h90z" />
    <glyph glyph-name="acircumflex" unicode="&#xe2;" horiz-adv-x="438" 
d="M427 79l-0.00195312 -47c-38 -27.333 -67.667 -41 -89 -41c-26 0 -42.333 17 -49 51c-45.333 -34 -89 -51 -131 -51c-32 0 -59.333 10.833 -82 32.5s-34 48.834 -34 81.501c0 39.333 18.833 72.666 56.5 99.999s100.834 49 189.501 65v40c0 58 -29.667 87 -89 87
c-46 0 -92.667 -22 -140 -66v72c42.667 36.667 91.334 55 146.001 55c30 0 55.667 -4.83301 77 -14.5s37.166 -22.167 47.499 -37.5s17.5 -30.333 21.5 -45s6 -29.334 6 -44.001v-246c0 -9.33301 0.833008 -15.666 2.5 -18.999s4.83398 -5 9.50098 -5
c12.667 0 32 10.667 58 32zM287.998 89v135.999c-118 -21.333 -177 -59.666 -177 -114.999c0 -24 8.33301 -41.5 25 -52.5s33.667 -16.5 51 -16.5c33.333 0 67 16 101 48zM242.998 685.999l100 -157h-47l-92 98l-92 -98h-46l100 157h77z" />
    <glyph glyph-name="atilde" unicode="&#xe3;" horiz-adv-x="438" 
d="M427 79l-0.00195312 -47c-38 -27.333 -67.667 -41 -89 -41c-26 0 -42.333 17 -49 51c-45.333 -34 -89 -51 -131 -51c-32 0 -59.333 10.833 -82 32.5s-34 48.834 -34 81.501c0 39.333 18.833 72.666 56.5 99.999s100.834 49 189.501 65v40c0 58 -29.667 87 -89 87
c-46 0 -92.667 -22 -140 -66v72c42.667 36.667 91.334 55 146.001 55c30 0 55.667 -4.83301 77 -14.5s37.166 -22.167 47.499 -37.5s17.5 -30.333 21.5 -45s6 -29.334 6 -44.001v-246c0 -9.33301 0.833008 -15.666 2.5 -18.999s4.83398 -5 9.50098 -5
c12.667 0 32 10.667 58 32zM287.998 89v135.999c-118 -21.333 -177 -59.666 -177 -114.999c0 -24 8.33301 -41.5 25 -52.5s33.667 -16.5 51 -16.5c33.333 0 67 16 101 48zM99.998 553.999h-35.999l3 23.5c0.666992 5 3 13.667 7 26s8.5 21.666 13.5 27.999
s12.5 12.5 22.5 18.5s21.667 9 35 9c22 0 51.667 -8 89 -24c30 -12.667 52 -19 66 -19c10 0 18 3 24 9s9.66699 11.333 11 16s2.66602 11.334 3.99902 20.001h36c0 -34.667 -8.33301 -61.167 -25 -79.5s-35.667 -27.5 -57 -27.5c-18 0 -42 6 -72 18
c-42.667 16.667 -70 25 -82 25c-21.333 0 -34.333 -14.333 -39 -43z" />
    <glyph glyph-name="adieresis" unicode="&#xe4;" horiz-adv-x="438" 
d="M427 79l-0.00195312 -47c-38 -27.333 -67.667 -41 -89 -41c-26 0 -42.333 17 -49 51c-45.333 -34 -89 -51 -131 -51c-32 0 -59.333 10.833 -82 32.5s-34 48.834 -34 81.501c0 39.333 18.833 72.666 56.5 99.999s100.834 49 189.501 65v40c0 58 -29.667 87 -89 87
c-46 0 -92.667 -22 -140 -66v72c42.667 36.667 91.334 55 146.001 55c30 0 55.667 -4.83301 77 -14.5s37.166 -22.167 47.499 -37.5s17.5 -30.333 21.5 -45s6 -29.334 6 -44.001v-246c0 -9.33301 0.833008 -15.666 2.5 -18.999s4.83398 -5 9.50098 -5
c12.667 0 32 10.667 58 32zM287.998 89v135.999c-118 -21.333 -177 -59.666 -177 -114.999c0 -24 8.33301 -41.5 25 -52.5s33.667 -16.5 51 -16.5c33.333 0 67 16 101 48zM111.998 651.999c12.667 0 23.334 -4.33301 32.001 -13s13 -19.334 13 -32.001
s-4.33301 -23.334 -13 -32.001s-19.334 -13 -32.001 -13s-23.334 4.33301 -32.001 13s-13 19.334 -13 32.001s4.33301 23.334 13 32.001s19.334 13 32.001 13zM296.998 651.999c12.667 0 23.334 -4.33301 32.001 -13s13 -19.334 13 -32.001s-4.33301 -23.334 -13 -32.001
s-19.334 -13 -32.001 -13s-23.334 4.33301 -32.001 13s-13 19.334 -13 32.001s4.33301 23.334 13 32.001s19.334 13 32.001 13z" />
    <glyph glyph-name="aring" unicode="&#xe5;" horiz-adv-x="438" 
d="M427 79l-0.00195312 -47c-38 -27.333 -67.667 -41 -89 -41c-26 0 -42.333 17 -49 51c-45.333 -34 -89 -51 -131 -51c-32 0 -59.333 10.833 -82 32.5s-34 48.834 -34 81.501c0 39.333 18.833 72.666 56.5 99.999s100.834 49 189.501 65v40c0 58 -29.667 87 -89 87
c-46 0 -92.667 -22 -140 -66v72c42.667 36.667 91.334 55 146.001 55c30 0 55.667 -4.83301 77 -14.5s37.166 -22.167 47.499 -37.5s17.5 -30.333 21.5 -45s6 -29.334 6 -44.001v-246c0 -9.33301 0.833008 -15.666 2.5 -18.999s4.83398 -5 9.50098 -5
c12.667 0 32 10.667 58 32zM287.998 89v135.999c-118 -21.333 -177 -59.666 -177 -114.999c0 -24 8.33301 -41.5 25 -52.5s33.667 -16.5 51 -16.5c33.333 0 67 16 101 48zM203.998 524.999c-26 0 -48 9 -66 27s-27 40 -27 66s9 48.167 27 66.5s40 27.5 66 27.5
s48.167 -9.16699 66.5 -27.5s27.5 -40.5 27.5 -66.5s-9.16699 -48 -27.5 -66s-40.5 -27 -66.5 -27zM203.998 567.999c14 0 26 4.83301 36 14.5s15 21.5 15 35.5s-5 26 -15 36s-22 15 -36 15s-25.833 -5 -35.5 -15s-14.5 -22 -14.5 -36s4.83301 -25.833 14.5 -35.5
s21.5 -14.5 35.5 -14.5z" />
    <glyph glyph-name="ae" unicode="&#xe6;" horiz-adv-x="671" 
d="M637 233l-283.007 0.00292969c-2 -36.667 1.66699 -67.834 11 -93.501s22 -44.334 38 -56.001s31 -19.834 45 -24.501s27.333 -7 40 -7c23.333 0 47 4.5 71 13.5s39 15.667 45 20l33 23.5v-71c-52 -31.333 -104 -47 -156 -47c-64.667 0 -115 23.333 -151 70
c-61.333 -46.667 -116.666 -70 -165.999 -70c-40.667 0 -71.167 11.833 -91.5 35.5s-30.5 50.5 -30.5 80.5c0 16 2.33301 30.167 7 42.5s13 23.833 25 34.5s23.333 19.5 34 26.5s27.5 14.833 50.5 23.5s42 15.334 57 20.001l69.5 21c0 14 -0.333008 25.5 -1 34.5
s-2.5 19.667 -5.5 32s-7.33301 22 -13 29s-14 13.167 -25 18.5s-24.5 8 -40.5 8c-45.333 0 -92.666 -22.333 -141.999 -67v78c45.333 33.333 94.333 50 147 50c60.667 0 104 -21 130 -63l6.5 6.5l8.5 8.5c2 2 5.16699 5 9.5 9s8.33301 7.16699 12 9.5l14 9
c5.66699 3.66699 11.334 6.5 17.001 8.5s11.834 4 18.501 6s13.834 3.5 21.501 4.5s15.5 1.5 23.5 1.5c34.667 0 64.334 -8.16699 89.001 -24.5s42.334 -37 53.001 -62s18.167 -47.333 22.5 -67s6.5 -37.834 6.5 -54.501v-17zM358.993 283.003l207 -0.000976562
c-2 32.667 -11.833 59.834 -29.5 81.501s-42.167 32.5 -73.5 32.5c-24 0 -46.333 -9.5 -67 -28.5s-33 -47.5 -37 -85.5zM284.993 84.002v148.001l-60 -20c-13.333 -4.66699 -28.833 -11 -46.5 -19s-30.5 -15.333 -38.5 -22s-15 -14.834 -21 -24.501s-9 -20.5 -9 -32.5
c0 -20 7.66699 -37.167 23 -51.5s33 -21.5 53 -21.5c24.667 0 57.667 14.333 99 43z" />
    <glyph glyph-name="ccedilla" unicode="&#xe7;" horiz-adv-x="429" 
d="M386 431l0.000976562 -74.001c-42.667 24.667 -83.667 37 -123 37c-36.667 0 -67 -10.667 -91 -32s-39.833 -44 -47.5 -68s-11.5 -47.667 -11.5 -71c0 -44 13.167 -83 39.5 -117s67.166 -51 122.499 -51c37.333 0 77.333 9.66699 120 29v-68
c-38 -15.333 -78 -23.666 -120 -24.999l-10 -27c50.667 -2.66699 76 -24.667 76 -66c0 -67.333 -61.333 -97 -184 -89l4 48c71.333 -0.666992 107 12.333 107 39c0 21.333 -26 32 -78 32l30 67c-56.667 9.33301 -100.5 34.5 -131.5 75.5s-46.5 91.167 -46.5 150.5
c0 72 20.833 129.5 62.5 172.5s94.5 64.5 158.5 64.5c38.667 0 79.667 -9 123 -27z" />
    <glyph glyph-name="egrave" unicode="&#xe8;" horiz-adv-x="481" 
d="M446 236v-15.999h-333c0 -52 15.5 -93 46.5 -123s69.167 -45 114.5 -45c58.667 0 113.667 21 165 63v-70c-53.333 -36 -111 -54 -173 -54c-71.333 0 -126.5 22.833 -165.5 68.5s-58.5 101.167 -58.5 166.5c0 73.333 20.5 130.333 61.5 171s89.167 61 144.5 61
c56 0 103 -20.833 141 -62.5s57 -94.834 57 -159.501zM117 270.001h258.001c-4.66699 44 -19.334 76.167 -44.001 96.5s-51.667 30.5 -81 30.5c-30.667 0 -58.5 -10.5 -83.5 -31.5s-41.5 -52.833 -49.5 -95.5zM132.001 686.001h90l89 -157h-44z" />
    <glyph glyph-name="eacute" unicode="&#xe9;" horiz-adv-x="481" 
d="M446 236v-15.999h-333c0 -52 15.5 -93 46.5 -123s69.167 -45 114.5 -45c58.667 0 113.667 21 165 63v-70c-53.333 -36 -111 -54 -173 -54c-71.333 0 -126.5 22.833 -165.5 68.5s-58.5 101.167 -58.5 166.5c0 73.333 20.5 130.333 61.5 171s89.167 61 144.5 61
c56 0 103 -20.833 141 -62.5s57 -94.834 57 -159.501zM117 270.001h258.001c-4.66699 44 -19.334 76.167 -44.001 96.5s-51.667 30.5 -81 30.5c-30.667 0 -58.5 -10.5 -83.5 -31.5s-41.5 -52.833 -49.5 -95.5zM369.001 686.001l-134 -157h-44l88 157h90z" />
    <glyph glyph-name="ecircumflex" unicode="&#xea;" horiz-adv-x="481" 
d="M446 236v-15.999h-333c0 -52 15.5 -93 46.5 -123s69.167 -45 114.5 -45c58.667 0 113.667 21 165 63v-70c-53.333 -36 -111 -54 -173 -54c-71.333 0 -126.5 22.833 -165.5 68.5s-58.5 101.167 -58.5 166.5c0 73.333 20.5 130.333 61.5 171s89.167 61 144.5 61
c56 0 103 -20.833 141 -62.5s57 -94.834 57 -159.501zM117 270.001h258.001c-4.66699 44 -19.334 76.167 -44.001 96.5s-51.667 30.5 -81 30.5c-30.667 0 -58.5 -10.5 -83.5 -31.5s-41.5 -52.833 -49.5 -95.5zM279.001 686.001l100 -157h-47l-92 98l-92 -98h-46l100 157h77z
" />
    <glyph glyph-name="edieresis" unicode="&#xeb;" horiz-adv-x="481" 
d="M446 236v-15.999h-333c0 -52 15.5 -93 46.5 -123s69.167 -45 114.5 -45c58.667 0 113.667 21 165 63v-70c-53.333 -36 -111 -54 -173 -54c-71.333 0 -126.5 22.833 -165.5 68.5s-58.5 101.167 -58.5 166.5c0 73.333 20.5 130.333 61.5 171s89.167 61 144.5 61
c56 0 103 -20.833 141 -62.5s57 -94.834 57 -159.501zM117 270.001h258.001c-4.66699 44 -19.334 76.167 -44.001 96.5s-51.667 30.5 -81 30.5c-30.667 0 -58.5 -10.5 -83.5 -31.5s-41.5 -52.833 -49.5 -95.5zM148.001 652.001c12.667 0 23.334 -4.33301 32.001 -13
s13 -19.334 13 -32.001s-4.33301 -23.334 -13 -32.001s-19.334 -13 -32.001 -13s-23.334 4.33301 -32.001 13s-13 19.334 -13 32.001s4.33301 23.334 13 32.001s19.334 13 32.001 13zM333.001 652.001c12.667 0 23.334 -4.33301 32.001 -13s13 -19.334 13 -32.001
s-4.33301 -23.334 -13 -32.001s-19.334 -13 -32.001 -13s-23.334 4.33301 -32.001 13s-13 19.334 -13 32.001s4.33301 23.334 13 32.001s19.334 13 32.001 13z" />
    <glyph glyph-name="igrave" unicode="&#xec;" horiz-adv-x="199" 
d="M134 449v-449h-69v449h69zM-14 686h90l89 -157h-44z" />
    <glyph glyph-name="iacute" unicode="&#xed;" horiz-adv-x="199" 
d="M134 449v-449h-69v449h69zM228 686l-134 -157h-44l88 157h90z" />
    <glyph glyph-name="icircumflex" unicode="&#xee;" horiz-adv-x="199" 
d="M134 449v-449h-69v449h69zM138 686l100 -157h-47l-92 98l-92 -98h-46l100 157h77z" />
    <glyph glyph-name="idieresis" unicode="&#xef;" horiz-adv-x="199" 
d="M134 449v-449h-69v449h69zM7 652c12.667 0 23.334 -4.33301 32.001 -13s13 -19.334 13 -32.001s-4.33301 -23.334 -13 -32.001s-19.334 -13 -32.001 -13s-23.334 4.33301 -32.001 13s-13 19.334 -13 32.001s4.33301 23.334 13 32.001s19.334 13 32.001 13zM192 652
c12.667 0 23.334 -4.33301 32.001 -13s13 -19.334 13 -32.001s-4.33301 -23.334 -13 -32.001s-19.334 -13 -32.001 -13s-23.334 4.33301 -32.001 13s-13 19.334 -13 32.001s4.33301 23.334 13 32.001s19.334 13 32.001 13z" />
    <glyph glyph-name="eth" unicode="&#xf0;" horiz-adv-x="550" 
d="M293 628l95.001 46.001l20 -44l-70 -33c114 -93.333 171 -209.666 171 -348.999c0 -38.667 -5.16699 -73.334 -15.5 -104.001s-23.5 -55.334 -39.5 -74.001s-34.833 -34.167 -56.5 -46.5s-42.834 -20.833 -63.501 -25.5s-42 -7 -64 -7
c-73.333 0 -129.666 23.5 -168.999 70.5s-59 100.5 -59 160.5c0 38 8 74.5 24 109.5s41.667 64.833 77 89.5s77 37 125 37c48.667 0 95.334 -17 140.001 -51c-18 40.667 -36.167 71.5 -54.5 92.5s-43.833 43.5 -76.5 67.5l-128 -61l-20 43l100 48
c-32.667 18.667 -66.334 33.667 -101.001 45l32 49c43.333 -14.667 87.666 -35.667 132.999 -63zM276.001 397.001c-50.667 0 -90.5 -17.5 -119.5 -52.5s-43.5 -74.833 -43.5 -119.5c0 -48 15.5 -88.833 46.5 -122.5s69.833 -50.5 116.5 -50.5s85.334 16.833 116.001 50.5
s46 74.5 46 122.5c0 49.333 -15.833 90.333 -47.5 123s-69.834 49 -114.501 49z" />
    <glyph glyph-name="ntilde" unicode="&#xf1;" horiz-adv-x="492" 
d="M65 449l68.999 -0.000976562v-68c38.667 51.333 85.667 77 141 77c50 0 89.333 -17 118 -51s43 -80.333 43 -139v-268h-69v262c0 40.667 -8.66699 73.334 -26 98.001s-44.666 37 -81.999 37c-52 0 -93.667 -26.333 -125 -79v-318h-69v449zM126.999 553.999h-35.999
l3 23.5c0.666992 5 3 13.667 7 26s8.5 21.666 13.5 27.999s12.5 12.5 22.5 18.5s21.667 9 35 9c22 0 51.667 -8 89 -24c30 -12.667 52 -19 66 -19c10 0 18 3 24 9s9.66699 11.333 11 16s2.66602 11.334 3.99902 20.001h36c0 -34.667 -8.33301 -61.167 -25 -79.5
s-35.667 -27.5 -57 -27.5c-18 0 -42 6 -72 18c-42.667 16.667 -70 25 -82 25c-21.333 0 -34.333 -14.333 -39 -43z" />
    <glyph glyph-name="ograve" unicode="&#xf2;" horiz-adv-x="552" 
d="M275 458c64.667 0 119.834 -22.667 165.501 -68s68.5 -100.333 68.5 -165s-22.833 -119.834 -68.5 -165.501s-100.834 -68.5 -165.501 -68.5s-119.667 22.833 -165 68.5s-68 100.834 -68 165.501s22.667 119.667 68 165s100.333 68 165 68zM276 397
c-46.667 0 -85.5 -16.667 -116.5 -50s-46.5 -74 -46.5 -122s15.5 -88.833 46.5 -122.5s69.833 -50.5 116.5 -50.5s85.334 16.833 116.001 50.5s46 74.5 46 122.5s-15.333 88.667 -46 122s-69.334 50 -116.001 50zM163 686h90l89 -157h-44z" />
    <glyph glyph-name="oacute" unicode="&#xf3;" horiz-adv-x="552" 
d="M275 458c64.667 0 119.834 -22.667 165.501 -68s68.5 -100.333 68.5 -165s-22.833 -119.834 -68.5 -165.501s-100.834 -68.5 -165.501 -68.5s-119.667 22.833 -165 68.5s-68 100.834 -68 165.501s22.667 119.667 68 165s100.333 68 165 68zM276 397
c-46.667 0 -85.5 -16.667 -116.5 -50s-46.5 -74 -46.5 -122s15.5 -88.833 46.5 -122.5s69.833 -50.5 116.5 -50.5s85.334 16.833 116.001 50.5s46 74.5 46 122.5s-15.333 88.667 -46 122s-69.334 50 -116.001 50zM405 686l-134 -157h-44l88 157h90z" />
    <glyph glyph-name="ocircumflex" unicode="&#xf4;" horiz-adv-x="552" 
d="M275 458c64.667 0 119.834 -22.667 165.501 -68s68.5 -100.333 68.5 -165s-22.833 -119.834 -68.5 -165.501s-100.834 -68.5 -165.501 -68.5s-119.667 22.833 -165 68.5s-68 100.834 -68 165.501s22.667 119.667 68 165s100.333 68 165 68zM276 397
c-46.667 0 -85.5 -16.667 -116.5 -50s-46.5 -74 -46.5 -122s15.5 -88.833 46.5 -122.5s69.833 -50.5 116.5 -50.5s85.334 16.833 116.001 50.5s46 74.5 46 122.5s-15.333 88.667 -46 122s-69.334 50 -116.001 50zM315 686l100 -157h-47l-92 98l-92 -98h-46l100 157h77z" />
    <glyph glyph-name="otilde" unicode="&#xf5;" horiz-adv-x="552" 
d="M275 458c64.667 0 119.834 -22.667 165.501 -68s68.5 -100.333 68.5 -165s-22.833 -119.834 -68.5 -165.501s-100.834 -68.5 -165.501 -68.5s-119.667 22.833 -165 68.5s-68 100.834 -68 165.501s22.667 119.667 68 165s100.333 68 165 68zM276 397
c-46.667 0 -85.5 -16.667 -116.5 -50s-46.5 -74 -46.5 -122s15.5 -88.833 46.5 -122.5s69.833 -50.5 116.5 -50.5s85.334 16.833 116.001 50.5s46 74.5 46 122.5s-15.333 88.667 -46 122s-69.334 50 -116.001 50zM157 554h-35.999l3 23.5c0.666992 5 3 13.667 7 26
s8.5 21.666 13.5 27.999s12.5 12.5 22.5 18.5s21.667 9 35 9c22 0 51.667 -8 89 -24c30 -12.667 52 -19 66 -19c10 0 18 3 24 9s9.66699 11.333 11 16s2.66602 11.334 3.99902 20.001h36c0 -34.667 -8.33301 -61.167 -25 -79.5s-35.667 -27.5 -57 -27.5c-18 0 -42 6 -72 18
c-42.667 16.667 -70 25 -82 25c-21.333 0 -34.333 -14.333 -39 -43z" />
    <glyph glyph-name="odieresis" unicode="&#xf6;" horiz-adv-x="552" 
d="M275 458c64.667 0 119.834 -22.667 165.501 -68s68.5 -100.333 68.5 -165s-22.833 -119.834 -68.5 -165.501s-100.834 -68.5 -165.501 -68.5s-119.667 22.833 -165 68.5s-68 100.834 -68 165.501s22.667 119.667 68 165s100.333 68 165 68zM276 397
c-46.667 0 -85.5 -16.667 -116.5 -50s-46.5 -74 -46.5 -122s15.5 -88.833 46.5 -122.5s69.833 -50.5 116.5 -50.5s85.334 16.833 116.001 50.5s46 74.5 46 122.5s-15.333 88.667 -46 122s-69.334 50 -116.001 50zM184 652c12.667 0 23.334 -4.33301 32.001 -13
s13 -19.334 13 -32.001s-4.33301 -23.334 -13 -32.001s-19.334 -13 -32.001 -13s-23.334 4.33301 -32.001 13s-13 19.334 -13 32.001s4.33301 23.334 13 32.001s19.334 13 32.001 13zM369 652c12.667 0 23.334 -4.33301 32.001 -13s13 -19.334 13 -32.001
s-4.33301 -23.334 -13 -32.001s-19.334 -13 -32.001 -13s-23.334 4.33301 -32.001 13s-13 19.334 -13 32.001s4.33301 23.334 13 32.001s19.334 13 32.001 13z" />
    <glyph glyph-name="divide" unicode="&#xf7;" horiz-adv-x="667" 
d="M333 523c-11.333 0 -21 4 -29 12s-12 17.667 -12 29s4 21.166 12 29.499s17.667 12.5 29 12.5s21.166 -4.16699 29.499 -12.5s12.5 -18.166 12.5 -29.499s-4.16699 -21 -12.5 -29s-18.166 -12 -29.499 -12zM68 373h531v-65h-531v65zM333 158
c11.333 0 21.166 -4 29.499 -12s12.5 -17.667 12.5 -29s-4.16699 -21.166 -12.5 -29.499s-18.166 -12.5 -29.499 -12.5s-21 4.16699 -29 12.5s-12 18.166 -12 29.499s4 21 12 29s17.667 12 29 12z" />
    <glyph glyph-name="oslash" unicode="&#xf8;" horiz-adv-x="552" 
d="M141 34l-56 -63l-33 30l55 62c-43.333 46 -65 99.667 -65 161c0 64 22.333 119 67 165s100.667 69 168 69c52 0 97 -14.667 135 -44l55 64l33 -28l-56 -65c43.333 -44 65 -97 65 -159c0 -49.333 -12.167 -92.333 -36.5 -129s-53.833 -63.5 -88.5 -80.5
s-70.667 -25.5 -108 -25.5c-49.333 0 -94.333 14.333 -135 43zM402 337l-220 -255c28 -20 58.667 -30 92 -30c49.333 0 89 16.667 119 50s45 74.333 45 123c0 44.667 -12 82 -36 112zM149 112l220.997 254c-0.666992 0.666992 -3.5 2.66699 -8.5 6s-9.66699 6 -14 8
s-10.166 4.5 -17.499 7.5s-15.666 5.33301 -24.999 7s-19.333 2.5 -30 2.5c-47.333 0 -86.166 -16.167 -116.499 -48.5s-45.5 -73.5 -45.5 -123.5c0 -44 12 -81.667 36 -113z" />
    <glyph glyph-name="ugrave" unicode="&#xf9;" horiz-adv-x="492" 
d="M427 0l-68.999 0.000976562v68c-38.667 -51.333 -85.667 -77 -141 -77c-50 0 -89.333 17 -118 51s-43 80.333 -43 139v268h69v-262c0 -40.667 8.66699 -73.334 26 -98.001s44.666 -37 81.999 -37c52 0 93.667 26.333 125 79v318h69v-449zM133.001 686.001h90l89 -157h-44
z" />
    <glyph glyph-name="uacute" unicode="&#xfa;" horiz-adv-x="492" 
d="M427 0l-68.999 0.000976562v68c-38.667 -51.333 -85.667 -77 -141 -77c-50 0 -89.333 17 -118 51s-43 80.333 -43 139v268h69v-262c0 -40.667 8.66699 -73.334 26 -98.001s44.666 -37 81.999 -37c52 0 93.667 26.333 125 79v318h69v-449zM375.001 686.001l-134 -157h-44
l88 157h90z" />
    <glyph glyph-name="ucircumflex" unicode="&#xfb;" horiz-adv-x="492" 
d="M427 0l-68.999 0.000976562v68c-38.667 -51.333 -85.667 -77 -141 -77c-50 0 -89.333 17 -118 51s-43 80.333 -43 139v268h69v-262c0 -40.667 8.66699 -73.334 26 -98.001s44.666 -37 81.999 -37c52 0 93.667 26.333 125 79v318h69v-449zM285.001 686.001l100 -157h-47
l-92 98l-92 -98h-46l100 157h77z" />
    <glyph glyph-name="udieresis" unicode="&#xfc;" horiz-adv-x="492" 
d="M427 0l-68.999 0.000976562v68c-38.667 -51.333 -85.667 -77 -141 -77c-50 0 -89.333 17 -118 51s-43 80.333 -43 139v268h69v-262c0 -40.667 8.66699 -73.334 26 -98.001s44.666 -37 81.999 -37c52 0 93.667 26.333 125 79v318h69v-449zM154.001 652.001
c12.667 0 23.334 -4.33301 32.001 -13s13 -19.334 13 -32.001s-4.33301 -23.334 -13 -32.001s-19.334 -13 -32.001 -13s-23.334 4.33301 -32.001 13s-13 19.334 -13 32.001s4.33301 23.334 13 32.001s19.334 13 32.001 13zM339.001 652.001
c12.667 0 23.334 -4.33301 32.001 -13s13 -19.334 13 -32.001s-4.33301 -23.334 -13 -32.001s-19.334 -13 -32.001 -13s-23.334 4.33301 -32.001 13s-13 19.334 -13 32.001s4.33301 23.334 13 32.001s19.334 13 32.001 13z" />
    <glyph glyph-name="yacute" unicode="&#xfd;" horiz-adv-x="432" 
d="M430 449l-327 -679h-74l155 322l-182 357h75l143 -283l135 283h75zM345 686l-134 -157h-44l88 157h90z" />
    <glyph glyph-name="thorn" unicode="&#xfe;" horiz-adv-x="513" 
d="M65 682l68.999 -0.000976562v-250c32.667 17.333 67 26 103 26c40 0 77 -7.5 111 -22.5s63 -40.667 87 -77s36 -81.166 36 -134.499c0 -68.667 -20.167 -124.667 -60.5 -168s-94.166 -65 -161.499 -65c-34.667 0 -73 9 -115 27v-239h-69v903zM133.999 370.999
l-0.000976562 -289.999c32.667 -18.667 67.334 -28 104.001 -28c44.667 0 82.667 14.167 114 42.5s47 70.833 47 127.5c0 49.333 -14.333 90.666 -43 123.999s-72 50 -130 50c-33.333 0 -64 -8.66699 -92 -26z" />
    <glyph glyph-name="ydieresis" unicode="&#xff;" horiz-adv-x="432" 
d="M430 449l-327 -679h-74l155 322l-182 357h75l143 -283l135 283h75zM124 652c12.667 0 23.334 -4.33301 32.001 -13s13 -19.334 13 -32.001s-4.33301 -23.334 -13 -32.001s-19.334 -13 -32.001 -13s-23.334 4.33301 -32.001 13s-13 19.334 -13 32.001
s4.33301 23.334 13 32.001s19.334 13 32.001 13zM309 652c12.667 0 23.334 -4.33301 32.001 -13s13 -19.334 13 -32.001s-4.33301 -23.334 -13 -32.001s-19.334 -13 -32.001 -13s-23.334 4.33301 -32.001 13s-13 19.334 -13 32.001s4.33301 23.334 13 32.001
s19.334 13 32.001 13z" />
    <glyph glyph-name="Amacron" unicode="&#x100;" horiz-adv-x="668" 
d="M355 686l311 -686h-78l-99 219h-312l-97 -219h-78l303 686h50zM458 285l-128 283l-124 -283h252zM483 838v-63h-299v63h299z" />
    <glyph glyph-name="amacron" unicode="&#x101;" horiz-adv-x="438" 
d="M427 79l-0.00195312 -47c-38 -27.333 -67.667 -41 -89 -41c-26 0 -42.333 17 -49 51c-45.333 -34 -89 -51 -131 -51c-32 0 -59.333 10.833 -82 32.5s-34 48.834 -34 81.501c0 39.333 18.833 72.666 56.5 99.999s100.834 49 189.501 65v40c0 58 -29.667 87 -89 87
c-46 0 -92.667 -22 -140 -66v72c42.667 36.667 91.334 55 146.001 55c30 0 55.667 -4.83301 77 -14.5s37.166 -22.167 47.499 -37.5s17.5 -30.333 21.5 -45s6 -29.334 6 -44.001v-246c0 -9.33301 0.833008 -15.666 2.5 -18.999s4.83398 -5 9.50098 -5
c12.667 0 32 10.667 58 32zM287.998 89v135.999c-118 -21.333 -177 -59.666 -177 -114.999c0 -24 8.33301 -41.5 25 -52.5s33.667 -16.5 51 -16.5c33.333 0 67 16 101 48zM357.998 638.999v-63h-299v63h299z" />
    <glyph glyph-name="Abreve" unicode="&#x102;" horiz-adv-x="668" 
d="M355 686l311 -686h-78l-99 219h-312l-97 -219h-78l303 686h50zM458 285l-128 283l-124 -283h252zM195 850l53 -0.000976562c17.333 -44 46.333 -66 87 -66c23.333 0 41 5.83301 53 17.5s22.333 27.834 31 48.501h53c-24.667 -81.333 -70.667 -122 -138 -122
c-37.333 0 -68 12.167 -92 36.5s-39.667 52.833 -47 85.5z" />
    <glyph glyph-name="abreve" unicode="&#x103;" horiz-adv-x="438" 
d="M427 79l-0.00195312 -47c-38 -27.333 -67.667 -41 -89 -41c-26 0 -42.333 17 -49 51c-45.333 -34 -89 -51 -131 -51c-32 0 -59.333 10.833 -82 32.5s-34 48.834 -34 81.501c0 39.333 18.833 72.666 56.5 99.999s100.834 49 189.501 65v40c0 58 -29.667 87 -89 87
c-46 0 -92.667 -22 -140 -66v72c42.667 36.667 91.334 55 146.001 55c30 0 55.667 -4.83301 77 -14.5s37.166 -22.167 47.499 -37.5s17.5 -30.333 21.5 -45s6 -29.334 6 -44.001v-246c0 -9.33301 0.833008 -15.666 2.5 -18.999s4.83398 -5 9.50098 -5
c12.667 0 32 10.667 58 32zM287.998 89v135.999c-118 -21.333 -177 -59.666 -177 -114.999c0 -24 8.33301 -41.5 25 -52.5s33.667 -16.5 51 -16.5c33.333 0 67 16 101 48zM64.998 650.999l53 -0.000976562c17.333 -44 46.333 -66 87 -66c23.333 0 41 5.83301 53 17.5
s22.333 27.834 31 48.501h53c-24.667 -81.333 -70.667 -122 -138 -122c-37.333 0 -68 12.167 -92 36.5s-39.667 52.833 -47 85.5z" />
    <glyph glyph-name="Aogonek" unicode="&#x104;" horiz-adv-x="668" 
d="M588 0l-98.999 219h-312l-97 -219h-78l303 686h50l311 -686h-19c-26 -32.667 -39 -57.667 -39 -75c0 -15.333 6.33301 -28.333 19 -39s27.667 -16 45 -16c9.33301 0 21.333 2 36 6v-58c-20.667 -7.33301 -40.667 -11 -60 -11c-32.667 0 -59.334 8.83301 -80.001 26.5
s-31 41.167 -31 70.5c0 33.333 17 65.333 51 96zM458.001 285l-128 283l-124 -283h252z" />
    <glyph glyph-name="aogonek" unicode="&#x105;" horiz-adv-x="438" 
d="M425 -112l-0.000976562 -52.002c-26.667 -6.66699 -46.334 -10 -59.001 -10c-22.667 0 -44 7.33301 -64 22s-30 37 -30 67c0 32 13.667 59.667 41 83c-11.333 6.66699 -19.333 21.334 -24 44.001c-45.333 -34 -89 -51 -131 -51c-32 0 -59.333 10.833 -82 32.5
s-34 48.834 -34 81.501c0 39.333 18.833 72.666 56.5 99.999s100.834 49 189.501 65v40c0 58 -29.667 87 -89 87c-46 0 -92.667 -22 -140 -66v72c42.667 36.667 91.334 55 146.001 55c30 0 55.667 -4.83301 77 -14.5s37.166 -22.167 47.499 -37.5s17.5 -30.333 21.5 -45
s6 -29.334 6 -44.001v-246c0 -9.33301 0.833008 -15.666 2.5 -18.999s4.83398 -5 9.50098 -5c12.667 0 32 10.667 58 32v-47c-6 -4 -16.833 -10.833 -32.5 -20.5s-26.5 -16.667 -32.5 -21s-12 -11.666 -18 -21.999s-9 -21.833 -9 -34.5c0 -16.667 6 -29.5 18 -38.5
s24.333 -13.5 37 -13.5c3.33301 0 15 2 35 6zM287.999 88.998v135.999c-118 -21.333 -177 -59.666 -177 -114.999c0 -24 8.33301 -41.5 25 -52.5s33.667 -16.5 51 -16.5c33.333 0 67 16 101 48z" />
    <glyph glyph-name="Cacute" unicode="&#x106;" horiz-adv-x="694" 
d="M650 634v-80.999c-82 44.667 -161 67 -237 67c-81.333 0 -149.333 -26.667 -204 -80s-82 -120.333 -82 -201s27 -147 81 -199s121.333 -78 202 -78c82 0 164.333 24 247 72v-81c-77.333 -41.333 -159 -62 -245 -62c-107.333 0 -195 33.667 -263 101
s-102 149.666 -102 246.999c0 103.333 36 187.833 108 253.5s156 98.5 252 98.5c76 0 157 -19 243 -57zM506 885.001l-134 -157h-44l88 157h90z" />
    <glyph glyph-name="cacute" unicode="&#x107;" horiz-adv-x="429" 
d="M386 431l0.000976562 -74c-42.667 24.667 -83.667 37 -123 37c-36.667 0 -67 -10.667 -91 -32s-39.833 -44 -47.5 -68s-11.5 -47.667 -11.5 -71c0 -44 13.167 -83 39.5 -117s67.166 -51 122.499 -51c37.333 0 77.333 9.66699 120 29v-68
c-44 -16.667 -86.333 -25 -127 -25c-70.667 0 -126 21.5 -166 64.5s-60 98.167 -60 165.5c0 72 20.833 129.5 62.5 172.5s94.5 64.5 158.5 64.5c38.667 0 79.667 -9 123 -27zM379.001 686l-134 -157h-44l88 157h90z" />
    <glyph glyph-name="Ccircumflex" unicode="&#x108;" horiz-adv-x="694" 
d="M650 634v-80.999c-82 44.667 -161 67 -237 67c-81.333 0 -149.333 -26.667 -204 -80s-82 -120.333 -82 -201s27 -147 81 -199s121.333 -78 202 -78c82 0 164.333 24 247 72v-81c-77.333 -41.333 -159 -62 -245 -62c-107.333 0 -195 33.667 -263 101
s-102 149.666 -102 246.999c0 103.333 36 187.833 108 253.5s156 98.5 252 98.5c76 0 157 -19 243 -57zM433 885.001l100 -157h-47l-92 98l-92 -98h-46l100 157h77z" />
    <glyph glyph-name="ccircumflex" unicode="&#x109;" horiz-adv-x="429" 
d="M386 431l0.000976562 -74c-42.667 24.667 -83.667 37 -123 37c-36.667 0 -67 -10.667 -91 -32s-39.833 -44 -47.5 -68s-11.5 -47.667 -11.5 -71c0 -44 13.167 -83 39.5 -117s67.166 -51 122.499 -51c37.333 0 77.333 9.66699 120 29v-68
c-44 -16.667 -86.333 -25 -127 -25c-70.667 0 -126 21.5 -166 64.5s-60 98.167 -60 165.5c0 72 20.833 129.5 62.5 172.5s94.5 64.5 158.5 64.5c38.667 0 79.667 -9 123 -27zM277.001 686l100 -157h-47l-92 98l-92 -98h-46l100 157h77z" />
    <glyph glyph-name="Cdotaccent" unicode="&#x10a;" horiz-adv-x="694" 
d="M650 634v-80.999c-82 44.667 -161 67 -237 67c-81.333 0 -149.333 -26.667 -204 -80s-82 -120.333 -82 -201s27 -147 81 -199s121.333 -78 202 -78c82 0 164.333 24 247 72v-81c-77.333 -41.333 -159 -62 -245 -62c-107.333 0 -195 33.667 -263 101
s-102 149.666 -102 246.999c0 103.333 36 187.833 108 253.5s156 98.5 252 98.5c76 0 157 -19 243 -57zM389 853.001c13.333 0 24.666 -4.66699 33.999 -14s14 -20.666 14 -33.999s-4.66699 -24.666 -14 -33.999s-20.666 -14 -33.999 -14s-24.666 4.66699 -33.999 14
s-14 20.666 -14 33.999s4.66699 24.666 14 33.999s20.666 14 33.999 14z" />
    <glyph glyph-name="cdotaccent" unicode="&#x10b;" horiz-adv-x="429" 
d="M386 431l0.000976562 -74c-42.667 24.667 -83.667 37 -123 37c-36.667 0 -67 -10.667 -91 -32s-39.833 -44 -47.5 -68s-11.5 -47.667 -11.5 -71c0 -44 13.167 -83 39.5 -117s67.166 -51 122.499 -51c37.333 0 77.333 9.66699 120 29v-68
c-44 -16.667 -86.333 -25 -127 -25c-70.667 0 -126 21.5 -166 64.5s-60 98.167 -60 165.5c0 72 20.833 129.5 62.5 172.5s94.5 64.5 158.5 64.5c38.667 0 79.667 -9 123 -27zM239.001 652c12.667 0 23.334 -4.33301 32.001 -13s13 -19.334 13 -32.001
s-4.33301 -23.334 -13 -32.001s-19.334 -13 -32.001 -13s-23.334 4.33301 -32.001 13s-13 19.334 -13 32.001s4.33301 23.334 13 32.001s19.334 13 32.001 13z" />
    <glyph glyph-name="Ccaron" unicode="&#x10c;" horiz-adv-x="694" 
d="M650 634v-80.999c-82 44.667 -161 67 -237 67c-81.333 0 -149.333 -26.667 -204 -80s-82 -120.333 -82 -201s27 -147 81 -199s121.333 -78 202 -78c82 0 164.333 24 247 72v-81c-77.333 -41.333 -159 -62 -245 -62c-107.333 0 -195 33.667 -263 101
s-102 149.666 -102 246.999c0 103.333 36 187.833 108 253.5s156 98.5 252 98.5c76 0 157 -19 243 -57zM346 728.001l-100 157h47l92 -98l92 98h46l-100 -157h-77z" />
    <glyph glyph-name="ccaron" unicode="&#x10d;" horiz-adv-x="429" 
d="M386 431l0.000976562 -74c-42.667 24.667 -83.667 37 -123 37c-36.667 0 -67 -10.667 -91 -32s-39.833 -44 -47.5 -68s-11.5 -47.667 -11.5 -71c0 -44 13.167 -83 39.5 -117s67.166 -51 122.499 -51c37.333 0 77.333 9.66699 120 29v-68
c-44 -16.667 -86.333 -25 -127 -25c-70.667 0 -126 21.5 -166 64.5s-60 98.167 -60 165.5c0 72 20.833 129.5 62.5 172.5s94.5 64.5 158.5 64.5c38.667 0 79.667 -9 123 -27zM203.001 529l-100 157h47l92 -98l92 98h46l-100 -157h-77z" />
    <glyph glyph-name="Dcaron" unicode="&#x10e;" horiz-adv-x="746" 
d="M80 682h211c56.667 0 108.834 -6.33301 156.501 -19s90.667 -32 129 -58s68.333 -61.5 90 -106.5s32.5 -97.5 32.5 -157.5s-10.833 -112.5 -32.5 -157.5s-51.667 -80.5 -90 -106.5s-81.333 -45.333 -129 -58s-99.834 -19 -156.501 -19h-211v682zM155 616v-549.998h141
c31.333 0 60.666 2 87.999 6s55.833 12.167 85.5 24.5s55.167 28.166 76.5 47.499s38.833 46 52.5 80s20.5 73 20.5 117s-6.83301 83 -20.5 117s-31.167 60.667 -52.5 80s-46.833 35.166 -76.5 47.499s-58.167 20.5 -85.5 24.5s-56.666 6 -87.999 6h-141zM288 728.002
l-100 157h47l92 -98l92 98h46l-100 -157h-77z" />
    <glyph glyph-name="dcaron" unicode="&#x10f;" horiz-adv-x="555" 
d="M448 0h-158c-78.667 -0 -139.667 19.333 -183 58s-65 94 -65 166c0 66 19.833 121.5 59.5 166.5s94.167 67.5 163.5 67.5c33.333 0 71.333 -9 114 -27v251h69v-682zM379 61v307.002c-34.667 19.333 -69 29 -103 29c-52.667 0 -93 -16.333 -121 -49
s-42 -73.334 -42 -122.001c0 -52.667 16.167 -93.334 48.5 -122.001s75.5 -43 129.5 -43h88zM497 471.002l-0.00195312 15.998c27.333 27.333 39 57.333 35 90c-29.333 9.33301 -44 28 -44 56c0 17.333 5.16699 31.333 15.5 42s21.833 16 34.5 16
c18.667 0 33 -7.66699 43 -23s15 -34.666 15 -57.999c0 -10.667 -1.16699 -21.667 -3.5 -33s-6.66602 -24.166 -12.999 -38.499s-16.666 -27.5 -30.999 -39.5s-31.5 -21.333 -51.5 -28z" />
    <glyph glyph-name="Dcroat" unicode="&#x110;" horiz-adv-x="746" 
d="M80 682h211c56.667 0 108.834 -6.33301 156.501 -19s90.667 -32 129 -58s68.333 -61.5 90 -106.5s32.5 -97.5 32.5 -157.5s-10.833 -112.5 -32.5 -157.5s-51.667 -80.5 -90 -106.5s-81.333 -45.333 -129 -58s-99.834 -19 -156.501 -19h-211v314h-91v54h91v314zM155 616
v-247.998h207v-54h-207v-248h141c31.333 0 60.666 2 87.999 6s55.833 12.167 85.5 24.5s55.167 28.166 76.5 47.499s38.833 46 52.5 80s20.5 73 20.5 117s-6.83301 83 -20.5 117s-31.167 60.667 -52.5 80s-46.833 35.166 -76.5 47.499s-58.167 20.5 -85.5 24.5
s-56.666 6 -87.999 6h-141z" />
    <glyph glyph-name="dcroat" unicode="&#x111;" horiz-adv-x="513" 
d="M249 541v46h130v95h69v-95h69v-46h-69v-541h-158c-78.667 -0 -139.667 19.333 -183 58s-65 94 -65 166c0 66 19.833 121.5 59.5 166.5s94.167 67.5 163.5 67.5c33.333 0 71.333 -9 114 -27v110h-130zM379 61v307.002c-34.667 19.333 -69 29 -103 29
c-52.667 0 -93 -16.333 -121 -49s-42 -73.334 -42 -122.001c0 -52.667 16.167 -93.334 48.5 -122.001s75.5 -43 129.5 -43h88z" />
    <glyph glyph-name="Emacron" unicode="&#x112;" horiz-adv-x="499" 
d="M460 682v-66h-305v-239h296v-66h-296v-245h313v-66h-388v682h380zM414 838v-63h-299v63h299z" />
    <glyph glyph-name="emacron" unicode="&#x113;" horiz-adv-x="481" 
d="M446 236v-15.999h-333c0 -52 15.5 -93 46.5 -123s69.167 -45 114.5 -45c58.667 0 113.667 21 165 63v-70c-53.333 -36 -111 -54 -173 -54c-71.333 0 -126.5 22.833 -165.5 68.5s-58.5 101.167 -58.5 166.5c0 73.333 20.5 130.333 61.5 171s89.167 61 144.5 61
c56 0 103 -20.833 141 -62.5s57 -94.834 57 -159.501zM117 270.001h258.001c-4.66699 44 -19.334 76.167 -44.001 96.5s-51.667 30.5 -81 30.5c-30.667 0 -58.5 -10.5 -83.5 -31.5s-41.5 -52.833 -49.5 -95.5zM400.001 639.001v-63h-299v63h299z" />
    <glyph glyph-name="Ebreve" unicode="&#x114;" horiz-adv-x="499" 
d="M460 682v-66h-305v-239h296v-66h-296v-245h313v-66h-388v682h380zM127 850l53 -0.000976562c17.333 -44 46.333 -66 87 -66c23.333 0 41 5.83301 53 17.5s22.333 27.834 31 48.501h53c-24.667 -81.333 -70.667 -122 -138 -122c-37.333 0 -68 12.167 -92 36.5
s-39.667 52.833 -47 85.5z" />
    <glyph glyph-name="ebreve" unicode="&#x115;" horiz-adv-x="481" 
d="M446 236v-15.999h-333c0 -52 15.5 -93 46.5 -123s69.167 -45 114.5 -45c58.667 0 113.667 21 165 63v-70c-53.333 -36 -111 -54 -173 -54c-71.333 0 -126.5 22.833 -165.5 68.5s-58.5 101.167 -58.5 166.5c0 73.333 20.5 130.333 61.5 171s89.167 61 144.5 61
c56 0 103 -20.833 141 -62.5s57 -94.834 57 -159.501zM117 270.001h258.001c-4.66699 44 -19.334 76.167 -44.001 96.5s-51.667 30.5 -81 30.5c-30.667 0 -58.5 -10.5 -83.5 -31.5s-41.5 -52.833 -49.5 -95.5zM112.001 651.001l53 -0.000976562
c17.333 -44 46.333 -66 87 -66c23.333 0 41 5.83301 53 17.5s22.333 27.834 31 48.501h53c-24.667 -81.333 -70.667 -122 -138 -122c-37.333 0 -68 12.167 -92 36.5s-39.667 52.833 -47 85.5z" />
    <glyph glyph-name="Edotaccent" unicode="&#x116;" horiz-adv-x="499" 
d="M460 682v-66h-305v-239h296v-66h-296v-245h313v-66h-388v682h380zM269 853c13.333 0 24.666 -4.66699 33.999 -14s14 -20.666 14 -33.999s-4.66699 -24.666 -14 -33.999s-20.666 -14 -33.999 -14s-24.666 4.66699 -33.999 14s-14 20.666 -14 33.999
s4.66699 24.666 14 33.999s20.666 14 33.999 14z" />
    <glyph glyph-name="edotaccent" unicode="&#x117;" horiz-adv-x="481" 
d="M446 236v-15.999h-333c0 -52 15.5 -93 46.5 -123s69.167 -45 114.5 -45c58.667 0 113.667 21 165 63v-70c-53.333 -36 -111 -54 -173 -54c-71.333 0 -126.5 22.833 -165.5 68.5s-58.5 101.167 -58.5 166.5c0 73.333 20.5 130.333 61.5 171s89.167 61 144.5 61
c56 0 103 -20.833 141 -62.5s57 -94.834 57 -159.501zM117 270.001h258.001c-4.66699 44 -19.334 76.167 -44.001 96.5s-51.667 30.5 -81 30.5c-30.667 0 -58.5 -10.5 -83.5 -31.5s-41.5 -52.833 -49.5 -95.5zM250.001 652.001c12.667 0 23.334 -4.33301 32.001 -13
s13 -19.334 13 -32.001s-4.33301 -23.334 -13 -32.001s-19.334 -13 -32.001 -13s-23.334 4.33301 -32.001 13s-13 19.334 -13 32.001s4.33301 23.334 13 32.001s19.334 13 32.001 13z" />
    <glyph glyph-name="Eogonek" unicode="&#x118;" horiz-adv-x="499" 
d="M345 0h-264.999v682h380v-66h-305v-239h296v-66h-296v-245h313v-66h-64c-26 -32.667 -39 -57.667 -39 -75c0 -15.333 6.33301 -28.333 19 -39s27.667 -16 45 -16c9.33301 0 21.333 2 36 6v-58c-20.667 -7.33301 -40.667 -11 -60 -11
c-32.667 0 -59.334 8.83301 -80.001 26.5s-31 41.167 -31 70.5c0 33.333 17 65.333 51 96z" />
    <glyph glyph-name="eogonek" unicode="&#x119;" horiz-adv-x="481" 
d="M430 -112l0.000976562 -51.998c-26.667 -6.66699 -46.334 -10 -59.001 -10c-22.667 0 -44 7.33301 -64 22s-30 37 -30 67c0 31.333 12.333 57.666 37 78.999c-14.667 -2 -30.667 -3 -48 -3c-71.333 0 -126.5 22.833 -165.5 68.5s-58.5 101.167 -58.5 166.5
c0 73.333 20.5 130.333 61.5 171s89.167 61 144.5 61c56 0 103 -20.833 141 -62.5s57 -94.834 57 -159.501v-16h-333c0 -52 15.5 -93 46.5 -123s69.167 -45 114.5 -45c58.667 0 113.667 21 165 63v-70c-18 -12 -35.333 -22 -52 -30c-18 -19.333 -30.333 -34.5 -37 -45.5
s-10 -22.833 -10 -35.5c0 -16.667 6 -29.5 18 -38.5s24.333 -13.5 37 -13.5c3.33301 0 15 2 35 6zM117.001 270.002h258.001c-4.66699 44 -19.334 76.167 -44.001 96.5s-51.667 30.5 -81 30.5c-30.667 0 -58.5 -10.5 -83.5 -31.5s-41.5 -52.833 -49.5 -95.5z" />
    <glyph glyph-name="Ecaron" unicode="&#x11a;" horiz-adv-x="499" 
d="M460 682v-66h-305v-239h296v-66h-296v-245h313v-66h-388v682h380zM226 728l-100 157h47l92 -98l92 98h46l-100 -157h-77z" />
    <glyph glyph-name="ecaron" unicode="&#x11b;" horiz-adv-x="481" 
d="M446 236v-15.999h-333c0 -52 15.5 -93 46.5 -123s69.167 -45 114.5 -45c58.667 0 113.667 21 165 63v-70c-53.333 -36 -111 -54 -173 -54c-71.333 0 -126.5 22.833 -165.5 68.5s-58.5 101.167 -58.5 166.5c0 73.333 20.5 130.333 61.5 171s89.167 61 144.5 61
c56 0 103 -20.833 141 -62.5s57 -94.834 57 -159.501zM117 270.001h258.001c-4.66699 44 -19.334 76.167 -44.001 96.5s-51.667 30.5 -81 30.5c-30.667 0 -58.5 -10.5 -83.5 -31.5s-41.5 -52.833 -49.5 -95.5zM212.001 529.001l-100 157h47l92 -98l92 98h46l-100 -157h-77z
" />
    <glyph glyph-name="Gcircumflex" unicode="&#x11c;" horiz-adv-x="726" 
d="M651 633l-0.000976562 -80.001c-75.333 46.667 -156 70 -242 70c-81.333 0 -148.666 -27.167 -201.999 -81.5s-80 -121.166 -80 -200.499c0 -87.333 28.5 -156.5 85.5 -207.5s122.167 -76.5 195.5 -76.5c54 0 114.667 12.667 182 38v162h-138v66h213v-275
c-86.667 -38 -170 -57 -250 -57c-111.333 0 -200.5 34.167 -267.5 102.5s-100.5 150.5 -100.5 246.5c0 98.667 34.167 181.834 102.5 249.501s156.5 101.5 264.5 101.5c30.667 0 61.5 -3.33301 92.5 -10s55.667 -13.334 74 -20.001s41.833 -16 70.5 -28zM434.999 884.999
l100 -157h-47l-92 98l-92 -98h-46l100 157h77z" />
    <glyph glyph-name="gcircumflex" unicode="&#x11d;" horiz-adv-x="427" 
d="M419 449l0.000976562 -55h-97c36.667 -33.333 55 -70 55 -110c0 -38.667 -12.333 -70.5 -37 -95.5s-56.334 -42.167 -95.001 -51.5c-42.667 -10 -71.5 -18.333 -86.5 -25s-22.5 -16.667 -22.5 -30c0 -12.667 7.16699 -22.334 21.5 -29.001s39.833 -12.334 76.5 -17.001
c66 -8.66699 113.167 -23.334 141.5 -44.001s42.5 -49.667 42.5 -87c0 -44 -19.5 -77.5 -58.5 -100.5s-87.5 -34.5 -145.5 -34.5c-64.667 0 -115 12.5 -151 37.5s-54 56.167 -54 93.5c0 24.667 9.16699 47.834 27.5 69.501s49.833 36.5 94.5 44.5
c-20 7.33301 -35 16.833 -45 28.5s-15 22.167 -15 31.5c0 10 2 18.667 6 26s10.833 13.833 20.5 19.5s17.667 9.83398 24 12.501s16.833 6.66699 31.5 12c-13.333 5.33301 -25 11 -35 17s-21.333 14.5 -34 25.5s-22.5 25.333 -29.5 43s-10.5 37.5 -10.5 59.5
c0 19.333 2.83301 37.5 8.5 54.5s15.5 33.833 29.5 50.5s35.167 29.834 63.5 39.501s62.5 14.5 102.5 14.5h171zM314.001 289c0 28 -10 51.833 -30 71.5s-44.333 29.5 -73 29.5s-53.167 -9.83301 -73.5 -29.5s-30.5 -43.5 -30.5 -71.5c0 -24.667 9.5 -47.5 28.5 -68.5
s44.167 -31.5 75.5 -31.5s56.333 9.66699 75 29s28 43 28 71zM353.001 -98c0 19.333 -11.167 36.666 -33.5 51.999s-60.166 23 -113.499 23c-48.667 0 -82.834 -7.66699 -102.501 -23s-29.5 -32.666 -29.5 -51.999c0 -51.333 47.333 -77 142 -77
c42.667 0 76.167 7.33301 100.5 22s36.5 33 36.5 55zM252.001 686l100 -157h-47l-92 98l-92 -98h-46l100 157h77z" />
    <glyph glyph-name="Gbreve" unicode="&#x11e;" horiz-adv-x="726" 
d="M651 633l-0.000976562 -80.001c-75.333 46.667 -156 70 -242 70c-81.333 0 -148.666 -27.167 -201.999 -81.5s-80 -121.166 -80 -200.499c0 -87.333 28.5 -156.5 85.5 -207.5s122.167 -76.5 195.5 -76.5c54 0 114.667 12.667 182 38v162h-138v66h213v-275
c-86.667 -38 -170 -57 -250 -57c-111.333 0 -200.5 34.167 -267.5 102.5s-100.5 150.5 -100.5 246.5c0 98.667 34.167 181.834 102.5 249.501s156.5 101.5 264.5 101.5c30.667 0 61.5 -3.33301 92.5 -10s55.667 -13.334 74 -20.001s41.833 -16 70.5 -28zM263.999 849.999
l53 -0.000976562c17.333 -44 46.333 -66 87 -66c23.333 0 41 5.83301 53 17.5s22.333 27.834 31 48.501h53c-24.667 -81.333 -70.667 -122 -138 -122c-37.333 0 -68 12.167 -92 36.5s-39.667 52.833 -47 85.5z" />
    <glyph glyph-name="gbreve" unicode="&#x11f;" horiz-adv-x="427" 
d="M419 449l0.000976562 -55h-97c36.667 -33.333 55 -70 55 -110c0 -38.667 -12.333 -70.5 -37 -95.5s-56.334 -42.167 -95.001 -51.5c-42.667 -10 -71.5 -18.333 -86.5 -25s-22.5 -16.667 -22.5 -30c0 -12.667 7.16699 -22.334 21.5 -29.001s39.833 -12.334 76.5 -17.001
c66 -8.66699 113.167 -23.334 141.5 -44.001s42.5 -49.667 42.5 -87c0 -44 -19.5 -77.5 -58.5 -100.5s-87.5 -34.5 -145.5 -34.5c-64.667 0 -115 12.5 -151 37.5s-54 56.167 -54 93.5c0 24.667 9.16699 47.834 27.5 69.501s49.833 36.5 94.5 44.5
c-20 7.33301 -35 16.833 -45 28.5s-15 22.167 -15 31.5c0 10 2 18.667 6 26s10.833 13.833 20.5 19.5s17.667 9.83398 24 12.501s16.833 6.66699 31.5 12c-13.333 5.33301 -25 11 -35 17s-21.333 14.5 -34 25.5s-22.5 25.333 -29.5 43s-10.5 37.5 -10.5 59.5
c0 19.333 2.83301 37.5 8.5 54.5s15.5 33.833 29.5 50.5s35.167 29.834 63.5 39.501s62.5 14.5 102.5 14.5h171zM314.001 289c0 28 -10 51.833 -30 71.5s-44.333 29.5 -73 29.5s-53.167 -9.83301 -73.5 -29.5s-30.5 -43.5 -30.5 -71.5c0 -24.667 9.5 -47.5 28.5 -68.5
s44.167 -31.5 75.5 -31.5s56.333 9.66699 75 29s28 43 28 71zM353.001 -98c0 19.333 -11.167 36.666 -33.5 51.999s-60.166 23 -113.499 23c-48.667 0 -82.834 -7.66699 -102.501 -23s-29.5 -32.666 -29.5 -51.999c0 -51.333 47.333 -77 142 -77
c42.667 0 76.167 7.33301 100.5 22s36.5 33 36.5 55zM85.001 651l53 -0.000976562c17.333 -44 46.333 -66 87 -66c23.333 0 41 5.83301 53 17.5s22.333 27.834 31 48.501h53c-24.667 -81.333 -70.667 -122 -138 -122c-37.333 0 -68 12.167 -92 36.5s-39.667 52.833 -47 85.5
z" />
    <glyph glyph-name="Gdotaccent" unicode="&#x120;" horiz-adv-x="726" 
d="M651 633l-0.000976562 -80.001c-75.333 46.667 -156 70 -242 70c-81.333 0 -148.666 -27.167 -201.999 -81.5s-80 -121.166 -80 -200.499c0 -87.333 28.5 -156.5 85.5 -207.5s122.167 -76.5 195.5 -76.5c54 0 114.667 12.667 182 38v162h-138v66h213v-275
c-86.667 -38 -170 -57 -250 -57c-111.333 0 -200.5 34.167 -267.5 102.5s-100.5 150.5 -100.5 246.5c0 98.667 34.167 181.834 102.5 249.501s156.5 101.5 264.5 101.5c30.667 0 61.5 -3.33301 92.5 -10s55.667 -13.334 74 -20.001s41.833 -16 70.5 -28zM388.999 852.999
c13.333 0 24.666 -4.66699 33.999 -14s14 -20.666 14 -33.999s-4.66699 -24.666 -14 -33.999s-20.666 -14 -33.999 -14s-24.666 4.66699 -33.999 14s-14 20.666 -14 33.999s4.66699 24.666 14 33.999s20.666 14 33.999 14z" />
    <glyph glyph-name="gdotaccent" unicode="&#x121;" horiz-adv-x="427" 
d="M419 449l0.000976562 -55h-97c36.667 -33.333 55 -70 55 -110c0 -38.667 -12.333 -70.5 -37 -95.5s-56.334 -42.167 -95.001 -51.5c-42.667 -10 -71.5 -18.333 -86.5 -25s-22.5 -16.667 -22.5 -30c0 -12.667 7.16699 -22.334 21.5 -29.001s39.833 -12.334 76.5 -17.001
c66 -8.66699 113.167 -23.334 141.5 -44.001s42.5 -49.667 42.5 -87c0 -44 -19.5 -77.5 -58.5 -100.5s-87.5 -34.5 -145.5 -34.5c-64.667 0 -115 12.5 -151 37.5s-54 56.167 -54 93.5c0 24.667 9.16699 47.834 27.5 69.501s49.833 36.5 94.5 44.5
c-20 7.33301 -35 16.833 -45 28.5s-15 22.167 -15 31.5c0 10 2 18.667 6 26s10.833 13.833 20.5 19.5s17.667 9.83398 24 12.501s16.833 6.66699 31.5 12c-13.333 5.33301 -25 11 -35 17s-21.333 14.5 -34 25.5s-22.5 25.333 -29.5 43s-10.5 37.5 -10.5 59.5
c0 19.333 2.83301 37.5 8.5 54.5s15.5 33.833 29.5 50.5s35.167 29.834 63.5 39.501s62.5 14.5 102.5 14.5h171zM314.001 289c0 28 -10 51.833 -30 71.5s-44.333 29.5 -73 29.5s-53.167 -9.83301 -73.5 -29.5s-30.5 -43.5 -30.5 -71.5c0 -24.667 9.5 -47.5 28.5 -68.5
s44.167 -31.5 75.5 -31.5s56.333 9.66699 75 29s28 43 28 71zM353.001 -98c0 19.333 -11.167 36.666 -33.5 51.999s-60.166 23 -113.499 23c-48.667 0 -82.834 -7.66699 -102.501 -23s-29.5 -32.666 -29.5 -51.999c0 -51.333 47.333 -77 142 -77
c42.667 0 76.167 7.33301 100.5 22s36.5 33 36.5 55zM213.001 652c12.667 0 23.334 -4.33301 32.001 -13s13 -19.334 13 -32.001s-4.33301 -23.334 -13 -32.001s-19.334 -13 -32.001 -13s-23.334 4.33301 -32.001 13s-13 19.334 -13 32.001s4.33301 23.334 13 32.001
s19.334 13 32.001 13z" />
    <glyph glyph-name="uni0122" unicode="&#x122;" horiz-adv-x="726" 
d="M651 633l-0.000976562 -80.001c-75.333 46.667 -156 70 -242 70c-81.333 0 -148.666 -27.167 -201.999 -81.5s-80 -121.166 -80 -200.499c0 -87.333 28.5 -156.5 85.5 -207.5s122.167 -76.5 195.5 -76.5c54 0 114.667 12.667 182 38v162h-138v66h213v-275
c-86.667 -38 -170 -57 -250 -57c-111.333 0 -200.5 34.167 -267.5 102.5s-100.5 150.5 -100.5 246.5c0 98.667 34.167 181.834 102.5 249.501s156.5 101.5 264.5 101.5c30.667 0 61.5 -3.33301 92.5 -10s55.667 -13.334 74 -20.001s41.833 -16 70.5 -28zM298.999 -213.001
l3.00098 48.001c17.333 -1.33301 31 -2 41 -2c54 0 81 12.333 81 37c0 26 -34 37.333 -102 34l9 48c7.33301 0.666992 18.333 1 33 1c12.667 0 25.167 -0.833008 37.5 -2.5s26.5 -4.83398 42.5 -9.50098s28.833 -12.667 38.5 -24s14.5 -25.333 14.5 -42
c0 -28 -13.333 -50.333 -40 -67s-63.334 -25 -110.001 -25c-20.667 0 -36.667 1.33301 -48 4z" />
    <glyph glyph-name="uni0123" unicode="&#x123;" horiz-adv-x="427" 
d="M280 716v-13.999c-23.333 -24 -34 -50.667 -32 -80c26.667 -8.66699 40 -25.334 40 -50.001c0 -15.333 -4.5 -27.833 -13.5 -37.5s-18.833 -14.5 -29.5 -14.5c-16 0 -28.5 6.83301 -37.5 20.5s-13.5 30.834 -13.5 51.501c0 13.333 1.66699 26.833 5 40.5
s12 29.167 26 46.5s32.333 29.666 55 36.999zM419 449.001l0.000976562 -55h-97c36.667 -33.333 55 -70 55 -110c0 -38.667 -12.333 -70.5 -37 -95.5s-56.334 -42.167 -95.001 -51.5c-42.667 -10 -71.5 -18.333 -86.5 -25s-22.5 -16.667 -22.5 -30
c0 -12.667 7.16699 -22.334 21.5 -29.001s39.833 -12.334 76.5 -17.001c66 -8.66699 113.167 -23.334 141.5 -44.001s42.5 -49.667 42.5 -87c0 -44 -19.5 -77.5 -58.5 -100.5s-87.5 -34.5 -145.5 -34.5c-64.667 0 -115 12.5 -151 37.5s-54 56.167 -54 93.5
c0 24.667 9.16699 47.834 27.5 69.501s49.833 36.5 94.5 44.5c-20 7.33301 -35 16.833 -45 28.5s-15 22.167 -15 31.5c0 10 2 18.667 6 26s10.833 13.833 20.5 19.5s17.667 9.83398 24 12.501s16.833 6.66699 31.5 12c-13.333 5.33301 -25 11 -35 17s-21.333 14.5 -34 25.5
s-22.5 25.333 -29.5 43s-10.5 37.5 -10.5 59.5c0 19.333 2.83301 37.5 8.5 54.5s15.5 33.833 29.5 50.5s35.167 29.834 63.5 39.501s62.5 14.5 102.5 14.5h171zM314.001 289.001c0 28 -10 51.833 -30 71.5s-44.333 29.5 -73 29.5s-53.167 -9.83301 -73.5 -29.5
s-30.5 -43.5 -30.5 -71.5c0 -24.667 9.5 -47.5 28.5 -68.5s44.167 -31.5 75.5 -31.5s56.333 9.66699 75 29s28 43 28 71zM353.001 -97.999c0 19.333 -11.167 36.666 -33.5 51.999s-60.166 23 -113.499 23c-48.667 0 -82.834 -7.66699 -102.501 -23
s-29.5 -32.666 -29.5 -51.999c0 -51.333 47.333 -77 142 -77c42.667 0 76.167 7.33301 100.5 22s36.5 33 36.5 55z" />
    <glyph glyph-name="Hcircumflex" unicode="&#x124;" horiz-adv-x="729" 
d="M649 682v-682h-75v312h-419v-312h-75v682h75v-304h419v304h75zM403 885l100 -157h-47l-92 98l-92 -98h-46l100 157h77z" />
    <glyph glyph-name="hcircumflex" unicode="&#x125;" horiz-adv-x="492" 
d="M65 682l68.999 -0.000976562v-301c38.667 51.333 85.667 77 141 77c50 0 89.333 -17 118 -51s43 -80.333 43 -139v-268h-69v262c0 40.667 -8.66699 73.334 -26 98.001s-44.666 37 -81.999 37c-52 0 -93.667 -26.333 -125 -79v-318h-69v682zM283.999 884.999l100 -157h-47
l-92 98l-92 -98h-46l100 157h77z" />
    <glyph glyph-name="Hbar" unicode="&#x126;" horiz-adv-x="729" 
d="M0 501v54h80v127h75v-127h419v127h75v-127h80v-54h-80v-501h-75v312h-419v-312h-75v501h-80zM155 378h419v123h-419v-123z" />
    <glyph glyph-name="hbar" unicode="&#x127;" horiz-adv-x="492" 
d="M65 682l68.999 -0.000976562v-100h165v-46h-165v-155c38.667 51.333 85.667 77 141 77c50 0 89.333 -17 118 -51s43 -80.333 43 -139v-268h-69v262c0 40.667 -8.66699 73.334 -26 98.001s-44.666 37 -81.999 37c-52 0 -93.667 -26.333 -125 -79v-318h-69v536h-70v46h70
v100z" />
    <glyph glyph-name="Itilde" unicode="&#x128;" horiz-adv-x="240" 
d="M157 682v-682h-75v682h75zM1 753h-35.999l3 23.5c0.666992 5 3 13.667 7 26s8.5 21.666 13.5 27.999s12.5 12.5 22.5 18.5s21.667 9 35 9c22 0 51.667 -8 89 -24c30 -12.667 52 -19 66 -19c10 0 18 3 24 9s9.66699 11.333 11 16s2.66602 11.334 3.99902 20.001h36
c0 -34.667 -8.33301 -61.167 -25 -79.5s-35.667 -27.5 -57 -27.5c-18 0 -42 6 -72 18c-42.667 16.667 -70 25 -82 25c-21.333 0 -34.333 -14.333 -39 -43z" />
    <glyph glyph-name="itilde" unicode="&#x129;" horiz-adv-x="199" 
d="M134 449v-449h-69v449h69zM-20 554h-35.999l3 23.5c0.666992 5 3 13.667 7 26s8.5 21.666 13.5 27.999s12.5 12.5 22.5 18.5s21.667 9 35 9c22 0 51.667 -8 89 -24c30 -12.667 52 -19 66 -19c10 0 18 3 24 9s9.66699 11.333 11 16s2.66602 11.334 3.99902 20.001h36
c0 -34.667 -8.33301 -61.167 -25 -79.5s-35.667 -27.5 -57 -27.5c-18 0 -42 6 -72 18c-42.667 16.667 -70 25 -82 25c-21.333 0 -34.333 -14.333 -39 -43z" />
    <glyph glyph-name="Imacron" unicode="&#x12a;" horiz-adv-x="240" 
d="M157 682v-682h-75v682h75zM270 838v-63h-299v63h299z" />
    <glyph glyph-name="imacron" unicode="&#x12b;" horiz-adv-x="199" 
d="M134 449v-449h-69v449h69zM249 639v-63h-299v63h299z" />
    <glyph glyph-name="Ibreve" unicode="&#x12c;" horiz-adv-x="240" 
d="M157 682v-682h-75v682h75zM-18 850l53 -0.000976562c17.333 -44 46.333 -66 87 -66c23.333 0 41 5.83301 53 17.5s22.333 27.834 31 48.501h53c-24.667 -81.333 -70.667 -122 -138 -122c-37.333 0 -68 12.167 -92 36.5s-39.667 52.833 -47 85.5z" />
    <glyph glyph-name="ibreve" unicode="&#x12d;" horiz-adv-x="199" 
d="M134 449v-449h-69v449h69zM-39 651l53 -0.000976562c17.333 -44 46.333 -66 87 -66c23.333 0 41 5.83301 53 17.5s22.333 27.834 31 48.501h53c-24.667 -81.333 -70.667 -122 -138 -122c-37.333 0 -68 12.167 -92 36.5s-39.667 52.833 -47 85.5z" />
    <glyph glyph-name="Iogonek" unicode="&#x12e;" horiz-adv-x="240" 
d="M82 0l0.000976562 682h75v-682h-16c-26 -32.667 -39 -57.667 -39 -75c0 -15.333 6.33301 -28.333 19 -39s27.667 -16 45 -16c9.33301 0 21.333 2 36 6v-58c-20.667 -7.33301 -40.667 -11 -60 -11c-32.667 0 -59.334 8.83301 -80.001 26.5s-31 41.167 -31 70.5
c0 33.333 17 65.333 51 96z" />
    <glyph glyph-name="iogonek" unicode="&#x12f;" horiz-adv-x="199" 
d="M174 -112l0.000976562 -52c-26.667 -6.66699 -46.334 -10 -59.001 -10c-22.667 0 -44 7.33301 -64 22s-30 37 -30 67c0 32.667 14.667 61 44 85v449h69v-449h-16c-22.667 -26 -34 -48 -34 -66c0 -16.667 6 -29.5 18 -38.5s24.333 -13.5 37 -13.5c3.33301 0 15 2 35 6z
M100.001 632c12.667 0 23.334 -4.33301 32.001 -13s13 -19.334 13 -32.001s-4.33301 -23.334 -13 -32.001s-19.334 -13 -32.001 -13s-23.334 4.33301 -32.001 13s-13 19.334 -13 32.001s4.33301 23.334 13 32.001s19.334 13 32.001 13z" />
    <glyph glyph-name="Idotaccent" unicode="&#x130;" horiz-adv-x="240" 
d="M157 682v-682h-75v682h75zM119 853c13.333 0 24.666 -4.66699 33.999 -14s14 -20.666 14 -33.999s-4.66699 -24.666 -14 -33.999s-20.666 -14 -33.999 -14s-24.666 4.66699 -33.999 14s-14 20.666 -14 33.999s4.66699 24.666 14 33.999s20.666 14 33.999 14z" />
    <glyph glyph-name="dotlessi" unicode="&#x131;" horiz-adv-x="199" 
d="M134 449v-449h-69v449h69z" />
    <glyph glyph-name="IJ" unicode="&#x132;" horiz-adv-x="474" 
d="M157 682v-682h-75v682h75zM397 682l-0.000976562 -671.999c0 -67.333 -9 -116 -27 -146c-31.333 -52.667 -80 -79 -146 -79c-10 0 -17.667 0.333008 -23 1l-13 72c10.667 -1.33301 20 -2 28 -2c20 0 36.833 3.33301 50.5 10s24.167 14.5 31.5 23.5s12.833 21.667 16.5 38
s5.83398 30.666 6.50098 42.999s1 28.5 1 48.5v663h75z" />
    <glyph glyph-name="ij" unicode="&#x133;" horiz-adv-x="396" 
d="M134 449v-449h-69v449h69zM100 632c12.667 0 23.334 -4.33301 32.001 -13s13 -19.334 13 -32.001s-4.33301 -23.334 -13 -32.001s-19.334 -13 -32.001 -13s-23.334 4.33301 -32.001 13s-13 19.334 -13 32.001s4.33301 23.334 13 32.001s19.334 13 32.001 13zM333 449
v-472.001c0 -59.333 -6 -102.666 -18 -129.999c-2.66699 -6.66699 -6.66699 -14.167 -12 -22.5s-15.5 -18.5 -30.5 -30.5s-31.833 -20 -50.5 -24l-40 53c34.667 6.66699 57 22.167 67 46.5s15 61.833 15 112.5v467h69zM299 631.999c12.667 0 23.334 -4.33301 32.001 -13
s13 -19.334 13 -32.001s-4.33301 -23.334 -13 -32.001s-19.334 -13 -32.001 -13s-23.334 4.33301 -32.001 13s-13 19.334 -13 32.001s4.33301 23.334 13 32.001s19.334 13 32.001 13z" />
    <glyph glyph-name="Jcircumflex" unicode="&#x134;" horiz-adv-x="234" 
d="M157 682l-0.000976562 -671.999c0 -67.333 -9 -116 -27 -146c-31.333 -52.667 -80 -79 -146 -79c-10 0 -17.667 0.333008 -23 1l-13 72c10.667 -1.33301 20 -2 28 -2c20 0 36.833 3.33301 50.5 10s24.167 14.5 31.5 23.5s12.833 21.667 16.5 38
s5.83398 30.666 6.50098 42.999s1 28.5 1 48.5v663h75zM155.999 885.001l100 -157h-47l-92 98l-92 -98h-46l100 157h77z" />
    <glyph glyph-name="jcircumflex" unicode="&#x135;" horiz-adv-x="197" 
d="M134 449v-472.001c0 -59.333 -6 -102.666 -18 -129.999c-2.66699 -6.66699 -6.66699 -14.167 -12 -22.5s-15.5 -18.5 -30.5 -30.5s-31.833 -20 -50.5 -24l-40 53c34.667 6.66699 57 22.167 67 46.5s15 61.833 15 112.5v467h69zM138 685.999l100 -157h-47l-92 98l-92 -98
h-46l100 157h77z" />
    <glyph glyph-name="uni0136" unicode="&#x136;" horiz-adv-x="598" 
d="M556 682l-310 -331l363 -351h-101l-353 340v-340h-75v682h75v-326l308 326h93zM218 -213l3.00098 48.001c17.333 -1.33301 31 -2 41 -2c54 0 81 12.333 81 37c0 26 -34 37.333 -102 34l9 48c7.33301 0.666992 18.333 1 33 1c12.667 0 25.167 -0.833008 37.5 -2.5
s26.5 -4.83398 42.5 -9.50098s28.833 -12.667 38.5 -24s14.5 -25.333 14.5 -42c0 -28 -13.333 -50.333 -40 -67s-63.334 -25 -110.001 -25c-20.667 0 -36.667 1.33301 -48 4z" />
    <glyph glyph-name="uni0137" unicode="&#x137;" horiz-adv-x="460" 
d="M134 682v-682h-69v682h69zM447 449l-218 -216l258 -233h-94l-254 233l223 216h85zM163 -181l3.00098 43c10.667 -1.33301 20.667 -2 30 -2c40.667 0 61 11.333 61 34c0 21.333 -20.333 32 -61 32l12 39c5.33301 0.666992 10 1 14 1c24 0 45 -5.5 63 -16.5
s27 -28.167 27 -51.5c0 -22.667 -8.5 -42.167 -25.5 -58.5s-45.5 -24.5 -85.5 -24.5c-16.667 0 -29.334 1.33301 -38.001 4z" />
    <glyph glyph-name="kgreenlandic" unicode="&#x138;" horiz-adv-x="460" 
d="M134 449v-449h-69v449h69zM447 449l-218 -216l258 -233h-94l-254 233l223 216h85z" />
    <glyph glyph-name="Lacute" unicode="&#x139;" horiz-adv-x="482" 
d="M155 682v-616h322v-66h-397v682h75zM270 885l-134 -157h-44l88 157h90z" />
    <glyph glyph-name="lacute" unicode="&#x13a;" horiz-adv-x="199" 
d="M134 682v-682h-69v682h69zM229 885l-134 -157h-44l88 157h90z" />
    <glyph glyph-name="uni013B" unicode="&#x13b;" horiz-adv-x="482" 
d="M155 682v-616h322v-66h-397v682h75zM158 -213l3.00098 48.001c17.333 -1.33301 31 -2 41 -2c54 0 81 12.333 81 37c0 26 -34 37.333 -102 34l9 48c7.33301 0.666992 18.333 1 33 1c12.667 0 25.167 -0.833008 37.5 -2.5s26.5 -4.83398 42.5 -9.50098
s28.833 -12.667 38.5 -24s14.5 -25.333 14.5 -42c0 -28 -13.333 -50.333 -40 -67s-63.334 -25 -110.001 -25c-20.667 0 -36.667 1.33301 -48 4z" />
    <glyph glyph-name="uni013C" unicode="&#x13c;" horiz-adv-x="199" 
d="M134 682v-682h-69v682h69zM33 -181l3.00098 43c10.667 -1.33301 20.667 -2 30 -2c40.667 0 61 11.333 61 34c0 21.333 -20.333 32 -61 32l12 39c5.33301 0.666992 10 1 14 1c24 0 45 -5.5 63 -16.5s27 -28.167 27 -51.5c0 -22.667 -8.5 -42.167 -25.5 -58.5
s-45.5 -24.5 -85.5 -24.5c-16.667 0 -29.334 1.33301 -38.001 4z" />
    <glyph glyph-name="Lcaron" unicode="&#x13d;" horiz-adv-x="482" 
d="M155 682v-616h322v-66h-397v682h75zM311 471l-0.00195312 15.998c27.333 27.333 39 57.333 35 90c-29.333 9.33301 -44 28 -44 56c0 17.333 5.16699 31.333 15.5 42s21.833 16 34.5 16c18.667 0 33 -7.66699 43 -23s15 -34.666 15 -57.999
c0 -10.667 -1.16699 -21.667 -3.5 -33s-6.66602 -24.166 -12.999 -38.499s-16.666 -27.5 -30.999 -39.5s-31.5 -21.333 -51.5 -28z" />
    <glyph glyph-name="lcaron" unicode="&#x13e;" horiz-adv-x="241" 
d="M134 682v-682h-69v682h69zM183 471l-0.00195312 15.998c27.333 27.333 39 57.333 35 90c-29.333 9.33301 -44 28 -44 56c0 17.333 5.16699 31.333 15.5 42s21.833 16 34.5 16c18.667 0 33 -7.66699 43 -23s15 -34.666 15 -57.999c0 -10.667 -1.16699 -21.667 -3.5 -33
s-6.66602 -24.166 -12.999 -38.499s-16.666 -27.5 -30.999 -39.5s-31.5 -21.333 -51.5 -28z" />
    <glyph glyph-name="Ldot" unicode="&#x13f;" horiz-adv-x="482" 
d="M155 682v-616h322v-66h-397v682h75zM308 393c13.333 0 24.666 -4.66699 33.999 -14s14 -20.666 14 -33.999s-4.66699 -24.666 -14 -33.999s-20.666 -14 -33.999 -14s-24.666 4.66699 -33.999 14s-14 20.666 -14 33.999s4.66699 24.666 14 33.999s20.666 14 33.999 14z
" />
    <glyph glyph-name="ldot" unicode="&#x140;" horiz-adv-x="257" 
d="M134 682v-682h-69v682h69zM231 391c12.667 0 23.334 -4.33301 32.001 -13s13 -19.334 13 -32.001s-4.33301 -23.334 -13 -32.001s-19.334 -13 -32.001 -13s-23.334 4.33301 -32.001 13s-13 19.334 -13 32.001s4.33301 23.334 13 32.001s19.334 13 32.001 13z" />
    <glyph glyph-name="Lslash" unicode="&#x141;" horiz-adv-x="482" 
d="M155 302v-236h322v-66h-397v230l-73 -69v70l73 68v383h75v-311l129 123v-69z" />
    <glyph glyph-name="lslash" unicode="&#x142;" horiz-adv-x="199" 
d="M134 356v-356h-69v263l-64 -86v82l64 86v337h69v-245l64 86v-82z" />
    <glyph glyph-name="Nacute" unicode="&#x143;" horiz-adv-x="784" 
d="M704 682v-682h-64l-487 562v-562h-73v682h64l487 -562v562h73zM531 885l-134 -157h-44l88 157h90z" />
    <glyph glyph-name="nacute" unicode="&#x144;" horiz-adv-x="492" 
d="M65 449l68.999 -0.000976562v-68c38.667 51.333 85.667 77 141 77c50 0 89.333 -17 118 -51s43 -80.333 43 -139v-268h-69v262c0 40.667 -8.66699 73.334 -26 98.001s-44.666 37 -81.999 37c-52 0 -93.667 -26.333 -125 -79v-318h-69v449zM374.999 685.999l-134 -157h-44
l88 157h90z" />
    <glyph glyph-name="uni0145" unicode="&#x145;" horiz-adv-x="784" 
d="M704 682v-682h-64l-487 562v-562h-73v682h64l487 -562v562h73zM308 -213l3.00098 48.001c17.333 -1.33301 31 -2 41 -2c54 0 81 12.333 81 37c0 26 -34 37.333 -102 34l9 48c7.33301 0.666992 18.333 1 33 1c12.667 0 25.167 -0.833008 37.5 -2.5
s26.5 -4.83398 42.5 -9.50098s28.833 -12.667 38.5 -24s14.5 -25.333 14.5 -42c0 -28 -13.333 -50.333 -40 -67s-63.334 -25 -110.001 -25c-20.667 0 -36.667 1.33301 -48 4z" />
    <glyph glyph-name="uni0146" unicode="&#x146;" horiz-adv-x="492" 
d="M65 449l68.999 -0.000976562v-68c38.667 51.333 85.667 77 141 77c50 0 89.333 -17 118 -51s43 -80.333 43 -139v-268h-69v262c0 40.667 -8.66699 73.334 -26 98.001s-44.666 37 -81.999 37c-52 0 -93.667 -26.333 -125 -79v-318h-69v449zM182.999 -181.001l3.00098 43
c10.667 -1.33301 20.667 -2 30 -2c40.667 0 61 11.333 61 34c0 21.333 -20.333 32 -61 32l12 39c5.33301 0.666992 10 1 14 1c24 0 45 -5.5 63 -16.5s27 -28.167 27 -51.5c0 -22.667 -8.5 -42.167 -25.5 -58.5s-45.5 -24.5 -85.5 -24.5c-16.667 0 -29.334 1.33301 -38.001 4
z" />
    <glyph glyph-name="Ncaron" unicode="&#x147;" horiz-adv-x="784" 
d="M704 682v-682h-64l-487 562v-562h-73v682h64l487 -562v562h73zM353 728l-100 157h47l92 -98l92 98h46l-100 -157h-77z" />
    <glyph glyph-name="ncaron" unicode="&#x148;" horiz-adv-x="492" 
d="M65 449l68.999 -0.000976562v-68c38.667 51.333 85.667 77 141 77c50 0 89.333 -17 118 -51s43 -80.333 43 -139v-268h-69v262c0 40.667 -8.66699 73.334 -26 98.001s-44.666 37 -81.999 37c-52 0 -93.667 -26.333 -125 -79v-318h-69v449zM206.999 528.999l-100 157h47
l92 -98l92 98h46l-100 -157h-77z" />
    <glyph glyph-name="napostrophe" unicode="&#x149;" horiz-adv-x="558" 
d="M131 449l68.999 -0.000976562v-68c38.667 51.333 85.667 77 141 77c50 0 89.333 -17 118 -51s43 -80.333 43 -139v-268h-69v262c0 40.667 -8.66699 73.334 -26 98.001s-44.666 37 -81.999 37c-52 0 -93.667 -26.333 -125 -79v-318h-69v449zM30.999 470.999
l-0.00195312 15.998c27.333 27.333 39 57.333 35 90c-29.333 9.33301 -44 28 -44 56c0 17.333 5.16699 31.333 15.5 42s21.833 16 34.5 16c18.667 0 33 -7.66699 43 -23s15 -34.666 15 -57.999c0 -10.667 -1.16699 -21.667 -3.5 -33s-6.66602 -24.166 -12.999 -38.499
s-16.666 -27.5 -30.999 -39.5s-31.5 -21.333 -51.5 -28z" />
    <glyph glyph-name="Eng" unicode="&#x14a;" horiz-adv-x="711" 
d="M566 179l-0.000976562 213.999c0 76.667 -17.5 133.5 -52.5 170.5s-82.167 55.5 -141.5 55.5c-50 0 -94 -12.167 -132 -36.5s-66.333 -56.5 -85 -96.5v-486h-75v682h75v-98c18.667 27.333 47.334 52 86.001 74s86 33 142 33c32 0 62.333 -4.5 91 -13.5s56 -23.5 82 -43.5
s46.667 -49.333 62 -88s23 -84.667 23 -138v-231c0 -57.333 -14 -102.666 -42 -135.999s-67.667 -50 -119 -50c-21.333 0 -37 1 -47 3l-12 74c13.333 -2.66699 26.333 -4 39 -4c38 0 65.167 8.83301 81.5 26.5s24.5 47.167 24.5 88.5z" />
    <glyph glyph-name="eng" unicode="&#x14b;" horiz-adv-x="492" 
d="M367 -18l-0.000976562 279.998c0 40.667 -8.66699 73.334 -26 98.001s-44.666 37 -81.999 37c-52 0 -93.667 -26.333 -125 -79v-318h-69v449h69v-68c38.667 51.333 85.667 77 141 77c50 0 89.333 -17 118 -51s43 -80.333 43 -139v-291
c0 -77.333 -12 -130.666 -36 -159.999c-19.333 -23.333 -44.333 -39 -75 -47l-40 53c34.667 6.66699 57 22.167 67 46.5s15 61.833 15 112.5z" />
    <glyph glyph-name="Omacron" unicode="&#x14c;" horiz-adv-x="823" 
d="M407 -9c-100.667 0 -185.833 33.3311 -255.5 99.998s-104.5 150 -104.5 250c0 45.333 8.33301 88.833 25 130.5s40.167 78.834 70.5 111.501s68.833 58.834 115.5 78.501s97.667 29.5 153 29.5c108 0 195.833 -34.333 263.5 -103s101.5 -151 101.5 -247
c0 -100.667 -35.5 -184.167 -106.5 -250.5s-158.5 -99.5 -262.5 -99.5zM406.001 61.998c82 0 150.834 26.5 206.501 79.5s83.5 120.167 83.5 201.5c0 72.667 -26 137 -78 193s-121 84 -207 84c-84.667 0 -153.167 -27.5 -205.5 -82.5s-78.5 -120.833 -78.5 -197.5
c0 -80.667 27.667 -147.167 83 -199.5s120.666 -78.5 195.999 -78.5zM561.002 837.998v-63h-299v63h299z" />
    <glyph glyph-name="omacron" unicode="&#x14d;" horiz-adv-x="552" 
d="M275 458c64.667 0 119.834 -22.667 165.501 -68s68.5 -100.333 68.5 -165s-22.833 -119.834 -68.5 -165.501s-100.834 -68.5 -165.501 -68.5s-119.667 22.833 -165 68.5s-68 100.834 -68 165.501s22.667 119.667 68 165s100.333 68 165 68zM276 397
c-46.667 0 -85.5 -16.667 -116.5 -50s-46.5 -74 -46.5 -122s15.5 -88.833 46.5 -122.5s69.833 -50.5 116.5 -50.5s85.334 16.833 116.001 50.5s46 74.5 46 122.5s-15.333 88.667 -46 122s-69.334 50 -116.001 50zM425 639v-63h-299v63h299z" />
    <glyph glyph-name="Obreve" unicode="&#x14e;" horiz-adv-x="823" 
d="M407 -9c-100.667 0 -185.833 33.3311 -255.5 99.998s-104.5 150 -104.5 250c0 45.333 8.33301 88.833 25 130.5s40.167 78.834 70.5 111.501s68.833 58.834 115.5 78.501s97.667 29.5 153 29.5c108 0 195.833 -34.333 263.5 -103s101.5 -151 101.5 -247
c0 -100.667 -35.5 -184.167 -106.5 -250.5s-158.5 -99.5 -262.5 -99.5zM406.001 61.998c82 0 150.834 26.5 206.501 79.5s83.5 120.167 83.5 201.5c0 72.667 -26 137 -78 193s-121 84 -207 84c-84.667 0 -153.167 -27.5 -205.5 -82.5s-78.5 -120.833 -78.5 -197.5
c0 -80.667 27.667 -147.167 83 -199.5s120.666 -78.5 195.999 -78.5zM273.002 849.998l53 -0.000976562c17.333 -44 46.333 -66 87 -66c23.333 0 41 5.83301 53 17.5s22.333 27.834 31 48.501h53c-24.667 -81.333 -70.667 -122 -138 -122c-37.333 0 -68 12.167 -92 36.5
s-39.667 52.833 -47 85.5z" />
    <glyph glyph-name="obreve" unicode="&#x14f;" horiz-adv-x="552" 
d="M275 458c64.667 0 119.834 -22.667 165.501 -68s68.5 -100.333 68.5 -165s-22.833 -119.834 -68.5 -165.501s-100.834 -68.5 -165.501 -68.5s-119.667 22.833 -165 68.5s-68 100.834 -68 165.501s22.667 119.667 68 165s100.333 68 165 68zM276 397
c-46.667 0 -85.5 -16.667 -116.5 -50s-46.5 -74 -46.5 -122s15.5 -88.833 46.5 -122.5s69.833 -50.5 116.5 -50.5s85.334 16.833 116.001 50.5s46 74.5 46 122.5s-15.333 88.667 -46 122s-69.334 50 -116.001 50zM137 651l53 -0.000976562c17.333 -44 46.333 -66 87 -66
c23.333 0 41 5.83301 53 17.5s22.333 27.834 31 48.501h53c-24.667 -81.333 -70.667 -122 -138 -122c-37.333 0 -68 12.167 -92 36.5s-39.667 52.833 -47 85.5z" />
    <glyph glyph-name="Ohungarumlaut" unicode="&#x150;" horiz-adv-x="823" 
d="M407 -9c-100.667 0 -185.833 33.3311 -255.5 99.998s-104.5 150 -104.5 250c0 45.333 8.33301 88.833 25 130.5s40.167 78.834 70.5 111.501s68.833 58.834 115.5 78.501s97.667 29.5 153 29.5c108 0 195.833 -34.333 263.5 -103s101.5 -151 101.5 -247
c0 -100.667 -35.5 -184.167 -106.5 -250.5s-158.5 -99.5 -262.5 -99.5zM406.001 61.998c82 0 150.834 26.5 206.501 79.5s83.5 120.167 83.5 201.5c0 72.667 -26 137 -78 193s-121 84 -207 84c-84.667 0 -153.167 -27.5 -205.5 -82.5s-78.5 -120.833 -78.5 -197.5
c0 -80.667 27.667 -147.167 83 -199.5s120.666 -78.5 195.999 -78.5zM625.002 884.998l-131 -157h-44l85 157h90zM473.002 884.998l-131 -157h-44l85 157h90z" />
    <glyph glyph-name="ohungarumlaut" unicode="&#x151;" horiz-adv-x="552" 
d="M275 458c64.667 0 119.834 -22.667 165.501 -68s68.5 -100.333 68.5 -165s-22.833 -119.834 -68.5 -165.501s-100.834 -68.5 -165.501 -68.5s-119.667 22.833 -165 68.5s-68 100.834 -68 165.501s22.667 119.667 68 165s100.333 68 165 68zM276 397
c-46.667 0 -85.5 -16.667 -116.5 -50s-46.5 -74 -46.5 -122s15.5 -88.833 46.5 -122.5s69.833 -50.5 116.5 -50.5s85.334 16.833 116.001 50.5s46 74.5 46 122.5s-15.333 88.667 -46 122s-69.334 50 -116.001 50zM479 686l-131 -157h-44l85 157h90zM327 686l-131 -157h-44
l85 157h90z" />
    <glyph glyph-name="OE" unicode="&#x152;" horiz-adv-x="907" 
d="M866 682v-66h-301v-239h292v-66h-292v-245h310v-66h-455c-60 -0 -114.333 9.83301 -163 29.5s-87.834 45.834 -117.501 78.501s-52.5 69 -68.5 109s-24 81.667 -24 125s8 85 24 125s38.833 76.167 68.5 108.5s68.834 58.166 117.501 77.499s103 29 163 29h446zM490 66
v551h-58c-94 0 -168 -26 -222 -78s-81 -118 -81 -198s27 -145.833 81 -197.5s128 -77.5 222 -77.5h58z" />
    <glyph glyph-name="oe" unicode="&#x153;" horiz-adv-x="859" 
d="M824 236l-0.000976562 -16h-324c0 -48 14.333 -87.833 43 -119.5s67.667 -47.5 117 -47.5c56 0 108.333 20.667 157 62v-70c-48.667 -36 -103.667 -54 -165 -54c-44 0 -82.167 9.66699 -114.5 29s-56.166 42.333 -71.499 69c-53.333 -65.333 -118 -98 -194 -98
c-62.667 0 -116.667 21.5 -162 64.5s-68 99.167 -68 168.5c0 67.333 23.167 123.166 69.5 167.499s101.833 66.5 166.5 66.5c78.667 0 141 -31.333 187 -94c18 31.333 42 54.833 72 70.5s62 23.5 96 23.5c56 0 101.833 -20.667 137.5 -62s53.5 -94.666 53.5 -159.999z
M502.999 270h250.001c-4.66699 43.333 -17.834 75.333 -39.501 96s-47.834 31 -78.501 31c-33.333 0 -62.166 -11.5 -86.499 -34.5s-39.5 -53.833 -45.5 -92.5zM273 397c-46.667 0 -85 -16.667 -115 -50s-45 -74 -45 -122s15.167 -88.833 45.5 -122.5
s68.5 -50.5 114.5 -50.5s84 16.667 114 50s45 74.333 45 123c0 48 -15 88.667 -45 122s-68 50 -114 50z" />
    <glyph glyph-name="Racute" unicode="&#x154;" horiz-adv-x="592" 
d="M80 682h173.999c80 0 137.5 -18.167 172.5 -54.5s52.5 -79.166 52.5 -128.499c0 -81.333 -40.667 -137 -122 -167c22.667 -14.667 44.334 -35.834 65.001 -63.501s54.667 -78.834 102 -153.501c18.667 -29.333 44.667 -67.666 78 -114.999h-90l-65 103
c-27.333 44 -56.666 86 -87.999 126c-23.333 29.333 -46.333 50.5 -69 63.5s-51.334 19.5 -86.001 19.5h-49v-312h-75v682zM242.999 616l-87.998 -0.000976562v-238h88c49.333 0 87.666 10.333 114.999 31s41 50.334 41 89.001c0 36.667 -13.333 65.5 -40 86.5
s-65.334 31.5 -116.001 31.5zM375.001 884.999l-134 -157h-44l88 157h90z" />
    <glyph glyph-name="racute" unicode="&#x155;" horiz-adv-x="363" 
d="M65 449h68.998v-99c24 37.333 49 65 75 83c24.667 16.667 47.334 25 68.001 25c28.667 0 64.334 -17.667 107.001 -53l-37 -60c-32 28 -61 42 -87 42c-20 0 -40.667 -8.16699 -62 -24.5s-37.333 -36.5 -48 -60.5s-16 -60 -16 -108v-194h-69v449zM350.998 686l-134 -157
h-44l88 157h90z" />
    <glyph glyph-name="uni0156" unicode="&#x156;" horiz-adv-x="592" 
d="M80 682h173.999c80 0 137.5 -18.167 172.5 -54.5s52.5 -79.166 52.5 -128.499c0 -81.333 -40.667 -137 -122 -167c22.667 -14.667 44.334 -35.834 65.001 -63.501s54.667 -78.834 102 -153.501c18.667 -29.333 44.667 -67.666 78 -114.999h-90l-65 103
c-27.333 44 -56.666 86 -87.999 126c-23.333 29.333 -46.333 50.5 -69 63.5s-51.334 19.5 -86.001 19.5h-49v-312h-75v682zM242.999 616l-87.998 -0.000976562v-238h88c49.333 0 87.666 10.333 114.999 31s41 50.334 41 89.001c0 36.667 -13.333 65.5 -40 86.5
s-65.334 31.5 -116.001 31.5zM214.001 -213.001l3.00098 48.001c17.333 -1.33301 31 -2 41 -2c54 0 81 12.333 81 37c0 26 -34 37.333 -102 34l9 48c7.33301 0.666992 18.333 1 33 1c12.667 0 25.167 -0.833008 37.5 -2.5s26.5 -4.83398 42.5 -9.50098
s28.833 -12.667 38.5 -24s14.5 -25.333 14.5 -42c0 -28 -13.333 -50.333 -40 -67s-63.334 -25 -110.001 -25c-20.667 0 -36.667 1.33301 -48 4z" />
    <glyph glyph-name="uni0157" unicode="&#x157;" horiz-adv-x="363" 
d="M65 449h68.998v-99c24 37.333 49 65 75 83c24.667 16.667 47.334 25 68.001 25c28.667 0 64.334 -17.667 107.001 -53l-37 -60c-32 28 -61 42 -87 42c-20 0 -40.667 -8.16699 -62 -24.5s-37.333 -36.5 -48 -60.5s-16 -60 -16 -108v-194h-69v449zM62.998 -181l3.00098 43
c10.667 -1.33301 20.667 -2 30 -2c40.667 0 61 11.333 61 34c0 21.333 -20.333 32 -61 32l12 39c5.33301 0.666992 10 1 14 1c24 0 45 -5.5 63 -16.5s27 -28.167 27 -51.5c0 -22.667 -8.5 -42.167 -25.5 -58.5s-45.5 -24.5 -85.5 -24.5c-16.667 0 -29.334 1.33301 -38.001 4
z" />
    <glyph glyph-name="Rcaron" unicode="&#x158;" horiz-adv-x="592" 
d="M80 682h173.999c80 0 137.5 -18.167 172.5 -54.5s52.5 -79.166 52.5 -128.499c0 -81.333 -40.667 -137 -122 -167c22.667 -14.667 44.334 -35.834 65.001 -63.501s54.667 -78.834 102 -153.501c18.667 -29.333 44.667 -67.666 78 -114.999h-90l-65 103
c-27.333 44 -56.666 86 -87.999 126c-23.333 29.333 -46.333 50.5 -69 63.5s-51.334 19.5 -86.001 19.5h-49v-312h-75v682zM242.999 616l-87.998 -0.000976562v-238h88c49.333 0 87.666 10.333 114.999 31s41 50.334 41 89.001c0 36.667 -13.333 65.5 -40 86.5
s-65.334 31.5 -116.001 31.5zM222.001 727.999l-100 157h47l92 -98l92 98h46l-100 -157h-77z" />
    <glyph glyph-name="rcaron" unicode="&#x159;" horiz-adv-x="363" 
d="M65 449h68.998v-99c24 37.333 49 65 75 83c24.667 16.667 47.334 25 68.001 25c28.667 0 64.334 -17.667 107.001 -53l-37 -60c-32 28 -61 42 -87 42c-20 0 -40.667 -8.16699 -62 -24.5s-37.333 -36.5 -48 -60.5s-16 -60 -16 -108v-194h-69v449zM172.998 529l-100 157h47
l92 -98l92 98h46l-100 -157h-77z" />
    <glyph glyph-name="Sacute" unicode="&#x15a;" horiz-adv-x="458" 
d="M396 646l-0.00195312 -85.0049c-56 41.333 -107.667 62 -155 62c-25.333 0 -47 -4.16699 -65 -12.5s-31.167 -18.666 -39.5 -30.999s-14.166 -23.666 -17.499 -33.999s-5 -19.5 -5 -27.5c0 -16.667 3.5 -31.667 10.5 -45s18 -25.833 33 -37.5s28 -20.667 39 -27
s26.5 -14.5 46.5 -24.5c70 -34.667 117.667 -65.5 143 -92.5s38 -64.833 38 -113.5c0 -59.333 -20.5 -105.333 -61.5 -138s-86.833 -49 -137.5 -49c-60 0 -119.667 20.667 -179 62v92c57.333 -57.333 116.333 -86 177 -86c42.667 0 74.5 12.333 95.5 37
s31.5 50.334 31.5 77.001c0 26 -9.66699 50 -29 72s-60.666 48 -123.999 78c-56 26.667 -96.167 54.834 -120.5 84.501s-36.5 63.834 -36.5 102.501c0 52.667 19.333 96 58 130s86.667 51 144 51c52 0 103.333 -15 154 -45zM367.998 884.995l-134 -157h-44l88 157h90z" />
    <glyph glyph-name="sacute" unicode="&#x15b;" horiz-adv-x="375" 
d="M319 420l-0.00195312 -69.002c-50 30.667 -92.333 46 -127 46c-22.667 0 -41 -5.66699 -55 -17s-21 -25 -21 -41c0 -16.667 7.83301 -30.834 23.5 -42.501s50.5 -31.5 104.5 -59.5c4.66699 -2 8 -3.66699 10 -5c54.667 -29.333 82 -67.666 82 -114.999
c0 -29.333 -12.167 -57.666 -36.5 -84.999s-61.5 -41 -111.5 -41c-44.667 0 -92.667 13.667 -144 41v71c56 -34 104.333 -51 145 -51c19.333 0 36.833 5.5 52.5 16.5s23.5 25.5 23.5 43.5c0 19.333 -7.83301 35.333 -23.5 48s-41.167 27.334 -76.5 44.001
c-18 8.66699 -32.333 16 -43 22s-22.667 14.5 -36 25.5s-23.166 23.5 -29.499 37.5s-9.5 30 -9.5 48c0 31.333 12.5 59.333 37.5 84s60.5 37 106.5 37c40.667 0 83.334 -12.667 128.001 -38zM336.998 685.998l-134 -157h-44l88 157h90z" />
    <glyph glyph-name="Scircumflex" unicode="&#x15c;" horiz-adv-x="458" 
d="M396 646l-0.00195312 -85.0049c-56 41.333 -107.667 62 -155 62c-25.333 0 -47 -4.16699 -65 -12.5s-31.167 -18.666 -39.5 -30.999s-14.166 -23.666 -17.499 -33.999s-5 -19.5 -5 -27.5c0 -16.667 3.5 -31.667 10.5 -45s18 -25.833 33 -37.5s28 -20.667 39 -27
s26.5 -14.5 46.5 -24.5c70 -34.667 117.667 -65.5 143 -92.5s38 -64.833 38 -113.5c0 -59.333 -20.5 -105.333 -61.5 -138s-86.833 -49 -137.5 -49c-60 0 -119.667 20.667 -179 62v92c57.333 -57.333 116.333 -86 177 -86c42.667 0 74.5 12.333 95.5 37
s31.5 50.334 31.5 77.001c0 26 -9.66699 50 -29 72s-60.666 48 -123.999 78c-56 26.667 -96.167 54.834 -120.5 84.501s-36.5 63.834 -36.5 102.501c0 52.667 19.333 96 58 130s86.667 51 144 51c52 0 103.333 -15 154 -45zM276.998 884.995l100 -157h-47l-92 98l-92 -98
h-46l100 157h77z" />
    <glyph glyph-name="scircumflex" unicode="&#x15d;" horiz-adv-x="375" 
d="M319 420l-0.00195312 -69.002c-50 30.667 -92.333 46 -127 46c-22.667 0 -41 -5.66699 -55 -17s-21 -25 -21 -41c0 -16.667 7.83301 -30.834 23.5 -42.501s50.5 -31.5 104.5 -59.5c4.66699 -2 8 -3.66699 10 -5c54.667 -29.333 82 -67.666 82 -114.999
c0 -29.333 -12.167 -57.666 -36.5 -84.999s-61.5 -41 -111.5 -41c-44.667 0 -92.667 13.667 -144 41v71c56 -34 104.333 -51 145 -51c19.333 0 36.833 5.5 52.5 16.5s23.5 25.5 23.5 43.5c0 19.333 -7.83301 35.333 -23.5 48s-41.167 27.334 -76.5 44.001
c-18 8.66699 -32.333 16 -43 22s-22.667 14.5 -36 25.5s-23.166 23.5 -29.499 37.5s-9.5 30 -9.5 48c0 31.333 12.5 59.333 37.5 84s60.5 37 106.5 37c40.667 0 83.334 -12.667 128.001 -38zM225.998 685.998l100 -157h-47l-92 98l-92 -98h-46l100 157h77z" />
    <glyph glyph-name="Scedilla" unicode="&#x15e;" horiz-adv-x="458" 
d="M396 646l-0.000976562 -85.0049c-56 41.333 -107.667 62 -155 62c-25.333 0 -47 -4.16699 -65 -12.5s-31.167 -18.666 -39.5 -30.999s-14.166 -23.666 -17.499 -33.999s-5 -19.5 -5 -27.5c0 -16.667 3.5 -31.667 10.5 -45s18 -25.833 33 -37.5s28 -20.667 39 -27
s26.5 -14.5 46.5 -24.5c70 -34.667 117.667 -65.5 143 -92.5s38 -64.833 38 -113.5c0 -54.667 -17.333 -97.834 -52 -129.501s-75.334 -50.167 -122.001 -55.5l-5 -18c29.333 -4 50.333 -13.167 63 -27.5s19 -30.5 19 -48.5c0 -26.667 -13.833 -49.167 -41.5 -67.5
s-63.5 -27.5 -107.5 -27.5c-24 0 -46.333 1.33301 -67 4l3 51c14.667 -2 31 -3 49 -3c59.333 0 89 12.667 89 38c0 24 -29 36 -87 36l21 64c-47.333 6.66699 -94 26.334 -140 59.001v92c57.333 -57.333 116.333 -86 177 -86c42.667 0 74.5 12.333 95.5 37
s31.5 50.334 31.5 77.001c0 26 -9.66699 50 -29 72s-60.666 48 -123.999 78c-56 26.667 -96.167 54.834 -120.5 84.501s-36.5 63.834 -36.5 102.501c0 52.667 19.333 96 58 130s86.667 51 144 51c52 0 103.333 -15 154 -45z" />
    <glyph glyph-name="scedilla" unicode="&#x15f;" horiz-adv-x="375" 
d="M319 420l-0.00195312 -69c-50 30.667 -92.333 46 -127 46c-22.667 0 -41 -5.66699 -55 -17s-21 -25 -21 -41c0 -16.667 7.83301 -30.834 23.5 -42.501s50.5 -31.5 104.5 -59.5c4.66699 -2 8 -3.66699 10 -5c54.667 -29.333 82 -67.666 82 -114.999
c0 -27.333 -11 -54.333 -33 -81s-55.667 -41.334 -101 -44.001l-10 -28c50.667 -2.66699 76 -24.667 76 -66c0 -67.333 -61.333 -97 -184 -89l4 48c71.333 -0.666992 107 12.333 107 39c0 21.333 -26 32 -78 32l29 67c-29.333 4 -63.333 16.333 -102 37v71
c56 -34 104.333 -51 145 -51c19.333 0 36.833 5.5 52.5 16.5s23.5 25.5 23.5 43.5c0 19.333 -7.83301 35.333 -23.5 48s-41.167 27.334 -76.5 44.001c-18 8.66699 -32.333 16 -43 22s-22.667 14.5 -36 25.5s-23.166 23.5 -29.499 37.5s-9.5 30 -9.5 48
c0 31.333 12.5 59.333 37.5 84s60.5 37 106.5 37c40.667 0 83.334 -12.667 128.001 -38z" />
    <glyph glyph-name="Scaron" unicode="&#x160;" horiz-adv-x="458" 
d="M396 646l-0.00195312 -85.0049c-56 41.333 -107.667 62 -155 62c-25.333 0 -47 -4.16699 -65 -12.5s-31.167 -18.666 -39.5 -30.999s-14.166 -23.666 -17.499 -33.999s-5 -19.5 -5 -27.5c0 -16.667 3.5 -31.667 10.5 -45s18 -25.833 33 -37.5s28 -20.667 39 -27
s26.5 -14.5 46.5 -24.5c70 -34.667 117.667 -65.5 143 -92.5s38 -64.833 38 -113.5c0 -59.333 -20.5 -105.333 -61.5 -138s-86.833 -49 -137.5 -49c-60 0 -119.667 20.667 -179 62v92c57.333 -57.333 116.333 -86 177 -86c42.667 0 74.5 12.333 95.5 37
s31.5 50.334 31.5 77.001c0 26 -9.66699 50 -29 72s-60.666 48 -123.999 78c-56 26.667 -96.167 54.834 -120.5 84.501s-36.5 63.834 -36.5 102.501c0 52.667 19.333 96 58 130s86.667 51 144 51c52 0 103.333 -15 154 -45zM190.998 727.995l-100 157h47l92 -98l92 98h46
l-100 -157h-77z" />
    <glyph glyph-name="scaron" unicode="&#x161;" horiz-adv-x="375" 
d="M319 420l-0.00195312 -69.002c-50 30.667 -92.333 46 -127 46c-22.667 0 -41 -5.66699 -55 -17s-21 -25 -21 -41c0 -16.667 7.83301 -30.834 23.5 -42.501s50.5 -31.5 104.5 -59.5c4.66699 -2 8 -3.66699 10 -5c54.667 -29.333 82 -67.666 82 -114.999
c0 -29.333 -12.167 -57.666 -36.5 -84.999s-61.5 -41 -111.5 -41c-44.667 0 -92.667 13.667 -144 41v71c56 -34 104.333 -51 145 -51c19.333 0 36.833 5.5 52.5 16.5s23.5 25.5 23.5 43.5c0 19.333 -7.83301 35.333 -23.5 48s-41.167 27.334 -76.5 44.001
c-18 8.66699 -32.333 16 -43 22s-22.667 14.5 -36 25.5s-23.166 23.5 -29.499 37.5s-9.5 30 -9.5 48c0 31.333 12.5 59.333 37.5 84s60.5 37 106.5 37c40.667 0 83.334 -12.667 128.001 -38zM148.998 528.998l-100 157h47l92 -98l92 98h46l-100 -157h-77z" />
    <glyph glyph-name="uni0162" unicode="&#x162;" horiz-adv-x="594" 
d="M580 682v-66h-246v-616h-75v616h-246v66h567zM189 -213l3.00098 48.001c17.333 -1.33301 31 -2 41 -2c54 0 81 12.333 81 37c0 26 -34 37.333 -102 34l9 48c7.33301 0.666992 18.333 1 33 1c12.667 0 25.167 -0.833008 37.5 -2.5s26.5 -4.83398 42.5 -9.50098
s28.833 -12.667 38.5 -24s14.5 -25.333 14.5 -42c0 -28 -13.333 -50.333 -40 -67s-63.334 -25 -110.001 -25c-20.667 0 -36.667 1.33301 -48 4z" />
    <glyph glyph-name="uni0163" unicode="&#x163;" horiz-adv-x="313" 
d="M10 388l0.00195312 11l146 155v-105h135v-61h-135v-235c0 -17.333 0.5 -30.833 1.5 -40.5s3.66699 -19.5 8 -29.5s11.166 -17.167 20.499 -21.5s21.666 -6.5 36.999 -6.5c22.667 0 53 9 91 27v-65c-36.667 -17.333 -71.667 -26 -105 -26c-42 0 -72.833 12.5 -92.5 37.5
s-29.5 57.167 -29.5 96.5v263h-77zM121.002 -181l3.00098 43c10.667 -1.33301 20.667 -2 30 -2c40.667 0 61 11.333 61 34c0 21.333 -20.333 32 -61 32l12 39c5.33301 0.666992 10 1 14 1c24 0 45 -5.5 63 -16.5s27 -28.167 27 -51.5c0 -22.667 -8.5 -42.167 -25.5 -58.5
s-45.5 -24.5 -85.5 -24.5c-16.667 0 -29.334 1.33301 -38.001 4z" />
    <glyph glyph-name="Tcaron" unicode="&#x164;" horiz-adv-x="594" 
d="M580 682v-66h-246v-616h-75v616h-246v66h567zM258 728l-100 157h47l92 -98l92 98h46l-100 -157h-77z" />
    <glyph glyph-name="tcaron" unicode="&#x165;" horiz-adv-x="379" 
d="M10 388l0.00195312 11l146 155v-105h135v-61h-135v-235c0 -17.333 0.5 -30.833 1.5 -40.5s3.66699 -19.5 8 -29.5s11.166 -17.167 20.499 -21.5s21.666 -6.5 36.999 -6.5c22.667 0 53 9 91 27v-65c-36.667 -17.333 -71.667 -26 -105 -26c-42 0 -72.833 12.5 -92.5 37.5
s-29.5 57.167 -29.5 96.5v263h-77zM321.002 471l-0.00195312 15.998c27.333 27.333 39 57.333 35 90c-29.333 9.33301 -44 28 -44 56c0 17.333 5.16699 31.333 15.5 42s21.833 16 34.5 16c18.667 0 33 -7.66699 43 -23s15 -34.666 15 -57.999
c0 -10.667 -1.16699 -21.667 -3.5 -33s-6.66602 -24.166 -12.999 -38.499s-16.666 -27.5 -30.999 -39.5s-31.5 -21.333 -51.5 -28z" />
    <glyph glyph-name="Tbar" unicode="&#x166;" horiz-adv-x="594" 
d="M580 682v-66h-246v-257h208v-53h-208v-306h-75v306h-208v53h208v257h-246v66h567z" />
    <glyph glyph-name="tbar" unicode="&#x167;" horiz-adv-x="313" 
d="M10 388l0.00195312 11l146 155v-105h135v-61h-135v-98h143v-47h-143v-90c0 -17.333 0.5 -30.833 1.5 -40.5s3.66699 -19.5 8 -29.5s11.166 -17.167 20.499 -21.5s21.666 -6.5 36.999 -6.5c22.667 0 53 9 91 27v-65c-36.667 -17.333 -71.667 -26 -105 -26
c-42 0 -72.833 12.5 -92.5 37.5s-29.5 57.167 -29.5 96.5v118h-101v47h101v98h-77z" />
    <glyph glyph-name="Utilde" unicode="&#x168;" horiz-adv-x="698" 
d="M638 682l0.000976562 -365.995c0 -48 -2.66699 -86 -8 -114s-15.333 -54.333 -30 -79c-19.333 -34 -49.666 -64.5 -90.999 -91.5s-94.333 -40.5 -159 -40.5c-15.333 0 -31.5 1.16699 -48.5 3.5s-37.833 7.16602 -62.5 14.499s-48.834 19.666 -72.501 36.999
s-43.834 38.666 -60.501 63.999c-18 27.333 -30.167 55.666 -36.5 84.999s-9.5 69.666 -9.5 120.999v366h75v-370c0 -50 4.16699 -88.833 12.5 -116.5s22.5 -52.167 42.5 -73.5c40 -42 93.333 -63 160 -63c48 0 88.167 10.833 120.5 32.5s55.833 47.5 70.5 77.5
s22 77.667 22 143v370h75zM229.001 753.005h-35.999l3 23.5c0.666992 5 3 13.667 7 26s8.5 21.666 13.5 27.999s12.5 12.5 22.5 18.5s21.667 9 35 9c22 0 51.667 -8 89 -24c30 -12.667 52 -19 66 -19c10 0 18 3 24 9s9.66699 11.333 11 16s2.66602 11.334 3.99902 20.001h36
c0 -34.667 -8.33301 -61.167 -25 -79.5s-35.667 -27.5 -57 -27.5c-18 0 -42 6 -72 18c-42.667 16.667 -70 25 -82 25c-21.333 0 -34.333 -14.333 -39 -43z" />
    <glyph glyph-name="utilde" unicode="&#x169;" horiz-adv-x="492" 
d="M427 0l-68.999 0.000976562v68c-38.667 -51.333 -85.667 -77 -141 -77c-50 0 -89.333 17 -118 51s-43 80.333 -43 139v268h69v-262c0 -40.667 8.66699 -73.334 26 -98.001s44.666 -37 81.999 -37c52 0 93.667 26.333 125 79v318h69v-449zM126.001 554.001h-35.999l3 23.5
c0.666992 5 3 13.667 7 26s8.5 21.666 13.5 27.999s12.5 12.5 22.5 18.5s21.667 9 35 9c22 0 51.667 -8 89 -24c30 -12.667 52 -19 66 -19c10 0 18 3 24 9s9.66699 11.333 11 16s2.66602 11.334 3.99902 20.001h36c0 -34.667 -8.33301 -61.167 -25 -79.5
s-35.667 -27.5 -57 -27.5c-18 0 -42 6 -72 18c-42.667 16.667 -70 25 -82 25c-21.333 0 -34.333 -14.333 -39 -43z" />
    <glyph glyph-name="Umacron" unicode="&#x16a;" horiz-adv-x="698" 
d="M638 682l0.000976562 -365.995c0 -48 -2.66699 -86 -8 -114s-15.333 -54.333 -30 -79c-19.333 -34 -49.666 -64.5 -90.999 -91.5s-94.333 -40.5 -159 -40.5c-15.333 0 -31.5 1.16699 -48.5 3.5s-37.833 7.16602 -62.5 14.499s-48.834 19.666 -72.501 36.999
s-43.834 38.666 -60.501 63.999c-18 27.333 -30.167 55.666 -36.5 84.999s-9.5 69.666 -9.5 120.999v366h75v-370c0 -50 4.16699 -88.833 12.5 -116.5s22.5 -52.167 42.5 -73.5c40 -42 93.333 -63 160 -63c48 0 88.167 10.833 120.5 32.5s55.833 47.5 70.5 77.5
s22 77.667 22 143v370h75zM498.001 838.005v-63h-299v63h299z" />
    <glyph glyph-name="umacron" unicode="&#x16b;" horiz-adv-x="492" 
d="M427 0l-68.999 0.000976562v68c-38.667 -51.333 -85.667 -77 -141 -77c-50 0 -89.333 17 -118 51s-43 80.333 -43 139v268h69v-262c0 -40.667 8.66699 -73.334 26 -98.001s44.666 -37 81.999 -37c52 0 93.667 26.333 125 79v318h69v-449zM395.001 639.001v-63h-299v63
h299z" />
    <glyph glyph-name="Ubreve" unicode="&#x16c;" horiz-adv-x="698" 
d="M638 682l0.000976562 -365.995c0 -48 -2.66699 -86 -8 -114s-15.333 -54.333 -30 -79c-19.333 -34 -49.666 -64.5 -90.999 -91.5s-94.333 -40.5 -159 -40.5c-15.333 0 -31.5 1.16699 -48.5 3.5s-37.833 7.16602 -62.5 14.499s-48.834 19.666 -72.501 36.999
s-43.834 38.666 -60.501 63.999c-18 27.333 -30.167 55.666 -36.5 84.999s-9.5 69.666 -9.5 120.999v366h75v-370c0 -50 4.16699 -88.833 12.5 -116.5s22.5 -52.167 42.5 -73.5c40 -42 93.333 -63 160 -63c48 0 88.167 10.833 120.5 32.5s55.833 47.5 70.5 77.5
s22 77.667 22 143v370h75zM210.001 850.005l53 -0.000976562c17.333 -44 46.333 -66 87 -66c23.333 0 41 5.83301 53 17.5s22.333 27.834 31 48.501h53c-24.667 -81.333 -70.667 -122 -138 -122c-37.333 0 -68 12.167 -92 36.5s-39.667 52.833 -47 85.5z" />
    <glyph glyph-name="ubreve" unicode="&#x16d;" horiz-adv-x="492" 
d="M427 0l-68.999 0.000976562v68c-38.667 -51.333 -85.667 -77 -141 -77c-50 0 -89.333 17 -118 51s-43 80.333 -43 139v268h69v-262c0 -40.667 8.66699 -73.334 26 -98.001s44.666 -37 81.999 -37c52 0 93.667 26.333 125 79v318h69v-449zM107.001 651.001
l53 -0.000976562c17.333 -44 46.333 -66 87 -66c23.333 0 41 5.83301 53 17.5s22.333 27.834 31 48.501h53c-24.667 -81.333 -70.667 -122 -138 -122c-37.333 0 -68 12.167 -92 36.5s-39.667 52.833 -47 85.5z" />
    <glyph glyph-name="Uring" unicode="&#x16e;" horiz-adv-x="698" 
d="M638 682l0.000976562 -365.995c0 -48 -2.66699 -86 -8 -114s-15.333 -54.333 -30 -79c-19.333 -34 -49.666 -64.5 -90.999 -91.5s-94.333 -40.5 -159 -40.5c-15.333 0 -31.5 1.16699 -48.5 3.5s-37.833 7.16602 -62.5 14.499s-48.834 19.666 -72.501 36.999
s-43.834 38.666 -60.501 63.999c-18 27.333 -30.167 55.666 -36.5 84.999s-9.5 69.666 -9.5 120.999v366h75v-370c0 -50 4.16699 -88.833 12.5 -116.5s22.5 -52.167 42.5 -73.5c40 -42 93.333 -63 160 -63c48 0 88.167 10.833 120.5 32.5s55.833 47.5 70.5 77.5
s22 77.667 22 143v370h75zM348.001 724.005c-26 0 -48 9 -66 27s-27 40 -27 66s9 48.167 27 66.5s40 27.5 66 27.5s48.167 -9.16699 66.5 -27.5s27.5 -40.5 27.5 -66.5s-9.16699 -48 -27.5 -66s-40.5 -27 -66.5 -27zM348.001 767.005c14 0 26 4.83301 36 14.5
s15 21.5 15 35.5s-5 26 -15 36s-22 15 -36 15s-25.833 -5 -35.5 -15s-14.5 -22 -14.5 -36s4.83301 -25.833 14.5 -35.5s21.5 -14.5 35.5 -14.5z" />
    <glyph glyph-name="uring" unicode="&#x16f;" horiz-adv-x="492" 
d="M427 0l-68.999 0.000976562v68c-38.667 -51.333 -85.667 -77 -141 -77c-50 0 -89.333 17 -118 51s-43 80.333 -43 139v268h69v-262c0 -40.667 8.66699 -73.334 26 -98.001s44.666 -37 81.999 -37c52 0 93.667 26.333 125 79v318h69v-449zM245.001 525.001
c-26 0 -48 9 -66 27s-27 40 -27 66s9 48.167 27 66.5s40 27.5 66 27.5s48.167 -9.16699 66.5 -27.5s27.5 -40.5 27.5 -66.5s-9.16699 -48 -27.5 -66s-40.5 -27 -66.5 -27zM245.001 568.001c14 0 26 4.83301 36 14.5s15 21.5 15 35.5s-5 26 -15 36s-22 15 -36 15
s-25.833 -5 -35.5 -15s-14.5 -22 -14.5 -36s4.83301 -25.833 14.5 -35.5s21.5 -14.5 35.5 -14.5z" />
    <glyph glyph-name="Uhungarumlaut" unicode="&#x170;" horiz-adv-x="698" 
d="M638 682l0.000976562 -365.995c0 -48 -2.66699 -86 -8 -114s-15.333 -54.333 -30 -79c-19.333 -34 -49.666 -64.5 -90.999 -91.5s-94.333 -40.5 -159 -40.5c-15.333 0 -31.5 1.16699 -48.5 3.5s-37.833 7.16602 -62.5 14.499s-48.834 19.666 -72.501 36.999
s-43.834 38.666 -60.501 63.999c-18 27.333 -30.167 55.666 -36.5 84.999s-9.5 69.666 -9.5 120.999v366h75v-370c0 -50 4.16699 -88.833 12.5 -116.5s22.5 -52.167 42.5 -73.5c40 -42 93.333 -63 160 -63c48 0 88.167 10.833 120.5 32.5s55.833 47.5 70.5 77.5
s22 77.667 22 143v370h75zM572.001 885.005l-131 -157h-44l85 157h90zM420.001 885.005l-131 -157h-44l85 157h90z" />
    <glyph glyph-name="uhungarumlaut" unicode="&#x171;" horiz-adv-x="492" 
d="M427 0l-68.999 0.000976562v68c-38.667 -51.333 -85.667 -77 -141 -77c-50 0 -89.333 17 -118 51s-43 80.333 -43 139v268h69v-262c0 -40.667 8.66699 -73.334 26 -98.001s44.666 -37 81.999 -37c52 0 93.667 26.333 125 79v318h69v-449zM449.001 686.001l-131 -157h-44
l85 157h90zM297.001 686.001l-131 -157h-44l85 157h90z" />
    <glyph glyph-name="Uogonek" unicode="&#x172;" horiz-adv-x="698" 
d="M638 682l0.000976562 -365.998c0 -48 -2.66699 -86 -8 -114s-15.333 -54.333 -30 -79c-17.333 -31.333 -44.833 -60 -82.5 -86s-85.167 -41 -142.5 -45c-21.333 -28 -32 -50.333 -32 -67c0 -15.333 6.33301 -28.333 19 -39s27.667 -16 45 -16c9.33301 0 21.333 2 36 6
v-58c-20.667 -7.33301 -40.667 -11 -60 -11c-32.667 0 -59.334 8.83301 -80.001 26.5s-31 41.167 -31 70.5c0 31.333 14.333 61 43 89c-96 10 -165.667 49 -209 117c-18 27.333 -30.167 55.666 -36.5 84.999s-9.5 69.666 -9.5 120.999v366h75v-370
c0 -50 4.16699 -88.833 12.5 -116.5s22.5 -52.167 42.5 -73.5c40 -42 93.333 -63 160 -63c48 0 88.167 10.833 120.5 32.5s55.833 47.5 70.5 77.5s22 77.667 22 143v370h75z" />
    <glyph glyph-name="uogonek" unicode="&#x173;" horiz-adv-x="492" 
d="M467 -112l0.00195312 -51.999c-26.667 -6.66699 -46.334 -10 -59.001 -10c-22.667 0 -44 7.33301 -64 22s-30 37 -30 67c0 32.667 14.667 61 44 85v68c-38.667 -51.333 -85.667 -77 -141 -77c-50 0 -89.333 17 -118 51s-43 80.333 -43 139v268h69v-262
c0 -40.667 8.66699 -73.334 26 -98.001s44.666 -37 81.999 -37c52 0 93.667 26.333 125 79v318h69v-449h-16c-22.667 -26 -34 -48 -34 -66c0 -16.667 6 -29.5 18 -38.5s24.333 -13.5 37 -13.5c3.33301 0 15 2 35 6z" />
    <glyph glyph-name="Wcircumflex" unicode="&#x174;" horiz-adv-x="1042" 
d="M1039 682l-274 -689h-18l-226 567l-226 -567h-19l-273 689h75l208 -518l208 518h55l208 -518l207 518h75zM559 885l100 -157h-47l-92 98l-92 -98h-46l100 157h77z" />
    <glyph glyph-name="wcircumflex" unicode="&#x175;" horiz-adv-x="718" 
d="M716 449l-196 -458h-26l-135 339l-135 -339h-26l-196 458h71l136 -319l128 319h45l126 -319l136 319h72zM397 686l100 -157h-47l-92 98l-92 -98h-46l100 157h77z" />
    <glyph glyph-name="Ycircumflex" unicode="&#x176;" horiz-adv-x="599" 
d="M596 682l-260 -318v-364h-75v364l-258 318h91l204 -252l207 252h91zM338 885l100 -157h-47l-92 98l-92 -98h-46l100 157h77z" />
    <glyph glyph-name="ycircumflex" unicode="&#x177;" horiz-adv-x="432" 
d="M430 449l-327 -679h-74l155 322l-182 357h75l143 -283l135 283h75zM254 686l100 -157h-47l-92 98l-92 -98h-46l100 157h77z" />
    <glyph glyph-name="Ydieresis" unicode="&#x178;" horiz-adv-x="599" 
d="M596 682l-260 -318v-364h-75v364l-258 318h91l204 -252l207 252h91zM207 851c12.667 0 23.334 -4.33301 32.001 -13s13 -19.334 13 -32.001s-4.33301 -23.334 -13 -32.001s-19.334 -13 -32.001 -13s-23.334 4.33301 -32.001 13s-13 19.334 -13 32.001
s4.33301 23.334 13 32.001s19.334 13 32.001 13zM392 851c12.667 0 23.334 -4.33301 32.001 -13s13 -19.334 13 -32.001s-4.33301 -23.334 -13 -32.001s-19.334 -13 -32.001 -13s-23.334 4.33301 -32.001 13s-13 19.334 -13 32.001s4.33301 23.334 13 32.001
s19.334 13 32.001 13z" />
    <glyph glyph-name="Zacute" unicode="&#x179;" horiz-adv-x="646" 
d="M39 682h581v-9l-472 -607h474v-66h-609v7l474 609h-448v66zM442 885l-134 -157h-44l88 157h90z" />
    <glyph glyph-name="zacute" unicode="&#x17a;" horiz-adv-x="406" 
d="M24 449h371v-9l-266 -376h266v-64h-384v8l266 377h-253v64zM342 686l-134 -157h-44l88 157h90z" />
    <glyph glyph-name="Zdotaccent" unicode="&#x17b;" horiz-adv-x="646" 
d="M39 682h581v-9l-472 -607h474v-66h-609v7l474 609h-448v66zM321 853c13.333 0 24.666 -4.66699 33.999 -14s14 -20.666 14 -33.999s-4.66699 -24.666 -14 -33.999s-20.666 -14 -33.999 -14s-24.666 4.66699 -33.999 14s-14 20.666 -14 33.999s4.66699 24.666 14 33.999
s20.666 14 33.999 14z" />
    <glyph glyph-name="zdotaccent" unicode="&#x17c;" horiz-adv-x="406" 
d="M24 449h371v-9l-266 -376h266v-64h-384v8l266 377h-253v64zM203 652c12.667 0 23.334 -4.33301 32.001 -13s13 -19.334 13 -32.001s-4.33301 -23.334 -13 -32.001s-19.334 -13 -32.001 -13s-23.334 4.33301 -32.001 13s-13 19.334 -13 32.001s4.33301 23.334 13 32.001
s19.334 13 32.001 13z" />
    <glyph glyph-name="Zcaron" unicode="&#x17d;" horiz-adv-x="646" 
d="M39 682h581v-9l-472 -607h474v-66h-609v7l474 609h-448v66zM285 728l-100 157h47l92 -98l92 98h46l-100 -157h-77z" />
    <glyph glyph-name="zcaron" unicode="&#x17e;" horiz-adv-x="406" 
d="M24 449h371v-9l-266 -376h266v-64h-384v8l266 377h-253v64zM165 529l-100 157h47l92 -98l92 98h46l-100 -157h-77z" />
    <glyph glyph-name="florin" unicode="&#x192;" horiz-adv-x="552" 
d="M325 387l-88 -470c-8.66699 -46.667 -23.167 -79.667 -43.5 -99s-51.166 -29 -92.499 -29c-26.667 0 -57.667 4.66699 -93 14l14 63c29.333 -7.33301 54 -11 74 -11c24 0 40.833 7.5 50.5 22.5s18.834 46.167 27.501 93.5l76 416h-88l11 56h88l17 97
c9.33301 52 23.666 90.167 42.999 114.5s50.666 36.5 93.999 36.5c28 0 60.667 -7.33301 98 -22l-13 -60c-30 10.667 -53 16 -69 16c-23.333 0 -40.5 -6.5 -51.5 -19.5s-19.833 -37.167 -26.5 -72.5l-17 -90h107l-12 -56h-106z" />
    <glyph glyph-name="AEacute" unicode="&#x1fc;" horiz-adv-x="884" 
d="M842 682v-66h-300v-239h293v-66h-293v-245h310v-66h-385v311h-193l-189 -311h-83l415 682h425zM467 377v254l-153 -254h153zM753 885l-134 -157h-44l88 157h90z" />
    <glyph glyph-name="aeacute" unicode="&#x1fd;" horiz-adv-x="671" 
d="M637 233l-283.007 0.00292969c-2 -36.667 1.66699 -67.834 11 -93.501s22 -44.334 38 -56.001s31 -19.834 45 -24.501s27.333 -7 40 -7c23.333 0 47 4.5 71 13.5s39 15.667 45 20l33 23.5v-71c-52 -31.333 -104 -47 -156 -47c-64.667 0 -115 23.333 -151 70
c-61.333 -46.667 -116.666 -70 -165.999 -70c-40.667 0 -71.167 11.833 -91.5 35.5s-30.5 50.5 -30.5 80.5c0 16 2.33301 30.167 7 42.5s13 23.833 25 34.5s23.333 19.5 34 26.5s27.5 14.833 50.5 23.5s42 15.334 57 20.001l69.5 21c0 14 -0.333008 25.5 -1 34.5
s-2.5 19.667 -5.5 32s-7.33301 22 -13 29s-14 13.167 -25 18.5s-24.5 8 -40.5 8c-45.333 0 -92.666 -22.333 -141.999 -67v78c45.333 33.333 94.333 50 147 50c60.667 0 104 -21 130 -63l6.5 6.5l8.5 8.5c2 2 5.16699 5 9.5 9s8.33301 7.16699 12 9.5l14 9
c5.66699 3.66699 11.334 6.5 17.001 8.5s11.834 4 18.501 6s13.834 3.5 21.501 4.5s15.5 1.5 23.5 1.5c34.667 0 64.334 -8.16699 89.001 -24.5s42.334 -37 53.001 -62s18.167 -47.333 22.5 -67s6.5 -37.834 6.5 -54.501v-17zM358.993 283.003l207 -0.000976562
c-2 32.667 -11.833 59.834 -29.5 81.501s-42.167 32.5 -73.5 32.5c-24 0 -46.333 -9.5 -67 -28.5s-33 -47.5 -37 -85.5zM284.993 84.002v148.001l-60 -20c-13.333 -4.66699 -28.833 -11 -46.5 -19s-30.5 -15.333 -38.5 -22s-15 -14.834 -21 -24.501s-9 -20.5 -9 -32.5
c0 -20 7.66699 -37.167 23 -51.5s33 -21.5 53 -21.5c24.667 0 57.667 14.333 99 43zM473.993 686.003l-134 -157h-44l88 157h90z" />
    <glyph glyph-name="Oslashacute" unicode="&#x1fe;" horiz-adv-x="823" 
d="M196 55l-57.002 -64l-41 32l57 65c-72 72 -108 156.333 -108 253c0 94.667 33.333 176.667 100 246s154.334 104 263.001 104c84.667 0 157.334 -21.667 218.001 -65l57 65l40 -33l-56 -65c71.333 -69.333 107 -153.333 107 -252c0 -99.333 -35.167 -182.5 -105.5 -249.5
s-157.5 -100.5 -261.5 -100.5c-76.667 0 -147.667 21.333 -213 64zM617.998 536l-373 -423.999c48.667 -33.333 103.667 -50 165 -50c80.667 0 148.5 27 203.5 81s82.5 120.667 82.5 200c0 75.333 -26 139.666 -78 192.999zM204.998 145.001l373 425
c-46 33.333 -101.667 50 -167 50c-84.667 0 -153.167 -27.5 -205.5 -82.5s-78.5 -120.833 -78.5 -197.5c0 -74.667 26 -139.667 78 -195zM539.998 885.001l-134 -157h-44l88 157h90z" />
    <glyph glyph-name="oslashacute" unicode="&#x1ff;" horiz-adv-x="552" 
d="M141 34l-56 -63l-33 30l55 62c-43.333 46 -65 99.667 -65 161c0 64 22.333 119 67 165s100.667 69 168 69c52 0 97 -14.667 135 -44l55 64l33 -28l-56 -65c43.333 -44 65 -97 65 -159c0 -49.333 -12.167 -92.333 -36.5 -129s-53.833 -63.5 -88.5 -80.5
s-70.667 -25.5 -108 -25.5c-49.333 0 -94.333 14.333 -135 43zM402 337l-220 -255c28 -20 58.667 -30 92 -30c49.333 0 89 16.667 119 50s45 74.333 45 123c0 44.667 -12 82 -36 112zM149 112l220.997 254c-0.666992 0.666992 -3.5 2.66699 -8.5 6s-9.66699 6 -14 8
s-10.166 4.5 -17.499 7.5s-15.666 5.33301 -24.999 7s-19.333 2.5 -30 2.5c-47.333 0 -86.166 -16.167 -116.499 -48.5s-45.5 -73.5 -45.5 -123.5c0 -44 12 -81.667 36 -113zM404.997 686l-134 -157h-44l88 157h90z" />
    <glyph glyph-name="uni0218" unicode="&#x218;" horiz-adv-x="458" 
d="M396 646l-0.00195312 -85.0049c-56 41.333 -107.667 62 -155 62c-25.333 0 -47 -4.16699 -65 -12.5s-31.167 -18.666 -39.5 -30.999s-14.166 -23.666 -17.499 -33.999s-5 -19.5 -5 -27.5c0 -16.667 3.5 -31.667 10.5 -45s18 -25.833 33 -37.5s28 -20.667 39 -27
s26.5 -14.5 46.5 -24.5c70 -34.667 117.667 -65.5 143 -92.5s38 -64.833 38 -113.5c0 -59.333 -20.5 -105.333 -61.5 -138s-86.833 -49 -137.5 -49c-60 0 -119.667 20.667 -179 62v92c57.333 -57.333 116.333 -86 177 -86c42.667 0 74.5 12.333 95.5 37
s31.5 50.334 31.5 77.001c0 26 -9.66699 50 -29 72s-60.666 48 -123.999 78c-56 26.667 -96.167 54.834 -120.5 84.501s-36.5 63.834 -36.5 102.501c0 52.667 19.333 96 58 130s86.667 51 144 51c52 0 103.333 -15 154 -45zM125.998 -213.005l3.00098 48.001
c17.333 -1.33301 31 -2 41 -2c54 0 81 12.333 81 37c0 26 -34 37.333 -102 34l9 48c7.33301 0.666992 18.333 1 33 1c12.667 0 25.167 -0.833008 37.5 -2.5s26.5 -4.83398 42.5 -9.50098s28.833 -12.667 38.5 -24s14.5 -25.333 14.5 -42c0 -28 -13.333 -50.333 -40 -67
s-63.334 -25 -110.001 -25c-20.667 0 -36.667 1.33301 -48 4z" />
    <glyph glyph-name="uni0219" unicode="&#x219;" horiz-adv-x="375" 
d="M319 420l-0.00195312 -69.002c-50 30.667 -92.333 46 -127 46c-22.667 0 -41 -5.66699 -55 -17s-21 -25 -21 -41c0 -16.667 7.83301 -30.834 23.5 -42.501s50.5 -31.5 104.5 -59.5c4.66699 -2 8 -3.66699 10 -5c54.667 -29.333 82 -67.666 82 -114.999
c0 -29.333 -12.167 -57.666 -36.5 -84.999s-61.5 -41 -111.5 -41c-44.667 0 -92.667 13.667 -144 41v71c56 -34 104.333 -51 145 -51c19.333 0 36.833 5.5 52.5 16.5s23.5 25.5 23.5 43.5c0 19.333 -7.83301 35.333 -23.5 48s-41.167 27.334 -76.5 44.001
c-18 8.66699 -32.333 16 -43 22s-22.667 14.5 -36 25.5s-23.166 23.5 -29.499 37.5s-9.5 30 -9.5 48c0 31.333 12.5 59.333 37.5 84s60.5 37 106.5 37c40.667 0 83.334 -12.667 128.001 -38zM100.998 -181.002l3.00098 43c10.667 -1.33301 20.667 -2 30 -2
c40.667 0 61 11.333 61 34c0 21.333 -20.333 32 -61 32l12 39c5.33301 0.666992 10 1 14 1c24 0 45 -5.5 63 -16.5s27 -28.167 27 -51.5c0 -22.667 -8.5 -42.167 -25.5 -58.5s-45.5 -24.5 -85.5 -24.5c-16.667 0 -29.334 1.33301 -38.001 4z" />
    <glyph glyph-name="uni021A" unicode="&#x21a;" horiz-adv-x="594" 
d="M580 682v-66h-246v-616h-75v616h-246v66h567zM189 -213l3.00098 48.001c17.333 -1.33301 31 -2 41 -2c54 0 81 12.333 81 37c0 26 -34 37.333 -102 34l9 48c7.33301 0.666992 18.333 1 33 1c12.667 0 25.167 -0.833008 37.5 -2.5s26.5 -4.83398 42.5 -9.50098
s28.833 -12.667 38.5 -24s14.5 -25.333 14.5 -42c0 -28 -13.333 -50.333 -40 -67s-63.334 -25 -110.001 -25c-20.667 0 -36.667 1.33301 -48 4z" />
    <glyph glyph-name="uni021B" unicode="&#x21b;" horiz-adv-x="313" 
d="M10 388l0.00195312 11l146 155v-105h135v-61h-135v-235c0 -17.333 0.5 -30.833 1.5 -40.5s3.66699 -19.5 8 -29.5s11.166 -17.167 20.499 -21.5s21.666 -6.5 36.999 -6.5c22.667 0 53 9 91 27v-65c-36.667 -17.333 -71.667 -26 -105 -26c-42 0 -72.833 12.5 -92.5 37.5
s-29.5 57.167 -29.5 96.5v263h-77zM121.002 -181l3.00098 43c10.667 -1.33301 20.667 -2 30 -2c40.667 0 61 11.333 61 34c0 21.333 -20.333 32 -61 32l12 39c5.33301 0.666992 10 1 14 1c24 0 45 -5.5 63 -16.5s27 -28.167 27 -51.5c0 -22.667 -8.5 -42.167 -25.5 -58.5
s-45.5 -24.5 -85.5 -24.5c-16.667 0 -29.334 1.33301 -38.001 4z" />
    <glyph glyph-name="circumflex" unicode="&#x2c6;" horiz-adv-x="333" 
d="M205 686l100 -157h-47l-92 98l-92 -98h-46l100 157h77z" />
    <glyph glyph-name="caron" unicode="&#x2c7;" horiz-adv-x="333" 
d="M128 529l-100 157h47l92 -98l92 98h46l-100 -157h-77z" />
    <glyph glyph-name="uni02C9" unicode="&#x2c9;" horiz-adv-x="333" 
d="M316 639v-63h-299v63h299z" />
    <glyph glyph-name="breve" unicode="&#x2d8;" horiz-adv-x="333" 
d="M28 651l53 -0.000976562c17.333 -44 46.333 -66 87 -66c23.333 0 41 5.83301 53 17.5s22.333 27.834 31 48.501h53c-24.667 -81.333 -70.667 -122 -138 -122c-37.333 0 -68 12.167 -92 36.5s-39.667 52.833 -47 85.5z" />
    <glyph glyph-name="dotaccent" unicode="&#x2d9;" horiz-adv-x="333" 
d="M167 652c12.667 0 23.334 -4.33301 32.001 -13s13 -19.334 13 -32.001s-4.33301 -23.334 -13 -32.001s-19.334 -13 -32.001 -13s-23.334 4.33301 -32.001 13s-13 19.334 -13 32.001s4.33301 23.334 13 32.001s19.334 13 32.001 13z" />
    <glyph glyph-name="ring" unicode="&#x2da;" horiz-adv-x="333" 
d="M166 525c-26 0 -48 9 -66 27s-27 40 -27 66s9 48.167 27 66.5s40 27.5 66 27.5s48.167 -9.16699 66.5 -27.5s27.5 -40.5 27.5 -66.5s-9.16699 -48 -27.5 -66s-40.5 -27 -66.5 -27zM166 568c14 0 26 4.83301 36 14.5s15 21.5 15 35.5s-5 26 -15 36s-22 15 -36 15
s-25.833 -5 -35.5 -15s-14.5 -22 -14.5 -36s4.83301 -25.833 14.5 -35.5s21.5 -14.5 35.5 -14.5z" />
    <glyph glyph-name="ogonek" unicode="&#x2db;" horiz-adv-x="333" 
d="M249 -112l-0.000976562 -51.999c-26.667 -6.66699 -46.334 -10 -59.001 -10c-22.667 0 -44 7.33301 -64 22s-30 37 -30 67c0 37.333 19.333 69 58 95h48c-11.333 -12.667 -19.166 -22 -23.499 -28s-8.66602 -13.333 -12.999 -22s-6.5 -17.334 -6.5 -26.001
c0 -16.667 6 -29.5 18 -38.5s24.333 -13.5 37 -13.5c3.33301 0 15 2 35 6z" />
    <glyph glyph-name="tilde" unicode="&#x2dc;" horiz-adv-x="333" 
d="M47 554h-35.999l3 23.5c0.666992 5 3 13.667 7 26s8.5 21.666 13.5 27.999s12.5 12.5 22.5 18.5s21.667 9 35 9c22 0 51.667 -8 89 -24c30 -12.667 52 -19 66 -19c10 0 18 3 24 9s9.66699 11.333 11 16s2.66602 11.334 3.99902 20.001h36
c0 -34.667 -8.33301 -61.167 -25 -79.5s-35.667 -27.5 -57 -27.5c-18 0 -42 6 -72 18c-42.667 16.667 -70 25 -82 25c-21.333 0 -34.333 -14.333 -39 -43z" />
    <glyph glyph-name="hungarumlaut" unicode="&#x2dd;" horiz-adv-x="333" 
d="M391 686l-131 -157h-44l85 157h90zM239 686l-131 -157h-44l85 157h90z" />
    <glyph glyph-name="uni03A9" unicode="&#x3a9;" horiz-adv-x="670" 
d="M614 0l-213.001 -0.000976562v62c90.667 86 136 190.333 136 313c0 80.667 -18 146.167 -54 196.5s-86 75.5 -150 75.5c-63.333 0 -114 -25.333 -152 -76s-57 -116 -57 -196c0 -124.667 45.667 -229 137 -313v-62h-213v62h142c-96 84.667 -144 192.667 -144 324
c0 93.333 26.833 171 80.5 233s122.834 93 207.501 93c87.333 0 156 -29.667 206 -89s75 -137.666 75 -234.999c0 -72 -14 -135.5 -42 -190.5s-62.333 -100.167 -103 -135.5h144v-62z" />
    <glyph glyph-name="uni03BC" unicode="&#x3bc;" horiz-adv-x="532" 
d="M375 449l69 0.000976562v-359c1.33301 -19.333 8 -29 20 -29c14 0 31.333 6 52 18v-57c-42 -18.667 -75 -28 -99 -28c-28 0 -42 14 -42 42v17c-30.667 -40.667 -67 -61 -109 -61c-26.667 0 -49 6.16699 -67 18.5s-37.667 31.166 -59 56.499v-297h-69v679h69v-317
c33.333 -53.333 73.666 -80 120.999 -80c34.667 0 62.334 13.667 83.001 41s31 59 31 95v261z" />
    <glyph glyph-name="pi" unicode="&#x3c0;" horiz-adv-x="588" 
d="M564 63l16.001 -55c-15.333 -10 -37.333 -15 -66 -15c-40.667 0 -70.334 12.5 -89.001 37.5s-28 56.5 -28 94.5v312h-181v-304c0 -54 -4.33301 -98.333 -13 -133h-82c10 38.667 15 84 15 136v301c-32 0 -62.667 -7.33301 -92 -22l-23 57c36 18.667 82 28 138 28h417v-63
h-98v-302c0 -53.333 18 -80 54 -80c9.33301 0 20 2.66699 32 8z" />
    <glyph glyph-name="Wgrave" unicode="&#x1e80;" horiz-adv-x="1042" 
d="M1039 682l-274 -689h-18l-226 567l-226 -567h-19l-273 689h75l208 -518l208 518h55l208 -518l207 518h75zM401 885h90l89 -157h-44z" />
    <glyph glyph-name="wgrave" unicode="&#x1e81;" horiz-adv-x="718" 
d="M716 449l-196 -458h-26l-135 339l-135 -339h-26l-196 458h71l136 -319l128 319h45l126 -319l136 319h72zM229 686h90l89 -157h-44z" />
    <glyph glyph-name="Wacute" unicode="&#x1e82;" horiz-adv-x="1042" 
d="M1039 682l-274 -689h-18l-226 567l-226 -567h-19l-273 689h75l208 -518l208 518h55l208 -518l207 518h75zM640 885l-134 -157h-44l88 157h90z" />
    <glyph glyph-name="wacute" unicode="&#x1e83;" horiz-adv-x="718" 
d="M716 449l-196 -458h-26l-135 339l-135 -339h-26l-196 458h71l136 -319l128 319h45l126 -319l136 319h72zM488 686l-134 -157h-44l88 157h90z" />
    <glyph glyph-name="Wdieresis" unicode="&#x1e84;" horiz-adv-x="1042" 
d="M1039 682l-274 -689h-18l-226 567l-226 -567h-19l-273 689h75l208 -518l208 518h55l208 -518l207 518h75zM428 851c12.667 0 23.334 -4.33301 32.001 -13s13 -19.334 13 -32.001s-4.33301 -23.334 -13 -32.001s-19.334 -13 -32.001 -13s-23.334 4.33301 -32.001 13
s-13 19.334 -13 32.001s4.33301 23.334 13 32.001s19.334 13 32.001 13zM613 851c12.667 0 23.334 -4.33301 32.001 -13s13 -19.334 13 -32.001s-4.33301 -23.334 -13 -32.001s-19.334 -13 -32.001 -13s-23.334 4.33301 -32.001 13s-13 19.334 -13 32.001
s4.33301 23.334 13 32.001s19.334 13 32.001 13z" />
    <glyph glyph-name="wdieresis" unicode="&#x1e85;" horiz-adv-x="718" 
d="M716 449l-196 -458h-26l-135 339l-135 -339h-26l-196 458h71l136 -319l128 319h45l126 -319l136 319h72zM266 652c12.667 0 23.334 -4.33301 32.001 -13s13 -19.334 13 -32.001s-4.33301 -23.334 -13 -32.001s-19.334 -13 -32.001 -13s-23.334 4.33301 -32.001 13
s-13 19.334 -13 32.001s4.33301 23.334 13 32.001s19.334 13 32.001 13zM451 652c12.667 0 23.334 -4.33301 32.001 -13s13 -19.334 13 -32.001s-4.33301 -23.334 -13 -32.001s-19.334 -13 -32.001 -13s-23.334 4.33301 -32.001 13s-13 19.334 -13 32.001
s4.33301 23.334 13 32.001s19.334 13 32.001 13z" />
    <glyph glyph-name="Ygrave" unicode="&#x1ef2;" horiz-adv-x="599" 
d="M596 682l-260 -318v-364h-75v364l-258 318h91l204 -252l207 252h91zM180 885h90l89 -157h-44z" />
    <glyph glyph-name="ygrave" unicode="&#x1ef3;" horiz-adv-x="432" 
d="M430 449l-327 -679h-74l155 322l-182 357h75l143 -283l135 283h75zM76 686h90l89 -157h-44z" />
    <glyph glyph-name="endash" unicode="&#x2013;" horiz-adv-x="500" 
d="M-6 259h512v-45h-512v45z" />
    <glyph glyph-name="emdash" unicode="&#x2014;" horiz-adv-x="1000" 
d="M-6 259h1012v-45h-1012v45z" />
    <glyph glyph-name="quoteleft" unicode="&#x2018;" horiz-adv-x="240" 
d="M165 691l0.00195312 -15.998c-27.333 -27.333 -39 -57.333 -35 -90c29.333 -9.33301 44 -28 44 -56c0 -17.333 -5.16699 -31.333 -15.5 -42s-21.833 -16 -34.5 -16c-18.667 0 -33 7.66699 -43 23s-15 34.666 -15 57.999c0 10.667 1.16699 21.667 3.5 33
s6.66602 24.166 12.999 38.499s16.666 27.5 30.999 39.5s31.5 21.333 51.5 28z" />
    <glyph glyph-name="quoteright" unicode="&#x2019;" horiz-adv-x="240" 
d="M75 471l-0.00195312 15.998c27.333 27.333 39 57.333 35 90c-29.333 9.33301 -44 28 -44 56c0 17.333 5.16699 31.333 15.5 42s21.833 16 34.5 16c18.667 0 33 -7.66699 43 -23s15 -34.666 15 -57.999c0 -10.667 -1.16699 -21.667 -3.5 -33
s-6.66602 -24.166 -12.999 -38.499s-16.666 -27.5 -30.999 -39.5s-31.5 -21.333 -51.5 -28z" />
    <glyph glyph-name="quotesinglbase" unicode="&#x201a;" horiz-adv-x="240" 
d="M75 -121l-0.00195312 15.998c27.333 27.333 39 57.333 35 90c-29.333 9.33301 -44 28 -44 56c0 17.333 5.16699 31.333 15.5 42s21.833 16 34.5 16c18.667 0 33 -7.66699 43 -23s15 -34.666 15 -57.999c0 -10.667 -1.16699 -21.667 -3.5 -33
s-6.66602 -24.166 -12.999 -38.499s-16.666 -27.5 -30.999 -39.5s-31.5 -21.333 -51.5 -28z" />
    <glyph glyph-name="quotedblleft" unicode="&#x201c;" horiz-adv-x="414" 
d="M165 691l0.00195312 -15.998c-27.333 -27.333 -39 -57.333 -35 -90c29.333 -9.33301 44 -28 44 -56c0 -17.333 -5.16699 -31.333 -15.5 -42s-21.833 -16 -34.5 -16c-18.667 0 -33 7.66699 -43 23s-15 34.666 -15 57.999c0 10.667 1.16699 21.667 3.5 33
s6.66602 24.166 12.999 38.499s16.666 27.5 30.999 39.5s31.5 21.333 51.5 28zM339.002 691.002l0.00195312 -15.998c-27.333 -27.333 -39 -57.333 -35 -90c29.333 -9.33301 44 -28 44 -56c0 -17.333 -5.16699 -31.333 -15.5 -42s-21.833 -16 -34.5 -16
c-18.667 0 -33 7.66699 -43 23s-15 34.666 -15 57.999c0 10.667 1.16699 21.667 3.5 33s6.66602 24.166 12.999 38.499s16.666 27.5 30.999 39.5s31.5 21.333 51.5 28z" />
    <glyph glyph-name="quotedblright" unicode="&#x201d;" horiz-adv-x="414" 
d="M249 471l-0.00195312 15.998c27.333 27.333 39 57.333 35 90c-29.333 9.33301 -44 28 -44 56c0 17.333 5.16699 31.333 15.5 42s21.833 16 34.5 16c18.667 0 33 -7.66699 43 -23s15 -34.666 15 -57.999c0 -10.667 -1.16699 -21.667 -3.5 -33
s-6.66602 -24.166 -12.999 -38.499s-16.666 -27.5 -30.999 -39.5s-31.5 -21.333 -51.5 -28zM74.998 470.998l-0.00195312 15.998c27.333 27.333 39 57.333 35 90c-29.333 9.33301 -44 28 -44 56c0 17.333 5.16699 31.333 15.5 42s21.833 16 34.5 16
c18.667 0 33 -7.66699 43 -23s15 -34.666 15 -57.999c0 -10.667 -1.16699 -21.667 -3.5 -33s-6.66602 -24.166 -12.999 -38.499s-16.666 -27.5 -30.999 -39.5s-31.5 -21.333 -51.5 -28z" />
    <glyph glyph-name="quotedblbase" unicode="&#x201e;" horiz-adv-x="414" 
d="M249 -121l-0.00195312 15.998c27.333 27.333 39 57.333 35 90c-29.333 9.33301 -44 28 -44 56c0 17.333 5.16699 31.333 15.5 42s21.833 16 34.5 16c18.667 0 33 -7.66699 43 -23s15 -34.666 15 -57.999c0 -10.667 -1.16699 -21.667 -3.5 -33
s-6.66602 -24.166 -12.999 -38.499s-16.666 -27.5 -30.999 -39.5s-31.5 -21.333 -51.5 -28zM74.998 -121.002l-0.00195312 15.998c27.333 27.333 39 57.333 35 90c-29.333 9.33301 -44 28 -44 56c0 17.333 5.16699 31.333 15.5 42s21.833 16 34.5 16
c18.667 0 33 -7.66699 43 -23s15 -34.666 15 -57.999c0 -10.667 -1.16699 -21.667 -3.5 -33s-6.66602 -24.166 -12.999 -38.499s-16.666 -27.5 -30.999 -39.5s-31.5 -21.333 -51.5 -28z" />
    <glyph glyph-name="dagger" unicode="&#x2020;" horiz-adv-x="490" 
d="M228 368l-20.999 -4c-14 -2 -28.333 -4.33301 -43 -7s-30.667 -5 -48 -7s-30.333 -3 -39 -3c-34 0 -51 11.667 -51 35c0 12.667 5 22.5 15 29.5s21 10.5 33 10.5c8.66699 0 35 -3.33301 79 -10s69 -10 75 -10c-0.666992 4 -2.66699 22.5 -6 55.5s-5.33301 52.5 -6 58.5
c-8 57.333 -12 93 -12 107c0 6.66699 0.833008 14 2.5 22s5.83398 16.167 12.501 24.5s15.334 12.5 26.001 12.5c12 0 21.333 -4.83301 28 -14.5s10.5 -18.167 11.5 -25.5s1.5 -14 1.5 -20c0 -16 -2.33301 -38 -7 -66c-1.33301 -9.33301 -4.33301 -36 -9 -80
s-7.33398 -68.667 -8.00098 -74l44 6.5c24.667 3.66699 47.667 6.83398 69 9.50098s35.333 4 42 4c12.667 0 23.667 -3.83301 33 -11.5s14 -17.167 14 -28.5c0 -23.333 -17 -35 -51 -35c-8.66699 0 -21.5 1 -38.5 3s-33 4.33301 -48 7l-43 7.5
c-13.667 2.33301 -20.834 3.5 -21.501 3.5c4.66699 -86 9 -153.667 13 -203c10 -140 15 -245 15 -315c0 -53.333 -15 -80 -45 -80c-10.667 0 -19.334 2.66699 -26.001 8s-11.167 13.5 -13.5 24.5s-3.83301 20.167 -4.5 27.5s-1 17.666 -1 30.999c0 74 4.66699 170 14 288
c2 20.667 6.66699 93.667 14 219z" />
    <glyph glyph-name="daggerdbl" unicode="&#x2021;" horiz-adv-x="490" 
d="M209 -115l19.002 137c-98 -13.333 -148 -20 -150 -20c-14.667 0 -26.5 3.83301 -35.5 11.5s-13.5 16.167 -13.5 25.5c0 11.333 5 20.5 15 27.5s21.333 10.5 34 10.5c19.333 0 69.333 -7.33301 150 -22c-8.66699 64.667 -13 120.667 -13 168c0 58 4.66699 116 14 174
c-28.667 -4 -51.334 -7.66699 -68.001 -11c-36.667 -7.33301 -65 -11 -85 -11c-31.333 0 -47 12.333 -47 37c0 12 4.83301 21.333 14.5 28s20.834 10 33.501 10c4.66699 0 17.667 -1.33301 39 -4s44.166 -5.83398 68.499 -9.50098s39.166 -5.83398 44.499 -6.50098
c-2.66699 26.667 -7 60.667 -13 102c-7.33301 52.667 -11 86 -11 100c0 33.333 13.667 50 41 50c12 0 21.333 -4.16699 28 -12.5s10.5 -15.833 11.5 -22.5s1.5 -13 1.5 -19c0 -8.66699 -8.33301 -74.667 -25 -198c88 13.333 138 20 150 20c32.667 0 49 -12 49 -36
c0 -12.667 -4.66699 -22.334 -14 -29.001s-20 -10 -32 -10c-28.667 0 -79.667 7.33301 -153 22c7.33301 -73.333 11 -129.666 11 -168.999c0 -54 -4.33301 -111.667 -13 -173c11.333 0.666992 34.333 4 69 10c44.667 8 72.667 12 84 12c14.667 0 26.334 -3.33301 35.001 -10
s13 -15.667 13 -27c0 -12.667 -5.33301 -22.167 -16 -28.5s-23 -9.5 -37 -9.5c-17.333 0 -66.666 6.66699 -147.999 20c4.66699 -32 12 -87 22 -165c0 -2 0.5 -6.66699 1.5 -14s1.5 -13.333 1.5 -18c0 -36.667 -13.667 -55 -41 -55c-10.667 0 -19.334 3.83301 -26.001 11.5
s-10.834 14.834 -12.501 21.501s-2.5 13.334 -2.5 20.001c0 16 2 36.667 6 62z" />
    <glyph glyph-name="bullet" unicode="&#x2022;" horiz-adv-x="427" 
d="M213 464c34 0 63 -11.833 87 -35.5s36 -52.5 36 -86.5s-12 -63 -36 -87s-53 -36 -87 -36s-62.833 12 -86.5 36s-35.5 53 -35.5 87s11.833 62.833 35.5 86.5s52.5 35.5 86.5 35.5z" />
    <glyph glyph-name="ellipsis" unicode="&#x2026;" horiz-adv-x="1000" 
d="M167 99c14.667 0 27.332 -5.33105 37.999 -15.998s16 -23.334 16 -38.001c0 -15.333 -5.16699 -28.166 -15.5 -38.499s-23.166 -15.5 -38.499 -15.5s-28.166 5.16699 -38.499 15.5s-15.5 23.166 -15.5 38.499s5.16699 28.166 15.5 38.499s23.166 15.5 38.499 15.5z
M499.998 99.002c14.667 0 27.334 -5.16699 38.001 -15.5s16 -23.166 16 -38.499s-5.33301 -28.166 -16 -38.499s-23.334 -15.5 -38.001 -15.5s-27.334 5.16699 -38.001 15.5s-16 23.166 -16 38.499s5.33301 28.166 16 38.499s23.334 15.5 38.001 15.5zM832.998 99.002
c15.333 0 28.1641 -5.16895 38.4971 -15.502s15.5 -23.166 15.5 -38.499s-5.16699 -28.166 -15.5 -38.499s-23.166 -15.5 -38.499 -15.5s-28.166 5.16699 -38.499 15.5s-15.5 23.166 -15.5 38.499c0 14.667 5.33301 27.334 16 38.001s23.334 16 38.001 16z" />
    <glyph glyph-name="perthousand" unicode="&#x2030;" horiz-adv-x="1065" 
d="M882 303c42.667 0 79.334 -15.167 110.001 -45.5s46 -67.166 46 -110.499s-15.333 -80.166 -46 -110.499s-67.334 -45.5 -110.001 -45.5s-79.334 15.167 -110.001 45.5s-46 67.166 -46 110.499s15.333 80.166 46 110.499s67.334 45.5 110.001 45.5zM882 49
c26.667 0 49.667 9.5 69 28.5s29 42.167 29 69.5s-9.66699 50.5 -29 69.5s-42.333 28.5 -69 28.5s-49.667 -9.5 -69 -28.5s-29 -42.167 -29 -69.5s9.66699 -50.5 29 -69.5s42.333 -28.5 69 -28.5zM514 303c42.667 0 79.334 -15.167 110.001 -45.5s46 -67.166 46 -110.499
s-15.333 -80.166 -46 -110.499s-67.334 -45.5 -110.001 -45.5s-79.334 15.167 -110.001 45.5s-46 67.166 -46 110.499s15.333 80.166 46 110.499s67.334 45.5 110.001 45.5zM514 49c26.667 0 49.667 9.5 69 28.5s29 42.167 29 69.5s-9.66699 50.5 -29 69.5
s-42.333 28.5 -69 28.5s-49.667 -9.5 -69 -28.5s-29 -42.167 -29 -69.5s9.66699 -50.5 29 -69.5s42.333 -28.5 69 -28.5zM184 691c42.667 0 79.334 -15.167 110.001 -45.5s46 -67.166 46 -110.499s-15.333 -80.166 -46 -110.499s-67.334 -45.5 -110.001 -45.5
s-79.334 15.167 -110.001 45.5s-46 67.166 -46 110.499s15.333 80.166 46 110.499s67.334 45.5 110.001 45.5zM184 437c26.667 0 49.667 9.5 69 28.5s29 42.167 29 69.5s-9.66699 50.5 -29 69.5s-42.333 28.5 -69 28.5s-49.667 -9.5 -69 -28.5s-29 -42.167 -29 -69.5
s9.66699 -50.5 29 -69.5s42.333 -28.5 69 -28.5zM630 682l-499 -682h-63l499 682h63z" />
    <glyph glyph-name="guilsinglleft" unicode="&#x2039;" horiz-adv-x="300" 
d="M260 0h-68l-168 224l168 225h68l-168 -225z" />
    <glyph glyph-name="guilsinglright" unicode="&#x203a;" horiz-adv-x="300" 
d="M40 449h68l168 -225l-168 -224h-68l168 224z" />
    <glyph glyph-name="fraction" unicode="&#x2044;" horiz-adv-x="188" 
d="M366 691l-491 -718h-53l491 718h53z" />
    <glyph glyph-name="uni2070" unicode="&#x2070;" 
d="M296 508c0 -57.333 -13.167 -101.834 -39.5 -133.501s-58.166 -47.5 -95.499 -47.5c-38.667 0 -70.834 15.833 -96.501 47.5s-38.5 75.5 -38.5 131.5c0 54 12.5 98.333 37.5 133s57.833 52 98.5 52c37.333 0 69 -16.167 95 -48.5s39 -77.166 39 -134.499zM240 508.999
c0 40 -7.33301 73.333 -22 100s-33.667 40 -57 40s-42.5 -13 -57.5 -39s-22.5 -59.667 -22.5 -101c0 -44.667 7.66699 -79.167 23 -103.5s34 -36.5 56 -36.5c25.333 0 45 13.833 59 41.5s21 60.5 21 98.5z" />
    <glyph glyph-name="uni2074" unicode="&#x2074;" 
d="M251 691v-197h51v-38h-51v-124h-54v124h-177v19l205 216h26zM197 494v108l-103 -108h103z" />
    <glyph glyph-name="uni2075" unicode="&#x2075;" 
d="M259 687l0.00195312 -41h-134v-93c38 1.33301 69.333 -3.66699 94 -15c41.333 -19.333 62 -51.333 62 -96c0 -32 -12.667 -59.167 -38 -81.5s-58.666 -33.5 -99.999 -33.5c-34 0 -68 8 -102 24v49c36.667 -20 69 -30 97 -30c23.333 0 43.5 6.33301 60.5 19
s25.5 30 25.5 52c0 18.667 -6.33301 34 -19 46s-25.334 19.5 -38.001 22.5s-25.334 4.5 -38.001 4.5c-20.667 0 -39.334 -2.66699 -56.001 -8v181h186z" />
    <glyph glyph-name="uni2076" unicode="&#x2076;" 
d="M205 693c3.33301 -3.33301 8.66895 -9.00098 16.002 -17.001s12.666 -13.667 15.999 -17c-40.667 -22.667 -74 -50 -100 -82c-12 -13.333 -23.667 -33 -35 -59c24 10 46.333 15 67 15c32.667 0 60.667 -9.5 84 -28.5s35 -43.5 35 -73.5s-11.833 -54.833 -35.5 -74.5
s-52.834 -29.5 -87.501 -29.5s-65.167 10.333 -91.5 31s-39.5 52.667 -39.5 96c0 88.667 57 168.334 171 239.001zM91.0029 466.999c-1.33301 -13.333 -1.66602 -24.001 -0.999023 -32.001c2 -21.333 10.167 -37.666 24.5 -48.999s30.833 -17 49.5 -17
c20 0 36.5 5.5 49.5 16.5s19.5 25.5 19.5 43.5c0 17.333 -6.83301 32 -20.5 44s-30.834 18 -51.501 18c-24 0 -47.333 -8 -70 -24z" />
    <glyph glyph-name="uni2077" unicode="&#x2077;" 
d="M299 688l-187 -361l-49 18l156 301h-195v42h275z" />
    <glyph glyph-name="uni2078" unicode="&#x2078;" 
d="M234 514c36.667 -19.333 55.001 -47.667 55.001 -85c0 -28.667 -12 -52.834 -36 -72.501s-54.333 -29.5 -91 -29.5c-36 0 -66.333 10 -91 30s-37 44 -37 72c0 36.667 19 65 57 85c-32 21.333 -48 47.333 -48 78c0 26.667 11.667 49.834 35 69.501
s51.666 29.5 84.999 29.5c32.667 0 60.667 -9.5 84 -28.5s35 -42.5 35 -70.5c0 -32 -16 -58 -48 -78zM227.001 591.999c0 16 -6.16699 29.335 -18.5 40.002s-27.833 16 -46.5 16s-34.167 -5.33301 -46.5 -16s-18.5 -24.334 -18.5 -41.001c0 -17.333 7 -31 21 -41
s29 -15 45 -15c17.333 0 32.333 5.16699 45 15.5s19 24.166 19 41.499zM233.001 433.001c0 15.333 -6.66797 28.834 -20.001 40.501s-30.666 17.5 -51.999 17.5c-22 0 -39.333 -6.16699 -52 -18.5s-19 -26.5 -19 -42.5c0 -16.667 6.83301 -30.834 20.5 -42.501
s31.167 -17.5 52.5 -17.5c22 0 39.167 6 51.5 18s18.5 27 18.5 45z" />
    <glyph glyph-name="uni2079" unicode="&#x2079;" 
d="M116 325c-3.33301 3.33301 -8.49902 9.00195 -15.499 17.002s-12.167 13.667 -15.5 17c14.667 9.33301 27.167 17.666 37.5 24.999s22.5 17 36.5 29s26.167 25.667 36.5 41s18.5 31.333 24.5 48c-23.333 -10 -46 -15 -68 -15c-32.667 0 -60.5 9.66699 -83.5 29
s-34.5 43.333 -34.5 72c0 28 11.5 52.333 34.5 73s52.5 31 88.5 31c35.333 0 66.166 -11.167 92.499 -33.5s39.5 -53.833 39.5 -94.5c0 -48.667 -17 -93.834 -51 -135.501s-74.667 -76.167 -122 -103.5zM231.001 551.002v32c-1.33301 17.333 -7.5 32.833 -18.5 46.5
s-29.167 20.5 -54.5 20.5c-22 0 -39 -6.16699 -51 -18.5s-18 -26.5 -18 -42.5c0 -17.333 6.83301 -31.833 20.5 -43.5s30.167 -17.5 49.5 -17.5c26 0 50 7.66699 72 23z" />
    <glyph glyph-name="uni2080" unicode="&#x2080;" 
d="M296 176c0 -57.333 -13.167 -101.834 -39.5 -133.501s-58.166 -47.5 -95.499 -47.5c-38.667 0 -70.834 15.833 -96.501 47.5s-38.5 75.5 -38.5 131.5c0 54 12.5 98.333 37.5 133s57.833 52 98.5 52c37.333 0 69 -16.167 95 -48.5s39 -77.166 39 -134.499zM240 176.999
c0 40 -7.33301 73.333 -22 100s-33.667 40 -57 40s-42.5 -13 -57.5 -39s-22.5 -59.667 -22.5 -101c0 -44.667 7.66699 -79.167 23 -103.5s34 -36.5 56 -36.5c25.333 0 45 13.833 59 41.5s21 60.5 21 98.5z" />
    <glyph glyph-name="uni2081" unicode="&#x2081;" 
d="M190 354v-354h-56v354h56z" />
    <glyph glyph-name="uni2082" unicode="&#x2082;" 
d="M131 42l167 -0.000976562v-42h-270v4c46 46 84.333 85.667 115 119c20 22 35.167 42 45.5 60s16.166 30.5 17.499 37.5s2 15.833 2 26.5c0 19.333 -6.5 35.833 -19.5 49.5s-31.5 20.5 -55.5 20.5c-34 0 -66 -17.667 -96 -53v60c0.666992 0 3.5 1.83301 8.5 5.5
s8.83301 6.33398 11.5 8.00098s7.33398 4.16699 14.001 7.5s13 5.83301 19 7.5s13.333 3.16699 22 4.5s17.667 2 27 2c42.667 0 74.167 -11 94.5 -33s30.5 -46.333 30.5 -73s-10.167 -56 -30.5 -88s-54.5 -73 -102.5 -123z" />
    <glyph glyph-name="uni2083" unicode="&#x2083;" 
d="M40 15l-0.00195312 48c32.667 -17.333 64.334 -26 95.001 -26c23.333 0 41.5 5.83301 54.5 17.5s19.5 26.5 19.5 44.5c0 42.667 -31.667 64 -95 64v42c59.333 0 89 19 89 57c0 36.667 -24 55 -72 55c-26.667 0 -54.667 -8 -84 -24v45c24.667 14 53.334 21 86.001 21
c46 0 78.5 -9.66699 97.5 -29s28.5 -41.333 28.5 -66c0 -38 -19.333 -63.667 -58 -77c22.667 -6 39 -17.667 49 -35s15 -34.333 15 -51c0 -34.667 -13.5 -61 -40.5 -79s-55.833 -27 -86.5 -27c-33.333 0 -66 6.66699 -98 20z" />
    <glyph glyph-name="uni2084" unicode="&#x2084;" 
d="M251 359v-197h51v-38h-51v-124h-54v124h-177v19l205 216h26zM197 162v108l-103 -108h103z" />
    <glyph glyph-name="uni2085" unicode="&#x2085;" 
d="M259 355l0.00195312 -41h-134v-93c38 1.33301 69.333 -3.66699 94 -15c41.333 -19.333 62 -51.333 62 -96c0 -32 -12.667 -59.167 -38 -81.5s-58.666 -33.5 -99.999 -33.5c-34 0 -68 8 -102 24v49c36.667 -20 69 -30 97 -30c23.333 0 43.5 6.33301 60.5 19
s25.5 30 25.5 52c0 18.667 -6.33301 34 -19 46s-25.334 19.5 -38.001 22.5s-25.334 4.5 -38.001 4.5c-20.667 0 -39.334 -2.66699 -56.001 -8v181h186z" />
    <glyph glyph-name="uni2086" unicode="&#x2086;" 
d="M205 361c3.33301 -3.33301 8.66895 -9.00098 16.002 -17.001s12.666 -13.667 15.999 -17c-40.667 -22.667 -74 -50 -100 -82c-12 -13.333 -23.667 -33 -35 -59c24 10 46.333 15 67 15c32.667 0 60.667 -9.5 84 -28.5s35 -43.5 35 -73.5s-11.833 -54.833 -35.5 -74.5
s-52.834 -29.5 -87.501 -29.5s-65.167 10.333 -91.5 31s-39.5 52.667 -39.5 96c0 88.667 57 168.334 171 239.001zM91.0029 134.999c-1.33301 -13.333 -1.66602 -24.001 -0.999023 -32.001c2 -21.333 10.167 -37.666 24.5 -48.999s30.833 -17 49.5 -17
c20 0 36.5 5.5 49.5 16.5s19.5 25.5 19.5 43.5c0 17.333 -6.83301 32 -20.5 44s-30.834 18 -51.501 18c-24 0 -47.333 -8 -70 -24z" />
    <glyph glyph-name="uni2087" unicode="&#x2087;" 
d="M299 356l-187 -361l-49 18l156 301h-195v42h275z" />
    <glyph glyph-name="uni2088" unicode="&#x2088;" 
d="M234 182c36.667 -19.333 55.001 -47.667 55.001 -85c0 -28.667 -12 -52.834 -36 -72.501s-54.333 -29.5 -91 -29.5c-36 0 -66.333 10 -91 30s-37 44 -37 72c0 36.667 19 65 57 85c-32 21.333 -48 47.333 -48 78c0 26.667 11.667 49.834 35 69.501
s51.666 29.5 84.999 29.5c32.667 0 60.667 -9.5 84 -28.5s35 -42.5 35 -70.5c0 -32 -16 -58 -48 -78zM227.001 259.999c0 16 -6.16699 29.335 -18.5 40.002s-27.833 16 -46.5 16s-34.167 -5.33301 -46.5 -16s-18.5 -24.334 -18.5 -41.001c0 -17.333 7 -31 21 -41
s29 -15 45 -15c17.333 0 32.333 5.16699 45 15.5s19 24.166 19 41.499zM233.001 101.001c0 15.333 -6.66797 28.834 -20.001 40.501s-30.666 17.5 -51.999 17.5c-22 0 -39.333 -6.16699 -52 -18.5s-19 -26.5 -19 -42.5c0 -16.667 6.83301 -30.834 20.5 -42.501
s31.167 -17.5 52.5 -17.5c22 0 39.167 6 51.5 18s18.5 27 18.5 45z" />
    <glyph glyph-name="uni2089" unicode="&#x2089;" 
d="M116 -7c-3.33301 4 -8.49902 9.83496 -15.499 17.502s-12.167 13.167 -15.5 16.5c14.667 9.33301 27.167 17.666 37.5 24.999s22.5 17 36.5 29s26.167 25.667 36.5 41s18.5 31.333 24.5 48c-23.333 -10 -46 -15 -68 -15c-32.667 0 -60.5 9.66699 -83.5 29
s-34.5 43.333 -34.5 72c0 28 11.5 52.333 34.5 73s52.5 31 88.5 31c35.333 0 66.166 -11.167 92.499 -33.5s39.5 -53.833 39.5 -94.5c0 -48.667 -17 -93.834 -51 -135.501s-74.667 -76.167 -122 -103.5zM231.001 219.002v32c-1.33301 17.333 -7.5 32.833 -18.5 46.5
s-29.167 20.5 -54.5 20.5c-22 0 -39 -6.16699 -51 -18.5s-18 -26.5 -18 -42.5c0 -17.333 6.83301 -31.833 20.5 -43.5s30.167 -17.5 49.5 -17.5c26 0 50 7.66699 72 23z" />
    <glyph glyph-name="Euro" unicode="&#x20ac;" horiz-adv-x="539" 
d="M467 313l-15 -69h-285c10 -56.667 29.333 -101.167 58 -133.5s64.334 -48.5 107.001 -48.5c56.667 0 113.334 24 170.001 72v-81c-54 -41.333 -110 -62 -168 -62c-60.667 0 -112.667 23.5 -156 70.5s-72 107.833 -86 182.5h-79l15 69h56v26v30h-71l15 69h65
c14.667 76.667 44.334 138 89.001 184s94 69 148 69c52.667 0 108.667 -19 168 -57v-81c-56.667 44.667 -111.334 67 -164.001 67c-42.667 0 -78.334 -16.333 -107.001 -49s-48.334 -77 -59.001 -133h319l-15 -69h-313v-30v-26h308z" />
    <glyph glyph-name="uni2113" unicode="&#x2113;" horiz-adv-x="464" 
d="M353 92l27 -41.001c-38 -42.667 -79 -64 -123 -64c-76 0 -114 49.333 -114 148v115l-57 -64l-32 37l89 101v233c0 56.667 10.333 99.334 31 128.001s49 43 85 43c31.333 0 54.833 -10.667 70.5 -32s23.5 -45.333 23.5 -72c0 -87.333 -46.667 -189 -140 -305v-185
c0 -60 19.667 -90 59 -90c24.667 0 51.667 16 81 48zM299 616.999c0 35.333 -12 53 -36 53c-33.333 0 -50 -36.667 -50 -110v-161c25.333 34 46 70.5 62 109.5s24 75.167 24 108.5z" />
    <glyph glyph-name="trademark" unicode="&#x2122;" horiz-adv-x="970" 
d="M269 284h-58v347h-130v51h318v-51h-130v-347zM444 284v398h87l100 -318l100 318h86v-398h-53v345l-110 -345h-47l-110 347v-347h-53z" />
    <glyph glyph-name="Omega" unicode="&#x2126;" horiz-adv-x="670" 
d="M614 0l-213.001 -0.000976562v62c90.667 86 136 190.333 136 313c0 80.667 -18 146.167 -54 196.5s-86 75.5 -150 75.5c-63.333 0 -114 -25.333 -152 -76s-57 -116 -57 -196c0 -124.667 45.667 -229 137 -313v-62h-213v62h142c-96 84.667 -144 192.667 -144 324
c0 93.333 26.833 171 80.5 233s122.834 93 207.501 93c87.333 0 156 -29.667 206 -89s75 -137.666 75 -234.999c0 -72 -14 -135.5 -42 -190.5s-62.333 -100.167 -103 -135.5h144v-62z" />
    <glyph glyph-name="estimated" unicode="&#x212e;" horiz-adv-x="637" 
d="M589 278l-430 0.00195312v-191c41.333 -41.333 92 -62 152 -62c88 0 156.333 42 205 126l36 -21c-32 -47.333 -66.5 -82.833 -103.5 -106.5s-82.833 -35.5 -137.5 -35.5c-81.333 0 -146.833 27.667 -196.5 83s-74.5 124.333 -74.5 207
c0 83.333 24.667 152.666 74 207.999s115.333 83 198 83c84 0 150.333 -27.333 199 -82s74.667 -124.334 78 -209.001zM465 315.002l0.000976562 153c-42 43.333 -93.333 65 -154 65s-111.334 -21 -152.001 -63v-155h306z" />
    <glyph glyph-name="onethird" unicode="&#x2153;" horiz-adv-x="833" 
d="M689 691l-491 -718h-53l490 718h54zM223 686v-354h-56v354h56zM554 15l-0.00195312 48c32.667 -17.333 64.334 -26 95.001 -26c23.333 0 41.5 5.83301 54.5 17.5s19.5 26.5 19.5 44.5c0 42.667 -31.667 64 -95 64v42c59.333 0 89 19 89 57c0 36.667 -24 55 -72 55
c-26.667 0 -54.667 -8 -84 -24v45c24.667 14 53.334 21 86.001 21c46 0 78.5 -9.66699 97.5 -29s28.5 -41.333 28.5 -66c0 -38 -19.333 -63.667 -58 -77c22.667 -6 39 -17.667 49 -35s15 -34.333 15 -51c0 -34.667 -13.5 -61 -40.5 -79s-55.833 -27 -86.5 -27
c-33.333 0 -66 6.66699 -98 20z" />
    <glyph glyph-name="twothirds" unicode="&#x2154;" horiz-adv-x="833" 
d="M695 691l-491 -718h-53l490 718h54zM554 15l-0.00195312 48c32.667 -17.333 64.334 -26 95.001 -26c23.333 0 41.5 5.83301 54.5 17.5s19.5 26.5 19.5 44.5c0 42.667 -31.667 64 -95 64v42c59.333 0 89 19 89 57c0 36.667 -24 55 -72 55c-26.667 0 -54.667 -8 -84 -24v45
c24.667 14 53.334 21 86.001 21c46 0 78.5 -9.66699 97.5 -29s28.5 -41.333 28.5 -66c0 -38 -19.333 -63.667 -58 -77c22.667 -6 39 -17.667 49 -35s15 -34.333 15 -51c0 -34.667 -13.5 -61 -40.5 -79s-55.833 -27 -86.5 -27c-33.333 0 -66 6.66699 -98 20zM135.998 374
l167 -0.000976562v-42h-270v4c46 46 84.333 85.667 115 119c20 22 35.167 42 45.5 60s16.166 30.5 17.499 37.5s2 15.833 2 26.5c0 19.333 -6.5 35.833 -19.5 49.5s-31.5 20.5 -55.5 20.5c-34 0 -66 -17.667 -96 -53v60c0.666992 0 3.5 1.83301 8.5 5.5
s8.83301 6.33398 11.5 8.00098s7.33398 4.16699 14.001 7.5s13 5.83301 19 7.5s13.333 3.16699 22 4.5s17.667 2 27 2c42.667 0 74.167 -11 94.5 -33s30.5 -46.333 30.5 -73s-10.167 -56 -30.5 -88s-54.5 -73 -102.5 -123z" />
    <glyph glyph-name="oneeighth" unicode="&#x215b;" horiz-adv-x="833" 
d="M689 691l-491 -718h-53l490 718h54zM223 686v-354h-56v354h56zM724 182c36.667 -19.333 55.001 -47.667 55.001 -85c0 -28.667 -12 -52.834 -36 -72.501s-54.333 -29.5 -91 -29.5c-36 0 -66.333 10 -91 30s-37 44 -37 72c0 36.667 19 65 57 85
c-32 21.333 -48 47.333 -48 78c0 26.667 11.667 49.834 35 69.501s51.666 29.5 84.999 29.5c32.667 0 60.667 -9.5 84 -28.5s35 -42.5 35 -70.5c0 -32 -16 -58 -48 -78zM717.001 259.999c0 16 -6.16699 29.335 -18.5 40.002s-27.833 16 -46.5 16s-34.167 -5.33301 -46.5 -16
s-18.5 -24.334 -18.5 -41.001c0 -17.333 7 -31 21 -41s29 -15 45 -15c17.333 0 32.333 5.16699 45 15.5s19 24.166 19 41.499zM723.001 101.001c0 15.333 -6.66797 28.834 -20.001 40.501s-30.666 17.5 -51.999 17.5c-22 0 -39.333 -6.16699 -52 -18.5s-19 -26.5 -19 -42.5
c0 -16.667 6.83301 -30.834 20.5 -42.501s31.167 -17.5 52.5 -17.5c22 0 39.167 6 51.5 18s18.5 27 18.5 45z" />
    <glyph glyph-name="threeeighths" unicode="&#x215c;" horiz-adv-x="833" 
d="M689 691l-491 -718h-53l490 718h54zM724 182c36.667 -19.333 55.001 -47.667 55.001 -85c0 -28.667 -12 -52.834 -36 -72.501s-54.333 -29.5 -91 -29.5c-36 0 -66.333 10 -91 30s-37 44 -37 72c0 36.667 19 65 57 85c-32 21.333 -48 47.333 -48 78
c0 26.667 11.667 49.834 35 69.501s51.666 29.5 84.999 29.5c32.667 0 60.667 -9.5 84 -28.5s35 -42.5 35 -70.5c0 -32 -16 -58 -48 -78zM717.001 259.999c0 16 -6.16699 29.335 -18.5 40.002s-27.833 16 -46.5 16s-34.167 -5.33301 -46.5 -16s-18.5 -24.334 -18.5 -41.001
c0 -17.333 7 -31 21 -41s29 -15 45 -15c17.333 0 32.333 5.16699 45 15.5s19 24.166 19 41.499zM723.001 101.001c0 15.333 -6.66797 28.834 -20.001 40.501s-30.666 17.5 -51.999 17.5c-22 0 -39.333 -6.16699 -52 -18.5s-19 -26.5 -19 -42.5
c0 -16.667 6.83301 -30.834 20.5 -42.501s31.167 -17.5 52.5 -17.5c22 0 39.167 6 51.5 18s18.5 27 18.5 45zM64 347.002l-0.00195312 48c32.667 -17.333 64.334 -26 95.001 -26c23.333 0 41.5 5.83301 54.5 17.5s19.5 26.5 19.5 44.5c0 42.667 -31.667 64 -95 64v42
c59.333 0 89 19 89 57c0 36.667 -24 55 -72 55c-26.667 0 -54.667 -8 -84 -24v45c24.667 14 53.334 21 86.001 21c46 0 78.5 -9.66699 97.5 -29s28.5 -41.333 28.5 -66c0 -38 -19.333 -63.667 -58 -77c22.667 -6 39 -17.667 49 -35s15 -34.333 15 -51
c0 -34.667 -13.5 -61 -40.5 -79s-55.833 -27 -86.5 -27c-33.333 0 -66 6.66699 -98 20z" />
    <glyph glyph-name="fiveeighths" unicode="&#x215d;" horiz-adv-x="833" 
d="M689 691l-491 -718h-53l490 718h54zM724 182c36.667 -19.333 55.001 -47.667 55.001 -85c0 -28.667 -12 -52.834 -36 -72.501s-54.333 -29.5 -91 -29.5c-36 0 -66.333 10 -91 30s-37 44 -37 72c0 36.667 19 65 57 85c-32 21.333 -48 47.333 -48 78
c0 26.667 11.667 49.834 35 69.501s51.666 29.5 84.999 29.5c32.667 0 60.667 -9.5 84 -28.5s35 -42.5 35 -70.5c0 -32 -16 -58 -48 -78zM717.001 259.999c0 16 -6.16699 29.335 -18.5 40.002s-27.833 16 -46.5 16s-34.167 -5.33301 -46.5 -16s-18.5 -24.334 -18.5 -41.001
c0 -17.333 7 -31 21 -41s29 -15 45 -15c17.333 0 32.333 5.16699 45 15.5s19 24.166 19 41.499zM723.001 101.001c0 15.333 -6.66797 28.834 -20.001 40.501s-30.666 17.5 -51.999 17.5c-22 0 -39.333 -6.16699 -52 -18.5s-19 -26.5 -19 -42.5
c0 -16.667 6.83301 -30.834 20.5 -42.501s31.167 -17.5 52.5 -17.5c22 0 39.167 6 51.5 18s18.5 27 18.5 45zM270 687.002l0.00195312 -41h-134v-93c38 1.33301 69.333 -3.66699 94 -15c41.333 -19.333 62 -51.333 62 -96c0 -32 -12.667 -59.167 -38 -81.5
s-58.666 -33.5 -99.999 -33.5c-34 0 -68 8 -102 24v49c36.667 -20 69 -30 97 -30c23.333 0 43.5 6.33301 60.5 19s25.5 30 25.5 52c0 18.667 -6.33301 34 -19 46s-25.334 19.5 -38.001 22.5s-25.334 4.5 -38.001 4.5c-20.667 0 -39.334 -2.66699 -56.001 -8v181h186z" />
    <glyph glyph-name="seveneighths" unicode="&#x215e;" horiz-adv-x="833" 
d="M680 691l-491 -718h-53l490 718h54zM724 182c36.667 -19.333 55.001 -47.667 55.001 -85c0 -28.667 -12 -52.834 -36 -72.501s-54.333 -29.5 -91 -29.5c-36 0 -66.333 10 -91 30s-37 44 -37 72c0 36.667 19 65 57 85c-32 21.333 -48 47.333 -48 78
c0 26.667 11.667 49.834 35 69.501s51.666 29.5 84.999 29.5c32.667 0 60.667 -9.5 84 -28.5s35 -42.5 35 -70.5c0 -32 -16 -58 -48 -78zM717.001 259.999c0 16 -6.16699 29.335 -18.5 40.002s-27.833 16 -46.5 16s-34.167 -5.33301 -46.5 -16s-18.5 -24.334 -18.5 -41.001
c0 -17.333 7 -31 21 -41s29 -15 45 -15c17.333 0 32.333 5.16699 45 15.5s19 24.166 19 41.499zM723.001 101.001c0 15.333 -6.66797 28.834 -20.001 40.501s-30.666 17.5 -51.999 17.5c-22 0 -39.333 -6.16699 -52 -18.5s-19 -26.5 -19 -42.5
c0 -16.667 6.83301 -30.834 20.5 -42.501s31.167 -17.5 52.5 -17.5c22 0 39.167 6 51.5 18s18.5 27 18.5 45zM329 688.002l-187 -361l-49 18l156 301h-195v42h275z" />
    <glyph glyph-name="partialdiff" unicode="&#x2202;" horiz-adv-x="537" 
d="M497 493c0 -61.333 -8.33398 -126.667 -25.001 -196c-9.33301 -38 -21.5 -74.167 -36.5 -108.5s-33.167 -67 -54.5 -98s-47.166 -55.5 -77.499 -73.5s-62.833 -27 -97.5 -27c-49.333 0 -89.333 16.667 -120 50s-46 77.333 -46 132c0 92.667 25.5 170.167 76.5 232.5
s110.167 93.5 177.5 93.5c30 0 55.5 -6.5 76.5 -19.5s36.5 -29.167 46.5 -48.5h2c3.33301 34.667 5 59 5 73c0 109.333 -43 164 -129 164c-29.333 0 -58 -8 -86 -24l-19 53c30 20 68 30 114 30c60 0 107.167 -19.833 141.5 -59.5s51.5 -97.5 51.5 -173.5zM408.999 357.999
c-16 55.333 -52.666 82.998 -109.999 82.998c-49.333 0 -92.333 -27.167 -129 -81.5s-55 -118.166 -55 -191.499c0 -36.667 8.5 -65.667 25.5 -87s39.5 -32 67.5 -32c46 0 86.667 27.833 122 83.5s61.666 130.834 78.999 225.501z" />
    <glyph glyph-name="Delta" unicode="&#x2206;" horiz-adv-x="559" 
d="M554 0h-533v37l222 663h92l219 -663v-37zM467 63l-165 504.002c-3.33301 9.33301 -6.5 20.666 -9.5 33.999s-4.83301 20.666 -5.5 21.999h-2c-1.33301 -4.66699 -6 -23 -14 -55l-166 -505h362z" />
    <glyph glyph-name="product" unicode="&#x220f;" horiz-adv-x="667" 
d="M587 -230h-75v865h-357v-865h-75v930h507v-930z" />
    <glyph glyph-name="summation" unicode="&#x2211;" horiz-adv-x="589" 
d="M548 -230h-524v34l304 435l-282 421v40h478v-62h-385l266 -398l-285 -408h428v-62z" />
    <glyph glyph-name="minus" unicode="&#x2212;" horiz-adv-x="667" 
d="M68 373h531v-65h-531v65z" />
    <glyph glyph-name="uni2215" unicode="&#x2215;" horiz-adv-x="188" 
d="M366 691l-491 -718h-53l491 718h53z" />
    <glyph glyph-name="uni2219" unicode="&#x2219;" horiz-adv-x="240" 
d="M120 395c14.667 0 27.334 -5.16699 38.001 -15.5s16 -23.166 16 -38.499s-5.33301 -28.166 -16 -38.499s-23.334 -15.5 -38.001 -15.5s-27.334 5.16699 -38.001 15.5s-16 23.166 -16 38.499s5.33301 28.166 16 38.499s23.334 15.5 38.001 15.5z" />
    <glyph glyph-name="radical" unicode="&#x221a;" horiz-adv-x="461" 
d="M473 728l-173 -740h-64l-127 341l-52 -30l-25 45l113 67l121 -325l149 642h58z" />
    <glyph glyph-name="infinity" unicode="&#x221e;" horiz-adv-x="723" 
d="M674 293c0 -44 -14.166 -81.166 -42.499 -111.499s-63.833 -45.5 -106.5 -45.5c-35.333 0 -67.333 9.66699 -96 29s-52 44.333 -70 75h-2c-46 -69.333 -99.333 -104 -160 -104c-44.667 0 -81.5 14.333 -110.5 43s-43.5 65.667 -43.5 111c0 46 14.167 83.5 42.5 112.5
s64.5 43.5 108.5 43.5c66.667 0 121 -34.333 163 -103h2c45.333 68.667 99.333 103 162 103c43.333 0 79.666 -14.333 108.999 -43s44 -65.334 44 -110.001zM609.001 293.001c0 28 -7.83398 51 -23.501 69s-38.167 27 -67.5 27c-47.333 0 -90.666 -32.333 -129.999 -97
c35.333 -66 78.333 -99 129 -99c30 0 52.833 9.5 68.5 28.5s23.5 42.833 23.5 71.5zM329 292.001c-16.667 28.667 -36.667 52 -60 70s-46.666 27 -69.999 27c-30.667 0 -53.667 -9.5 -69 -28.5s-23 -42.833 -23 -71.5c0 -28 8.66699 -51 26 -69s39.333 -27 66 -27
c47.333 0 90.666 33 129.999 99z" />
    <glyph glyph-name="integral" unicode="&#x222b;" horiz-adv-x="462" 
d="M398 736l-15.999 -56c-10.667 5.33301 -24.334 8 -41.001 8c-51.333 0 -77 -32 -77 -96v-654c0 -49.333 -12.5 -88.5 -37.5 -117.5s-60.5 -43.5 -106.5 -43.5c-26.667 0 -48 3.66699 -64 11l15 56c14 -4.66699 27.667 -7 41 -7c52 0 78 32 78 96v655
c0 49.333 12.667 88.333 38 117s61.333 43 108 43c30 0 50.667 -4 62 -12z" />
    <glyph glyph-name="approxequal" unicode="&#x2248;" horiz-adv-x="621" 
d="M541 420c-37.333 -55.333 -81.334 -83 -132.001 -83c-35.333 0 -70.333 10.667 -105 32c-36 22 -66.333 33 -91 33c-33.333 0 -63 -21.667 -89 -65l-43 46c38 55.333 82 83 132 83c36.667 0 71.334 -10.667 104.001 -32c36 -22 66.333 -33 91 -33
c33.333 0 63.333 21.667 90 65zM540.999 205c-36.667 -55.333 -80.668 -83 -132.001 -83c-35.333 0 -70.333 10.667 -105 32c-36 22 -66.333 33 -91 33c-34 0 -63.667 -22 -89 -66l-43 47c38 55.333 82 83 132 83c34.667 0 69.334 -10.667 104.001 -32
c36 -22 66.333 -33 91 -33c34 0 64 21.667 90 65z" />
    <glyph glyph-name="notequal" unicode="&#x2260;" horiz-adv-x="621" 
d="M523 154h-246l-60 -129h-68l61 129h-112v64h142l71 152h-213v64h242l62 135h69l-63 -135h115v-64h-145l-71 -152h216v-64z" />
    <glyph glyph-name="lessequal" unicode="&#x2264;" horiz-adv-x="621" 
d="M523 0h-425v64h425v-64zM523 133l-425 197v45l425 196v-70l-329 -148v-2l329 -149v-69z" />
    <glyph glyph-name="greaterequal" unicode="&#x2265;" horiz-adv-x="621" 
d="M523 0h-425v64h425v-64zM523 330l-425 -196v69l330 148v2l-330 149v69l425 -196v-45z" />
    <glyph glyph-name="lozenge" unicode="&#x25ca;" horiz-adv-x="516" 
d="M270 700l185 -350l-185 -350h-39l-184 349l184 351h39zM393 350l-142 270l-142 -270l141 -270z" />
    <glyph glyph-name="uniFB00" unicode="&#xfb00;" horiz-adv-x="517" 
d="M495 449l-0.00292969 -61h-71v-388h-69v388h-200v-388h-69v388h-70v61h70v38v21c0 42.667 8.66699 79 26 109c12.667 23.333 31.834 41.5 57.501 54.5s52.5 19.5 80.5 19.5c26.667 0 49.334 -5 68.001 -15v-63c-28 8.66699 -50 13 -66 13
c-21.333 0 -39.666 -5.16699 -54.999 -15.5s-26 -23.833 -32 -40.5c-6.66699 -17.333 -10 -45 -10 -83v-38h200v56c0 44.667 9 82.667 27 114c12.667 22 31 39.5 55 52.5s51.333 19.5 82 19.5c16.667 0 35.667 -3 57 -9v-65c-25.333 5.33301 -45 8 -59 8
c-14.667 0 -29.667 -3.83301 -45 -11.5s-27 -19.167 -35 -34.5c-8.66699 -16 -13 -46.667 -13 -92v-38h71z" />
    <glyph glyph-name="uniFB01" unicode="&#xfb01;" horiz-adv-x="459" 
d="M149 482l-0.000976562 -33.001h96v-61h-96v-388h-69v388h-72v61h72v30c0 72.667 15 126.167 45 160.5s70 51.5 120 51.5c50.667 0 88.167 -13.167 112.5 -39.5s36.5 -58.5 36.5 -96.5h-66c-3.33301 26.667 -11.5 45.834 -24.5 57.501s-32.5 17.5 -58.5 17.5
c-29.333 0 -52.666 -10.667 -69.999 -32s-26 -60 -26 -116zM393.999 448.999v-449h-69v449h69zM393.999 448.999v-449h-69v449h69zM393.999 448.999v-449h-69v449h69z" />
    <glyph glyph-name="uniFB02" unicode="&#xfb02;" horiz-adv-x="459" 
d="M288 678v-66.999c-18.667 7.33301 -36 11 -52 11c-30.667 0 -52.834 -10 -66.501 -30s-20.5 -53 -20.5 -99v-44h96v-61h-96v-388h-69v388h-72v61h72v42c0 40 4.83301 74 14.5 102s22.834 48.667 39.501 62s33 22.666 49 27.999s33.333 8 52 8
c18 0 35.667 -4.33301 53 -13zM394 682.001v-682h-69v682h69zM394 682.001v-682h-69v682h69zM394 682.001v-682h-69v682h69z" />
    <glyph glyph-name="uniFB03" unicode="&#xfb03;" horiz-adv-x="733" 
d="M155 487l-0.000976562 -38h188v30c0 72.667 15.5 126.167 46.5 160.5s72.167 51.5 123.5 51.5c52.667 0 91.667 -13.167 117 -39.5s38 -58.5 38 -96.5h-67c-3.33301 26 -11.833 44.667 -25.5 56s-34.5 17 -62.5 17c-31.333 0 -56 -10.5 -74 -31.5s-27 -59.167 -27 -114.5
v-33h100v-61h-100v-388h-69v388h-188v-388h-69v388h-70v61h70v59c0 42.667 8.66699 79 26 109c12.667 23.333 31.834 41.5 57.501 54.5s52.5 19.5 80.5 19.5c26.667 0 49.334 -5 68.001 -15v-61c-28 8.66699 -50 13 -66 13c-20.667 0 -38.834 -5.33301 -54.501 -16
s-26.5 -24.667 -32.5 -42c-6.66699 -17.333 -10 -45 -10 -83zM668.999 449v-449h-69v449h69z" />
    <glyph glyph-name="uniFB04" unicode="&#xfb04;" horiz-adv-x="744" 
d="M155 487l-0.000976562 -37.998h188v42c0 40 5.33301 74 16 102s25.167 48.667 43.5 62s36.333 22.666 54 27.999s36.5 8 56.5 8c18.667 0 37 -4 55 -12v-60c-17.333 6 -35.333 9 -54 9c-36 0 -62 -10.833 -78 -32.5s-24 -55.834 -24 -102.501v-44h108v-61h-108v-388h-69
v388h-188v-388h-69v388h-70v61h70v59c0 42.667 8.66699 79 26 109c12.667 23.333 31.834 41.5 57.501 54.5s52.5 19.5 80.5 19.5c26.667 0 49.334 -5 68.001 -15v-61c-28 8.66699 -50 13 -66 13c-20.667 0 -38.834 -5.33301 -54.501 -16s-26.5 -24.667 -32.5 -42
c-6.66699 -17.333 -10 -45 -10 -83zM678.999 682.002v-682h-69v682h69z" />
    <glyph glyph-name=".null" horiz-adv-x="0" 
 />
    <glyph glyph-name="nonmarkingreturn" horiz-adv-x="1000" 
 />
  </font>
</defs>
</svg>
