<?xml version="1.0" standalone="no"?>
<!DOCTYPE svg PUBLIC "-//W3C//DTD SVG 1.1//EN" "http://www.w3.org/Graphics/SVG/1.1/DTD/svg11.dtd" >
<svg xmlns="http://www.w3.org/2000/svg">
<metadata></metadata>
<defs>
<font id="ridemybike_proregular" horiz-adv-x="540" >
<font-face units-per-em="2048" ascent="1536" descent="-512" />
<missing-glyph horiz-adv-x="270" />
<glyph horiz-adv-x="0" />
<glyph unicode="&#xd;" horiz-adv-x="270" />
<glyph horiz-adv-x="0" />
<glyph horiz-adv-x="0" />
<glyph unicode=" "  horiz-adv-x="270" />
<glyph unicode="&#x09;" horiz-adv-x="270" />
<glyph unicode="&#xa0;" horiz-adv-x="270" />
<glyph unicode="!" horiz-adv-x="274" d="M66 156q0 -43 14 -83t37 -42q14 0 32.5 9t33 22.5t24.5 31t10 33.5q-4 100 -113 100q-16 0 -27 -23.5t-11 -47.5zM98 1288q0 18 7.5 31.5t25.5 13.5q16 -4 21.5 -10t5.5 -14q0 -10 -2 -19.5t-2 -19.5q0 -82 1 -231.5t1 -346.5q0 -33 8 -84t8 -104q0 -68 -25 -68 q-14 0 -25 17.5t-11 46.5q4 170 6 275.5t2 172.5v91t-2 77q0 41 -9.5 86t-9.5 86z" />
<glyph unicode="&#x22;" horiz-adv-x="557" d="M78 1231q0 51 6 72.5t12 21.5q10 0 19.5 -20.5t9.5 -22.5q0 -131 3 -194.5t6 -89t6 -26.5t3 -7q0 -2 -6 -47q0 -27 3 -39.5t6.5 -24.5t6.5 -29.5t3 -52.5q0 -20 -23 -20q-23 4 -29 12t-6 18t2 20.5t2 20.5q0 45 -3 71t-8 59.5t-8 91t-3 167.5q0 18 -2 19zM406 1231 q0 51 6 72.5t12 21.5q10 0 20.5 -20.5t10.5 -22.5q0 -131 3 -194.5t6 -89t6 -26.5t3 -7q0 -2 -6 -47q0 -27 2 -39.5t5 -24.5t6 -28.5t3 -49.5q0 -12 -3 -18t-19 -6q-23 4 -29 12t-6 18t2 20.5t2 20.5q0 45 -3 71t-8 59.5t-8 91t-3 167.5q0 18 -2 19z" />
<glyph unicode="#" horiz-adv-x="1071" d="M63 373q0 12 20.5 23.5t49.5 11.5q41 0 69.5 -1t63.5 -6q20 96 29.5 166t9.5 99q0 4 -1 7t-1 5q8 4 21.5 63.5t29.5 139.5h-111.5t-92 2t-62 7t-22.5 13q0 12 20 23.5t23 11.5q76 0 139 -1t117 -3q6 29 16 97.5t24.5 138t32 123t35.5 53.5q16 0 31 -33q-2 -14 -10.5 -50 t-21.5 -87.5t-28.5 -114t-29.5 -129.5q94 -4 157.5 -7t114.5 -3h37l37 178q10 51 29.5 102t29.5 98q8 41 31 41t22 -22q0 -16 -9 -43t-23 -80q-6 -35 -12.5 -63.5t-13.5 -59.5t-15.5 -65.5t-18.5 -81.5q61 4 96 8t80 4q47 0 48 -18q0 -23 -52.5 -30t-181.5 -9l-35 -174 q-10 -55 -20 -94.5t-18.5 -73t-15.5 -66.5t-13 -76q47 2 101 4t101 2q78 0 106 -5t28 -15t-18.5 -17.5t-47.5 -11.5t-64.5 -5t-72.5 -1q-47 0 -87 1t-55 1q-4 -23 -7 -45t-7 -45l-61 -266q-10 -41 -17.5 -55.5t-15.5 -14.5q-10 0 -16.5 22.5t-6.5 26.5q29 90 51.5 187.5 t41.5 189.5q-47 -2 -85 -2h-69q-53 0 -94 1t-78 7l-70 -364q-16 -35 -25.5 -49.5t-17.5 -14.5q-14 0 -22 23.5t-8 40.5q0 10 2 12q35 90 60.5 180t43.5 176q-41 0 -72.5 -2t-72.5 -2q-49 0 -50 17zM303 399q41 -2 103.5 -3t162.5 -1h60q20 115 32.5 197t12.5 92 q0 49 14 99.5t25 97.5h-310q-16 -78 -40.5 -192t-59.5 -290z" />
<glyph unicode="$" horiz-adv-x="464" d="M51 199q0 8 9.5 13t17.5 5q8 -2 19.5 -28.5t24.5 -58.5t32.5 -59.5t44.5 -29.5v139q0 78 -1 160t-3 162q-37 47 -61.5 84t-39 70.5t-20.5 66.5t-6 72q0 96 22.5 165.5t89.5 86.5q0 29 1 48t3 29q-2 16 -8 45t-6 54q0 23 7 36t28 13q29 -6 28 -27q0 -8 -2 -17t-2 -20 q0 -20 1 -53t1 -90v-12q59 -2 94 -20.5t52.5 -48.5t23 -65.5t5.5 -72.5q0 -61 -17 -62q-12 0 -24.5 33t-12.5 86q0 33 -11 53.5t-29.5 32.5t-40 17.5t-40.5 9.5q-2 -66 -6 -159t-4 -204v-110q39 -49 73 -89t58.5 -79t39 -83t14.5 -102q0 -31 -8.5 -61.5t-27 -57t-49 -46 t-75.5 -25.5q0 -59 2 -99t2 -106q0 -72 -5 -104.5t-16 -32.5q-12 0 -23 18.5t-11 20.5q0 66 1 140.5t1 158.5q-43 2 -72 30.5t-45.5 64.5t-22.5 69t-6 39zM104 750q0 -35 26 -78t63 -90q-4 129 -8.5 239.5t-4.5 188.5q-27 -12 -42 -42t-22 -67t-9.5 -78t-2.5 -73zM223 465 q4 -117 9.5 -223.5t11.5 -190.5q72 23 101.5 56.5t29.5 76.5q0 59 -47 133t-105 148z" />
<glyph unicode="%" horiz-adv-x="940" d="M49 911q0 43 9.5 92.5t33 92.5t63.5 70.5t103 27.5q27 0 61.5 -14.5t65.5 -43t51.5 -70.5t20.5 -95v-16.5t-2 -16.5q-2 -70 -10.5 -122t-33 -88t-67.5 -53.5t-115 -17.5q-47 0 -80.5 20.5t-55 55.5t-33 81t-11.5 97zM84 885q0 -88 45 -139.5t102 -51.5q76 0 130.5 53.5 t54.5 139.5q0 27 1 37t1 18q0 51 -17.5 91t-43 66.5t-57.5 41t-58 14.5q-72 0 -115 -75.5t-43 -194.5zM176 31q0 16 3 36.5t5 22.5q76 150 121 243t73 154.5t46 104.5t39.5 93t55.5 120.5t93 187.5l90 174q10 18 10.5 39t16.5 21q20 0 29.5 -13.5t9.5 -17.5 q0 -12 -17.5 -36.5t-50.5 -82.5q-16 -35 -26 -58.5t-19.5 -49t-24 -58t-36 -82t-56 -120t-87.5 -174.5q-16 -31 -43 -98.5t-60 -129.5l-129 -239q-29 -53 -39 -54q-4 0 -4 17zM477 270q0 10 1 17.5t3 17.5q2 68 10.5 120t33 88t67.5 53.5t115 17.5q45 0 80.5 -20.5t58 -55.5 t35 -80t12.5 -96q0 -43 -10.5 -93.5t-35 -92.5t-65.5 -70.5t-104 -28.5q-27 0 -61.5 15.5t-65.5 44t-52.5 69.5t-21.5 94zM518 285q0 -49 15.5 -86t39 -61.5t52 -37t57.5 -12.5q72 0 117 66.5t45 185.5q0 88 -40 151.5t-99 63.5q-37 0 -71 -17.5t-59.5 -46t-41 -67.5 t-15.5 -82q0 -15 2 -23q-2 -10 -2 -17v-17z" />
<glyph unicode="&#x26;" horiz-adv-x="909" d="M41 281q0 66 29.5 130t58.5 107q4 8 12.5 12.5t12.5 12.5q4 6 6 14t6 14q12 16 26.5 33t30.5 33q37 37 55.5 63.5t43.5 51.5q-20 29 -31.5 60.5t-32.5 59.5q-35 47 -64.5 104.5t-29.5 104.5q0 29 9 40.5t20 29.5q4 8 6 19.5t8 19.5t19.5 7t21.5 5q29 20 56.5 32.5 t55.5 12.5q23 0 49.5 -13t49 -38t37 -59.5t14.5 -77.5q0 -47 -12.5 -88t-34 -78t-50 -72t-63.5 -71q41 -51 86 -101.5t88 -99.5q6 -8 15.5 -10t15.5 -11q14 -16 15 -32.5t14 -32.5q18 -27 41.5 -54.5t40.5 -56.5q0 29 5 66t25 57q6 6 17 6q18 0 18 -18q0 -8 -3 -11t-7 -14 q-10 -29 -12 -62.5t-13 -76.5q41 -78 84 -153.5t105 -141.5q6 -10 6 -14q0 -20 -21 -21q-8 0 -16 8q-51 55 -88 117t-72 125q0 2 -4 10.5t-6 8.5q-4 0 -14.5 -13.5t-22.5 -32t-23.5 -36t-17.5 -23.5q-35 -37 -63.5 -63.5t-58 -44t-66.5 -25.5t-88 -8q-100 0 -163 46t-87 169 q-2 20 -20.5 31.5t-18.5 42.5zM98 324q0 -23 4 -51.5t15 -53.5q6 -16 6 -31.5t6 -29.5q33 -66 85 -95.5t112 -29.5q68 0 135.5 35t116.5 94q51 63 75 137q-29 53 -63.5 107.5t-67.5 95.5q-12 16 -32.5 32.5t-32.5 32.5q-59 74 -88 103.5t-33 29.5t-10.5 -10t-12.5 -23.5 t-11 -25.5t-9 -16l-72 -72t-62.5 -71t-44 -74.5t-16.5 -83.5zM219 1090q0 -12 5.5 -27.5t11.5 -38.5q14 -55 43 -109q8 -16 12 -32.5t9 -30.5t16.5 -23.5t33.5 -13.5q45 47 77 118t32 142q0 72 -33 101.5t-66 29.5q-23 0 -47 -11t-44.5 -28.5t-35 -38t-14.5 -38.5z" />
<glyph unicode="'" horiz-adv-x="229" d="M84 764q0 20 3 70.5t3 152.5q0 31 -2 70t-2 86q0 78 6 107.5t17 29.5q10 0 21 -18.5t11 -20.5q0 -96 -1 -151.5t-3 -83t-3 -34.5t-3 -7q-4 0 -4 -10.5v-57.5q0 -27 3 -40t7 -25.5t7 -31t3 -55.5q0 -14 -18 -14q-29 8 -37 8t-8 25z" />
<glyph unicode="(" horiz-adv-x="665" d="M49 459q0 33 6 103.5t14.5 147t14.5 143.5t6 89q0 33 28.5 80t66.5 92t75 81t53 46q23 14 64 35.5t85 41t83 34t59 14.5q16 0 17 -14q0 -8 -9 -15q-49 -20 -130 -61t-159.5 -99.5t-136 -136t-57.5 -172.5q0 -8 -6 -63t-12.5 -129t-12.5 -152t-6 -131q0 -47 6 -61 q16 -47 48 -126t74 -160t92.5 -146.5t105.5 -81.5q113 -53 158 -80t49 -49q0 -20 -21 -21q-10 0 -33.5 12.5t-53.5 29t-62.5 33.5t-59.5 28q-53 20 -87 46.5t-54.5 52.5t-29.5 46.5t-11 26.5q0 2 -2 4t-6 10l-8 12q-29 86 -55.5 137.5t-47 98.5t-33 102t-12.5 152z" />
<glyph unicode=")" horiz-adv-x="663" d="M37 -305q0 29 49 56.5t113.5 58t130 66.5t96.5 83q16 25 47 114t82 230q4 12 6 50t2 87q0 59 -2 129t-4 131.5t-4 104.5t-2 49q0 51 -21.5 99t-55.5 91t-73 81t-73 71q-12 12 -56.5 36.5t-92.5 50.5t-86 47.5t-38 25.5q0 8 19 8q23 -2 59.5 -16.5t76.5 -33t77 -39 t59 -34.5q16 -10 56 -46t81 -81t72 -92t31 -80q0 -23 4 -89.5t8 -143t8 -147t4 -103.5q0 -86 -11 -143.5t-29.5 -108.5t-43 -105.5t-51.5 -136.5q0 -6 -12 -28.5t-37 -52t-64.5 -61.5t-97.5 -52q-29 -10 -63.5 -26.5t-65.5 -31t-54.5 -25t-29.5 -10.5q-14 4 -14 17z" />
<glyph unicode="*" horiz-adv-x="542" d="M74 1069q0 18 20 25q2 0 8.5 -5.5t14.5 -11.5q8 -8 20 -14q47 -35 73 -55.5t44 -36.5l-6 51q-2 20 -5 30.5t-6.5 22.5t-5.5 30.5t-2 53.5q0 20 15 21q16 0 26.5 -25t16.5 -59.5t8 -70.5t2 -56l35 26q16 12 24.5 19.5t16.5 14.5t21.5 17.5t41.5 28.5q8 8 19 8q14 0 18 -11 t4 -23q0 -6 -25.5 -27t-56 -42.5t-57.5 -38.5l-27 -17q16 -14 37 -27.5t41.5 -28t37 -32.5t22.5 -43v-5q0 -2 -6.5 -8t-28.5 -6q-6 0 -11.5 5t-16.5 17.5t-30.5 33t-56.5 51.5q2 -10 3 -15.5t2 -14.5t2 -22.5t3 -37.5q2 -8 8.5 -32t6.5 -42q0 -20 -13 -21q-18 0 -27.5 9.5 t-12.5 32t-4 62.5t-7 99l-22 -22q-6 -6 -13 -11h-2q-4 0 -15 -10t-25.5 -23.5t-27 -24.5t-14.5 -13q-14 -14 -30.5 -17.5t-18.5 -3.5q-8 0 -8 17q0 12 8 23t26.5 25.5t48.5 35t73 51.5l-9 8q-16 12 -26 17t-21.5 10.5t-26 15.5t-38.5 33q-10 4 -18.5 14t-14.5 20 q-8 10 -12 25z" />
<glyph unicode="+" horiz-adv-x="798" d="M66 618q0 10 13 16.5t47 11.5t93.5 7t153.5 2q-2 35 -4 55.5t-2 41.5q0 22 6 65q-2 14 -4 42t-2 54q0 23 2 36.5t12 15.5q29 -6 29 -27q0 -8 -2 -17.5t-2 -19.5q0 -35 2 -56.5t4 -44t5 -55t5 -90.5h41q35 0 85 11.5t103 11.5q47 0 64.5 -5t17.5 -14q0 -12 -17.5 -23 t-19.5 -11q-98 0 -163.5 -2t-108.5 -5q0 -37 1 -83t1 -105q0 -72 -4 -104.5t-12 -32.5q-10 0 -18.5 18.5t-8.5 20.5q0 104 -1 170.5t-5 111.5q-37 -4 -58.5 -5t-42.5 -1q-27 0 -65 6q-20 0 -31.5 -2t-20.5 -4t-19.5 -4t-30.5 -2q-43 0 -43 16z" />
<glyph unicode="," horiz-adv-x="258" d="M66 33q0 14 5 27.5t7 15.5q4 12 18.5 18t30.5 6q20 0 38.5 -8t18.5 -24q0 -2 -3 -9.5t-7 -9.5l4 -2q14 -8 15 -24q0 -14 -10.5 -32t-23 -32t-24.5 -23.5t-18 -9.5q-14 0 -15 13q0 10 7.5 17t14.5 14t13 16.5t6 21.5l-2 8q-10 -8 -19 -9t-18 -1q-23 0 -30.5 5t-7.5 22z " />
<glyph unicode="-" horiz-adv-x="700" d="M84 553q6 29 27 29q8 0 17 -2t19 -2q29 0 39.5 1t15.5 4t14 5t37 5t82 4t150 1q66 0 95.5 -5t29.5 -15q0 -12 -17.5 -23.5t-19.5 -11.5q-117 0 -174 -3t-81.5 -6.5t-28.5 -5.5t-13 -2q-6 0 -45 6q-20 0 -31.5 -2t-20.5 -4t-19 -4t-31 -2q-18 0 -31.5 7.5t-13.5 25.5z" />
<glyph unicode="." horiz-adv-x="307" d="M74 111q0 10 1 18t1 6q0 2 -1 4t-1 4q0 29 33.5 45.5t68.5 16.5t46 -21.5t11 -68.5q0 -27 -12 -42.5t-28.5 -23.5t-32 -10t-19.5 -2q-45 0 -56 19.5t-11 54.5z" />
<glyph unicode="/" horiz-adv-x="776" d="M27 18q0 16 6 29q63 111 124.5 225.5t110.5 207.5t80 154.5t33 63.5l21 32q20 32 48.5 81t62.5 107.5t62 113.5q16 33 36 77t39.5 83t37 66.5t27.5 27.5q16 0 23 -13t7 -16q0 -16 -15 -41.5t-50 -83t-92.5 -158t-143.5 -267.5q-10 -23 -25.5 -47.5t-30.5 -47t-27.5 -42 t-18.5 -29.5q-8 -16 -23.5 -48t-36 -72t-41 -81t-36.5 -72l-109 -198q-23 -41 -37 -55.5t-22 -14.5q-10 0 -10 18z" />
<glyph unicode="0" horiz-adv-x="747" d="M72 553q0 18 3 55t7 84t9 98.5t9 96.5t7.5 81t3.5 52q0 35 15 76t42 76.5t61.5 60t75.5 27.5q33 6 101 6q61 0 104 -20.5t70.5 -45t42 -46t14.5 -24.5q8 -29 14 -79t9.5 -103t4.5 -101t1 -71q0 -33 -1 -94t-1 -107q0 -33 -4.5 -78.5t-8.5 -94t-8 -90.5t-4 -64 q0 -37 -14.5 -79t-40 -78t-63.5 -59.5t-83 -23.5h-6q-41 -6 -88 -6q-61 0 -100 17.5t-62.5 39t-33 40t-9.5 20.5q-8 27 -17 69.5t-16.5 88t-11.5 85t-4 62.5q0 31 -9 59.5t-9 69.5zM139 487q0 -156 22.5 -238.5t39.5 -107.5q33 -47 68.5 -67.5t90.5 -24.5q20 2 37 3t31 1 q43 6 75 25.5t52 44t30.5 50.5t10.5 46q0 37 1 96.5t3 129t3 142t3 137t3 113t1 70.5q0 92 -4 146.5t-16 72.5q-20 31 -45 47.5t-49.5 24.5t-49 12t-45.5 9h-49l-43 4q-37 -2 -61.5 -22.5t-37.5 -48.5t-19.5 -56.5t-6.5 -46.5q0 -49 -17 -99.5t-17 -97.5q0 -10 -2.5 -62.5 t-3.5 -114t-3 -115.5t-2 -73z" />
<glyph unicode="1" horiz-adv-x="471" d="M53 8v4q6 25 7 30t3 5h156v8q0 29 2 102.5t6 169t8.5 200t8.5 195.5t6 157.5t2 87.5q0 12 -2 23t-2 61q0 29 1 63.5t1 68.5t1 60.5t1 40.5v19q-12 -23 -24.5 -48.5t-26.5 -56.5q-4 -8 -19.5 -28.5t-34 -43t-35 -41t-22.5 -20.5q-16 -6 -22 -6q-14 0 -15 14q0 4 1 7t1 5 l15 19q14 20 32.5 46t36 50.5t25.5 36.5t18.5 33.5t20.5 45t22.5 46t22.5 35.5v14q4 16 28 16q18 0 23 -12v4q8 0 8 -149q0 -10 -2 -77t-6 -166t-8 -220t-8 -241t-6.5 -226.5t-2.5 -177.5v-113h54q39 0 77.5 -2t38.5 -10v-39q-6 -2 -14 -2h-39h-64.5t-66.5 2q-10 -6 -24 -6 q-6 0 -9 6h-20q-23 0 -53.5 -3t-55.5 -3q-45 0 -45 16z" />
<glyph unicode="2" horiz-adv-x="577" d="M53 92q0 25 2 44.5t8.5 41t18.5 46t33 59.5q2 6 21.5 39.5t50 85t70.5 113t87 122.5q33 45 56.5 103.5t39 113.5t21.5 95t6 49q0 78 -2 126t-5 77.5t-9.5 46t-14.5 28.5q-23 31 -40 41t-34 10q-10 0 -21 -2t-26 -2q-12 0 -20 2q-45 -6 -79 -32.5t-58.5 -56.5t-41 -52.5 t-26.5 -22.5t-11 13.5t-3 23.5q0 2 4 17.5t12 32t18.5 31.5t20.5 18q16 2 37.5 16t45.5 30.5t47.5 29t43.5 12.5q61 0 98 -13.5t57.5 -29t29 -28.5t8.5 -15q8 -29 12 -77t6 -98.5t2 -95.5v-63q0 -33 -16.5 -65t-16.5 -77q0 -18 -20.5 -58t-50 -92t-64.5 -111.5t-65 -114.5 q-41 -76 -70 -122t-47 -74t-28.5 -41t-15.5 -24.5t-6 -26.5t-1 -44q0 -55 10 -71.5t37 -16.5q14 0 33.5 2t48.5 2q23 0 48 -4t58 -4q23 0 47.5 2t44.5 2q33 0 33 -17q-6 -25 -7 -29.5t-3 -4.5q-29 0 -72 -1t-85 -1t-74.5 -1.5t-38.5 -1.5h-56.5t-45 10.5t-31 34t-11.5 70.5z " />
<glyph unicode="3" horiz-adv-x="567" d="M39 207l4 24q2 10 5 17.5t11 7.5q4 0 11 -6q12 -53 36 -94q23 -35 59 -65t93 -30q53 0 86 18.5t51.5 44.5t24.5 55.5t6 51.5q0 49 2 99.5t2 97.5q0 6 -1 24.5t-1 55.5q0 12 1 28.5t1 34.5q0 20 -36 37t-80 31t-79.5 25.5t-35.5 23.5q0 20 17 30.5t43 20t56.5 19.5 t57 31.5t45 55.5t22.5 91q2 31 2 58.5v54.5q0 113 -6 169t-19.5 79.5t-34 26.5t-48.5 9h-15q-53 0 -78.5 -25.5t-40 -56t-23.5 -56.5t-30 -26q-10 0 -12 11.5t-4 21.5q0 4 9.5 20.5t17.5 37.5q6 18 14 38.5t23.5 39t43 30.5t70.5 12q61 0 96 -9t51.5 -21.5t20.5 -23.5t4 -15 q0 -23 6.5 -57.5t6.5 -73.5q0 -100 -6.5 -156.5t-6.5 -108.5q0 -63 -32.5 -104t-72.5 -65.5t-75 -36t-37 -15.5q-4 -4 29 -6t73 -11t73.5 -30.5t33.5 -62.5q0 -123 -2 -210t-2 -114q0 -35 -10 -77t-30.5 -77.5t-49.5 -60.5t-68 -25q-12 0 -18 3q-10 -2 -29 -3 q-47 0 -88 17.5t-71.5 45.5t-48 60.5t-17.5 63.5z" />
<glyph unicode="4" horiz-adv-x="526" d="M31 645q0 4 1 7t1 7q2 4 16 39t32.5 78t36 83t25.5 52q8 14 36 76t61.5 137.5t68.5 148.5t58 109v29q4 16 28 16q18 0 23 -12v4q8 0 8 -149q0 -10 -2 -63.5t-5 -134.5t-7 -182.5t-6 -207.5q31 0 53 -3t22 -7v-39q-10 -2 -18 -2h-45h-15q-4 -137 -7 -263t-3 -206v-100.5 t2 -57.5q-12 -8 -23.5 -10t-17.5 -2t-11 11t-5 52q0 27 2 87.5t5 140t6 171t7 177.5q-49 0 -94 1t-61 1q-23 0 -55.5 -4t-57.5 -4q-33 0 -39 6h-8q-12 0 -12 14zM94 682h68t71.5 1t62.5 1h38h26q4 102 7.5 181t3.5 102q0 12 -2 23.5t-2 60.5q0 29 1 63.5t1 68.5t1 60.5 t1 40.5v2q-45 -98 -93.5 -203.5t-88 -192.5t-66.5 -144.5t-29 -63.5z" />
<glyph unicode="5" horiz-adv-x="591" d="M72 166q0 96 16 129t29 33q4 0 6 -23.5t3 -51.5t1 -51v-22v-39q0 -51 28.5 -78.5t106.5 -27.5q66 0 106 17.5t61.5 39t27.5 40t6 22.5v20q0 57 6 88q0 51 -1 120t-2 133.5t-5 113.5t-12 61q-33 47 -56.5 63.5t-56.5 16.5q-27 0 -58.5 -6t-60.5 -13.5t-51.5 -13.5 t-32.5 -6q-12 0 -21.5 37t-14.5 93.5t-8 123t-4 126.5t-1 106.5v60.5q0 31 2 59.5t10 51.5q0 2 4 7t15.5 11t33 10t56.5 4q76 0 136 2t120 2q18 0 18 -24q0 -16 -15 -20.5t-32 -4.5h-18q-33 0 -62.5 -3t-58.5 -3h-24.5t-24.5 4q-45 -10 -67.5 -14t-32 -13.5t-10.5 -25.5 t-1 -51q0 -33 2 -83t2 -128q0 -18 2 -47t5 -59.5t6.5 -56.5t3.5 -36q0 -37 2 -47t20 -10q23 0 42.5 7t38.5 14t37.5 14.5t41.5 7.5q33 0 69.5 -20.5t83.5 -80.5q23 -31 32 -100.5t9 -152.5q0 -39 -2 -82t-5 -85t-7 -79t-8 -62v-12q0 -86 -65.5 -135t-196.5 -49 q-10 0 -15.5 2t-15.5 2q-4 0 -10 -1t-12 -1q-12 0 -33 7t-40.5 27.5t-33.5 54.5t-14 87z" />
<glyph unicode="6" horiz-adv-x="616" d="M76 426q0 16 1 22.5t3 12.5t3 16t1 33q0 20 1 68.5t2 110t3 128t3 125.5t2 102t1 60q0 25 17.5 72t44 95t57.5 87t57 45q25 23 46.5 32t35.5 9q18 0 19 -12q0 -10 -17.5 -28t-58.5 -40q-43 -23 -72.5 -59.5t-49 -73.5t-28 -64.5t-8.5 -33.5q0 -39 -2 -103.5t-5 -146.5 t-5 -178.5t-2 -196.5q18 8 50 13t81 5h52.5t59 -2t53 -6t34.5 -10q53 -37 88 -76t35 -119q0 -141 -46.5 -223t-138.5 -82h-18q-23 -4 -44.5 -4h-41.5q-61 0 -97 27.5t-55.5 60.5t-26 60.5t-6.5 29.5q-10 27 -15 60.5t-8 66.5t-4 63.5t-1 53.5zM125 473q0 -72 5 -117 t12.5 -74.5t13.5 -46t10 -30.5q12 -45 25.5 -73t29 -44t34 -24.5t38.5 -12.5q16 4 31.5 4h29.5h60q14 4 33.5 16.5t38 37t31.5 64.5t13 101q0 33 -9 57.5t-20.5 44t-23.5 35t-18 33.5q-20 18 -53 24.5t-68 6.5q-27 0 -45.5 -1t-33.5 -1t-31.5 -1t-39.5 -1h-32.5t-30.5 2z " />
<glyph unicode="7" horiz-adv-x="530" d="M55 1389q0 14 30 22t73 11t89 4t79 1h51t60.5 -5t50 -15t20.5 -31q0 -29 -13.5 -52.5t-23.5 -51.5q-41 -121 -84 -214t-94 -196q-18 -37 -32.5 -87t-29.5 -97q-41 -129 -62.5 -266.5t-33.5 -268.5q0 -8 -12 -34.5t-12 -34.5q-2 -10 -2 -27q0 -12 1 -22.5t1 -22.5 q0 -53 -21 -53q-23 0 -29 49q4 72 15.5 136.5t21.5 137.5q4 16 14.5 40t10.5 40q0 6 -3 11.5t-3 11.5v2q6 37 11 65.5t11 53t12.5 49t14.5 55.5q2 4 4 26.5t4 26.5q35 127 81 229.5t97 207.5q31 63 56.5 135.5t50.5 138.5q-35 4 -78 11t-82 7q-35 0 -68.5 -8t-64.5 -8h-76 q-35 6 -35 23z" />
<glyph unicode="8" horiz-adv-x="598" d="M57 303q0 59 9.5 103.5t28 81t43 74.5t55.5 85q14 23 25 32t22 32q2 2 5 13t6 23.5t6 22.5t5 14q-2 0 -10 14.5t-18.5 32t-19.5 32t-9 16.5q-35 37 -55.5 64.5t-33 59t-16.5 71.5t-4 102q0 57 7.5 120.5t31 115.5t65.5 87t113 35q37 0 70 -12t53 -35q2 -4 10.5 -9 t17.5 -11.5t16 -12.5t7 -8q27 -23 37.5 -54.5t10.5 -66.5q0 -47 -11.5 -96t-21.5 -90q-8 -39 -19.5 -58.5t-22.5 -35t-21.5 -36t-18.5 -59.5q-2 -14 -10.5 -30.5t-17.5 -34t-16 -34.5t-7 -32q0 -14 6 -22q31 -47 59.5 -109.5t50 -132.5t33.5 -139.5t12 -130.5 q0 -72 -14 -132.5t-44 -105.5t-76 -69.5t-111 -24.5q-55 0 -97.5 38t-72 91t-44 113.5t-14.5 107.5zM102 326q0 -39 8.5 -87.5t28 -95.5t50 -89t77.5 -68q2 0 16.5 2t32 5t31.5 6t19 3q25 4 47 32.5t39.5 67.5t29 82t11.5 76q0 41 -7.5 83t-13.5 87q-10 59 -26.5 130 t-45.5 124q-4 8 -16 21.5t-26.5 28t-28 27.5t-19.5 19q-10 -18 -14 -33.5t-8 -30t-10.5 -30.5t-18.5 -39q-25 -41 -66.5 -88t-60.5 -92q-29 -66 -29 -141zM139 1147q0 -49 16.5 -96t42 -90t56.5 -80t59 -68q12 25 25.5 54.5t28 61.5t27 62.5t22.5 55.5q6 18 19.5 53t26.5 77 t22.5 84t9.5 76q0 25 -6.5 43.5t-22.5 26.5q-45 35 -77 50.5t-79 15.5q-55 0 -88 -33t-51 -82t-24.5 -105.5t-6.5 -105.5z" />
<glyph unicode="9" horiz-adv-x="610" d="M47 1135q0 131 49 206.5t135 75.5h19q23 2 43 3t43 1q61 0 100 -17.5t61.5 -39t33 -39.5t10.5 -20q8 -23 10 -57t2 -68q0 -100 -6 -156.5t-6 -108.5q0 -20 -6.5 -69t-16.5 -110.5t-22.5 -129t-23.5 -127t-21.5 -103.5t-16.5 -61q-16 -47 -45 -102t-65.5 -102.5t-77.5 -78 t-82 -30.5q-10 0 -14 2h-9q-29 0 -28 16q0 16 26 23q45 8 80 30.5t60.5 50.5t41 56.5t21.5 50.5q14 47 40 98.5t26 98.5q0 8 8 53t20.5 107.5t25.5 131t23 122.5q-37 -12 -108 -13q-45 0 -70.5 2.5t-48.5 10.5q-18 6 -46 8t-55.5 15.5t-52 45t-34.5 97.5q-2 8 -5.5 26.5 t-7.5 38t-7 37.5t-3 25zM94 1151q0 -35 2 -72t16.5 -72.5t45 -67.5t88.5 -54q16 -6 32.5 -8.5t32.5 -2.5h36t62.5 5.5t60.5 18.5t30 38v127q0 92 -4 146.5t-17 72.5q-20 31 -38.5 47.5t-35 24.5t-35 12t-38.5 8q-16 -4 -31.5 -4h-30.5h-43q-4 0 -24.5 -5t-45 -26.5 t-44 -65.5t-19.5 -122z" />
<glyph unicode=":" horiz-adv-x="307" d="M86 780q0 37 25.5 54.5t52.5 17.5q12 0 21.5 -7t17.5 -17.5t12 -19.5t4 -13q0 -14 -9 -27.5t-20.5 -24t-22.5 -16.5t-15 -6q-10 0 -19.5 8t-15.5 18.5t-11.5 18.5t-5.5 10q-2 0 -2 1t-2 1t-2 -1t-2 -1h-2q-4 0 -4 4zM96 20q0 6 1 14.5t3 18.5q-4 0 -4 6q0 35 21.5 59.5 t62.5 24.5q23 0 30 -18.5t7 -36.5q0 -41 -10 -61.5t-25.5 -27.5t-32 -6t-28.5 1t-18.5 5t-6.5 21z" />
<glyph unicode=";" horiz-adv-x="319" d="M90 788q0 10 1 15.5t1 7.5q4 16 21.5 25.5t40.5 9.5t46 -14.5t23 -40.5q0 -29 -14 -43.5t-31.5 -21.5t-31.5 -8l-15 -1q-25 0 -33 27.5t-8 43.5zM100 33q0 14 5.5 27.5t7.5 15.5q4 12 18 18t31 6q20 0 38.5 -8t18.5 -24q0 -2 -3 -9.5t-7 -9.5l4 -2q14 -8 14 -24 q0 -14 -10 -32t-22.5 -32t-24.5 -23.5t-18 -9.5q-14 0 -15 13q0 10 7.5 17t14.5 14t13 16.5t6 21.5l-2 8q-10 -8 -19.5 -9t-17.5 -1q-23 0 -31 5t-8 22z" />
<glyph unicode="&#x3c;" horiz-adv-x="688" d="M49 641q0 31 27.5 60.5t65.5 58t76 52.5t58 42l130 66q18 0 41.5 13t48 29.5t47 30t41.5 13.5q29 0 28 -27q0 -10 -6 -20.5t-18 -16.5q-53 -31 -71.5 -40t-25 -10t-15.5 -2t-44 -16q-37 -16 -49 -22t-19.5 -11t-19.5 -12.5t-49 -23.5q-29 -12 -61.5 -27.5t-60.5 -35 t-45 -48t-17 -67.5q0 -31 32.5 -57.5t87 -54.5t125 -59.5t148.5 -70.5q31 -16 49 -23.5t29.5 -13.5t15.5 -17.5t4 -31.5q0 -4 -10 -14.5t-27 -10.5q-6 0 -10 2q-37 16 -49 26.5t-18.5 20t-17.5 18.5t-48 24q-45 16 -66.5 29.5t-38 24.5t-35 21.5t-55.5 22.5q-82 29 -130 74 t-48 104z" />
<glyph unicode="=" horiz-adv-x="948" d="M90 877q0 6 8 13t17.5 13t17.5 11l8 4q100 0 170 1t119 1t81 1t54 1q33 0 58.5 -2.5t66.5 -8.5q25 0 40 3.5t28.5 6.5t31 6t48.5 3q10 0 14 -4t4 -21q-4 -23 -12 -29t-19 -6h-69.5t-48 1t-43 1t-55.5 1t-86 1h-132q-37 0 -92 -9t-115 -9q-53 0 -73.5 6t-20.5 15zM100 543 q0 6 7.5 12t16.5 12t18 9l8 4h187.5t118.5 1t70.5 2t44 2t39 1h52.5q27 0 46 2t38.5 4t41 4t54.5 2q14 0 14 -20q-4 -23 -12 -29t-19 -6q-10 0 -20 2t-21 2q-35 0 -57 -2t-43.5 -4t-49.5 -6.5t-76 -6.5t-120.5 -4t-185.5 -2q-152 0 -152 21z" />
<glyph unicode="&#x3e;" horiz-adv-x="645" d="M70 1053q0 4 9 5t21 1q21 0 31 -2q12 -2 20.5 -10.5t20.5 -19.5t32.5 -25.5t57.5 -28.5q45 -16 67.5 -29.5t39 -26t34 -26.5t52.5 -33q76 -43 109.5 -101.5t33.5 -117.5q0 -31 -21.5 -63.5t-51 -63.5t-61.5 -57.5t-50 -42.5l-121 -95q-18 -12 -45 -26.5t-54.5 -27.5 t-51 -22.5t-33.5 -9.5q-29 0 -29 21q0 14 20 27q53 31 71.5 41t25 13t15.5 6t44 17q37 14 51.5 27.5t23.5 27t21.5 29t46.5 37.5q4 2 27 17.5t47.5 39t44 55.5t19.5 66q0 20 -10.5 50t-33 61t-58.5 60.5t-87 50.5l-50 20t-29.5 13.5t-35 18.5t-63.5 34q-31 14 -50.5 22 t-30.5 16.5t-15 18.5t-4 33z" />
<glyph unicode="?" horiz-adv-x="522" d="M37 1176q0 35 11 76.5t38 78.5t72 61.5t110 24.5h27q4 0 9 1t9 1q39 0 70 -23.5t51.5 -60.5t30.5 -82t10 -88q-4 -127 -35.5 -228t-67.5 -180t-66 -133.5t-30 -86.5q0 -23 2.5 -40.5t3.5 -36t3 -42t2 -60.5q0 -16 -3 -39.5t-9.5 -45t-14.5 -36t-18 -14.5q-20 0 -21 37 q0 6 1 12.5t3 14.5q10 16 11 32q0 20 -6.5 67.5t-6.5 150.5q0 18 20.5 67t48 108.5t55.5 117t42 90.5q8 20 16.5 57t14.5 77t9 77.5t3 62.5q0 27 -4 57.5t-22.5 57t-54.5 45t-97 18.5q-66 0 -101.5 -41t-52.5 -88q-20 -57 -24 -129q-6 -12 -13 -12q-8 0 -13 9t-8 21.5 t-4 24.5t-1 19zM209 102q0 -27 9 -52t20 -25h2q0 -4 16 -9.5t35 -5.5q16 0 30.5 8.5t14.5 30.5q0 4 -3 21.5t-12.5 36t-24.5 34t-40 15.5q-20 0 -33.5 -12.5t-13.5 -41.5z" />
<glyph unicode="@" horiz-adv-x="968" d="M66 670q0 82 10 158.5t40.5 142t87 118t146.5 87.5q6 12 28.5 18t51.5 10t59.5 5t55.5 1q31 0 50 -3t34.5 -7t29 -11t33.5 -13q35 -12 70 -29t55 -51q6 -10 8 -23.5t9 -23.5q47 -78 59 -156t12 -166v-43q0 -27 3 -68t3 -81q0 -16 -3 -50t-12 -72t-24.5 -75t-40.5 -57 q-25 -23 -60.5 -28t-59.5 -5q-53 0 -82 18.5t-43 52.5q-37 -49 -92 -49q-29 0 -52.5 16.5t-41 42t-28 55.5t-10.5 56q0 63 38 106.5t96 43.5q39 0 75 -23q2 20 3 41t1 41q0 39 -8 70t-10 61l-31 35q-4 4 -12 4q-29 0 -46 -10t-28.5 -27.5t-16.5 -39.5t-7 -42q-6 -16 -21 -16 q-18 0 -20 21q2 27 13 55t28.5 52t39 38t44.5 14q59 0 88.5 -78.5t29.5 -207.5q0 -47 -2 -93.5t-2 -91.5q0 -51 30 -79.5t87 -28.5q25 0 46.5 8t31.5 24q23 41 40 94.5t17 86.5q0 18 -2 37.5t-2 35.5q0 43 2 88.5t2 90.5q4 102 -20 188q-8 31 -25.5 52.5t-27.5 49.5 q-20 61 -90 96t-148 35q-18 0 -27.5 -2t-15.5 -4t-11 -4t-18 -2q-2 0 -21.5 2t-41.5 2q-12 0 -23.5 -9t-25.5 -13q-66 -31 -115 -69t-84 -93t-52.5 -134t-17.5 -192q0 -61 4.5 -121.5t12.5 -113.5q6 -45 6 -97.5t5 -106.5t18.5 -104.5t46.5 -93.5q12 -4 22 -15t16 -21 q23 -20 65 -38t90 -31t99.5 -20.5t92.5 -7.5q23 0 36 3t23 7.5t20.5 10.5t24.5 12l41 82q10 14 20 14q20 0 21 -24q-41 -84 -77 -116t-93 -32q-25 0 -83 5t-123.5 22.5t-128 47.5t-99.5 79q-41 55 -57.5 113.5t-20.5 121t-4 129t-6 136.5q-4 41 -6 85t-2 91zM408 446 q0 -16 6 -39.5t16 -45t26.5 -37t35.5 -15.5q29 0 50 23.5t29 54.5q-4 25 -4 51.5v55.5v28q-35 27 -73 27q-37 0 -61.5 -27.5t-24.5 -75.5z" />
<glyph unicode="A" horiz-adv-x="608" d="M57 14q0 29 5.5 106t13.5 176t18 209.5t18.5 206t13.5 165t5 90.5q0 10 -3 17t-3 30q0 139 7 238.5t38 131.5q23 25 52.5 35.5t58.5 10.5q33 0 65.5 -10.5t58 -26t42 -34t16.5 -34.5q0 -29 4 -99.5t9 -160.5t10.5 -189.5t9.5 -186.5t7 -151.5t3 -82.5q0 -78 4 -139.5 t9 -111.5t11.5 -95.5t10.5 -90.5q8 -37 16 -67.5t43 -30.5q10 0 16 2q6 0 13.5 7.5t15.5 14.5t15.5 14t11.5 7q23 0 22 -24q-10 -35 -35.5 -50.5t-62.5 -15.5q-49 0 -73.5 25.5t-28.5 64.5l-9 111q0 4 -4 12q0 2 -2 4q0 4 4 12q-6 102 -12 222t-12 243t-12.5 242t-12.5 221 h-50t-67.5 -1t-60.5 -1h-29q-39 0 -53 6v-53q0 -96 -9 -225t-21.5 -256t-21.5 -231.5t-9 -149.5v-100.5t2 -57.5q-12 -8 -23.5 -10t-17.5 -2t-11.5 11t-5.5 52zM176 1081h39q76 0 132 3t81 3h4q-4 74 -4 124v31v15q0 46 -10 78q-6 16 -23.5 26.5t-37 15.5t-39 7t-31.5 2 q-33 0 -70 -17t-37 -48q0 -18 3 -40.5t3 -51.5q0 -35 -1 -54.5t-3 -33t-3 -25.5t-3 -35z" />
<glyph unicode="B" horiz-adv-x="614" d="M78 55q0 45 5 127t11 170t11.5 163t5.5 103q0 12 -2.5 23.5t-2.5 60.5q0 29 1.5 64t1.5 68.5t1 60.5t1 41q0 20 -2.5 53t-2.5 74q0 98 3.5 139t6.5 59.5t6 31t3 53.5t-3 63.5t-3 34.5q0 14 6 18t25 8h2q18 2 65 5.5t100 3.5q41 0 74 -4.5t45 -14.5q29 -27 52.5 -68.5 t23.5 -76.5q0 -20 -5 -55t-14.5 -72t-23.5 -69t-31 -46q37 -12 57.5 -36.5t31 -52.5t12.5 -50.5t2 -28.5q0 -27 -1 -61.5t-3 -70.5t-3.5 -68.5t-1.5 -55.5q0 -16 1.5 -23.5t2.5 -14.5t2 -17t1 -33q0 -115 -1 -217t-17.5 -179t-55.5 -123t-115 -46q-31 0 -62.5 4t-58 9 t-44 9.5t-19.5 4.5q0 2 -11.5 10t-21.5 24v-29.5t2 -23.5q-12 -8 -23.5 -10t-17.5 -2t-11 11t-5 52zM133 94q12 -4 38 -11t56.5 -15.5t63.5 -13.5t61 -5q45 0 62 17q8 8 21.5 26.5t24.5 40t19 46t8 46.5q0 45 1 84t3.5 79t3.5 86t1 108q0 154 -2 242.5t-2 117.5 q0 37 -19.5 64.5t-87.5 27.5q-45 0 -84 -2t-68.5 -5t-46 -7t-16.5 -6v-13q0 -23 -3 -57.5t-6 -71t-5 -71.5t-2 -56q0 -125 -3 -213t-7.5 -153.5t-7.5 -115.5t-3 -101v-68zM158 1067q0 -2 2 -2q4 0 26.5 2t54 5t68.5 6t72 3q20 2 35.5 29t24 63.5t12.5 74.5t4 63 q0 16 -10.5 36.5t-25.5 39t-37 32t-42 13.5h-76h-45t-39 2v-9q0 -25 -6 -54.5t-6 -53.5q-4 -106 -8 -176t-4 -74z" />
<glyph unicode="C" horiz-adv-x="552" d="M80 246q0 66 4 175t8 236t8 260.5t4 247.5q0 33 8.5 71t21.5 71.5t30.5 59.5t34.5 36q23 16 65.5 23.5t87.5 7.5q59 0 106.5 -13.5t47.5 -42.5q0 -12 -8 -22q-29 4 -58 10q-25 4 -56.5 7t-59.5 3q-33 0 -59.5 -5t-41.5 -19q-20 -18 -48 -65.5t-28 -92.5q0 -76 -1 -171 t-4 -194.5t-5 -196.5t-5 -179t-4 -142.5t-1 -85.5q0 -66 20.5 -99.5t48 -49t57.5 -18.5t48 -7q70 10 110 14.5t62 4.5q20 0 25.5 -3.5t5.5 -11.5q0 -20 -48 -35.5t-159 -15.5q-61 0 -100 17.5t-62.5 39t-33 40t-9.5 20.5q-8 23 -10 55.5t-2 69.5z" />
<glyph unicode="D" horiz-adv-x="620" d="M92 55q0 29 1 109t2 184.5t3 219t3 215t2 173t1 93.5q0 12 -2 23t-2 61q0 29 1 63.5t1 68t1 60.5t1 41q0 20 -2 53t-2 74q6 10 35 10q10 -2 22.5 -2t24.5 -4q16 0 27.5 -5t24 -12t29 -12.5t40.5 -5.5q59 -23 108.5 -67.5t71.5 -85.5q2 -8 11.5 -39t19.5 -67t18.5 -66.5 t8.5 -36.5q0 -16 -1 -26.5t-3 -22t-3.5 -24.5t-1.5 -36q0 -20 1.5 -70.5t2.5 -116t3 -140t3 -143t2 -125t1 -85.5q0 -53 -30 -100t-73 -82t-92 -57.5t-88 -28.5q-43 -16 -68.5 -26.5t-40 -16.5t-20.5 -8t-10 -2l-4 -3q-2 -1 -4 -1q-3 0 -7 2q-6 4 -11 18t-5 49zM147 57 l15 -4q2 0 11 3l19.5 6.5t18.5 5.5t12 2q2 4 17.5 11t33 14t33 13.5t19.5 6.5q20 20 34.5 28.5t38.5 22.5q8 6 24.5 19.5t33 32t28 40t11.5 41.5t-4.5 39.5t-4.5 36.5q0 20 11 33q-2 51 -3 125.5t-2 157.5t-2.5 166t-1.5 155v151q-37 137 -115.5 202t-178.5 87 q-31 -4 -31 -8v-12q0 -16 -2 -41t-2 -39q0 -10 -1 -83t-2 -181.5t-3 -239.5t-3 -260t-2.5 -242t-1.5 -184v-105z" />
<glyph unicode="E" horiz-adv-x="530" d="M76 461q0 94 6 187t12 174t12.5 140.5t6.5 86.5q0 12 -2 23t-2 61q0 29 1 63.5t1 68t1 60.5t1 41q0 20 -2 53t-2 74q2 0 5 -1t7 -1h24.5t14.5 4h2q4 0 49 2t102 2h53.5t53 -3t42 -9t17.5 -21q0 -27 -10 -26q-35 0 -73 1t-74.5 2t-68.5 2t-52 1q-29 0 -29 -2v-12v-40.5 t-1 -26.5t-3 -60t-6 -142h215q23 0 42 3t32 3q18 0 18 -14v-6q-6 -20 -9 -28.5t-10.5 -10.5t-22.5 -1t-46 1q-41 0 -82 1t-51 1h-39q-29 0 -49 4q-4 -98 -10.5 -204.5t-12.5 -208t-10 -194.5t-4 -165q0 -43 12 -94t32.5 -96t49.5 -76t64 -31q39 0 78.5 5t78.5 9 q16 0 18.5 -15t2.5 -17v-9q0 -8 -3 -13t-14.5 -8t-34 -4t-59.5 -1h-98q-53 0 -86 39t-53.5 103.5t-27.5 148.5t-7 176z" />
<glyph unicode="F" horiz-adv-x="501" d="M86 356q2 174 12.5 340t10.5 338q2 51 5 85t3 71v33.5t-4 40.5q-4 4 -8.5 29.5t-4.5 41.5q0 23 25 31t41 8q25 0 51.5 -7t54 -14t55 -14.5t52.5 -7.5q10 0 31 4l32 23q8 12 21 12q20 0 20 -16q0 -18 -11 -29.5t-27.5 -20t-34 -11.5t-31.5 -3q-59 0 -126 19.5t-112 21.5 q0 -39 5.5 -78t5.5 -77q0 -29 -1 -54.5t-1 -52.5q10 4 18 4h18q29 0 56.5 -5t56.5 -5q16 0 34.5 8t33.5 8q16 0 16 -20t-26.5 -27.5t-43.5 -7.5q-29 0 -55.5 6t-54.5 6q-29 0 -53 -12v-47q0 -146 -10 -289q-12 -166 -13 -336v-72t2 -100t6 -108.5t12 -96.5q4 -8 5 -12 q0 -20 -23 -20q-18 0 -23.5 25.5t-5.5 47.5q0 16 1 28.5t1 21.5z" />
<glyph unicode="G" horiz-adv-x="638" d="M80 246q0 66 4 175t8 236t8 260.5t4 247.5q0 35 10.5 77t30 78t49 60.5t68.5 24.5q4 0 9 -1t10 -1q8 0 14 1t14 1q47 0 88 -17.5t72 -45t48.5 -60.5t17.5 -63l-1 -9q-2 -8 -4 -17t-6 -16.5t-10 -7.5q-4 0 -10 7q-12 53 -37 94q-23 35 -58.5 64.5t-93.5 29.5 q-55 0 -87.5 -18.5t-50 -44t-24 -55t-6.5 -52.5q0 -76 -1 -170t-4 -194.5t-5 -197.5t-5 -179t-4 -142.5t-1 -83.5q0 -61 20.5 -95t48 -51.5t57.5 -21.5t48 -8q16 4 31.5 4h29.5h60q14 4 33.5 16.5t38 37t32 64.5t13.5 101q0 70 -2 119t-13.5 80t-33 45t-60.5 14h-37h-23 q-22 0 -49.5 1.5t-51 3.5t-23.5 6q0 25 32.5 35t129.5 10q45 0 81.5 -10.5t51.5 -30.5q10 -14 15 -18.5t8 -18.5t7 -48t11 -110q2 -16 3 -31.5t1 -29.5q0 -131 -49.5 -207t-135.5 -76h-18q-23 -4 -44.5 -4h-41.5q-61 0 -100 17.5t-62.5 39t-33 40t-9.5 20.5q-8 23 -10 55.5 t-2 69.5z" />
<glyph unicode="H" horiz-adv-x="614" d="M80 55q0 29 2 102.5t6 169t8 200t8.5 195.5t6.5 157.5t2 87.5q0 12 -2 23t-2 61q0 29 1 63.5t1 68.5t1 60.5t1 40.5q0 20 -2 53t-2 74q4 16 28 16q18 0 23 -12v4q8 0 8 -149q0 -10 -1 -60.5t-5 -128.5h235q18 0 37 2t31 4v80v100.5t-1 70t-2 47t-3 32.5q10 6 21.5 9.5 t17.5 3.5q8 0 14 -11.5t6 -52.5q0 -29 -1 -94.5t-2 -151.5t-2 -183t-2 -186t-2 -162t-1 -110q0 -18 1 -25.5t2 -14.5t2 -21.5t1 -46.5q2 -66 3 -112t2 -85t2 -77t3 -87q-2 -8 -10 -12t-18 -4q-12 0 -19 6q-4 4 -6 8l-2 16q-2 17 -4 41.5t-3 51t-1 49.5q0 18 1 44t3 50.5 t3 43t1 24.5t-1 35.5t-2 74.5t-2 100.5t-1 110.5v196.5t2 186.5h-50t-69 -1t-63.5 -1h-34.5h-39q-29 0 -49 4q-4 -98 -9 -220t-8.5 -242.5t-5.5 -229.5t-2 -180v-100.5t2 -57.5q-12 -8 -23.5 -10t-17.5 -2t-11 11t-5 52z" />
<glyph unicode="I" horiz-adv-x="479" d="M27 8v4q6 25 7 30t3 5h156v8q0 29 2 102.5t6 169t8 200t8 195.5t6 157.5t2 87.5q0 12 -2 23t-2 61q0 29 1 63.5t1 68.5t1 60.5t1 40.5q0 16 -2 40t-2 52h-45q-37 0 -76 2t-39 11v38h238q23 0 52.5 3.5t56.5 3.5q45 0 45 -17v-4q-6 -25 -7.5 -30t-3.5 -5h-74.5t-91.5 -2 q2 -18 3.5 -44.5t1.5 -61.5q0 -10 -2.5 -77t-6.5 -166t-8 -220t-8 -241t-6 -226.5t-2 -177.5v-113h53q39 0 78 -2t39 -10v-39q-6 -2 -15 -2h-38h-65t-67 2q-10 -6 -24 -6q-6 0 -8 6h-21q-23 0 -53.5 -3t-54.5 -3q-45 0 -45 16z" />
<glyph unicode="J" horiz-adv-x="555" d="M25 207q0 23 3 36t17 13q8 0 15.5 -30.5t25.5 -66.5t55 -67t103 -31q53 0 83.5 20.5t46 49.5t18.5 60.5t3 54.5q0 14 5.5 96t10.5 202t10 261t5 274q0 66 -3 114t-8 85t-8.5 64.5t-3.5 52.5q1 20 3 30q2 12 12 13q25 0 37 -29t12 -106v-244q0 -20 -1 -83t-3 -144.5 t-3 -174t-3 -172t-3 -138t-1 -73.5q0 -35 -10.5 -78.5t-30 -82.5t-48 -66t-67.5 -27q-12 0 -18 3q-10 -2 -29 -3q-47 0 -88 17.5t-72 45.5t-48 60.5t-17 63.5z" />
<glyph unicode="K" horiz-adv-x="606" d="M90 999q0 57 2 130t5 137.5t9.5 108.5t14.5 44q12 0 17 -10t5 -27v-29.5t-1 -18.5t-1 -25.5t-1 -50t-1 -91v-149.5v-191q12 10 56.5 60.5t126.5 144.5q59 63 90.5 125t31.5 146v28q0 18 17 19q16 0 24.5 -12.5t8.5 -28.5q0 -6 -3.5 -37t-14.5 -72t-33.5 -86t-61.5 -80 q-18 -16 -32.5 -35.5t-26.5 -40.5q-53 -66 -96.5 -105.5t-61.5 -61.5q8 -14 24.5 -28.5t37 -35t41 -49.5t36.5 -72q29 -51 50.5 -89t40 -72.5t34.5 -70.5t37 -83q10 -18 23.5 -47t27.5 -63t30.5 -67.5t33.5 -64.5q2 -4 4 -10q2 -4 4 -10t2 -11q0 -20 -23 -20q-25 0 -54.5 49 t-63 125t-70.5 166t-76 171t-79 141.5t-77 76.5q0 -49 1.5 -100.5t1.5 -93v-70.5v-35q0 -23 -1.5 -47.5t-1.5 -48.5q0 -61 7.5 -124t7.5 -106q0 -96 -29 -96q-20 0 -25.5 83t-6.5 221.5t-2 317.5t-9 371z" />
<glyph unicode="L" horiz-adv-x="534" d="M80 49q0 23 2 97.5t6 174t8 212t8.5 212t6.5 171t2 92.5q0 12 -2 23t-2 61q0 29 1 66.5t1 74.5t1 67.5t1 45.5q0 20 -2 53t-2 74q2 0 17 5t21 5t13 -6l2 -2q6 -6 7 -29t3 -23v-2q0 -6 -1 -18t-1 -25.5t-1 -27t-1 -19.5q0 -16 -2 -89t-6 -178.5t-9 -231t-8.5 -249.5 t-5.5 -235.5t-2 -185.5v-107q23 -4 74 -6t115 -2q47 0 92 4t84 10q8 0 13 -9t6 -18t1 -15.5t0 -0.5q0 -8 -4 -13t-18.5 -7t-41 -3t-71.5 -1h-72h-83t-75.5 1t-48.5 1h-4q-6 0 -14 12t-8 41z" />
<glyph unicode="M" horiz-adv-x="718" d="M41 -102q2 20 20 20q6 0 9 -2q4 4 12 17.5t16 31.5v27.5t6 42.5q2 29 6.5 60.5t7.5 61t5 54.5t2 37q0 23 -2 78t-5 126.5t-7.5 151.5t-7.5 152.5t-5 129t-2 81.5q0 12 -2 23t-2 61q0 66 2 111.5t4 84.5t4 77t2 87q4 16 21 16h2q10 -2 18 -4t15.5 -5t15.5 -7 q14 -8 30.5 -32.5t30 -52.5t24.5 -53.5t15 -33.5q4 -10 16.5 -54t26 -96.5t26.5 -98.5t20 -58q10 18 25.5 59t31.5 92.5t32.5 105.5t30 99t21.5 74t10 31q39 25 57 24h9q8 0 13 -11t5 -52q0 -29 1 -102.5t1 -169t2 -200t2 -195.5t1 -158.5t1 -86.5q0 -12 2 -23t2 -61 q0 -66 -2 -117t-4 -96t-4 -88t-2 -90q0 -16 18.5 -30.5t24.5 -16.5q8 12 21 12q20 0 20 -16q0 -18 -17.5 -27.5t-27.5 -9.5q-25 0 -49.5 21.5t-28.5 50.5v-4q-2 0 -4 19.5t-4 53.5l-4 17q0 2 -1 2t-1 2q0 8 6 14v43q0 49 2 87t4 74t4 75t2 92q0 94 -3 218t-7 243t-7 217 t-3 143v78q-18 -39 -33.5 -85t-26.5 -71q-4 -10 -17 -55t-27.5 -96t-27 -94t-18.5 -45q-10 -8 -30 -9q-14 0 -32 34t-36 86t-35.5 114.5t-33 116t-28 90.5t-18.5 41l-35 20q4 -23 4.5 -48.5t0.5 -53.5q0 -49 -2.5 -81t-4.5 -59.5t-4 -60.5t-2 -86q0 -78 6.5 -163t14.5 -174 t14 -179t6 -178q0 -59 -4 -132t-16.5 -135.5t-34 -105.5t-53.5 -43q-16 0 -22.5 6t-8.5 17v2z" />
<glyph unicode="N" horiz-adv-x="604" d="M88 1051q0 66 2 111.5t4 84.5t4 77t2 87q4 16 21 16h2q10 -2 18 -4t15.5 -5t15.5 -7q14 -8 46 -46t65.5 -82t62.5 -82t35 -46q10 -10 31.5 -45t44.5 -63q-2 84 -2 150.5v113.5q0 94 2 94q12 8 22 10t17 2q8 0 13 -11t5 -52q0 -29 -1 -102.5t-2 -169t-3 -200t-3 -195.5 t-2 -158.5t-1 -86.5q0 -12 2 -23t2 -61q0 -66 -2 -111.5t-4 -84.5t-4 -77t-2 -87q-4 -16 -21 -16q-16 0 -18 12v-6q-8 0 -9 151q0 49 2.5 81t4.5 59.5t4 60.5t2 86v283.5t-2 257.5q-16 16 -43 51t-56.5 77t-61.5 87t-57.5 83t-42 61.5t-18.5 25.5l-35 20q4 -23 4 -48.5 v-53.5q0 -41 -3 -67.5t-6 -50.5t-5 -45.5t-2 -51.5q0 -16 1 -32.5t3 -39.5q10 -131 14.5 -257t4.5 -241q0 -104 -2 -192t-7 -154q-4 -76 -8 -135q-12 -8 -23.5 -10t-17.5 -2q-2 0 -2 10q0 14 2 39t5 53.5t5.5 55t2.5 43.5q0 29 -1.5 92t-3.5 142t-4 166t-4 164t-3 133t-1 77 q0 12 -2 23t-2 61z" />
<glyph unicode="O" horiz-adv-x="655" d="M80 246q0 66 4 175t8 236t8 260t4 248q0 37 8.5 78t27 77t48 59.5t74.5 23.5h2q23 4 46.5 6t47.5 2q61 0 100.5 -17.5t62 -39t32.5 -40t10 -20.5q8 -23 10 -56.5t2 -68.5q0 -68 -4 -176t-8 -236t-8 -261.5t-4 -245.5q0 -35 -10.5 -77t-29.5 -77t-48 -59.5t-66 -26.5 q-37 -6 -100 -6q-61 0 -100 17.5t-62.5 39t-33 40t-9.5 20.5q-8 23 -10 55.5t-2 69.5zM123 207q0 -59 21.5 -89t50 -43.5t59.5 -16.5t47 -7h24.5t22.5 -2q0 2 2 2q10 -4 20.5 -4h20.5q37 2 59.5 22.5t35 47t17.5 55.5t5 49q0 82 1 180.5t4 199.5t5 200.5t5 181.5t4 140.5 t1 80.5q0 66 -18 96.5t-44 43t-56.5 13.5t-55.5 7q-23 -4 -42 -4h-36q-41 -8 -66.5 -27.5t-39.5 -43t-18.5 -49.5t-4.5 -46q0 -82 -2 -180.5t-4 -199.5t-6 -199.5t-6 -180.5t-4 -142.5t-2 -84.5z" />
<glyph unicode="P" horiz-adv-x="512" d="M92 999q0 20 1 51t1 68q0 39 -1 80t-1 78q0 45 1 77.5t3 39.5q16 18 49 24t68 6q18 0 35.5 -1t32.5 -3q16 -2 28 -4q74 -10 118 -84t44 -196q0 -14 -1 -29.5t-3 -32.5q-6 -76 -10 -109.5t-7.5 -48t-8.5 -18.5t-15 -18q-12 -18 -46 -27.5t-72 -13.5t-73.5 -4h-54.5 q-29 0 -39 8q2 -53 3 -122t3.5 -131.5t3.5 -107.5t1 -53q0 -23 -1 -47.5t-1 -48.5q0 -61 7 -124t7 -106q0 -96 -29 -96q-20 0 -25.5 83t-6.5 221.5t-2 317.5t-9 371zM141 889q12 4 37 4h49h88q39 0 60.5 13.5t33 44t13.5 79.5t2 121q0 76 -20.5 121t-45 66.5t-45 27.5 t-22.5 6h-33.5t-28.5 2q-37 -2 -54 -14t-25.5 -49t-8.5 -106.5v-186.5v-129z" />
<glyph unicode="Q" horiz-adv-x="651" d="M78 422q0 92 10 176t10 180q0 63 -8 110.5t-8 106.5q0 86 18.5 163t49 136.5t71.5 94t86 34.5q53 0 107.5 -16t99.5 -61q14 -14 23.5 -37t15.5 -47.5t8 -47t2 -36.5q0 -156 3 -309.5t3 -309.5q0 -82 -3 -163t-17 -158q-4 -18 -5 -38t-7 -38q-14 -41 -34 -65.5t-48 -53.5 q20 -31 44.5 -53.5t59.5 -22.5q37 0 80 29q4 2 10 2q18 0 19 -18q0 -14 -15.5 -25.5t-36 -19t-38 -10.5t-21.5 -3q-37 0 -68.5 26.5t-68.5 74.5l-38 -9.5t-46 -5.5q-14 0 -50 6t-67 17q-35 12 -57.5 37.5t-36.5 56.5t-22.5 63.5t-12.5 57.5q-8 43 -10 87t-2 89zM125 412 q0 -63 4 -127t24.5 -116t62.5 -85t118 -33q16 0 31.5 1t31.5 3q-14 16 -17 29.5t-20 32.5l-28 30q-2 -2 -6 -2q-6 0 -18.5 4.5t-18.5 4.5h-6q-23 0 -23 14q0 8 19.5 16.5t35.5 8.5q41 0 68 -38t51 -79q10 18 30.5 46t31.5 52q6 16 10 49t7 69t4 65.5t1 39.5q6 166 6 332 q0 113 -2 223.5t-2 221.5q0 12 -6 55t-27 74q-29 43 -73.5 57t-79.5 14q-96 0 -121 -51q-10 -20 -22.5 -36.5t-16.5 -39.5q-16 -66 -29.5 -142.5t-13.5 -148.5q0 -63 8 -111t8 -93q0 -61 -11 -153.5t-11 -186.5z" />
<glyph unicode="R" horiz-adv-x="669" d="M90 1061q0 20 1 51t1 68q0 39 -1 79.5t-1 77.5q0 45 1 78t3 39q16 18 52 24.5t75 6.5q63 0 113.5 -12.5t84.5 -45t52 -89t18 -142.5q0 -14 -1 -29.5t-3 -31.5q-6 -76 -9 -111t-6 -48t-8 -17.5t-18 -18.5q-6 -6 -20 -12t-30.5 -11.5t-32 -7.5t-23.5 -2h-4 q66 -61 103.5 -151t60.5 -185q25 -100 41 -164.5t34.5 -119t46 -112.5t74.5 -146q4 -12 4 -19q0 -14 -10 -14q-12 0 -35.5 21.5t-60.5 76.5q-4 4 -12.5 32t-19.5 66.5t-24.5 84t-24.5 84t-19.5 66.5t-10.5 34q-35 74 -55 143.5t-39.5 126.5t-47.5 100t-77 68q-23 -4 -32 -5 t-15 -1q-18 0 -41.5 2t-34.5 10q2 -53 3 -131t3 -152.5t3.5 -130t1.5 -63.5q0 -23 -1.5 -47.5t-1.5 -48.5q0 -61 7.5 -124t7.5 -106q0 -96 -29 -96q-14 0 -20.5 43t-9.5 117t-3 175v219t-2 246t-8 255zM139 948q12 2 34 3t46.5 2t46 1h31.5h37q70 0 92.5 51.5t22.5 151.5 q0 96 -20.5 151.5t-45.5 83t-47.5 35t-26.5 7.5q-41 0 -68.5 2t-43.5 6q-27 -4 -40.5 -22.5t-13.5 -67.5v-31q0 -29 -2 -91.5t-2 -166.5v-115z" />
<glyph unicode="S" horiz-adv-x="593" d="M63 166q0 96 10.5 130t28.5 34t19 -17v-26.5t-1 -35t-1 -34.5v-24q2 -45 5 -75t15.5 -48.5t39 -26.5t75.5 -8q66 0 105.5 17.5t61 39t28 40t6.5 22.5v20q0 57 6 88q0 51 -1 109.5t-2 112t-5 93t-13 52.5q-25 35 -40 52t-30.5 27.5t-37 17.5t-53.5 19q-72 43 -103 62.5 t-43 44.5t-18 64.5t-27 121.5q-2 57 -10 80t-8 47q0 47 13 96.5t45 88.5t86 63.5t136 24.5q10 0 15.5 -3t15.5 -3q4 0 10 1t10 1q12 0 34 -7.5t41.5 -27t33.5 -53t14 -86.5q0 -96 -10 -130t-22 -34q-16 0 -20.5 25.5t-4.5 54.5q0 23 1 41t1 28v37q0 53 -28.5 81t-106.5 28 q-66 0 -106 -17.5t-61.5 -39t-27.5 -41t-6 -21.5v-21q0 -59 -10 -100l6 -92q4 -74 23.5 -118t48 -71.5t62.5 -43t69 -32t68.5 -39t59 -62.5t42 -104.5t16.5 -162.5q0 -27 -1 -60.5t-4 -67.5t-6 -64.5t-7 -53.5v-8q0 -86 -65.5 -135t-196.5 -49q-31 0 -62 6t-55.5 25.5 t-41 54.5t-16.5 92z" />
<glyph unicode="T" horiz-adv-x="598" d="M12 1409q0 10 15 18h319q23 0 63 2.5t78 2.5q49 0 74 -6.5t25 -26.5q0 -12 -29 -17.5t-71 -6.5q-21 0 -42.5 -0.5t-44.5 0.5q-45 1 -75 1q2 -18 3 -44.5t1 -61.5q0 -10 -2 -77t-6.5 -166t-8.5 -220t-8 -241t-6 -226.5t-2 -177.5v-100.5t2 -57.5q-12 -8 -23.5 -10 t-17.5 -2t-11 11t-5 52q0 29 2 102.5t6 169t8 200t8 195.5t6 157.5t2 87.5q0 12 -2 23t-2 61q0 29 1 63.5t1 68.5t1 60.5t1 40.5q0 16 -2 40t-2 52h-65q-109 0 -150 5t-41 28z" />
<glyph unicode="U" horiz-adv-x="657" d="M84 164q0 16 2 83.5t4 168t6 223.5t6 251t4.5 253t2.5 227q0 35 7 49.5t15 14.5q20 0 21 -35q0 -25 -1 -90.5t-3.5 -157.5t-4.5 -204.5t-4 -229.5t-3 -229.5t-1 -206.5q0 -96 4 -148.5t19 -71.5q27 -37 48 -55t43.5 -25.5t47.5 -8.5t55 -5q0 2 2 2l4 -2h23 q41 0 65.5 24.5t38 55.5t17.5 58.5t4 33.5q0 8 1 56.5t4 123t5 171t5 199t4 206t1 195.5q0 141 -3 212.5t-3 100.5q0 16 2 21.5t6 5.5q29 0 37 -44.5t8 -123.5q0 -4 -1 -64.5t-3 -155t-5 -212t-5 -237.5t-3 -231.5t-1 -193.5q0 -35 -10 -77t-29.5 -76.5t-48.5 -59.5t-66 -27 q-37 -6 -100 -6q-61 0 -100 17.5t-62.5 39t-33 40t-9.5 20.5q-8 23 -10 55.5t-2 69.5z" />
<glyph unicode="V" horiz-adv-x="602" d="M4 1374v4q0 23 21 23q14 0 20 -19q16 -72 38.5 -151.5t44.5 -156.5t40 -144.5t27 -112.5q31 -174 60.5 -342t63.5 -338q2 18 3.5 38t1.5 38q0 23 -1 45.5t-1 44.5q0 117 32.5 246t61.5 248q23 98 34 201.5t37 197.5q0 4 1 6t1 6q0 12 -4 26.5t-4 27.5q2 27 6.5 42t8.5 27 t8 27.5t4 40.5q2 18 20 18q20 0 21 -22q0 -39 -13.5 -73t-13.5 -73q0 -12 4 -25.5t4 -27.5q0 -4 -1 -6t-1 -6q-23 -94 -36 -196.5t-35 -201.5q-29 -121 -60.5 -239.5t-31.5 -253.5q0 -12 1 -25.5t1 -27.5q0 -20 -1 -56.5t-6.5 -70t-14.5 -58t-23 -24.5q-18 0 -34 55t-29 126 t-23.5 135.5t-14.5 84.5q-20 92 -32.5 188.5t-34.5 188.5q-35 141 -76 281.5t-74 283.5z" />
<glyph unicode="W" horiz-adv-x="993" d="M31 1427q2 18 18 19q16 0 23 -16q8 -158 47 -320q6 -29 17 -57.5t11 -59.5q0 -18 -5 -37.5t-7 -40.5q0 -2 7.5 -22.5t15.5 -47t16 -52t8 -35.5q5 -47 5 -95v-15v-10q0 -51 10 -101q16 -119 44.5 -235t49.5 -232q14 33 24.5 76.5t18.5 90t13 90.5t9 79q27 193 49.5 382 t38.5 381q2 20 2 56.5t3.5 72t11.5 61t26 25.5q20 0 31.5 -45t18 -105t9.5 -118.5t7 -85.5l88 -581q12 -92 25.5 -186.5t38.5 -186.5q18 135 54 264t56 264l19 123q23 193 40 360.5t27 331.5q2 18 21 19q20 0 20 -23q-8 -129 -19.5 -262t-29.5 -262l-19 -170 q-18 -145 -50.5 -282.5t-61.5 -280.5q-2 -10 -4 -38t-7.5 -56.5t-15.5 -51t-30 -22.5q-18 0 -34 38t-29 97t-23.5 131t-18.5 140.5t-13 126t-9 85.5q-16 117 -36 229.5t-36 227.5q-6 49 -8 99t-9 98v-49.5t-4 -51.5l-61 -555q-8 -76 -16.5 -154.5t-20.5 -156.5t-32.5 -153.5 t-51.5 -145.5q-10 -16 -22 -16t-19 14q-8 49 -23.5 115.5t-32 138t-30.5 146.5t-20 141q-6 55 -7.5 111t-7.5 110q-4 47 -25.5 87t-21.5 77q0 18 5 36.5t5 38.5v9q0 35 -14 72q-16 42 -24 81q-12 68 -21.5 135t-13.5 135z" />
<glyph unicode="X" horiz-adv-x="671" d="M14 35q82 156 136.5 323.5t109.5 331.5q10 35 22.5 61.5t26.5 53.5q-10 29 -21.5 56.5t-21.5 56.5q-14 35 -38.5 64.5t-34.5 64.5q-10 31 -16.5 66.5t-11.5 68t-11.5 59.5t-16.5 39q-31 41 -53.5 98.5t-28.5 108.5q2 18 19 18q16 0 22 -16q6 -59 38 -109.5t52 -105.5 q8 -25 13.5 -52.5t8.5 -54t8 -53.5t15 -51q25 -53 53.5 -102.5t51.5 -108.5l18 35q12 25 15.5 52.5t15.5 51.5q29 59 60.5 118.5t62.5 121t55.5 124t38.5 128.5q10 14 21 14q20 0 20 -24q-14 -68 -39.5 -130.5t-55.5 -124t-62.5 -121t-61.5 -120.5q-10 -23 -14 -49.5 t-15 -50.5q-10 -23 -20 -42.5t-21 -39.5q35 -111 69 -166.5t38 -77.5q6 -33 18.5 -74t27.5 -85t30.5 -88t29.5 -81q16 -43 36 -84t34 -86l2 -2q0 -4 1 -5t1 -3q0 -20 -20 -20q-12 0 -19 12l-4 12q-14 41 -33.5 81t-36.5 81q-33 80 -60.5 163t-51.5 163q-16 53 -43 106 t-43 107q-8 -16 -15.5 -33t-13.5 -35q-57 -166 -112.5 -335t-137.5 -327q-6 -10 -16 -10q-20 0 -21 27z" />
<glyph unicode="Y" d="M0 1413q2 18 18 19q16 0 23 -17q4 -29 14.5 -53.5t22.5 -50t22.5 -51t16.5 -52.5q10 -51 20 -104t41 -137q12 -35 25.5 -68t27.5 -68t18.5 -68.5t22.5 -70.5q14 68 37 148t39 147q27 109 43.5 221.5t24.5 223.5q2 18 20 18q20 0 21 -23q-8 -113 -20.5 -229.5 t-47.5 -222.5q-27 -86 -51.5 -181.5t-40.5 -183.5q4 -12 4 -18q0 -29 -4 -34t-4 -15q0 -14 1 -20.5t3 -28.5l8 -148q0 -14 2 -60t4 -98.5t5 -97.5t10 -57q2 -4 2 -8q0 -20 -21 -21q-18 0 -28.5 59.5t-15.5 144.5t-6 181t-1 170v57q-6 27 -17.5 49.5t-19.5 47.5 q-41 123 -77 241.5t-64 245.5q-6 27 -18.5 53.5t-24.5 52t-22.5 52t-12.5 55.5z" />
<glyph unicode="Z" horiz-adv-x="636" d="M37 184q0 49 12 98.5t30.5 98.5t38 96t34.5 94q18 59 35.5 111.5t37 104t43 100.5t51.5 102q39 72 73 142.5t69 142.5q18 39 42.5 75.5t45.5 75.5q-31 -16 -64.5 -23t-68.5 -7q-74 0 -150 19.5t-137 33.5q-10 2 -15 8t-5 12q0 20 22 21q51 -2 90 -7t76 -11.5t75 -12.5 t91 -8h34.5t41.5 10q12 6 21 15.5t20 9.5q14 0 24 -15.5t10 -29.5q0 -12 -5 -24.5t-9 -20.5q-41 -68 -90 -138.5t-74 -146.5q-25 -72 -57.5 -139.5t-66 -133t-66.5 -134t-56 -142.5q-35 -111 -71.5 -229.5t-36.5 -237.5q27 33 74 33q31 0 65.5 -10.5t69.5 -23.5t69.5 -23.5 t65.5 -10.5q35 0 60.5 19.5t35.5 73.5q10 14 21 14q20 0 20 -25q-16 -78 -59 -108.5t-103 -30.5q-35 0 -74.5 8t-80.5 23q-6 2 -19.5 7t-29 10t-29.5 9t-23 4q-23 0 -50 -14t-38 -14q-18 0 -18 20q0 10 1 17.5t1 17.5q0 23 -2 47.5t-2 46.5z" />
<glyph unicode="[" horiz-adv-x="491" d="M78 -190q0 27 3 103.5t7 178t8 216t8.5 215t7.5 176t3 100.5q0 12 -4.5 43.5t-4.5 81.5q0 59 2.5 122.5t2.5 92.5q0 20 -4.5 46.5t-4.5 67.5q2 0 13.5 2t25 5.5t24.5 5.5t13 4h2q4 0 38 2t77 2h39.5t46 -3t39 -9.5t16.5 -20.5q0 -23 -23.5 -29t-50.5 -6q-61 0 -117.5 5.5 t-74.5 5.5q-2 0 -4 -3h-2q2 -6 3 -18t1 -27.5v-30v-22.5q0 -35 3 -69.5t3 -47.5q0 -2 -3 -43t-7 -94t-7 -104t-3 -74q0 -96 -1 -214t-1 -229.5t-1 -204.5t-1 -138q0 -47 12 -75t43 -28q35 0 90 8.5t121 12.5q14 0 20 -9.5t6 -21.5q0 -25 -12 -32t-63 -7q-23 0 -54.5 1 t-74.5 1h-125q-6 -2 -15 -2q-10 0 -15 11.5t-5 52.5z" />
<glyph unicode="\" horiz-adv-x="854" d="M33 1202q0 18 17.5 29.5t27.5 11.5q4 0 17.5 -21.5t48 -81t98 -166t170.5 -278.5l245 -401l144 -215q16 -23 21 -37t5 -25q0 -20 -22 -20q-16 0 -30.5 5t-14.5 7q-68 109 -133.5 219.5t-117.5 199.5t-85 146.5t-33 61.5q2 0 2 4q0 10 -23.5 50t-59.5 94.5t-79 116 t-80.5 115.5t-66.5 94t-35 52q-16 23 -16 39z" />
<glyph unicode="]" horiz-adv-x="495" d="M51 1253q0 6 5 10.5t25.5 6.5t60.5 3t110 1h49q8 4 20.5 5t22.5 1q23 0 34 -1t15 -19.5t4 -63.5v-131v-367q0 -150 1 -248t3 -161.5t3.5 -101t1.5 -64.5v-63.5t-1.5 -68.5t-1.5 -60.5v-41.5q0 -20 3.5 -53t3.5 -74h-19q-23 -2 -46 -1t-28 -1h-2q-4 -2 -43 -5t-88 -3 h-37.5t-42 3t-34 9.5t-13.5 18.5q0 23 26 29t54 6q59 0 110.5 -1t78.5 -1q18 0 18 2q-2 4 -2 22q0 14 1 30.5t1 27.5q0 16 -1 40.5t-1 49t-1 44t-1 25.5q0 4 2 44t2 81q0 55 -1 134t-1 170.5t-2 184.5t-2 177t-1 149.5t-1 100.5t3 69.5t5 55.5q-8 0 -15 -1t-18 -1 q-16 0 -39.5 1t-58.5 1t-59.5 -1t-42.5 -1q-41 0 -50.5 5t-9.5 27zM315 -242l2 2v-2h-2z" />
<glyph unicode="^" horiz-adv-x="817" d="M53 793q0 4 4 16q51 121 94.5 196.5t75.5 141.5q39 80 78 107.5t98 27.5q29 0 59 -24.5t56.5 -57.5t50 -67.5t41.5 -53.5l64 -133q0 -16 13 -34.5t30.5 -39t31 -41t13.5 -40.5q0 -16 -7 -22.5t-18 -6.5q-23 0 -35 22q-31 53 -41 71.5t-13 25t-6 15.5t-17 44 q-16 37 -24.5 50.5t-15.5 20.5t-16.5 19t-25.5 49q-12 29 -23.5 54.5t-28 45t-41 31t-63.5 11.5q-37 0 -60.5 -18.5t-47 -59.5t-54 -107.5t-80.5 -163.5q-16 -31 -21 -52t-9 -36.5t-13.5 -22.5t-29.5 -7q-4 0 -11.5 11t-7.5 28z" />
<glyph unicode="_" horiz-adv-x="1241" d="M72 -385q0 4 7 9t16 9.5t17 7.5l9 3q172 0 303 1t233.5 2t182 3t147.5 2q27 0 39 3t24.5 7t30 7t54.5 3q20 0 20 -20q-6 -18 -47 -28.5t-107.5 -16.5t-149.5 -8t-171 -2q-82 0 -163 1t-150 1q-29 0 -66 -1t-78 -1q-152 0 -151 18z" />
<glyph unicode="`" horiz-adv-x="751" d="M133 1343q0 16 13.5 23.5t23.5 7.5q8 0 12 -4t10.5 -15.5t17.5 -28.5t30 -44q25 -35 48 -49t40.5 -21.5t29 -14.5t11.5 -26q0 -8 -19 -8q-12 0 -33 4q-8 2 -18 4q-10 8 -16.5 10.5t-10.5 2.5q-2 0 -3 -1t-3 -1q-4 0 -13 11t-40 54q-10 12 -23.5 22.5t-25.5 20.5 t-21.5 22.5t-9.5 30.5z" />
<glyph unicode="a" d="M68 846q0 37 7 76t27.5 70.5t58.5 52t101 20.5q53 0 84 -26.5t46.5 -71.5t19.5 -104.5t4 -127.5q0 -84 1 -135t2 -79.5t3 -38.5l2 -11q0 -14 -2 -52t-3 -80t-3 -81t-2 -55q0 -59 13 -106.5t36 -47.5q12 0 18 6t9.5 13.5t7.5 13.5t14 8q12 0 12 -14t-16 -42t-64 -28 q-35 0 -49 31q-16 -14 -51 -26.5t-94 -12.5q-23 0 -45.5 8t-41 20.5t-30.5 27t-16 26.5q-6 16 -10.5 20t-9.5 17.5t-10 47.5t-11 109q-2 16 -3 32t-1 30q0 131 49 206.5t135 75.5q37 0 68.5 -9t48.5 -17q4 47 6 85t2 73q0 39 -4 86t-17.5 87t-38 67.5t-63.5 27.5 q-20 -2 -44 -6t-44 -16.5t-34.5 -34t-14.5 -58.5q0 -61 -5 -89t-28 -30q-20 1 -20 62zM119 352q0 -94 12 -150.5t33.5 -88t50.5 -44t61 -16.5q12 0 46 6.5t59 10.5q-10 37 -13 94t-3 133q0 84 1 146.5t5 111.5q-23 4 -59 11t-60 7q-2 0 -23.5 -6t-46 -27.5t-44 -66.5 t-19.5 -121z" />
<glyph unicode="b" horiz-adv-x="514" d="M80 -6q0 100 2 196.5t5 181.5t5 156.5t2 124.5q0 63 -1 105.5t-2 79t-2 73.5t-1 90q0 98 1 151.5t1 87.5t1 59.5t1 66.5t-3 63.5t-3 34.5q0 14 6.5 18.5t24.5 8.5q18 -2 25.5 -14.5t7.5 -30.5q0 -25 -6.5 -54.5t-6.5 -54.5q0 -27 -1 -54.5t-1 -55.5q0 -104 2 -163.5 t4 -59.5q8 0 44 8t104 8q55 0 86 -24.5t45 -55.5t17 -59.5t3 -36.5q0 -27 -1 -61.5t-3 -70.5t-3 -69t-1 -55q0 -16 1 -23.5t2 -14.5t2 -17.5t1 -32.5q0 -121 -3 -223.5t-19.5 -179.5t-51 -120t-96.5 -43q-47 0 -80.5 11.5t-50.5 19.5q-4 -31 -22 -31q-14 0 -24.5 7.5 t-10.5 52.5zM135 100q0 -18 1 -36.5t1 -34.5q20 -10 55 -25.5t72 -15.5q14 0 36 12t41 35.5t32.5 55.5t13.5 73q0 45 1 84t3 79t3 86t1 107q0 154 -2 243t-2 118q0 37 -19.5 64.5t-86.5 27.5q-45 0 -72 -2t-41 -8.5t-19.5 -16.5t-5.5 -26q0 -10 -4 -26.5t-4 -33.5 q0 -16 1 -45t1 -57.5t1 -51t1 -28.5q0 -125 -1 -212t-3 -151.5t-3 -114t-1 -100.5z" />
<glyph unicode="c" horiz-adv-x="489" d="M74 528q0 125 4 227.5t22.5 174t55.5 111.5t102 40q25 0 53.5 -3t55 -11t44 -23.5t17.5 -42.5q0 -10 -16 -12q-29 12 -58 23q-25 10 -53.5 17t-52.5 7q-14 0 -33.5 -18.5t-36 -49t-29 -69.5t-12.5 -78q0 -45 -2 -76.5t-5 -63.5t-5 -72t-2 -101q0 -78 2 -120t5 -64.5 t6 -33.5t3 -26q0 -18 7.5 -48t23.5 -57.5t39.5 -47t58.5 -19.5q27 0 42.5 8.5t27.5 19.5t26.5 19t36.5 8q33 0 33 -16q0 -8 -9 -22.5t-29.5 -30t-53.5 -26.5t-78 -11q-55 0 -91 37t-57.5 83t-29.5 87t-8 49v44t1 31.5t1 30v37.5q0 16 -1 23.5t-2 14.5t-2 17.5t-1 32.5z" />
<glyph unicode="d" horiz-adv-x="585" d="M76 561q0 55 7 149.5t7 192.5q0 2 4 31t20.5 61.5t49.5 59t92 26.5q68 0 95.5 -8t35.5 -8q2 0 2 2t-1 34t-3 81t-4 106.5t-4 110.5q-2 25 -7 54.5t-5 53.5q0 18 6 30.5t26 14.5q18 -4 24.5 -8t6.5 -18q0 -12 -3 -35t-3 -64t3 -66.5t6 -59t6 -87t3 -151.5q0 -55 -3 -98 t-6 -90.5t-6 -107.5t-3 -149q0 -29 5 -103.5t11 -162.5t11.5 -170t5.5 -127q0 -16 14 -16q10 0 26.5 8t31 17.5t25.5 16.5t13 7q20 -6 21 -18q0 -10 -11.5 -22.5t-30 -23t-40 -17.5t-41.5 -7q-41 0 -55 47q-25 -25 -41 -24q-4 0 -41 -13.5t-80 -13.5q-61 0 -96 43t-51.5 120 t-19.5 179t-3 223zM119 582q0 -61 1 -107.5t3 -86.5t3 -79t1 -84q0 -41 13.5 -72.5t33 -55t41 -36t35.5 -12.5q20 0 42.5 5t43 12.5t38 15.5t27.5 12q-2 16 -2 33v35q0 51 -3 101t-7 115.5t-7 154t-3 212.5q0 16 1 52.5t2 74t2 67.5t1 34q0 16 -3 28.5t-15.5 19.5t-37 10 t-69.5 3q-68 0 -94.5 -27.5t-26.5 -64.5q0 -29 -10 -118t-10 -242z" />
<glyph unicode="e" horiz-adv-x="497" d="M76 563q0 14 2 51t3 79t3 81t2 57q0 27 2 63t14.5 67.5t38 53t74.5 21.5q55 0 105.5 -22.5t62.5 -59.5q6 -16 10 -20t8.5 -17.5t10.5 -47t12 -109.5q2 -16 3 -31.5t1 -30.5q0 -131 -49 -206.5t-135 -75.5q-39 0 -70 9t-47 17q-4 -47 -6 -85t-2 -72q0 -39 4 -86t17.5 -87 t38 -68t63.5 -28q20 2 43.5 3t44 9.5t35 27t14.5 55.5q0 31 1 47t5 23t11 9.5t22 2.5q4 0 9 -2t5 -39t-7 -70t-27.5 -58.5t-58.5 -40t-101 -14.5q-53 0 -84 27t-46.5 72t-19.5 104t-4 127q0 84 -1 135t-2 80t-3 39zM127 889q0 -29 4 -66t4 -86q0 -86 -2 -148.5t-4 -111.5 l57.5 -10t61.5 -6q2 0 22.5 5t45 27.5t45 66.5t20.5 122q0 94 -12.5 150.5t-34 88t-50 44t-61.5 16.5q-10 0 -26.5 -3t-31.5 -12.5t-26.5 -27.5t-11.5 -49z" />
<glyph unicode="f" horiz-adv-x="485" d="M23 977q0 18 22.5 29.5t32.5 11.5l86 2q0 39 2 91t5 104.5t7 101.5t8 84q2 25 23.5 44t55.5 31.5t75 19.5t84 7t87 -13t44 -38q0 -14 -13.5 -23.5t-31.5 -9.5q-4 0 -6 6.5t-11.5 14.5t-29 14t-55.5 6q-31 0 -58.5 -8t-49 -19.5t-34 -20.5t-10.5 -11q-12 -6 -20.5 -68.5 t-12.5 -154.5l-4 -146l4 -14q96 0 138 2t57.5 5t16.5 6t16 3q12 0 23 -4t11 -20q0 -14 -16 -22.5t-44 -12.5t-61.5 -5t-70.5 -1h-74q-4 0 -5 -40t-1 -102q0 -125 1 -200.5t3 -123.5t5 -80t5 -65.5t3 -81t1 -129.5q0 -41 6.5 -81.5t6.5 -81.5q0 -18 -7.5 -31.5t-25.5 -13.5 q-18 4 -21.5 8t-3.5 18q0 12 3.5 35t3.5 63q0 41 -3.5 67t-6.5 59.5t-6 87t-3 151.5q0 41 2 74t2 53q0 29 -4 86t-4 117v104v34v19.5t-1 20.5t-1 39q-12 -10 -25.5 -12t-29 -2t-32 -2.5t-30.5 -10.5q-4 -2 -8 -2q-10 0 -15 12.5t-5 18.5z" />
<glyph unicode="g" horiz-adv-x="538" d="M76 186q0 27 1 46.5t3 36t3 32.5t1 39q0 16 -1 23.5t-2 14.5t-2 17.5t-1 32.5q0 33 1 76t3 88t3 84t1 61v86.5t8 105.5t27.5 94t56.5 54q31 8 76 8t87 -6t58 -10v18q12 8 22.5 10.5t16.5 2.5q8 0 13.5 -11.5t5.5 -52.5q0 -31 -1 -86t-2 -122.5t-3 -139.5t-3.5 -136.5 t-2.5 -113.5t-1 -67q0 -12 2.5 -23.5t2.5 -60.5q0 -29 -1.5 -64t-1.5 -68.5t-1 -60t-1 -41.5q0 -18 2.5 -49t2.5 -70q0 -29 -5.5 -76.5t-23 -95t-50 -82t-85.5 -34.5q-63 0 -101.5 14t-59 37.5t-27.5 56.5t-7 70q0 61 19 61q10 0 20 -23.5t14 -94.5q0 -18 14.5 -32t35 -22 t44 -13t44.5 -7q37 0 59 21.5t34.5 55t17.5 73.5t5 79v16v36.5t-1 35.5l-1 17q-8 0 -54 -8.5t-114 -8.5q-55 0 -85.5 24.5t-45 55.5t-17.5 59.5t-3 36.5zM121 408q0 -78 1 -122t1 -70t1 -39t1 -27q0 -37 19.5 -65t86.5 -28q90 0 126 13.5t36 48.5q0 10 -2 22.5t-2 28.5 q0 35 6 48t6 26v780q-18 0 -54 11.5t-75 11.5q-49 0 -77.5 -30t-43 -74t-18.5 -93t-4 -86q0 -45 -1 -84t-3 -79t-3 -86t-1 -107z" />
<glyph unicode="h" horiz-adv-x="538" d="M70 14q0 45 5 127t11 170t11 163t5 104q0 12 -2 22t-2 55q0 27 1 58.5t1 62.5t1 55.5t1 36.5q0 20 -2 55t-2 78q0 104 3 162t6.5 93.5t6.5 62.5t3 67q0 41 -3 64t-3 35q0 14 6 18t24 8q12 0 16.5 -45t4.5 -116q0 -55 -2 -117t-4 -113t-4 -85t-2 -36t2 -2q8 0 43.5 8.5 t103.5 8.5q72 0 109.5 -31t37.5 -78v-16q4 -16 5 -49q0 -25 -1 -57.5t-3.5 -64.5t-3.5 -61.5t-1 -50.5q0 -14 1 -21t1 -13.5t1 -15.5t1 -30q0 -31 -1 -71.5t-2 -82.5t-2 -82t-1 -67q0 -23 5.5 -61.5t11.5 -76.5t12 -66.5t8 -28.5q-2 -8 -4 -15q-8 -14 -18 -14 q-43 0 -52.5 106.5t-9.5 319.5q0 125 2 236.5t2 162.5v27q0 18 2 38.5t2 41.5q0 31 -19.5 52.5t-86.5 21.5q-45 0 -72.5 -3t-43 -10.5t-20.5 -19.5t-5 -29q0 -10 2 -21.5t2 -27.5t-2 -38.5t-4 -46t-4.5 -42t-2.5 -24.5v-111q0 -96 -3 -165t-7 -122t-7 -97t-3 -89v-129 q-23 -16 -28 -18.5t-15 -2.5q-4 0 -8 7.5t-4 35.5z" />
<glyph unicode="i" horiz-adv-x="223" d="M63 1329q0 29 21.5 56.5t62.5 27.5q29 0 36 -20.5t7 -38.5q0 -31 -13 -55.5t-34 -24.5q-29 0 -53 10t-24 31q0 4 2 8q-4 0 -5 6zM80 858q0 41 1 78t1 78v24q0 12 3 20.5t15 8.5q18 -4 24.5 -8t6.5 -19q0 -12 -3 -34.5t-3 -63.5t1 -66.5t2 -59.5t2 -87t1 -149q0 -51 2 -84 t5 -64t6 -68.5t3 -95.5l-4 -241q-2 -35 -8 -48.5t-10 -13.5q-12 0 -23.5 18.5t-11.5 20.5q0 102 1 200.5t2 175.5t2 124t1 49t-3 30.5t-6 73.5t-5 98.5t-2 102.5z" />
<glyph unicode="j" horiz-adv-x="227" d="M-152 -242q0 29 5.5 38t15.5 9q8 0 14 -5t11 -9q4 0 6 -23.5t9 -51t23.5 -51t53.5 -23.5q72 0 92 51q20 31 23 65.5t8 73.5q-2 0 -2.5 22.5t-2.5 51.5l-4 74q0 162 -1 261t-3 162.5t-4 103.5t-4 84t-3 104.5t-1 162.5q0 41 -6 82t-6 82q0 18 7 31.5t25 13.5 q18 -4 24.5 -8t6.5 -19q0 -12 -3 -34.5t-3 -63.5v-362q0 -41 7 -75t7 -54q0 -29 4.5 -86.5t4.5 -116.5v-105q0 -59 -1 -132.5t-1 -131.5v-49q0 -39 -1.5 -51t-2.5 -18.5t-4 -16.5t-7 -45q-6 -47 -40 -73.5t-124 -26.5q-47 0 -72.5 24.5t-35.5 55t-13 55.5zM72 1360 q0 12 6 32.5t10 20.5h6q25 6 43 6q33 0 44.5 -17.5t11.5 -51.5q0 -33 -23 -50.5t-43 -17.5q-14 0 -18 10h-3q-10 0 -22 20.5t-12 47.5z" />
<glyph unicode="k" horiz-adv-x="530" d="M72 57q0 47 4 129t9 166t9 158t4 104q0 20 -2 20.5t-2 20.5q0 25 2 64t5 79t6.5 72.5t3.5 44.5q0 20 -2.5 52t-2.5 71q0 78 1.5 131.5t3.5 88t3 55t1 35.5q0 20 -2 47.5t-4.5 55.5t-4.5 49.5t-2 29.5q0 14 7.5 17t25.5 5l8 -4q8 -4 9 -14q0 -31 -1 -91.5t-1 -136 t-2.5 -157.5t-2.5 -153.5t-1 -127t-1 -75.5q14 14 39 40.5t43 49.5q14 16 48 58t73 87t75 81t52 42q8 4 13.5 4h9.5q8 0 8 -6q0 -18 -14.5 -35.5t-33 -34t-37 -35t-28.5 -38.5q-10 -18 -48 -60.5t-80 -85.5t-74.5 -75.5t-30.5 -32.5l-4 4q14 -31 39.5 -65t39.5 -58 q31 -59 66 -130t55 -126q45 -123 102.5 -214t96.5 -153v-4q0 -10 -6 -22.5t-19 -12.5q-10 0 -40.5 53.5t-71.5 133.5t-86 174t-85 177t-70 140.5t-36 65.5q0 -10 1 -59.5t1 -114.5q0 -72 -3 -123t-8 -96.5t-8 -87t-3 -93.5v-116q0 -18 -14.5 -22.5t-12.5 -4.5h-2q-4 0 -11 9 t-7 50z" />
<glyph unicode="l" horiz-adv-x="346" d="M78 1520q0 12 3 20t17 8q18 -4 24.5 -8t6.5 -18q0 -12 -3 -35t-3 -64t3 -60.5t6 -45t6 -72.5t3 -145q0 -41 -6 -74t-6 -53q0 -29 4 -86.5t4 -116.5v-104q0 -102 -8 -193.5t-8 -142.5q0 -31 3 -70t9 -73.5t15.5 -63.5t19.5 -37q16 -14 45 -18.5t56.5 -7.5t48 -8t22.5 -19 q-2 -18 -14.5 -24.5t-26.5 -6.5q-55 0 -95 7t-66.5 35t-40 81t-13.5 145v19q0 14 -1 43.5t-1 56.5q0 121 2 242t4 219t4 159.5t2 63.5t-1 32t-1 74t-1 98t-1 103q0 45 -6 71t-6 69z" />
<glyph unicode="m" horiz-adv-x="839" d="M74 -37q0 31 3 111t8 171t8 173t3 117q0 10 -1 16t-2 13t-2 21.5t-1 39.5q0 29 1 63.5t1 68.5t1 60.5t1 40.5q0 29 -4 53.5t-4 42.5q0 57 27 58q16 0 22 -8.5t7 -17.5t3 -17t11 -8q16 0 49 21.5t86 21.5q18 0 38.5 -9.5t40 -24t35 -28.5t23.5 -22q12 12 26.5 27.5 t34 27.5t46 20.5t63.5 8.5q39 0 64.5 -15.5t42 -35t25.5 -41t15 -33.5q4 -10 5.5 -68.5t1.5 -136.5q0 -92 1 -164t3 -123q2 -59 4 -104q0 -27 -5 -67t-5 -75q0 -59 1 -102t1 -80q0 -6 -3.5 -10t-17.5 -4q-16 0 -20 8t-4 22q0 10 1 20.5t1 20.5v70.5t1 115t1 136.5t1 136.5 t2 114.5t3 70v41q0 47 -6 94.5t-21.5 86.5t-40 62.5t-59.5 23.5q-45 0 -105 -45l-26 -56q-4 -6 -4 -27.5v-56.5v-110v-164v-105t-1 -67.5t-1 -52v-57v-85.5q0 -53 -4.5 -92t-4.5 -74v-16q0 -6 -3 -10t-17 -4q-16 0 -20.5 8t-4.5 22q0 10 1 20.5t1 20.5v55.5t1 100.5t1 122.5 t1.5 126t1.5 109v70.5q0 4 -4.5 27.5t-4.5 60.5q0 39 -3 86t-13 87t-32.5 67.5t-61.5 27.5q-39 -6 -64.5 -12t-42 -17.5t-23.5 -32t-7 -52.5q0 -25 -2.5 -72t-5.5 -96t-5 -88t-2 -45q0 -123 1 -217.5t1 -161.5q0 -123 -7 -173t-32 -50q-4 0 -14 2t-10 22z" />
<glyph unicode="n" horiz-adv-x="534" d="M76 25q0 31 3 110.5t8 170.5t8 173t3 117q0 10 -1 16t-2 13.5t-2 22t-1 38.5q0 29 1 63.5t1 68.5t1 60.5t1 41.5q0 29 -4 53t-4 43q0 57 27 57q2 0 14 -4q10 -4 13 -11t4 -15.5t2.5 -14.5t9.5 -6q16 0 49 21.5t86 21.5q39 0 64.5 -15.5t42 -35t25.5 -41t15 -33.5 q4 -10 5 -68.5t1 -136.5q0 -92 2 -163.5t3 -122.5q2 -59 4 -105q0 -27 -5.5 -66.5t-5.5 -74.5q0 -53 8.5 -92t8.5 -74q0 -10 -6 -20.5t-29 -10.5q-16 0 -20.5 8.5t-4.5 22.5q0 10 1 20.5t1 20.5v55t1.5 100.5t1.5 123t1 126t1 108.5v71q0 4 2 27.5t2 60.5q0 39 -4.5 86 t-17.5 87t-37.5 67.5t-63.5 27.5q-39 -6 -64.5 -12.5t-42 -17.5t-23.5 -31.5t-7 -53.5q0 -25 -2.5 -72t-5.5 -96t-5 -88t-2 -45q0 -123 1 -217t1 -162q0 -123 -7 -173t-32 -50q-4 0 -14 2t-10 23z" />
<glyph unicode="o" horiz-adv-x="505" d="M80 319q0 68 1 128.5t2 120t2 124t1 139.5q0 27 2 63t14.5 67.5t38 53t74.5 21.5q55 0 105.5 -22.5t62.5 -59.5q6 -16 10 -20t8.5 -17.5t10.5 -47t12 -109.5q2 -16 3 -32t1 -30q0 -104 1 -189t1 -153q0 -111 -6 -185.5t-27.5 -119.5t-62.5 -63.5t-109 -18.5 q-47 0 -75.5 32t-44 82t-20.5 112.5t-5 123.5zM121 330q0 -111 12 -174.5t30.5 -96t39 -42t39.5 -9.5q8 0 15 1t11 1q12 0 31.5 8.5t39 34t34 72.5t14.5 125q0 252 -5 394t-22.5 215t-50.5 94.5t-86 27.5q-59 0 -77.5 -35t-18.5 -82q0 -33 4 -65.5t4 -61.5q0 -31 -2 -78 t-5 -102t-5 -113.5t-2 -113.5z" />
<glyph unicode="p" horiz-adv-x="524" d="M84 291q0 45 2 56t2 24q0 39 -1 115.5t-1 168.5q0 76 1 152t3 137.5t5 99t7 37.5q2 0 6.5 1t10.5 1q12 0 26 -8q-2 -10 -2 -22.5v-28.5q10 14 20.5 22.5t10.5 10.5q4 0 39 12t76 12q63 0 97 -51t47 -140t14.5 -209t1.5 -257q0 -74 -5.5 -126t-5.5 -126q0 -2 -5 -23.5 t-22.5 -46t-50 -45t-88.5 -20.5q-66 0 -97.5 7t-39.5 7q-2 0 -2 -2t1 -25.5t3 -62.5t4 -87t4 -99q0 -23 5.5 -50.5t5.5 -50.5q0 -20 -6.5 -32.5t-24.5 -12.5q-16 4 -22.5 8.5t-6.5 18.5q0 10 3 31.5t3 60.5q0 33 -1 54.5t-1 38t-1 31.5t-1 36v43q0 45 -2 81t-5 72.5t-5 80.5 t-2 106zM129 250q0 -10 6 -20.5t6 -43.5q0 -16 -2 -27.5t-2 -21.5q0 -33 21.5 -45t105.5 -12q66 0 95.5 35t29.5 69q0 14 3 22.5t6 29t6.5 58.5t3.5 112q0 98 -4.5 215.5t-4.5 244.5q0 35 -12 66t-30.5 53.5t-38 34.5t-33.5 12q-39 0 -80 -16.5t-62 -26.5v-63q0 -49 -2 -122 t-5 -161t-5 -188.5t-2 -204.5z" />
<glyph unicode="q" d="M78 125q0 27 1 46t3 35.5t3 33t1 39.5q0 16 -1 23t-2 14.5t-2 17.5t-1 33q0 33 1 75.5t3 87.5t3 84t1 62v86t8 105.5t27.5 94.5t56.5 54q31 8 76 8t87 -6t58 -10v18q12 8 22.5 10t16.5 2q8 0 13.5 -11t5.5 -52q0 -31 -1 -86t-2 -123t-3 -139.5t-3 -136t-2.5 -113.5 t-1.5 -68q0 -12 2.5 -23.5t2.5 -60.5v-215t-2 -139q33 12 58 21.5t30 9.5q6 0 6 -13q0 -16 -18.5 -30.5t-75.5 -36.5q0 -41 -2.5 -59.5t-3.5 -25.5t-2 -10t-2 -11.5t-1 -30v-64.5q0 -14 -6 -18.5t-24 -8.5q-12 0 -13 35q0 25 4 57.5t4 61.5v25.5t-2 29.5q-45 -16 -71 -16 q-18 0 -19 14q0 10 1 14.5t8.5 7.5t26 9t52.5 21q-2 31 -3 58.5t-1 41.5v12q-10 0 -55 -8t-111 -8q-55 0 -85.5 24.5t-45 55t-17.5 59.5t-3 37zM123 346q0 -78 1 -122t1 -69.5t1 -39t1 -27.5q0 -37 19.5 -64.5t86.5 -27.5q63 0 98.5 5t51.5 17.5t20.5 34t4.5 56.5 q0 332 -1 545.5t-4 308.5q-18 0 -54 11t-75 11q-49 0 -77.5 -29.5t-43 -73.5t-18.5 -93.5t-4 -86.5q0 -45 -1 -83.5t-3 -78.5t-3 -86t-1 -108z" />
<glyph unicode="r" horiz-adv-x="452" d="M84 311q0 45 2 56.5t2 23.5q0 39 -1 116t-1 169q0 76 1 151.5t3 137t5 99.5t7 38q2 0 6.5 1t10.5 1q12 0 26 -8q-2 -10 -3 -59.5t-5 -131.5q14 23 28.5 57.5t33 66.5t41 55.5t53.5 23.5q6 2 31 2q20 0 43.5 -5t43 -17.5t33 -36t13.5 -60.5q0 -41 -19 -41q-10 0 -17 8.5 t-7 18.5q0 6 1 12t1 12q0 63 -78 64h-19q-29 -2 -56 -31.5t-52 -71.5t-44.5 -85t-31.5 -72q-4 -104 -5 -239.5t-1 -295.5q0 -6 1 -25.5t2 -40t2 -36.5l1 -16q0 -10 1 -25.5t1 -32.5q0 -18 -2 -31.5t-10 -13.5q-18 0 -27.5 7t-9.5 34q0 12 -1 39t-1 57.5t-1 63.5t-1 61z" />
<glyph unicode="s" horiz-adv-x="489" d="M63 203q0 6 2.5 14t14.5 8q14 0 25.5 -28.5t25.5 -64.5t33.5 -64.5t48.5 -28.5q6 0 10 2q96 23 135 61.5t39 85.5q0 43 -23.5 91.5t-59 99.5t-77.5 101t-79 96.5t-61.5 87.5t-26.5 71q0 10 -1 18.5t-1 18.5q0 61 10 114.5t29.5 93.5t48 62.5t67.5 22.5q63 0 101 -21.5 t58.5 -53.5t28 -70.5t7.5 -73.5q0 -31 -3 -46.5t-18 -15.5q-23 0 -27.5 29t-4.5 90q0 37 -14.5 58.5t-35 34t-44 16.5t-44.5 6q-39 0 -61.5 -27.5t-32.5 -67.5t-13 -87.5t-3 -85.5q0 -39 35.5 -92.5t84 -109.5t95.5 -111.5t69 -100.5q12 -27 20.5 -61.5t8.5 -73.5 q0 -35 -10 -71t-35 -65.5t-65.5 -49t-104.5 -19.5q-49 0 -80 33.5t-46 72.5t-20.5 71t-5.5 30z" />
<glyph unicode="t" horiz-adv-x="495" d="M6 1008q0 16 23.5 21t54.5 5q39 0 65.5 -4t49.5 -4q-2 25 -3 55.5t-1 69.5q0 41 -6.5 82t-6.5 82q0 18 7.5 31.5t25.5 13.5q18 -4 21.5 -8t3.5 -19q0 -12 -3.5 -34.5t-3.5 -61.5q2 -31 7 -68q2 -31 4 -68.5t4 -74.5q16 0 34.5 1t36.5 1q27 0 50.5 -3t40.5 -3q16 0 33.5 5 t27.5 5q16 0 16 -24q0 -18 -9 -23.5t-23 -5.5h-29q-10 0 -20.5 -1t-22.5 -1q-29 0 -63.5 2t-69.5 4q2 -29 3 -54.5t1 -41.5q0 -45 -3 -129t-6 -171t-5 -158t-2 -89v-42t1 -45t1 -60.5v-88.5q0 -43 19.5 -65.5t49 -32.5t64.5 -11t65 -1q4 0 10.5 4t12.5 4q10 0 15 -12.5 t5 -16.5q0 -18 -26.5 -27t-48.5 -9q-70 0 -112 19t-65.5 51t-32 72t-8.5 81q0 31 3.5 59.5t3.5 54.5q0 23 -3.5 53.5t-3.5 49.5q0 119 3.5 221t8.5 178t8 119t3 45t-2 13.5t-6 33.5h-25q-31 0 -62.5 -5t-58.5 -5q-41 0 -49 27z" />
<glyph unicode="u" horiz-adv-x="534" d="M74 1032q0 10 6 20.5t29 10.5q16 0 20 -8t4 -23q0 -10 -1 -20.5t-1 -20.5v-56t-1 -99.5t-1 -123t-1 -126t-1 -108.5v-70q0 -4 -2 -28t-2 -61q0 -39 4 -86t17.5 -87t38 -67.5t63.5 -27.5q39 6 64.5 12.5t42 17.5t23.5 30.5t7 54.5q0 25 2 72t5 96t5 88t2 45q0 123 -1 217 t-1 162q0 123 7.5 173t31.5 50q4 0 14.5 -2t10.5 -23q0 -31 -3 -110.5t-8.5 -170.5t-8.5 -173t-3 -117q0 -10 1 -16t2 -13.5t2 -21.5t1 -39q0 -29 -1 -63.5t-1 -68.5t-1 -60.5t-1 -40.5q0 -29 4 -53.5t4 -43.5q0 -57 -26 -57q-2 0 -14 4q-10 2 -13.5 10t-4.5 16.5t-2 14.5 t-9 6q-16 0 -49 -21.5t-86 -21.5q-39 0 -64.5 15.5t-42 35t-26 41t-15.5 33.5q-4 10 -5 68.5t-1 136.5q0 92 -1 163.5t-3 123.5q-2 59 -4 104q0 27 5 66.5t5 74.5q0 53 -8 92t-8 74z" />
<glyph unicode="v" horiz-adv-x="651" d="M29 1049q0 10 6 20t28 10q12 0 27.5 -60.5t32 -148.5t35 -186t37.5 -174q18 -78 23 -130t12.5 -94t23.5 -82t59 -95q18 10 39 41.5t39.5 70.5t31.5 75t15 54q8 74 20.5 158t26 166t28.5 156.5t28.5 131t27 90t25.5 33.5q4 0 14 -2t10 -22q0 -37 -12 -87t-27.5 -109.5 t-32 -128t-22.5 -144.5q-10 -96 -25.5 -190.5t-40 -169t-59 -120.5t-82.5 -46q-47 0 -75.5 31.5t-45 79.5t-23.5 106.5t-12 112t-10.5 94t-17.5 55.5l-35 223q0 27 -16 53.5t-16 61.5q0 53 -18.5 92t-18.5 74z" />
<glyph unicode="w" horiz-adv-x="974" d="M51 991q0 10 6 20.5t29 10.5q12 0 19.5 -27.5t12.5 -74t9 -106.5t7 -123.5t8 -126t14 -115.5q12 -80 15 -131.5t9 -92.5t23.5 -80t60.5 -94q51 61 83 144.5t50.5 175.5t26.5 187t13 177t10.5 146.5t17.5 97.5l4 6q10 23 25 23q4 0 14 -2t10 -23v-18q8 -35 13.5 -96.5 t9.5 -133t9 -147.5t15 -139q12 -80 17.5 -132.5t15.5 -95.5t30.5 -83t63.5 -95q18 20 37 52t34 66t26.5 63.5t13.5 47.5q8 70 14 154t11.5 168t10.5 162t14 139t20.5 97t29.5 36q4 0 14.5 -2t10.5 -22q0 -76 -19.5 -199t-34.5 -275q-10 -96 -14 -183t-29 -161 q-29 -84 -59.5 -133t-89.5 -49q-45 0 -70.5 32t-40 81t-20.5 108.5t-9 112.5t-7.5 94t-16.5 55q-4 66 -12 122.5t-8 140.5v32q0 25 -2 43.5t-4 34.5q-4 -12 -6.5 -47t-5.5 -82t-7 -100t-8 -101q-10 -96 -16.5 -180t-40.5 -153q-16 -33 -28.5 -68t-27 -62.5t-33 -45 t-47.5 -17.5q-45 0 -71.5 32t-43 81t-23.5 107.5t-12 111.5t-10.5 93t-17.5 54q-10 43 -15 126t-7 166t-4 144.5t-7 61.5q-2 0 -4 -3t-4 -3t-2 16z" />
<glyph unicode="x" horiz-adv-x="499" d="M29 25q0 8 8 28.5t19.5 48t24.5 60.5t25 67q8 23 18.5 59t20 71.5t17.5 63.5t10 34q4 12 17.5 32.5t29.5 49.5q-23 59 -50.5 137t-66.5 182q-4 14 -9 27.5t-5 17.5l2 2v2q0 2 -5 13.5t-10 26t-10.5 29.5t-5.5 25t9.5 12.5t15.5 2.5q12 0 21.5 -18.5t19.5 -49t21.5 -71.5 t29.5 -86q14 -41 24.5 -71t18.5 -52.5t15.5 -40t15.5 -35.5q33 59 67 151q55 147 72 214t29 67q8 0 19.5 -3t11.5 -20q0 -23 -10.5 -57.5t-32 -89.5t-54.5 -133t-78 -184q10 -29 23.5 -65t32.5 -89q6 -16 22.5 -57t35 -86t33.5 -84t19 -52q10 -37 18.5 -61.5t8.5 -28.5 q0 -10 -7 -12t-11 -2q-18 0 -33 21.5t-26 51t-19.5 58.5t-14.5 45q-14 35 -26.5 65.5t-24.5 64.5t-27.5 74t-33.5 89q-53 -127 -99 -264q-8 -8 -18 -42t-21.5 -71t-24.5 -65.5t-26 -28.5q-12 0 -19 9t-7 18z" />
<glyph unicode="y" horiz-adv-x="546" d="M33 991q2 18 18 19q16 0 23 -17q8 -121 32.5 -236.5t55.5 -230t60.5 -228.5t51.5 -228l5 10q6 20 15 36.5t13 35.5q20 82 33.5 161.5t26 160.5t28 167t39.5 178v2q6 53 15 110.5t38 98.5q6 6 17 6q18 0 18 -18q0 -6 -2 -10q-18 -27 -26.5 -58.5t-12.5 -65.5t-7 -69 t-9 -65q-37 -164 -66.5 -342.5t-81.5 -337.5q-12 -37 -15 -75t-15 -75q-29 -86 -58.5 -162.5t-35.5 -167.5q-6 -16 -21 -16q-18 0 -20 20q4 55 18 104.5t30.5 98.5t34 99.5t27.5 105.5q-18 18 -26.5 38.5t-10.5 42t-2 40t-4 35.5q-39 127 -70.5 248.5t-58.5 252.5 q-16 82 -33.5 165t-23.5 167z" />
<glyph unicode="z" horiz-adv-x="561" d="M39 993q0 18 20.5 24.5t46.5 6.5q16 0 31 -2t37 -2q23 0 51.5 1t57.5 1t52 -3t40 -3q16 0 30.5 3t24.5 3q20 0 21 -25q0 -25 -22.5 -85t-60.5 -156.5t-89.5 -228.5t-106.5 -302q-2 -4 -2 -10v-14q0 -4 -3 -17.5t-7 -29t-8.5 -27.5t-8.5 -12v2q-2 2 -5 -8.5t-7 -26.5 q16 2 32.5 3t33.5 1q25 0 39 -2t38 -2q23 0 51.5 1t57.5 1t52.5 -3t39.5 -3t30.5 3t24.5 3q20 0 21 -25q0 -27 -20.5 -33t-43.5 -6q-18 0 -42.5 2.5t-53.5 5.5t-58.5 6t-56.5 3q-45 0 -74.5 -13.5t-64.5 -13.5q-23 0 -44 7.5t-21 27.5l-2 4q0 2 7 29.5t18 66.5t25.5 86.5 t28 88t23.5 72.5t14 40q12 37 37 105.5t52.5 146.5t56 152.5t49.5 121.5h-19q-37 0 -89 8.5t-97 8.5t-71.5 -13.5t-38.5 -13.5q-6 0 -16.5 10.5t-10.5 34.5z" />
<glyph unicode="{" horiz-adv-x="714" d="M16 537q0 8 34 21t75 26.5t74.5 26t33.5 20.5q4 61 5.5 104t1.5 60q0 12 -2 23t-2 61q0 29 1 63.5t1 68t1 60.5t1 41q0 20 -2 53t-2 74v2q0 -4 7 33t26.5 81t52 82t81.5 38q43 0 86 -5.5t77 -16.5t55.5 -27.5t25.5 -39.5q4 -35 8 -82t7.5 -90t5.5 -74l2 -30 q0 -2 -15.5 -16.5t-29.5 -14.5t-15 21q-4 70 -4 112.5t-1 70.5t-8 48.5t-26 44.5q-18 12 -34.5 20.5t-33 13.5t-37 7t-50.5 2q-41 0 -63.5 -18.5t-35 -45t-18.5 -56t-12 -54.5q2 -4 5 -41t3 -106q0 -49 -2 -81t-4 -59.5t-4 -60.5t-2 -86q0 -29 -2 -53.5t-4.5 -48t-4.5 -50 t-2 -59.5q0 -6 -24.5 -19.5t-57 -25.5t-62.5 -23.5t-40 -13.5q12 -4 42 -24.5t60.5 -47t54 -49t23.5 -28.5v-22.5t1 -34t1 -33v-23.5q-4 -88 -5 -158.5t-1 -107.5q0 -66 1 -100.5t1 -57.5v-35q0 -4 1 -25.5t6 -51t16.5 -61t29.5 -56.5q18 -12 34 -19.5t33 -12.5t37.5 -7 t51.5 -2q25 0 42 27.5t30.5 69.5t21.5 91t14.5 91t9.5 70t7 28q8 0 15.5 3t13.5 3t10 -9.5t6 -39.5q0 2 -2 -26t-9 -71t-18.5 -94t-29 -94t-43 -73t-58.5 -30q-43 0 -85 3.5t-75.5 12.5t-56 25.5t-24.5 40.5q-6 37 -12.5 70t-11.5 66.5t-8 70.5t-3 86v65.5t2 106t4 131 t8 142.5q0 33 -31.5 64.5t-70.5 58t-71 49t-32 37.5z" />
<glyph unicode="|" horiz-adv-x="241" d="M80 1227q0 18 7 31.5t26 13.5q29 -6 28 -27q0 -8 -2 -17t-2 -20q0 -14 2 -31.5t5 -44t5.5 -63.5t2.5 -88q0 -72 -5.5 -177.5t-5.5 -215.5q0 -324 8.5 -522.5t8.5 -270.5t-5.5 -104.5t-15.5 -32.5q-12 0 -23.5 18.5t-11.5 20.5q0 98 3.5 220t3.5 261q0 154 -11.5 292 t-11.5 237q0 92 3 175t3 175v67q0 20 -2 31.5t-4 21t-4 19.5t-2 31z" />
<glyph unicode="}" horiz-adv-x="716" d="M45 -127q0 2 15.5 16.5t29.5 14.5t14 -21q4 -70 4.5 -112.5t1.5 -70.5t8 -48.5t25 -44.5q18 -12 34 -20.5t33 -13.5t37.5 -7t51.5 -2q39 0 61.5 18.5t35 44t18.5 55t12 54.5q-6 6 -6 149q0 49 2 81t4 59.5t4 60.5t2 86q0 29 2 53.5t4 48t4 49t2 60.5q0 6 25 18.5 t56.5 24.5t61 22.5t40.5 14.5q-10 2 -40 23.5t-60.5 47t-54 50t-23.5 30.5v22.5t-1.5 34t-1.5 33v23.5q4 88 5.5 158.5t1.5 107.5q0 66 -1 100.5t-1 57.5v35q0 4 -1 25.5t-6.5 51t-17 61t-29.5 56.5q-18 12 -34.5 19.5t-33 12.5t-37 7t-50.5 2q-25 0 -42.5 -27.5 t-30.5 -69.5t-21.5 -91t-14.5 -91l-10 -70t-6 -28q-8 0 -15.5 -3t-13.5 -3t-10 9.5t-6 39.5q0 -2 2 26t9 71t18.5 94t28.5 94t42 73t59 30q43 0 85 -4.5t76 -13.5t55.5 -24.5t25.5 -39.5q4 -37 10 -70t11.5 -66.5t9.5 -70.5t4 -86v-65.5t-2 -106t-4 -131t-8 -142.5 q0 -33 31.5 -64.5t70.5 -58t70.5 -49t31.5 -37.5q0 -10 -33.5 -22t-74.5 -25.5t-75 -26t-34 -20.5q-4 -61 -5 -104t-1 -60q0 -12 2 -23t2 -61q0 -29 -1 -63.5t-1 -68t-1 -60.5t-1 -41q0 -18 2 -49t2 -70v-10q0 2 -7 -34t-26.5 -80t-52.5 -82t-82 -38q-45 0 -88 5.5 t-76.5 15.5t-55 27.5t-23.5 40.5q-4 35 -8.5 82t-7.5 90t-5 73z" />
<glyph unicode="~" horiz-adv-x="1189" d="M76 365q8 59 25.5 95t36 55.5t32.5 26.5t16 7q41 12 75 15t67 3q66 0 98.5 -5t60 -19.5t62.5 -38t106 -62.5q55 -29 97 -28q33 0 57.5 13t48 31.5t48 37t57.5 28.5t51 16.5t27.5 10.5t14.5 6t15 2q16 0 22.5 -8t6.5 -19q0 -16 -25 -16q-4 0 -10 1t-12 1q-14 0 -30.5 -5 t-33.5 -24q-61 -70 -121.5 -96t-111.5 -26q-43 0 -77 12t-54 29q-45 33 -89 56t-81 36.5t-61.5 19.5t-33.5 6q-80 -4 -125 -15t-66.5 -23.5t-26.5 -24.5t-5 -21q0 -8 1 -16t1 -25v-11t-2 -15q-4 -20 -15 -29.5t-22 -9.5q-25 0 -24 29z" />
<glyph unicode="&#xa1;" horiz-adv-x="274" d="M63 784q0 27 12.5 44.5t29 25.5t31 11t20.5 3h2l4 2q6 0 14 -10t17.5 -25.5t15.5 -34t6 -32.5q0 -12 -9 -21.5t-21.5 -17.5t-23.5 -12t-16 -4q-31 0 -47 8t-24 19.5t-9.5 23.5t-1.5 20zM104 410q0 68 5.5 93t17.5 25q14 0 27.5 -17t13.5 -19q0 -135 -2 -209t-5 -114 t-5 -60.5t-2 -51.5v-30q0 -20 2 -65.5t5 -95.5t6 -95t3 -66q0 -18 -6 -49t-25 -31q-20 4 -26.5 16.5t-6.5 28.5q0 72 1.5 229.5t1.5 376.5q0 27 -2.5 61t-2.5 73z" />
<glyph unicode="&#xa2;" horiz-adv-x="530" d="M53 487q0 223 45 325.5t148 121.5v37t4 30q0 20 -2 31.5t-4 21t-4 19.5t-2 31q0 18 7 31.5t25 13.5q29 -6 29 -27q0 -8 -2 -17t-2 -20q0 -23 5 -55.5t9 -91.5q35 -2 63.5 -8t33.5 -6q0 -2 10 -9.5t21.5 -17.5t21.5 -20.5t10 -18.5q0 -10 -16 -12q-25 10 -47 20 q-20 8 -45 16.5t-50 12.5q2 -14 2 -28.5v-30.5q0 -45 -1 -95.5t-3 -98.5t-3 -93t-1 -82q0 -96 1 -166t3 -129h23q27 0 37 5t17 11.5t18.5 12.5t37.5 8q33 0 33 -16q0 -8 -9 -22.5t-28.5 -30t-50.5 -27t-74 -11.5q0 -35 1 -69.5t1 -73.5q0 -72 -5 -104.5t-15 -32.5 q-20 0 -28.5 27.5t-10.5 69.5t0 92t2 98q-47 14 -84 53t-62.5 80t-40 75.5t-14.5 40.5q0 23 -2 52.5t-2 76.5zM102 467q0 -43 11.5 -88t30 -84t45 -68.5t57.5 -44.5v697q-20 -14 -43 -36t-42.5 -48.5t-31.5 -56t-12 -60.5q0 -45 -2 -60.5t-5.5 -29t-5.5 -37t-2 -84.5z" />
<glyph unicode="&#xa3;" horiz-adv-x="694" d="M41 594q6 29 27 29q6 0 14 -2.5t18 -2.5q0 2 37 6.5t86 8.5v49q0 29 1 63.5t1 68.5t1 60.5t1 40.5q0 20 -2 53t-2 74t3 62.5t8.5 39t10.5 36t9 53.5q2 25 22.5 43t53 31.5t72.5 21.5t83 10q51 0 85 -28.5t53.5 -62.5t26.5 -62.5t7 -26.5q0 -31 -4 -40t-12 -9q-6 0 -13 3 t-16 3q-4 0 -12 26.5t-22.5 57.5t-38 57.5t-60.5 26.5q-80 0 -118.5 -17.5t-54 -48t-17.5 -73.5t-10 -96l-3 -17q0 -31 3.5 -74t3.5 -57q0 -16 -2 -44t-4.5 -55.5t-4.5 -49t-2 -27.5v-88q29 2 54.5 3t50.5 1q78 0 104.5 -7t26.5 -16q0 -27 -48 -33.5t-104 -6.5q-25 0 -46 1 t-40 1q-2 -84 -5 -144.5t-6 -106.5t-5 -85t-2 -82v-113q18 -2 39.5 -2h44.5q39 0 80 3t78 11q4 0 12 -16l8 -16v-11q0 -10 -5 -14t-21.5 -7t-48 -3h-85.5h-78h-74.5t-55.5 1l-21 1q-2 -2 -23.5 11t-21.5 28q0 10 15.5 16t56.5 8q2 0 14 -2t31 -4q0 53 5 127t10 148.5 t10 141.5t7 105l-6 -4q0 -2 2 -4q2 0 -35 6q-20 0 -31.5 -2t-20.5 -4t-19.5 -4t-30.5 -2q-18 0 -31.5 7t-13.5 26zM223 1042q2 0 5 -1t8 -1h2z" />
<glyph unicode="&#xa4;" horiz-adv-x="724" d="M59 63q0 8 7.5 19.5t17.5 22t20.5 21.5t16.5 19q14 14 18 19.5t6 9.5t6.5 11.5t16.5 25.5l18 22q-45 68 -61 167.5t-16 195.5q0 86 10 188.5t10 227.5q0 23 9 53.5t26 58.5q-49 74 -68.5 106t-19.5 38q2 10 8 18q4 6 10 12.5t15 6.5q8 0 18 -13.5t21.5 -35t23.5 -46 t23 -47.5q23 23 53.5 38.5t70.5 15.5q55 0 105.5 -18.5t73.5 -49.5l4 -6q10 16 24.5 46t29.5 59.5t30.5 52t27.5 22.5q8 0 14.5 -6t10.5 -12q6 -8 10 -19q0 -6 -6 -16t-20.5 -28.5t-38 -49.5t-56.5 -80q2 -4 12.5 -19.5t22.5 -44t21.5 -71.5t9.5 -98q0 -90 1 -175.5 t1 -166.5q0 -104 -13.5 -174t-41.5 -117l12 -13q14 -18 18 -25t6.5 -10t7.5 -8.5t19 -19.5q6 -8 17.5 -17.5t22.5 -20.5t19.5 -21.5t8.5 -18.5q0 -6 -6.5 -9t-12.5 -7q-8 -4 -18 -4q-4 0 -9 5t-17.5 20.5t-34 43t-58.5 72.5q-61 -63 -186 -63q-68 0 -117 49 q-33 -49 -56.5 -79t-39 -46.5t-24.5 -22.5t-13 -6q-20 0 -21 18zM164 510q0 -86 11 -143.5t30 -94.5q4 10 18.5 30t52.5 67q2 2 12.5 8t20.5 6t10 -10q0 -6 -9 -22.5t-21.5 -38t-26.5 -44t-26 -37.5q27 -29 54 -36t50 -7q4 0 17.5 -1t34 2.5t45 15.5t52.5 41q-4 4 -19 22.5 t-32.5 42t-32 45t-14.5 31.5q0 8 10 8t20.5 -5t12.5 -5q29 -33 45.5 -51.5t23.5 -29.5t9 -15l4 -8q16 27 26.5 63.5t10.5 85.5q0 131 -4 231.5t-12.5 176t-20.5 128t-29 87.5q-10 -16 -22 -35t-25.5 -36t-26 -28.5t-18.5 -11.5q-8 0 -8 21q0 8 1 14t1 8q23 39 36 59.5 t21.5 30.5t11.5 12.5t7 6.5q-29 37 -62.5 49t-74.5 18q-37 0 -62.5 -13t-42.5 -36q18 -31 24.5 -36t12.5 -10t20.5 -24.5t49.5 -78.5q0 -2 1 -7.5t1 -13.5q0 -23 -10 -22q-6 0 -18.5 11t-33.5 40l-69 98q-16 -35 -19.5 -75.5t-3.5 -75.5q0 -31 -2 -78t-5 -102.5t-5 -114 t-2 -113.5z" />
<glyph unicode="&#xa5;" horiz-adv-x="684" d="M49 1475q0 49 25 49q18 0 18 -21q0 -8 -1 -15t-1 -15q0 -41 10.5 -77t10.5 -75q0 -88 20.5 -186.5t46 -184.5t49 -149.5t27.5 -81.5q10 -37 25.5 -52.5t33.5 -15.5q27 0 49.5 25.5t22.5 58.5q0 4 16.5 43t22.5 84q12 94 18.5 141.5t10.5 73t9 47l15 64.5q16 68 19.5 128 t5.5 106t9 74t30 28q12 0 17 -8.5t5 -30.5q0 -23 -7 -72t-18.5 -112.5t-23.5 -133t-23.5 -133t-18.5 -112t-7 -68.5q0 -27 -12.5 -72t-26.5 -92t-26.5 -88t-12.5 -57q0 -12 1 -30.5t1 -41.5q29 2 74 7t123 16q10 2 17 3t13 1q14 0 15 -21q-4 -23 -12.5 -29t-18.5 -6 t-20.5 2.5t-20.5 2.5q-39 0 -50 -3.5t-20.5 -6.5t-28 -7t-69.5 -6v-139q29 2 51.5 8t47 10t52 8t64.5 4q10 0 17.5 -3t7.5 -19q-4 -23 -12.5 -29t-18.5 -6t-20.5 2t-20.5 2q-39 0 -50 -3t-20.5 -6t-29 -7t-70.5 -6q-2 -37 -3 -77t-4 -74t-10 -55.5t-20 -21.5q-12 0 -21 29 t-9 88v56.5t2 54.5h-52q-29 0 -55.5 -5.5t-44.5 -5.5q-16 0 -24.5 7.5t-8.5 17.5t14.5 20.5t36.5 16.5q41 -6 73 -8t59 -2h4q4 57 9 92t5 39v12h-68q-29 0 -57.5 -6t-46.5 -6q-20 0 -23 12v20.5t5.5 13.5t16.5 8t34 5q29 2 48 3t36 1q16 0 29.5 -1t25.5 -3q0 10 -1 17.5 t-1 13.5v14q-4 0 -7 8.5t-7.5 20.5t-11.5 24.5t-19 22.5q-18 12 -34.5 34.5t-30 45t-22.5 40t-9 19.5q-6 23 -19.5 67t-29 97t-33 109.5t-31.5 105.5q-16 47 -25.5 147.5t-9.5 215.5z" />
<glyph unicode="&#xa6;" horiz-adv-x="243" d="M80 627q0 115 2 184.5t5 112.5t6 65.5t6 42t5 43t2 68.5v14q0 18 -2 30.5t-3 25t-3 26.5t-2 39q0 16 4 25.5t25 9.5q31 -8 31 -53q0 -43 -17.5 -131.5t-17.5 -235.5q0 -37 7 -95.5t7 -115.5q0 -47 -5 -65.5t-21 -18.5q-10 0 -19.5 9t-9.5 20zM96 -287q0 74 4 181.5 t4 277.5v90q0 35 6.5 47.5t16.5 12.5t19.5 -12.5t9.5 -28.5q-8 -143 -10.5 -220t-2.5 -118q0 -29 1 -48.5t2 -38t2.5 -42t3.5 -62.5q0 -23 2 -35t5 -22t5 -22.5t4 -32.5q-2 -23 -2 -37.5t-25 -16.5q-29 8 -37 38t-8 89z" />
<glyph unicode="&#xa7;" horiz-adv-x="526" d="M70 858q0 29 1 53.5t1 46.5v140v73.5t2 73.5q2 49 21.5 88t47 66.5t58 43t53.5 15.5q63 0 113.5 -59.5t64.5 -145.5q0 -23 -20 -22q-14 0 -21 14q-10 72 -49 122t-88 50q-25 0 -51.5 -16.5t-50.5 -52.5q-4 -8 -15.5 -17.5t-15.5 -19.5q-8 -31 -10 -65t-2 -68 q0 -59 4 -121t6 -117q0 -18 2 -27.5t5 -16.5t8 -15.5t16 -22.5q31 -49 46 -72.5t29.5 -37t34 -28.5t53.5 -50q68 -66 112 -225.5t44 -438.5q0 -66 -18 -139q-10 -39 -17.5 -68.5t-20 -52t-33 -42t-58.5 -36.5q-43 -20 -84 -20q-43 0 -72 23.5t-46.5 62.5t-25.5 86t-10 94 q2 18 18 18t23 -16q2 -37 6 -77t16.5 -71.5t36 -53t60.5 -21.5q63 0 99 29.5t54.5 73.5t23.5 95.5t5 96.5q4 59 -4 115.5t-8 109.5q0 31 -20.5 49.5t-41.5 40.5q-43 49 -86 96t-86 95q-37 41 -58.5 87t-33.5 93t-15 94t-3 90zM113 815q12 -72 32.5 -148.5t61.5 -140.5 q23 -35 49.5 -63.5t54 -55t53 -51t46.5 -53.5q-2 51 -9.5 101.5t-25.5 93.5q-20 51 -53 91t-70 76.5t-74 72.5t-65 77z" />
<glyph unicode="&#xa8;" horiz-adv-x="1705" d="M455 1202q0 23 16 48.5t33 25.5q18 0 31.5 -8t21.5 -20.5t11 -24t3 -17.5q0 -12 -4 -22.5t-8 -14.5q-6 -8 -20.5 -18t-28.5 -10q-23 0 -39 19.5t-16 41.5zM774 1198q0 10 9.5 24.5t22.5 27t27.5 21.5t24.5 9q12 0 21.5 -10t16.5 -24.5t11 -27t4 -16.5q0 -14 -9 -25.5 t-20.5 -20.5t-22.5 -14t-15 -5q-20 0 -33.5 12t-15.5 16q-4 4 -12.5 16.5t-8.5 16.5z" />
<glyph unicode="&#xa9;" horiz-adv-x="804" d="M72 625q0 84 13 194.5t13 257.5q0 27 24.5 63t63.5 67.5t87.5 53t97.5 21.5q27 0 70.5 -3t85.5 -12.5t73 -28.5t31 -52v-15q0 -23 14 -46t30.5 -50.5t31 -57.5t14.5 -65q0 -10 -2 -18t-2 -27q0 -12 1 -30.5t2 -35t2 -29.5t1 -19q0 -53 -2 -77t-5 -37t-5 -28.5t-2 -48.5 q0 -111 -12.5 -185.5t-47.5 -119.5t-99.5 -63.5t-168.5 -18.5q-80 0 -138.5 30.5t-96 86t-56 130.5t-18.5 163zM133 575q0 -127 36 -193.5t83 -95t93 -31.5t69 -3q29 0 71.5 7t82.5 31.5t69 73t29 132.5q0 168 -7.5 283.5t-21.5 193.5t-36.5 124t-54.5 71.5t-74 37t-93 21.5 q-49 0 -92 -24.5t-74 -61.5t-48.5 -80t-17.5 -78q0 -31 -2 -78t-5 -102t-5 -113.5t-2 -114.5zM221 813q0 16 1 24.5t2 17.5t3 20.5t2 33.5q0 23 4.5 45.5t22.5 40t55 27.5t103 10q39 0 70.5 -7t35.5 -7q0 -2 10.5 -9.5t21.5 -17.5t21.5 -20t10.5 -19q0 -4 -12.5 -22.5 t-22.5 -20.5l-13 13q-14 12 -34.5 27.5t-47 28.5t-51.5 13q-41 0 -76.5 -34.5t-35.5 -104.5q0 -78 1 -114t1 -52t1 -21.5t1 -19.5q0 -18 5 -44t18.5 -50.5t35 -40.5t56.5 -16q45 0 61 4t25.5 10t19.5 12t41 8q33 0 33 -16q0 -8 -9.5 -22.5t-30 -30t-53 -26.5t-77.5 -11 q-55 0 -91 37t-57.5 83t-30 87t-8.5 49q0 27 -2 43t-4 29.5l-4 27t-2 35.5z" />
<glyph unicode="&#xaa;" horiz-adv-x="417" d="M74 844q0 86 21.5 138t78.5 52q23 0 44.5 -6t31.5 -10q2 27 4 47t2 41q0 43 -13.5 85t-54.5 42q-31 -4 -43 -20.5t-17 -35t-10 -35t-24 -18.5q-4 0 -10 9.5t-6 25.5h4q0 20 5 42t19.5 39t37 28.5t57.5 11.5q37 0 58.5 -22.5t33.5 -57.5t15 -76t3 -77q0 -23 -1 -40.5 t-1 -31.5q0 -23 4 -23q0 -45 -4 -94t-4 -98q0 -23 12 -23q14 0 13.5 1t11.5 3q4 0 10 -3t6 -11q0 -14 -20.5 -22.5t-46.5 -8.5q-20 0 -29 19q-10 -8 -32.5 -15.5t-57.5 -7.5q-25 0 -47.5 16.5t-26.5 28.5q-4 8 -6 10.5t-5 10.5t-6 26.5t-7 59.5zM131 887q0 -66 13.5 -108 t33.5 -42h21q16 0 28.5 8.5t22.5 16.5q-4 18 -4 41.5v52.5v66.5t2 54.5q-10 4 -28.5 8t-31.5 4q-23 0 -40 -29.5t-17 -72.5z" />
<glyph unicode="&#xab;" horiz-adv-x="980" d="M47 483q0 31 21.5 64t51.5 63.5t61.5 57t49.5 43.5l131 104q14 8 41 21.5t55.5 23.5t52.5 18.5t30 8.5q25 0 24 -17q0 -12 -20 -26q-53 -31 -71.5 -41t-25 -13.5t-15.5 -6.5t-44 -17q-37 -16 -51 -28.5t-23.5 -26t-22.5 -29.5t-46 -37q-4 -4 -26.5 -18.5t-47.5 -38 t-44 -55t-19 -66.5q0 -23 10 -51.5t32.5 -59t58.5 -60.5t87 -50q33 -14 49 -20.5t30.5 -13.5t35 -18.5t63.5 -33.5q27 -14 46.5 -20.5t31.5 -11.5t17 -13.5t5 -24.5q0 -25 -14 -24q-10 0 -21.5 4t-23.5 6t-19.5 7t-18.5 14t-31.5 20.5t-57.5 25.5q-174 66 -258 146t-84 194z M375 483q0 29 20.5 57.5t48 54.5t57 48.5t48.5 38.5l139 74q18 0 39 14t42.5 30.5t44 31t44.5 14.5q16 0 25.5 -9.5t9.5 -21.5q0 -20 -21 -33q-53 -31 -71.5 -41t-24.5 -13t-15 -6t-44 -17q-37 -16 -50.5 -24.5t-20.5 -16t-19.5 -16.5t-48.5 -25q-72 -33 -107 -81t-35 -75 q0 -8 10.5 -26.5t33 -41t58 -47t87.5 -45.5q33 -14 49 -17t30.5 -6t35 -11.5t63.5 -30.5q31 -16 49 -21.5t28.5 -10.5t14.5 -14.5t4 -29.5q0 -4 -10 -11.5t-25 -7.5q-6 1 -14 5q-37 16 -49.5 23t-18.5 11t-17 10.5t-48 20.5q-80 31 -143.5 58.5t-107.5 58.5t-67.5 66.5 t-23.5 82.5z" />
<glyph unicode="&#xac;" horiz-adv-x="999" d="M70 891q0 16 20.5 29.5t22.5 13.5q115 0 185.5 1t114.5 2t67.5 3t45 3t46 2t69.5 1q25 0 37 3t22.5 6t22.5 6.5t37 3.5q8 0 24.5 -4.5t35 -9.5t38 -9t31.5 -6q16 -2 21 -16.5t5 -32.5q0 -16 -2 -26.5t-4 -22t-4 -27.5t-2 -45q0 -33 1 -72t3 -74.5t3 -60t1 -27.5 q0 -4 1 -7t1 -7t-8 -7t-37 -3q-12 0 -20 10t-14.5 21.5t-7.5 16.5l-3 13l2 15q2 14 3 37.5t3.5 53.5t2.5 58q0 49 -8.5 77t-20.5 42t-26.5 17t-26.5 3q-4 0 -7.5 -1t-7.5 -1t-6 1t-4 1q-23 -4 -53.5 -5t-69.5 -1q-47 0 -106.5 1t-130.5 1q-29 0 -66 -1t-78 -1 q-154 0 -153 25z" />
<glyph unicode="&#xad;" horiz-adv-x="663" d="M76 561q2 12 15 20.5t49 12.5t101.5 5t174.5 1h31.5t58.5 -3t56.5 -9t25.5 -19q0 -14 -20.5 -27.5t-22.5 -13.5q-41 2 -72 7.5t-57.5 10.5t-52 9t-54.5 4q-35 0 -78 -8t-104 -31q-4 -2 -14 -2q-16 0 -26.5 12.5t-10.5 30.5z" />
<glyph unicode="&#xae;" horiz-adv-x="806" d="M72 625q0 84 13 194.5t13 257.5q0 27 24.5 63t63.5 67.5t87.5 53t97.5 21.5q27 0 63.5 -5t73.5 -17.5t69.5 -32t53.5 -47.5q33 -47 62.5 -96.5t29.5 -112.5q0 -16 -3 -28.5t-3 -35.5q0 -12 1 -30.5t2 -35t2 -29.5t1 -19q0 -53 -2 -77t-5 -37t-5 -28.5t-2 -48.5 q0 -111 -12.5 -185.5t-47.5 -119.5t-99.5 -63.5t-168.5 -18.5q-80 0 -138.5 30.5t-96 86t-56 130.5t-18.5 163zM133 575q0 -127 36 -193.5t83 -95t93 -31.5t69 -3q29 0 71.5 7t82.5 31.5t69 73t29 132.5q0 168 -7.5 283.5t-21.5 193.5t-36.5 124t-54.5 71.5t-74 37t-93 21.5 q-49 0 -92 -24.5t-74 -61.5t-48.5 -80t-17.5 -78q0 -31 -2 -78t-5 -102t-5 -113.5t-2 -114.5zM240 913v54.5v63.5t1 57.5t3 33.5q16 18 49 24.5t67 6.5q70 0 113 -8t65.5 -24.5t29.5 -42t7 -62.5q0 -96 -12 -150.5t-33.5 -81t-53.5 -33t-70 -6.5q18 -29 42.5 -80t53.5 -128 q23 -61 40 -96t29.5 -53.5t18.5 -26t6 -13.5q0 -2 -8 -14q-23 -6 -33 -6q-4 0 -8 9t-18.5 41t-43 94.5t-82.5 170.5q-12 25 -19 44.5t-13 32.5t-15.5 20.5t-27.5 7.5q-29 0 -37 6q4 -57 6 -114.5t2 -72.5q0 -23 -1 -34t-1 -21q0 -4 2 -19.5t3 -35t3 -39t2 -31.5 q0 -37 -7 -50t-19 -13q-6 0 -20.5 4t-14.5 18q0 12 3 41t3 88q0 45 -2 118t-4 143.5t-4 122.5t-2 54zM287 1030.5q0 -4.5 1 -19t1 -50v-111.5v-47q14 4 38.5 4h47.5h78q31 0 55 36t24 85q0 20 -6 39.5t-14 58.5q-10 53 -26.5 64.5t-34.5 11.5h-45q-59 -6 -89 -24.5 t-30 -28.5v-18.5z" />
<glyph unicode="&#xaf;" horiz-adv-x="1705" d="M438 1520q0 18 33 22t91.5 6t140 6.5t180.5 24.5q35 -2 47 -7t12 -11q0 -12 -17.5 -23.5t-19.5 -11.5q-117 0 -172 -3t-77.5 -6.5t-23.5 -5.5t-7 -2q-2 1 -41 7q-20 0 -31.5 -2.5t-21 -4.5t-19.5 -4t-31 -2q-43 0 -43 17z" />
<glyph unicode="&#xb0;" horiz-adv-x="651" d="M55 1032q0 25 15.5 65t45 78.5t72.5 67.5t99 29h13t13 -2q137 -4 208 -64.5t71 -201.5q0 -47 -20.5 -89.5t-54.5 -73t-79 -48t-94 -17.5q-43 0 -94 15.5t-94 47t-72 80t-29 113.5zM98 1018q0 -35 16.5 -72t48.5 -66.5t77 -48t102 -18.5q92 0 153.5 57.5t61.5 153.5 q0 100 -55.5 156.5t-141.5 56.5h-24q-8 0 -15.5 1t-15.5 1q-51 0 -90 -18.5t-64.5 -49t-39 -70.5t-13.5 -83z" />
<glyph unicode="&#xb1;" horiz-adv-x="686" d="M80 45q4 16 23.5 20.5t84.5 4.5q41 0 101.5 -1t152.5 -1q14 0 21.5 1t13.5 3t13.5 3t19.5 1q18 0 40.5 -2t22.5 -13q0 -10 -10 -19t-12 -9h-154.5t-80 -1t-30.5 -2t-7.5 -2t-10.5 -1h-39h-29.5t-15.5 -1t-14 -1h-29q-18 0 -39.5 3t-21.5 17zM109 573q0 10 22.5 12.5 t40.5 2.5q12 0 19.5 -1t13.5 -3t13 -3t22 -1h86q0 8 -1 9t-2 4t-1 13v35v29.5t-1.5 15.5t-1.5 14.5v28.5q0 18 3.5 40t17.5 22q23 -8 22 -115v-96h127q66 0 87.5 -4.5t25.5 -18.5q0 -14 -21.5 -17t-39.5 -3q-43 0 -71 1t-46 2t-31.5 2t-30.5 1v-115q0 -14 1.5 -21.5 t3.5 -13.5t3 -13t1 -20q0 -18 -2 -40.5t-13 -22.5q-10 0 -19 10t-9 12v145.5t-2 80.5h-195q-2 0 -12 9t-10 19z" />
<glyph unicode="&#xb2;" horiz-adv-x="575" d="M74 727q0 25 5 43t17.5 36.5t30.5 39t47 49.5q37 39 83 62.5t85 46t65.5 48t26.5 68.5q0 66 -34.5 118t-116.5 52q-4 0 -24 -5t-26 -5q-45 -6 -64 -21.5t-26.5 -31t-9.5 -27.5t-12 -12t-24.5 6t-16.5 16q0 18 17.5 39t45 38.5t59 29.5t62.5 12q61 0 98 -13t57.5 -28.5 t29 -29t8.5 -15.5q10 -35 17 -55.5t11 -31.5t5.5 -15t1.5 -8q0 -6 -2.5 -32t-14.5 -65q-8 -25 -62.5 -51.5t-117 -61t-112.5 -82.5t-50 -116v-20q10 -23 22.5 -30t28.5 -7q14 0 34 2t48 2q23 0 48.5 -4t58.5 -4q23 0 47 2t45 2q16 0 24.5 -3t8.5 -18q0 -12 -16.5 -19 t-43 -11.5t-57.5 -6.5t-62 -2q-66 0 -112.5 -1t-76.5 8.5t-43 35t-13 76.5z" />
<glyph unicode="&#xb3;" horiz-adv-x="542" d="M68 672v11t2 18.5t6 17.5t12 8t9 -20.5t11.5 -46t39 -46t94.5 -20.5q49 0 79.5 10t49 27.5t25.5 40t7 47.5q0 80 -33.5 117.5t-74.5 55t-75 23t-34 19.5q0 20 15.5 28.5t40 13.5t51 11t51.5 25.5t40 54.5t15 96q0 39 -11 60.5t-28.5 32t-40 13.5t-47.5 3 q-53 0 -80.5 -25.5t-42 -56.5t-24.5 -56.5t-31 -25.5q-10 0 -12 11l-4 22q0 4 9 20.5t17 36.5q6 18 14.5 37.5t25 37t45 28t75.5 10.5q117 0 163 -32t46 -108q0 -12 -1 -24t-3 -27q0 -63 -33 -97t-72.5 -51.5t-74.5 -22.5t-37 -9q-4 -4 27.5 -3t71.5 -10.5t73 -41t33 -92.5 q-2 -47 -5 -90.5t-23.5 -77t-65 -54t-130.5 -20.5q-80 0 -122.5 35t-42.5 86z" />
<glyph unicode="&#xb4;" horiz-adv-x="1705" d="M569 1176q0 8 4.5 12t15.5 10t29.5 16.5t47.5 28.5q27 18 39 36.5t18 34t11 26t20 10.5q6 0 11 -7.5t7 -16.5t2 -13l2 -13v-2q0 -4 1 -6t1 -6q0 -6 -13 -19.5t-67 -49.5q-12 -10 -22 -23.5t-21.5 -26t-24 -20.5t-30.5 -8q-16 0 -23.5 14t-7.5 23z" />
<glyph unicode="&#xb5;" horiz-adv-x="1755" />
<glyph unicode="&#xb6;" horiz-adv-x="874" d="M45 971q0 123 43 196.5t119 83.5q-2 0 27.5 4.5t66.5 4.5h22.5t22.5 -3h258q23 0 68 3.5t86 3.5q35 0 58.5 -4.5t23.5 -14.5v-2q-6 -25 -7.5 -30t-3.5 -5h-104q2 -20 3 -49t1 -69q0 -10 -2 -77t-6 -166t-8 -220t-8.5 -241t-6.5 -226.5t-2 -177.5q0 -90 -2 -128t-24 -38 q-10 0 -19.5 14t-9.5 45t2 103.5t6 168t8.5 200t8.5 195.5t6 157.5t2 86.5q0 12 -2 23.5t-2 60.5q0 29 1 64t1 68.5t1 60.5t1 41q0 16 -2 43t-2 61q-37 0 -74 -1t-65.5 -1h-48h-21.5h-39v-241v-74t2 -55q-10 -193 -10 -372t-1 -317.5t-6.5 -221.5t-25.5 -83q-31 0 -31 97 q0 43 7.5 105t7.5 124v96q0 8 1 53t2 107.5t3 131.5t2 122q-8 -8 -37 -8h-54t-75 4t-72 13t-45 28q-10 14 -15 18t-8.5 18.5t-7.5 48.5t-10 109q-2 16 -3 31.5t-1 30.5z" />
<glyph unicode="&#xb7;" horiz-adv-x="313" d="M74 733h2l41 -12q18 8 41 8q41 0 60.5 -30.5t19.5 -69.5q0 -14 -10.5 -23.5t-24 -17.5t-23.5 -14.5t-10 -12.5t8 -12q-12 -6 -22 -6q-29 0 -49.5 34.5t-20.5 69.5q0 16 7 28.5t7 20.5q0 10 -13 21.5t-13 15.5z" />
<glyph unicode="&#xb8;" horiz-adv-x="575" d="M156 -254q2 10 10 10q16 0 23.5 -12t17.5 -27.5t31.5 -28t68.5 -12.5h12q6 0 28 -2t26 -2q51 6 62 31t11 39q-2 45 -11 57.5t-28.5 19.5t-49 21.5t-70.5 61.5q-25 29 -35 49t-10 33q0 16 10 22t20 6q23 0 23 -14q0 -6 -1 -12t-1 -11q0 -53 30.5 -75.5t66.5 -37 t66.5 -31.5t30.5 -60q0 -10 -1 -17.5t-1 -11.5q0 -12 -4 -31.5t-18 -38t-43 -32t-80 -13.5q-31 0 -62.5 12.5t-59.5 30t-45 38t-17 38.5z" />
<glyph unicode="&#xb9;" horiz-adv-x="413" d="M66 1155q0 4 1 7t1 5t13 31t34.5 67t48 76.5t55.5 61.5v8q4 16 29 16q18 0 22 -12v4q8 0 9 -149q0 -16 -2.5 -44t-4.5 -55.5t-4 -49t-2 -27.5q0 -88 -1 -133.5t-4 -66t-5 -26.5l-5 -15t-4 -31.5t-1 -76.5h39q47 0 60 -10t13 -20q0 -14 -2 -18.5t-39 -4.5h-96q-4 0 -7 -2 t-7 -2q-6 0 -8 6h-21q-23 0 -42 -3t-32 -3q-20 0 -20 12q0 2 1 4.5t1 4.5q6 25 7 29.5t3 4.5h94v9q0 45 5.5 72.5t11.5 50t11 43t5 49.5q0 12 -2 23t-2 61q0 29 1 63.5t1 68.5t1 60.5t1 40.5q0 10 -1 22.5t-1 28.5q-12 -16 -29.5 -48t-37 -64.5t-39 -57t-35.5 -24.5 q-14 0 -14 14z" />
<glyph unicode="&#xba;" horiz-adv-x="505" d="M76 932q0 14 2 51t3 79t3 81t2 57q0 27 2 55.5t14.5 53t38 40t74.5 15.5q55 0 105.5 -22.5t62.5 -59.5q6 -16 10 -14t8.5 -4.5t10.5 -33t12 -102.5q2 -16 3 -31.5t1 -29.5v-67.5t1 -19.5t1 -11v-39q0 -111 -6 -176.5t-27.5 -98t-62.5 -42t-109 -9.5q-47 0 -75.5 17.5 t-44 45t-20.5 61.5t-5 69q0 33 2 60.5t2 45.5q0 29 -8 29zM121 903q0 -94 18.5 -147.5t45 -79t57 -30.5t55.5 -5q18 0 34.5 7t29 32t19.5 70t7 118q0 117 -7 195t-20.5 125t-30 69.5t-33.5 32.5t-36.5 11.5t-36.5 7.5q-59 0 -77.5 -26t-18.5 -64q0 -27 4 -55.5t4 -57.5 q0 -31 -2 -45t-5 -31.5t-5 -44.5t-2 -82z" />
<glyph unicode="&#xbb;" horiz-adv-x="985" d="M82 844q0 4 11 10t26 6q10 0 16 -2q37 -16 50.5 -23.5t21.5 -12.5t21.5 -11t50.5 -20q45 -16 66.5 -29.5t37.5 -25t34.5 -21.5t55.5 -23q82 -29 109.5 -75t27.5 -105q0 -29 -22.5 -57.5t-53 -54t-63.5 -48t-51 -39.5l-129 -71q-18 0 -41 -14.5t-45.5 -33t-45 -33 t-42.5 -14.5q-29 0 -29 27t25 39q53 31 71.5 41t24.5 13t15 6t44 18q37 14 50.5 23.5t20.5 16.5t19.5 16t49.5 26q29 12 54 23.5t44.5 27.5t31 39.5t11.5 64.5q0 33 -20.5 57.5t-64.5 49t-111.5 56.5t-159.5 81q-31 14 -51.5 19.5t-34 10.5t-19.5 12t-6 30zM410 926q0 4 9 5 t21 1q21 0 31 -2q12 -2 18.5 -8.5t16.5 -17.5t28.5 -23.5t55.5 -26.5q45 -16 70.5 -29.5t45 -27t40 -27.5t55.5 -33q76 -43 106.5 -105.5t30.5 -119.5q0 -29 -21.5 -62.5t-51 -64.5t-61.5 -57.5t-50 -42.5l-138 -115q-14 -10 -35.5 -22.5t-45 -24.5t-44 -20.5t-32.5 -8.5 q-18 0 -27.5 9.5t-9.5 19.5q0 16 18 29q53 31 71.5 41t25 13t15.5 6t44 17q37 14 51.5 27.5t23.5 27t21.5 29t46.5 37.5q4 2 26.5 17.5t47.5 39t44.5 55.5t19.5 66q0 20 -10.5 50t-33 61t-58.5 60.5t-87 50.5l-50 20t-29.5 13.5t-35 18.5t-63.5 34q-31 14 -50.5 22 t-30.5 16.5t-15 18.5t-4 33z" />
<glyph unicode="&#xbc;" horiz-adv-x="1007" d="M66 53q0 12 17 37t50 82q20 45 41 76t46.5 69.5t61 100t91.5 168.5q10 20 27.5 50t36 58.5t32.5 52t20 33.5q16 31 40 98.5t57 131.5l110 254q14 35 25.5 47t21.5 12q8 0 15.5 -9t11.5 -19.5t6 -20.5l2 -10q-57 -113 -114.5 -229.5t-103.5 -212t-75.5 -157t-31.5 -63.5 l-23 -36q-24 -36 -58 -89t-72 -115.5t-64 -117.5q-14 -29 -27.5 -68t-27 -73.5t-30 -58.5t-38.5 -24q-23 0 -35 14.5t-12 18.5zM66 1094q0 4 1 7t1 5t15 33.5t32 56.5q8 12 18 33.5t20.5 45t22.5 46t23 35.5v14q4 16 28 16q18 0 23 -12v4q8 0 8 -149q0 -16 -2 -44t-4 -55.5 t-4 -49t-2 -27.5q0 -84 -1 -125t-4 -59.5t-5.5 -22.5t-5.5 -10.5t-4 -24.5t-1 -66h33q37 0 48 -10t11 -20q0 -14 -1 -18.5t-35 -4.5h-80q-4 0 -7.5 -2t-7.5 -2q-6 0 -8 6h-20q-23 0 -38.5 -3t-25.5 -3t-10 10q0 6 2 11q6 25 7 29.5t3 4.5h74v9q0 45 5 72.5t11.5 50t11.5 43 t5 49.5q0 12 -2 23t-2 61q0 59 2 111t2 81v19q-12 -20 -25.5 -51t-29 -61t-33 -50.5t-35.5 -20.5q-14 0 -14 15zM559 231q0 14 4 19q2 6 15.5 28.5t29 48t27.5 45.5l12 21q6 12 24.5 41t43 67t53.5 79t54.5 74.5t45 56t29.5 22.5q2 0 2 -1t2 -1h2q18 0 23 -12v4q8 0 8 -150 q0 -49 -2 -80.5t-4 -59t-4 -60.5t-2 -86v-19q23 -2 28.5 -9t5.5 -17q0 -6 -2 -11.5t-2 -7.5q-4 -2 -10 -2h-20v-158v-34.5t2 -24.5q-14 -8 -27 -8q-20 0 -20 4q0 8 5 29.5t5 56.5q0 33 -1 54.5t-2 34.5t-3 23.5t-2 22.5h-48.5t-48 1t-41 1h-26.5q-23 0 -55.5 -4t-57.5 -4 q-20 0 -27 2h-4q-12 0 -12 14zM627 268q20 0 43.5 -1t46 -2t41 -2t24.5 -1q8 0 36 1t56 3v88q0 29 2.5 64t4.5 67.5t4 59.5t2 41q0 10 -3 27.5t-5 37.5q-23 -27 -51.5 -62.5t-56.5 -73.5t-53.5 -77t-39.5 -71q-10 -23 -23.5 -49.5t-27.5 -49.5z" />
<glyph unicode="&#xbd;" horiz-adv-x="958" d="M63 10q0 8 8.5 15.5t12.5 17.5q6 14 7 34.5t26 63.5q20 45 35.5 73t36 63.5t51 94t86.5 165.5q10 20 28.5 55t38 69.5t34.5 64.5t22 40q16 31 49.5 81t66.5 114l172 382q16 35 26.5 47.5t20.5 12.5q8 0 15.5 -9.5t11.5 -19.5t6 -19t2 -12q-55 -111 -123.5 -230.5 t-127 -224t-98.5 -180t-40 -94.5v-4l-22 -42q-23 -42 -56 -102t-69.5 -129t-63.5 -124q-14 -29 -27.5 -68t-26.5 -73.5t-29.5 -58t-39.5 -23.5q-14 0 -23.5 7t-9.5 13zM72 709v6q6 25 7 30t3 5h115v8q0 45 2 72.5t4 50t4 43t2 49.5q0 12 -2 23.5t-2 60.5q0 29 1 63.5t1 68.5 t1 60.5t1 40.5v13q-10 -16 -24.5 -46t-30 -59t-33 -50.5t-35.5 -21.5q-14 0 -14 15q0 4 1 6t1 4q2 -2 15 28.5t32.5 71.5t42 81t41.5 57v8q4 16 28 16q18 0 23 -12v4q2 -12 4 -31q2 -16 3 -39.5t1 -58.5q0 -49 -2 -81t-4 -59.5t-4 -60.5t-2 -86v-237h43q57 0 73.5 -10.5 t16.5 -20.5q0 -6 -2 -11.5t-2 -9.5q-4 -2 -12 -2h-31q-37 0 -85 1t-69 1q-23 0 -46 -3t-40 -3q-27 0 -26 15zM532 594q0 2 4.5 17.5t12.5 31.5t18.5 31.5t20.5 17.5q16 2 25.5 10.5t17.5 15.5t18 13t31 6q61 0 98 -13t57.5 -28.5t28.5 -29t8 -15.5q6 -20 8.5 -36.5 t2.5 -32.5q0 -35 -4.5 -86.5t-26.5 -92.5q-55 -94 -96 -137t-67.5 -63.5t-40 -31.5t-13.5 -42q0 -16 1 -29.5t3 -27.5q4 -12 36 -16.5t113 -4.5q23 0 47.5 2t45.5 2q6 0 19 -1t13 -15q-6 -25 -7 -30t-3 -5q-29 0 -58.5 -1t-57 -1t-47 -1t-25.5 -1q-29 0 -49.5 1t-36.5 7h-4 q-16 0 -35 30t-19 77q0 25 8.5 40t21.5 31.5t30.5 37t38.5 55.5q2 6 2 4t8 5t28.5 32.5t65.5 85.5q29 39 40 76.5t11 66.5q0 45 -11 71.5t-25.5 40t-30 16.5t-21.5 3q-10 0 -21.5 -2t-25.5 -2q-45 0 -70.5 -18.5t-40 -41t-20.5 -41t-12 -18.5q-10 0 -11 13.5t-4 23.5z" />
<glyph unicode="&#xbe;" horiz-adv-x="1017" d="M55 672q0 -51 43 -86t123 -35q86 0 130 20.5t64.5 54t23.5 77t5 90.5q0 63 -32.5 92.5t-72.5 41t-71.5 10.5t-27.5 3q2 4 36.5 9t74.5 22.5t73 51.5t33 97q2 14 3 26.5t1 24.5q0 76 -46 108t-163 32q-47 0 -76 -10.5t-45 -28t-24.5 -36.5t-14.5 -38q-8 -20 -17 -36.5 t-9 -20.5q2 -10 4 -21.5t12 -11.5q20 0 30.5 25.5t25 56.5t42 56.5t80.5 25.5q25 0 47.5 -3t40 -13.5t28.5 -32t11 -60.5q0 -61 -15.5 -96t-40 -54.5t-51 -25.5t-51 -11t-40 -13.5t-15.5 -28.5q0 -14 34 -19.5t75 -23t74.5 -55t33.5 -117.5q0 -25 -7 -47.5t-25.5 -40 t-49 -27.5t-80.5 -10q-66 0 -94.5 20.5t-38.5 46t-11 46t-9 20.5t-12.5 -8t-6.5 -17.5t-2 -18.5v-11zM223 53q0 12 17.5 37t50.5 82q20 45 40.5 76t46 69.5t61.5 100t91 168.5q10 20 27.5 50t36 58.5t33 52t20.5 33.5q16 31 40 98.5t56 131.5l111 254q14 35 25.5 47t21.5 12 q8 0 15.5 -9t11.5 -19.5t6 -20.5l2 -10q-57 -113 -114.5 -229.5t-103.5 -212t-76 -157t-32 -63.5l-24 -36q-23 -36 -56.5 -89t-71.5 -115.5t-65 -117.5q-14 -29 -27.5 -68t-26.5 -73.5t-29.5 -58.5t-39.5 -24t-35 14.5t-12 18.5zM553 231q0 -14 12 -14h4q6 -2 27 -2 q25 0 57.5 4t55.5 4h26.5t41 -1t48 -1h47.5q0 -12 2.5 -22.5t3.5 -23.5t2 -34.5t1 -54.5q0 -35 -5.5 -56.5t-5.5 -29.5q0 -4 21 -4q12 0 27 8q-2 10 -2.5 24.5t-0.5 34.5v158h21q6 0 10 2q0 2 2 7.5t2 11.5q0 10 -6 17t-29 9v19q0 53 2.5 86t4.5 60.5t4 59t2 80.5 q0 150 -8 150v-4q-4 12 -23 12h-2q-2 0 -2 1t-2 1q-10 0 -29.5 -22.5t-45 -56t-54.5 -74.5t-53.5 -79t-43 -66.5t-24.5 -41.5l-13 -21q-12 -20 -27 -45.5t-28.5 -48t-15.5 -28.5q-4 -4 -4 -19zM621 268q14 23 27.5 49.5t23.5 49.5q14 33 39.5 71.5t53.5 76.5t56.5 74 t50.5 62q2 -20 5.5 -37.5t3.5 -27.5q0 -14 -2 -41t-4.5 -59.5t-4.5 -67.5t-2 -64v-88q-29 -2 -56.5 -3t-35.5 -1q-6 0 -24.5 1t-41 2t-46 2t-43.5 1z" />
<glyph unicode="&#xbf;" horiz-adv-x="518" d="M45 -111q4 131 36 241t67.5 194t65.5 143t30 90q0 23 -1 32t-3 15t-3 13.5t-1 23.5q6 33 6 66q0 29 -4.5 59.5t-4.5 73.5q0 33 23 32q14 0 27.5 -13t13.5 -36q0 -10 -2 -16q2 -10 4 -22.5t4 -31t3 -45t1 -65.5q0 -33 -11 -85t-50 -146q-37 -88 -62.5 -145.5t-43 -110 t-26 -111.5t-8.5 -149q0 -25 5.5 -54.5t20.5 -54.5t44 -41t76 -16q57 0 94 38.5t60 86.5q25 53 38 125q4 10 11 10q8 0 14 -9.5t8 -21.5t3 -23.5t1 -17.5q0 -35 -11 -78t-37.5 -79.5t-71 -61.5t-109.5 -25h-13.5t-13.5 2q-8 -2 -24 -2q-78 0 -117 64.5t-39 150.5zM199 1008 q0 18 8 30.5t20.5 20.5t24.5 11t20 3q2 0 4.5 -1t4.5 -1h2l-4 -4h4q10 0 23 -24.5t13 -49.5q0 -27 -19 -35t-36 -8q-41 0 -53 20.5t-12 37.5z" />
<glyph unicode="&#xc0;" horiz-adv-x="608" d="M57 14q0 -41 5.5 -52t11.5 -11t17 2t24 10q-2 23 -2 57.5v100.5q0 45 9 149.5t21.5 231.5t21.5 256t9 225v53q14 -6 53 -6h29t60.5 1t67.5 1h50q6 -102 12.5 -221t12.5 -242t12 -242.5t12 -222.5q-4 -8 -4 -12q2 -2 2 -4q4 -8 4 -12l9 -111q4 -39 28.5 -64.5t73.5 -25.5 q37 0 62.5 15.5t35.5 50.5q0 25 -22 24q-4 0 -11.5 -7t-15.5 -14t-15 -14.5t-14 -7.5q-6 -2 -16 -2q-35 0 -43 31t-16 67q-4 45 -10.5 90.5t-11.5 95.5t-9 111.5t-4 139.5q0 18 -3 82.5t-7 151.5t-9.5 186.5t-10.5 189.5t-9 160.5t-4 99.5q0 16 -16.5 34.5t-42 34t-58.5 26 t-65 10.5q-29 0 -58.5 -10.5t-52.5 -35.5q-31 -33 -38 -132t-7 -238q0 -23 3 -30t3 -17q0 -20 -5 -90t-13.5 -165.5t-18.5 -206t-18 -209.5t-13.5 -176t-5.5 -106zM147 1753q0 16 13.5 23.5t23.5 7.5q8 0 12.5 -4t10.5 -15.5t17.5 -29t29.5 -43.5q25 -35 48.5 -49.5 t40.5 -21.5t28.5 -14.5t11.5 -25.5q0 -8 -18 -8q-12 0 -33 4q-9 2 -19 4q-10 8 -16 10t-10 2q-2 0 -3 -1t-3 -1q-4 0 -13.5 11.5t-40.5 54.5q-10 12 -23.5 22.5t-25.5 20.5t-21.5 22.5t-9.5 30.5zM176 1081q2 23 3 35t3 25.5t3 33t1 54.5q0 29 -3 51.5t-3 40.5q0 31 37 48 t70 17q12 0 31.5 -2t39 -7t37 -15t23.5 -27q12 -37 10 -93t4 -155h-4q-25 0 -81 -3t-132 -3h-39z" />
<glyph unicode="&#xc1;" horiz-adv-x="608" d="M57 14q0 -41 5.5 -52t11.5 -11t17 2t24 10q-2 23 -2 57.5v100.5q0 45 9 149.5t21.5 231.5t21.5 256t9 225v53q14 -6 53 -6h29t60.5 1t67.5 1h50q6 -102 12.5 -221t12.5 -242t12 -242.5t12 -222.5q-4 -8 -4 -12q2 -2 2 -4q4 -8 4 -12l9 -111q4 -39 28.5 -64.5t73.5 -25.5 q37 0 62.5 15.5t35.5 50.5q0 25 -22 24q-4 0 -11.5 -7t-15.5 -14t-15 -14.5t-14 -7.5q-6 -2 -16 -2q-35 0 -43 31t-16 67q-4 45 -10.5 90.5t-11.5 95.5t-9 111.5t-4 139.5q0 18 -3 82.5t-7 151.5t-9.5 186.5t-10.5 189.5t-9 160.5t-4 99.5q0 16 -16.5 34.5t-42 34t-58.5 26 t-65 10.5q-29 0 -58.5 -10.5t-52.5 -35.5q-31 -33 -38 -132t-7 -238q0 -23 3 -30t3 -17q0 -20 -5 -90t-13.5 -165.5t-18.5 -206t-18 -209.5t-13.5 -176t-5.5 -106zM170 1585q0 8 4 12.5t15.5 10.5t30 16t46.5 29q27 18 39 36.5t18.5 34t11.5 25.5t19 10q6 0 11.5 -7 t7.5 -16.5t3 -13.5l1 -12v-2q0 -4 1 -6t1 -6q0 -6 -13.5 -19.5t-66.5 -50.5q-12 -10 -22.5 -23.5t-21.5 -25.5t-23.5 -20.5t-30.5 -8.5q-16 0 -23.5 14.5t-7.5 22.5zM176 1081q2 23 3 35t3 25.5t3 33t1 54.5q0 29 -3 51.5t-3 40.5q0 31 37 48t70 17q12 0 31.5 -2t39 -7 t37 -15t23.5 -27q12 -37 10 -93t4 -155h-4q-25 0 -81 -3t-132 -3h-39z" />
<glyph unicode="&#xc2;" horiz-adv-x="608" d="M57 14q0 -41 5.5 -52t11.5 -11t17 2t24 10q-2 23 -2 57.5v100.5q0 45 9 149.5t21.5 231.5t21.5 256t9 225v53q14 -6 53 -6h29t60.5 1t67.5 1h50q6 -102 12.5 -221t12.5 -242t12 -242.5t12 -222.5q-4 -8 -4 -12q2 -2 2 -4q4 -8 4 -12l9 -111q4 -39 28.5 -64.5t73.5 -25.5 q37 0 62.5 15.5t35.5 50.5q0 25 -22 24q-4 0 -11.5 -7t-15.5 -14t-15 -14.5t-14 -7.5q-6 -2 -16 -2q-35 0 -43 31t-16 67q-4 45 -10.5 90.5t-11.5 95.5t-9 111.5t-4 139.5q0 18 -3 82.5t-7 151.5t-9.5 186.5t-10.5 189.5t-9 160.5t-4 99.5q0 16 -16.5 34.5t-42 34t-58.5 26 t-65 10.5q-29 0 -58.5 -10.5t-52.5 -35.5q-31 -33 -38 -132t-7 -238q0 -23 3 -30t3 -17q0 -20 -5 -90t-13.5 -165.5t-18.5 -206t-18 -209.5t-13.5 -176t-5.5 -106zM59 1563q0 14 16.5 33.5t39 40t47 39t41.5 34.5l71 55l2 2h9q41 0 69 -38q14 -23 42 -45.5t54.5 -46t46 -44 t19.5 -34.5q0 -10 -12 -15.5t-17 -5.5q-4 0 -8 2t-12 10.5t-21.5 25.5t-33.5 46q-27 37 -42.5 46t-27.5 11t-24.5 6.5t-30.5 32.5q-4 -12 -14.5 -18t-27 -14.5t-37 -22.5t-44.5 -41q-23 -27 -37 -42t-22.5 -23.5t-13.5 -10.5t-11 -2q-20 0 -21 19zM176 1081q2 23 3 35 t3 25.5t3 33t1 54.5q0 29 -3 51.5t-3 40.5q0 31 37 48t70 17q12 0 31.5 -2t39 -7t37 -15t23.5 -27q12 -37 10 -93t4 -155h-4q-25 0 -81 -3t-132 -3h-39z" />
<glyph unicode="&#xc3;" horiz-adv-x="608" d="M57 14q0 29 5.5 106t13.5 176t18 209.5t18.5 206t13.5 165t5 90.5q0 10 -3 17t-3 30q0 139 7 238.5t38 131.5q23 25 52.5 35.5t58.5 10.5q33 0 65.5 -10.5t58 -26t42 -34t16.5 -34.5q0 -29 4 -99.5t9 -160.5t10.5 -189.5t9.5 -186.5t7 -151.5t3 -82.5q0 -78 4 -139.5 t9 -111.5t11.5 -95.5t10.5 -90.5q8 -37 16 -67.5t43 -30.5q10 0 16 2q6 0 13.5 7.5t15.5 14.5t15.5 14t11.5 7q23 0 22 -24q-10 -35 -35.5 -50.5t-62.5 -15.5q-49 0 -73.5 25.5t-28.5 64.5l-9 111q0 4 -4 12q0 2 -2 4q0 4 4 12q-6 102 -12 222t-12 243t-12.5 242t-12.5 221 h-50t-67.5 -1t-60.5 -1h-29q-39 0 -53 6v-53q0 -96 -9 -225t-21.5 -256t-21.5 -231.5t-9 -149.5v-100.5t2 -57.5q-12 -8 -23.5 -10t-17.5 -2t-11.5 11t-5.5 52zM96 1534q0 55 27 93t86 38q31 0 56.5 -10t49 -24.5t44 -32t42.5 -31.5q8 -6 15 -6q8 0 16 10t18.5 26.5t24.5 36 t37 35.5q20 14 31 14q10 0 10 -12q0 -14 -14 -31q-47 -53 -75 -86.5t-54 -33.5q-14 0 -33 14q-43 35 -75 53.5t-53.5 27.5t-33.5 10t-20 1q-20 0 -33 -15.5t-19 -62.5q-6 -39 -28 -39q-18 0 -19 25zM176 1081h39q76 0 132 3t81 3h4q-6 98 -4 154.5t-10 93.5 q-6 16 -23.5 26.5t-37 15.5t-39 7t-31.5 2q-33 0 -70 -17t-37 -48q0 -18 3 -40.5t3 -51.5q0 -35 -1 -54.5t-3 -33t-3 -25.5t-3 -35z" />
<glyph unicode="&#xc4;" horiz-adv-x="608" d="M57 14q0 29 5.5 106t13.5 176t18 209.5t18.5 206t13.5 165t5 90.5q0 10 -3 17t-3 30q0 139 7 238.5t38 131.5q23 25 52.5 35.5t58.5 10.5q33 0 65.5 -10.5t58 -26t42 -34t16.5 -34.5q0 -29 4 -99.5t9 -160.5t10.5 -189.5t9.5 -186.5t7 -151.5t3 -82.5q0 -78 4 -139.5 t9 -111.5t11.5 -95.5t10.5 -90.5q8 -37 16 -67.5t43 -30.5q10 0 16 2q6 0 13.5 7.5t15.5 14.5t15.5 14t11.5 7q23 0 22 -24q-10 -35 -35.5 -50.5t-62.5 -15.5q-49 0 -73.5 25.5t-28.5 64.5l-9 111q0 4 -4 12q0 2 -2 4q0 4 4 12q-6 102 -12 222t-12 243t-12.5 242t-12.5 221 h-50t-67.5 -1t-60.5 -1h-29q-39 0 -53 6v-53q0 -96 -9 -225t-21.5 -256t-21.5 -231.5t-9 -149.5v-100.5t2 -57.5q-12 -8 -23.5 -10t-17.5 -2t-11.5 11t-5.5 52zM61 1612q0 23 16.5 48.5t33.5 25.5q18 0 31.5 -8.5t21.5 -20.5t11 -23.5t3 -17.5q0 -12 -4 -22.5t-8 -14.5 q-6 -8 -20.5 -18.5t-28.5 -10.5q-23 0 -39.5 19.5t-16.5 42.5zM176 1081h39q76 0 132 3t81 3h4q-6 98 -4 154.5t-10 93.5q-6 16 -23.5 26.5t-37 15.5t-39 7t-31.5 2q-33 0 -70 -17t-37 -48q0 -18 3 -40.5t3 -51.5q0 -35 -1 -54.5t-3 -33t-3 -25.5t-3 -35zM381 1608 q0 10 9 24.5t22.5 26.5t28 21.5t24.5 9.5q12 0 21.5 -10.5t16.5 -25t11 -26.5t4 -16q0 -14 -9 -25.5t-20.5 -21t-22.5 -14.5t-15 -5q-20 0 -34 12.5t-16 16.5q-4 4 -12 16.5t-8 16.5z" />
<glyph unicode="&#xc5;" horiz-adv-x="608" d="M57 14q0 -41 5.5 -52t11.5 -11t17 2t24 10q-2 23 -2 57.5v100.5q0 45 9 149.5t21.5 231.5t21.5 256t9 225v53q14 -6 53 -6h29t60.5 1t67.5 1h50q6 -102 12.5 -221t12.5 -242t12 -242.5t12 -222.5q-4 -8 -4 -12q2 -2 2 -4q4 -8 4 -12l9 -111q4 -39 28.5 -64.5t73.5 -25.5 q37 0 62.5 15.5t35.5 50.5q0 25 -22 24q-4 0 -11.5 -7t-15.5 -14t-15 -14.5t-14 -7.5q-6 -2 -16 -2q-35 0 -43 31t-16 67q-4 45 -10.5 90.5t-11.5 95.5t-9 111.5t-4 139.5q0 18 -3 82.5t-7 151.5t-9.5 186.5t-10.5 189.5t-9 160.5t-4 99.5q0 16 -16.5 34.5t-42 34t-58.5 26 t-65 10.5q-29 0 -58.5 -10.5t-52.5 -35.5q-31 -33 -38 -132t-7 -238q0 -23 3 -30t3 -17q0 -20 -5 -90t-13.5 -165.5t-18.5 -206t-18 -209.5t-13.5 -176t-5.5 -106zM131 1649q0 14 10.5 40.5t32 54.5t56 48t81.5 20q72 0 140 -59q16 -23 26 -47.5t10 -52.5q0 -14 -11 -48 t-32.5 -70t-55.5 -62.5t-77 -26.5q-25 0 -46 11t-37.5 25.5t-28 29t-15.5 20.5q-10 12 -31.5 44t-21.5 73zM166 1665q0 -25 13.5 -54.5t33.5 -56t46 -44t50 -17.5q27 0 51.5 19.5t41 44t26.5 50t10 38.5q1 30 -22 65q-63 51 -117 51q-20 0 -44 -8t-43 -21.5t-32.5 -31 t-13.5 -35.5zM176 1081q2 23 3 35t3 25.5t3 33t1 54.5q0 29 -3 51.5t-3 40.5q0 31 37 48t70 17q12 0 31.5 -2t39 -7t37 -15t23.5 -27q12 -37 10 -93t4 -155h-4q-25 0 -81 -3t-132 -3h-39z" />
<glyph unicode="&#xc6;" horiz-adv-x="733" d="M57 55q0 29 5.5 102.5t13.5 169t18 200t18.5 195.5t13.5 157.5t5 87.5q0 12 -2 23t-2 61q0 66 2 111.5t4 84.5t4 77t2 87q4 16 21 16q14 0 29.5 -1t29.5 -1q59 0 105.5 1t76.5 1h25q29 2 67.5 4.5t92.5 2.5q33 0 64.5 -5.5t31.5 -23.5q0 -27 -10 -27q-68 0 -128.5 3 t-88.5 3q-18 0 -19 -2v-14v-49t-1 -31.5t-3 -62.5t-6 -144h154q23 0 42 3t31 3q18 0 19 -14v-6q-6 -25 -7 -30t-3 -5h-47t-62 -1t-54.5 -1h-25.5q-29 0 -37 2h-12q-4 -98 -8 -220t-8.5 -241.5t-6.5 -228.5t-2 -180v-109q31 -6 103 -6q31 0 65.5 3t73.5 11q4 0 12 -16l9 -16 v-9q0 -10 -5.5 -15t-24 -8t-53 -3h-96.5h-114q-2 -2 -9 -2q-6 0 -11 11t-5 52q0 29 2 102.5t6 169t8.5 200t8.5 195.5t6 157.5t2 87.5q0 10 -2 20t-2 45q-25 0 -49.5 -1t-46 -1h-35h-15.5q-39 0 -53 6v-53q0 -96 -9 -219t-21.5 -242t-21.5 -217t-9 -143v-100.5t2 -57.5 q-12 -8 -23.5 -10t-17.5 -2t-11.5 11t-5.5 52zM176 1081q57 0 107.5 1t89.5 1v90t1 73t2 67t1 73q-33 2 -67 2.5t-44 0.5t-36.5 -3.5t-47.5 -5.5q2 -18 3 -44.5t1 -65.5q0 -35 -1 -60.5t-3 -47t-3 -40t-3 -41.5z" />
<glyph unicode="&#xc7;" horiz-adv-x="552" d="M80 246q0 66 4 175t8 236t8 260.5t4 247.5q0 33 8.5 71t21.5 71.5t30.5 59.5t34.5 36q23 16 65.5 23.5t87.5 7.5q59 0 106.5 -13.5t47.5 -42.5q0 -12 -8 -22q-29 4 -58 10q-25 4 -56.5 7t-59.5 3q-33 0 -59.5 -5t-41.5 -19q-20 -18 -48 -65.5t-28 -92.5q0 -76 -1 -171 t-4 -194.5t-5 -196.5t-5 -179t-4 -142.5t-1 -85.5q0 -66 20.5 -99.5t48 -49t57.5 -18.5t48 -7q70 10 110 14.5t62 4.5q20 0 25.5 -3.5t5.5 -11.5q0 -18 -40 -32.5t-132 -18.5q0 -4 -1 -9t-1 -9q0 -53 30.5 -76t66.5 -37t66.5 -31.5t30.5 -60.5q0 -10 -1 -17.5t-1 -11.5 q0 -12 -4 -31.5t-18.5 -38t-43 -31.5t-79.5 -13q-31 0 -62.5 12t-59.5 29.5t-45 38t-17 38.5q2 10 10 11q16 0 23 -12.5t17.5 -28t32 -27.5t68.5 -12h12q6 0 28 -2t26 -2q51 6 62 30.5t11 38.5q-2 45 -11 57.5t-28.5 19.5t-49 21.5t-70.5 61.5q-25 29 -35 49.5t-10 32.5 q0 6 2 10q-55 2 -92 20.5t-57.5 39t-30 38t-9.5 19.5q-8 23 -10 55.5t-2 69.5z" />
<glyph unicode="&#xc8;" horiz-adv-x="530" d="M76 461q0 -92 7 -176t27.5 -148.5t53.5 -103.5t86 -39h98q37 0 59.5 1t34 4t14.5 8t3 13v9q0 2 -2.5 17t-18.5 15q-39 -4 -79 -9t-78 -5q-35 0 -64 31t-49.5 76t-32.5 96t-12 94q0 72 4 165t10 194.5t12.5 208t10.5 204.5q20 -4 49 -4h39q10 0 51 -1t82 -1q31 0 46 -1 t22.5 1t10.5 10t9 29v6q0 14 -18 14q-12 0 -32 -3t-42 -3h-215q4 98 6 141.5t3 60.5t1 26.5v40.5v12q0 2 29 2q20 0 52 -1t68.5 -2t74.5 -2t73 -1q10 0 10 26q0 14 -17.5 20.5t-42 9.5t-53 3h-53.5q-57 0 -102 -2t-49 -2h-2q0 -4 -14.5 -4h-24.5q-4 0 -7 1t-5 1q0 -41 2 -74 t2 -53q0 -14 -1 -41t-1 -60.5t-1 -68.5t-1 -63q0 -49 2 -60.5t2 -23.5q0 -27 -6.5 -86.5t-12.5 -140.5t-12 -174t-6 -187zM104 1753q0 16 13.5 23.5t23.5 7.5q8 0 12.5 -4t10.5 -15.5t17.5 -29t29.5 -43.5q25 -35 48.5 -49.5t40.5 -21.5t28.5 -14.5t11.5 -25.5q0 -8 -18 -8 q-12 0 -33 4q-9 2 -19 4q-10 8 -16 10t-10 2q-2 0 -3 -1t-3 -1q-4 0 -13.5 11.5t-40.5 54.5q-10 12 -23.5 22.5t-25.5 20.5t-21.5 22.5t-9.5 30.5z" />
<glyph unicode="&#xc9;" horiz-adv-x="530" d="M76 461q0 -92 7 -176t27.5 -148.5t53.5 -103.5t86 -39h98q37 0 59.5 1t34 4t14.5 8t3 13v9q0 2 -2.5 17t-18.5 15q-39 -4 -79 -9t-78 -5q-35 0 -64 31t-49.5 76t-32.5 96t-12 94q0 72 4 165t10 194.5t12.5 208t10.5 204.5q20 -4 49 -4h39q10 0 51 -1t82 -1q31 0 46 -1 t22.5 1t10.5 10t9 29v6q0 14 -18 14q-12 0 -32 -3t-42 -3h-215q4 98 6 141.5t3 60.5t1 26.5v40.5v12q0 2 29 2q20 0 52 -1t68.5 -2t74.5 -2t73 -1q10 0 10 26q0 14 -17.5 20.5t-42 9.5t-53 3h-53.5q-57 0 -102 -2t-49 -2h-2q0 -4 -14.5 -4h-24.5q-4 0 -7 1t-5 1q0 -41 2 -74 t2 -53q0 -14 -1 -41t-1 -60.5t-1 -68.5t-1 -63q0 -49 2 -60.5t2 -23.5q0 -27 -6.5 -86.5t-12.5 -140.5t-12 -174t-6 -187zM125 1585q0 8 4 12.5t15.5 10.5t30 16t46.5 29q27 18 39 36.5t18.5 34t11.5 25.5t19 10q6 0 11.5 -7t7.5 -16.5t2 -13.5l2 -12v-2q0 -4 1 -6t1 -6 q0 -6 -13.5 -19.5t-66.5 -50.5q-12 -10 -22.5 -23.5t-21.5 -25.5t-23.5 -20.5t-30.5 -8.5q-16 0 -23.5 14.5t-7.5 22.5z" />
<glyph unicode="&#xca;" horiz-adv-x="530" d="M14 1563q0 14 16.5 33.5t39 40t47 39t41.5 34.5l71 55l2 2h9q41 0 69 -38q14 -23 42 -45.5t54.5 -46t46 -44t19.5 -34.5q0 -10 -12.5 -15.5t-16.5 -5.5t-8 2t-12 10.5t-21.5 25.5t-33.5 46q-27 37 -42.5 46t-27.5 11t-24.5 6.5t-30.5 32.5q-4 -12 -14.5 -18t-27 -14.5 t-37 -22.5t-44.5 -41q-23 -27 -37 -42t-22.5 -23.5t-13.5 -10.5t-11 -2q-20 0 -21 19zM76 461q0 -92 7 -176t27.5 -148.5t53.5 -103.5t86 -39h98q37 0 59.5 1t34 4t14.5 8t3 13v9q0 2 -2.5 17t-18.5 15q-39 -4 -79 -9t-78 -5q-35 0 -64 31t-49.5 76t-32.5 96t-12 94 q0 72 4 165t10 194.5t12.5 208t10.5 204.5q20 -4 49 -4h39q10 0 51 -1t82 -1q31 0 46 -1t22.5 1t10.5 10t9 29v6q0 14 -18 14q-12 0 -32 -3t-42 -3h-215q4 98 6 141.5t3 60.5t1 26.5v40.5v12q0 2 29 2q20 0 52 -1t68.5 -2t74.5 -2t73 -1q10 0 10 26q0 14 -17.5 20.5t-42 9.5 t-53 3h-53.5q-57 0 -102 -2t-49 -2h-2q0 -4 -14.5 -4h-24.5q-4 0 -7 1t-5 1q0 -41 2 -74t2 -53q0 -14 -1 -41t-1 -60.5t-1 -68.5t-1 -63q0 -49 2 -60.5t2 -23.5q0 -27 -6.5 -86.5t-12.5 -140.5t-12 -174t-6 -187z" />
<glyph unicode="&#xcb;" horiz-adv-x="530" d="M16 1612q0 23 16.5 48.5t33.5 25.5q18 0 31.5 -8.5t21.5 -20.5t11 -23.5t3 -17.5q0 -12 -4 -22.5t-8 -14.5q-6 -8 -20.5 -18.5t-28.5 -10.5q-23 0 -39.5 19.5t-16.5 42.5zM76 461q0 94 6 187t12 174t12.5 140.5t6.5 86.5q0 12 -2 23t-2 61q0 29 1 63.5t1 68t1 60.5t1 41 q0 20 -2 53t-2 74q2 0 5 -1t7 -1h24.5t14.5 4h2q4 0 49 2t102 2h53.5t53 -3t42 -9t17.5 -21q0 -27 -10 -26q-35 0 -73 1t-74.5 2t-68.5 2t-52 1q-29 0 -29 -2v-12v-40.5t-1 -26.5t-3 -60t-6 -142h215q23 0 42 3t32 3q18 0 18 -14v-6q-6 -20 -9 -28.5t-10.5 -10.5t-22.5 -1 t-46 1q-41 0 -82 1t-51 1h-39q-29 0 -49 4q-4 -98 -10.5 -204.5t-12.5 -208t-10 -194.5t-4 -165q0 -43 12 -94t32.5 -96t49.5 -76t64 -31q39 0 78.5 5t78.5 9q16 0 18.5 -15t2.5 -17v-9q0 -8 -3 -13t-14.5 -8t-34 -4t-59.5 -1h-98q-53 0 -86 39t-53.5 103.5t-27.5 148.5 t-7 176zM336 1608q0 10 9 24.5t22.5 26.5t28 21.5t24.5 9.5q12 0 21.5 -10.5t16.5 -25t11 -26.5t4 -16q0 -14 -9 -25.5t-20.5 -21t-22.5 -14.5t-15 -5q-20 0 -34 12.5t-16 16.5q-4 4 -12 16.5t-8 16.5z" />
<glyph unicode="&#xcc;" horiz-adv-x="479" d="M27 8q0 -16 45 -16q25 0 55.5 3t52.5 3h21q2 -6 8 -6q14 0 24 6q31 -2 67 -2h65h38q9 0 15 2v39q0 8 -39 10t-78 2h-53v113q0 72 2 178t6 226t8 241t8 220t6.5 166t2.5 77q0 35 -1 61.5t-4 44.5q45 2 91.5 2h74.5q2 0 3 5.5t8 29.5v4q0 16 -45 17q-27 0 -56.5 -3.5 t-52.5 -3.5h-238v-38q0 -8 39 -10.5t76 -2.5h45q0 -29 2 -52.5t2 -39.5q0 -14 -1 -40.5t-1 -60.5t-1 -69t-1 -63q0 -49 2 -60.5t2 -23.5q0 -20 -2 -87t-6 -158t-8 -195.5t-8 -200t-6 -169t-2 -102.5v-8h-156q-2 0 -3 -5t-7 -30v-4zM94 1753q0 16 13.5 23.5t23.5 7.5 q8 0 12 -4t10.5 -15.5t17.5 -29t30 -43.5q25 -35 48 -49.5t40.5 -21.5t29 -14.5t11.5 -25.5q0 -8 -19 -8q-12 0 -32 4q-9 2 -19 4q-10 8 -16 10t-11 2q-2 0 -3 -1t-3 -1q-4 0 -13 11.5t-40 54.5q-10 12 -23.5 22.5t-25.5 20.5t-21.5 22.5t-9.5 30.5z" />
<glyph unicode="&#xcd;" horiz-adv-x="479" d="M27 8q0 -16 45 -16q25 0 55.5 3t52.5 3h21q2 -6 8 -6q14 0 24 6q31 -2 67 -2h65h38q9 0 15 2v39q0 8 -39 10t-78 2h-53v113q0 72 2 178t6 226t8 241t8 220t6.5 166t2.5 77q0 35 -1 61.5t-4 44.5q45 2 91.5 2h74.5q2 0 3 5.5t8 29.5v4q0 16 -45 17q-27 0 -56.5 -3.5 t-52.5 -3.5h-238v-38q0 -8 39 -10.5t76 -2.5h45q0 -29 2 -52.5t2 -39.5q0 -14 -1 -40.5t-1 -60.5t-1 -69t-1 -63q0 -49 2 -60.5t2 -23.5q0 -20 -2 -87t-6 -158t-8 -195.5t-8 -200t-6 -169t-2 -102.5v-8h-156q-2 0 -3 -5t-7 -30v-4zM117 1585q0 8 4 12.5t15 10.5t29.5 16 t47.5 29q27 18 39 36.5t18 34t11.5 25.5t19.5 10q6 0 11 -7t7.5 -16.5t2.5 -13.5l2 -12v-2q0 -4 1 -6t1 -6q0 -6 -13.5 -19.5t-66.5 -50.5q-12 -10 -22.5 -23.5t-22 -25.5t-23.5 -20.5t-31 -8.5q-16 0 -23 14.5t-7 22.5z" />
<glyph unicode="&#xce;" horiz-adv-x="479" d="M6 1563q0 14 16.5 33.5t39 40t47 39t41.5 34.5l71 55l2 2h8q41 0 70 -38q14 -23 42 -45.5t54.5 -46t46 -44t19.5 -34.5q0 -10 -12.5 -15.5t-16.5 -5.5t-8 2t-12 10.5t-21.5 25.5t-34.5 46q-27 37 -42 46t-27.5 11t-24.5 6.5t-31 32.5q-4 -12 -14 -18t-26.5 -14.5 t-37 -22.5t-44.5 -41q-23 -27 -37.5 -42t-22.5 -23.5t-13 -10.5t-11 -2q-20 0 -21 19zM27 8q0 -16 45 -16q25 0 55.5 3t52.5 3h21q2 -6 8 -6q14 0 24 6q31 -2 67 -2h65h38q9 0 15 2v39q0 8 -39 10t-78 2h-53v113q0 72 2 178t6 226t8 241t8 220t6.5 166t2.5 77q0 35 -1 61.5 t-4 44.5q45 2 91.5 2h74.5q2 0 3 5.5t8 29.5v4q0 16 -45 17q-27 0 -56.5 -3.5t-52.5 -3.5h-238v-38q0 -8 39 -10.5t76 -2.5h45q0 -29 2 -52.5t2 -39.5q0 -14 -1 -40.5t-1 -60.5t-1 -69t-1 -63q0 -49 2 -60.5t2 -23.5q0 -20 -2 -87t-6 -158t-8 -195.5t-8 -200t-6 -169 t-2 -102.5v-8h-156q-2 0 -3 -5t-7 -30v-4z" />
<glyph unicode="&#xcf;" horiz-adv-x="479" d="M8 1612q0 23 16.5 48.5t32.5 25.5q18 0 31.5 -8.5t22 -20.5t11.5 -23.5t3 -17.5q0 -12 -4 -22.5t-8 -14.5q-6 -8 -20.5 -18.5t-29.5 -10.5q-23 0 -39 19.5t-16 42.5zM27 8v4q6 25 7 30t3 5h156v8q0 29 2 102.5t6 169t8 200t8 195.5t6 157.5t2 87.5q0 12 -2 23t-2 61 q0 29 1 63.5t1 68.5t1 60.5t1 40.5q0 16 -2 40t-2 52h-45q-37 0 -76 2t-39 11v38h238q23 0 52.5 3.5t56.5 3.5q45 0 45 -17v-4q-6 -25 -7.5 -30t-3.5 -5h-74.5t-91.5 -2q2 -18 3.5 -44.5t1.5 -61.5q0 -10 -2.5 -77t-6.5 -166t-8 -220t-8 -241t-6 -226.5t-2 -177.5v-113h53 q39 0 78 -2t39 -10v-39q-6 -2 -15 -2h-38h-65t-67 2q-10 -6 -24 -6q-6 0 -8 6h-21q-23 0 -53.5 -3t-54.5 -3q-45 0 -45 16zM328 1608q0 10 9 24.5t22.5 26.5t27.5 21.5t25 9.5q12 0 21 -10.5t16.5 -25t11.5 -26.5t4 -16q0 -14 -9.5 -25.5t-20.5 -21t-22.5 -14.5t-15.5 -5 q-20 0 -33.5 12.5t-15.5 16.5q-4 4 -12 16.5t-8 16.5z" />
<glyph unicode="&#xd0;" horiz-adv-x="706" d="M23 670q6 29 26 28q16 0 35.5 -3t34.5 -3q14 0 23.5 1t16.5 3t15 5.5t23 5.5q4 94 7 166.5t3 93.5q0 12 -2 23t-2 61q0 29 1 63.5t1 68.5t1 60.5t1 40.5q0 20 -2 53t-2 74q2 0 5 -1t7 -1h24.5t14.5 4h2q4 0 24.5 2t50 5t64.5 6.5t70 3.5q55 0 86 -25t45 -55.5t17 -59 t3 -37.5q0 -27 -1 -61.5t-3 -70.5t-3 -68.5t-1 -55.5q0 -16 1 -23t2 -14.5t2 -17.5t1 -33t-1 -75t-1 -119.5t-2 -143t-2 -141t-1 -115t-1 -63.5q0 -35 -8 -72t-21.5 -69.5t-30 -58t-32.5 -38.5q-23 -16 -60.5 -20t-78.5 -4q-53 0 -97.5 5t-52.5 5q-12 -4 -19 -6t-16 -2 q-6 0 -11 11t-5 52q0 27 2 90.5t5 147.5t6 178t8 182q-20 -6 -49 -11t-78 -5q-18 0 -31.5 7t-13.5 26zM229 55q20 -4 64.5 -9t91.5 -5q35 0 62.5 5t41.5 20q8 8 21.5 26.5t25 40t19.5 46t8 46.5q0 33 1 104.5t3 167t3 208t1 225.5q0 154 -2 243t-2 117q0 37 -19.5 64.5 t-86.5 27.5q-88 0 -141.5 -7t-53.5 -13v-12q0 -16 -2 -43t-5 -93.5t-7 -184.5t-10 -316q14 0 31.5 1t39.5 1q61 0 89 -6.5t28 -18.5q0 -10 -14.5 -20.5t-24.5 -10.5q-37 0 -62.5 7.5t-45.5 7.5q-25 0 -43 -6q-2 -74 -4.5 -145.5t-3.5 -137.5t-2 -123t-1 -100v-107z" />
<glyph unicode="&#xd1;" horiz-adv-x="604" d="M82 1534q0 55 26.5 93t86.5 38q31 0 56 -10t49 -24.5t44.5 -32t42.5 -31.5q8 -6 14 -6q8 0 16.5 10t18.5 26.5t24.5 36t37.5 35.5q20 14 30 14t11 -12q0 -14 -15 -31q-47 -53 -74.5 -86.5t-54.5 -33.5q-14 0 -33 14q-43 35 -74.5 53.5t-53 27.5t-34 10t-20.5 1 q-20 0 -32.5 -15.5t-18.5 -62.5q-6 -39 -29 -39q-18 0 -18 25zM88 1051q0 66 2 111.5t4 84.5t4 77t2 87q4 16 21 16h2q10 -2 18 -4t15.5 -5t15.5 -7q14 -8 46 -46t65.5 -82t62.5 -82t35 -46q10 -10 31.5 -45t44.5 -63q-2 84 -2 150.5v113.5q0 94 2 94q12 8 22 10t17 2 q8 0 13 -11t5 -52q0 -29 -1 -102.5t-2 -169t-3 -200t-3 -195.5t-2 -158.5t-1 -86.5q0 -12 2 -23t2 -61q0 -66 -2 -111.5t-4 -84.5t-4 -77t-2 -87q-4 -16 -21 -16q-16 0 -18 12v-6q-8 0 -9 151q0 49 2.5 81t4.5 59.5t4 60.5t2 86v283.5t-2 257.5q-16 16 -43 51t-56.5 77 t-61.5 87t-57.5 83t-42 61.5t-18.5 25.5l-35 20q4 -23 4 -48.5v-53.5q0 -41 -3 -67.5t-6 -50.5t-5 -45.5t-2 -51.5q0 -16 1 -32.5t3 -39.5q10 -131 14.5 -257t4.5 -241q0 -104 -2 -192t-7 -154q-4 -76 -8 -135q-12 -8 -23.5 -10t-17.5 -2q-2 0 -2 10q0 14 2 39t5 53.5 t5.5 55t2.5 43.5q0 29 -1.5 92t-3.5 142t-4 166t-4 164t-3 133t-1 77q0 12 -2 23t-2 61z" />
<glyph unicode="&#xd2;" horiz-adv-x="655" d="M80 246q0 -37 2 -70t10 -55q0 -2 9.5 -20.5t33 -40t62.5 -39t100 -17.5q63 0 100 6q37 2 66 26.5t48 59.5t29.5 77t10.5 77q0 113 4 246t8 261t8 236.5t4 175.5q0 35 -2 69t-10 56q0 2 -10 20.5t-32.5 40t-61.5 39t-101 17.5q-25 0 -48 -2t-46 -6h-2q-45 0 -74.5 -23.5 t-48 -59.5t-27 -77t-8.5 -78q0 -115 -4 -248t-8 -260t-8 -236.5t-4 -174.5zM123 207q0 25 2 85t4 142t6 180.5t6 199.5t4 199.5t2 180.5q0 20 4.5 46t18.5 49.5t40 43t66 27.5h35.5t42.5 4q25 -6 55.5 -7t56.5 -13.5t44 -43t18 -96.5q0 -23 -1 -81t-4 -140t-5 -181.5 t-5 -200.5t-4 -199.5t-1 -180.5q0 -20 -5 -49t-17.5 -55.5t-35 -47t-59.5 -22.5h-20.5t-20.5 4q-2 0 -2 -2q-10 2 -22.5 2h-24.5q-16 4 -47 7t-59.5 16.5t-50 43t-21.5 89.5zM174 1753q0 16 13.5 23.5t23.5 7.5q8 0 12 -4t10.5 -15.5t17.5 -29t30 -43.5q25 -35 48 -49.5 t40.5 -21.5t29 -14.5t11.5 -25.5q0 -8 -19 -8q-12 0 -33 4q-8 2 -18 4q-10 8 -16.5 10t-10.5 2q-2 0 -3 -1t-3 -1q-4 0 -13 11.5t-40 54.5q-10 12 -23.5 22.5t-25.5 20.5t-21.5 22.5t-9.5 30.5z" />
<glyph unicode="&#xd3;" horiz-adv-x="655" d="M80 246q0 -37 2 -70t10 -55q0 -2 9.5 -20.5t33 -40t62.5 -39t100 -17.5q63 0 100 6q37 2 66 26.5t48 59.5t29.5 77t10.5 77q0 113 4 246t8 261t8 236.5t4 175.5q0 35 -2 69t-10 56q0 2 -10 20.5t-32.5 40t-61.5 39t-101 17.5q-25 0 -48 -2t-46 -6h-2q-45 0 -74.5 -23.5 t-48 -59.5t-27 -77t-8.5 -78q0 -115 -4 -248t-8 -260t-8 -236.5t-4 -174.5zM123 207q0 25 2 85t4 142t6 180.5t6 199.5t4 199.5t2 180.5q0 20 4.5 46t18.5 49.5t40 43t66 27.5h35.5t42.5 4q25 -6 55.5 -7t56.5 -13.5t44 -43t18 -96.5q0 -23 -1 -81t-4 -140t-5 -181.5 t-5 -200.5t-4 -199.5t-1 -180.5q0 -20 -5 -49t-17.5 -55.5t-35 -47t-59.5 -22.5h-20.5t-20.5 4q-2 0 -2 -2q-10 2 -22.5 2h-24.5q-16 4 -47 7t-59.5 16.5t-50 43t-21.5 89.5zM195 1585q0 8 4 12.5t15 10.5t29.5 16t47.5 29q27 18 39 36.5t18 34t11.5 25.5t19.5 10q6 0 11 -7 t7 -16.5t3 -13.5l1 -12v-2q0 -4 1 -6t1 -6q0 -6 -13 -19.5t-66 -50.5q-12 -10 -22.5 -23.5t-22 -25.5t-23.5 -20.5t-31 -8.5q-16 0 -23 14.5t-7 22.5z" />
<glyph unicode="&#xd4;" horiz-adv-x="655" d="M80 246q0 -37 2 -70t10 -55q0 -2 9.5 -20.5t33 -40t62.5 -39t100 -17.5q63 0 100 6q37 2 66 26.5t48 59.5t29.5 77t10.5 77q0 113 4 246t8 261t8 236.5t4 175.5q0 35 -2 69t-10 56q0 2 -10 20.5t-32.5 40t-61.5 39t-101 17.5q-25 0 -48 -2t-46 -6h-2q-45 0 -74.5 -23.5 t-48 -59.5t-27 -77t-8.5 -78q0 -115 -4 -248t-8 -260t-8 -236.5t-4 -174.5zM102 1563q0 14 16.5 33.5t39 40t47 39t41.5 34.5l71 55l2 2h9q41 0 69 -38q14 -23 42 -45.5t54.5 -46t46 -44t19.5 -34.5q0 -10 -12 -15.5t-17 -5.5q-4 0 -8 2t-12 10.5t-21.5 25.5t-33.5 46 q-27 37 -42.5 46t-27.5 11t-24.5 6.5t-30.5 32.5q-4 -12 -14.5 -18t-27 -14.5t-37 -22.5t-44.5 -41q-23 -27 -37 -42t-22.5 -23.5t-13.5 -10.5t-11 -2q-20 0 -21 19zM123 207q0 25 2 85t4 142t6 180.5t6 199.5t4 199.5t2 180.5q0 20 4.5 46t18.5 49.5t40 43t66 27.5h35.5 t42.5 4q25 -6 55.5 -7t56.5 -13.5t44 -43t18 -96.5q0 -23 -1 -81t-4 -140t-5 -181.5t-5 -200.5t-4 -199.5t-1 -180.5q0 -20 -5 -49t-17.5 -55.5t-35 -47t-59.5 -22.5h-20.5t-20.5 4q-2 0 -2 -2q-10 2 -22.5 2h-24.5q-16 4 -47 7t-59.5 16.5t-50 43t-21.5 89.5z" />
<glyph unicode="&#xd5;" horiz-adv-x="655" d="M80 246q0 66 4 175t8 236t8 260t4 248q0 37 8.5 78t27 77t48 59.5t74.5 23.5h2q23 4 46.5 6t47.5 2q61 0 100.5 -17.5t62 -39t32.5 -40t10 -20.5q8 -23 10 -56.5t2 -68.5q0 -68 -4 -176t-8 -236t-8 -261.5t-4 -245.5q0 -35 -10.5 -77t-29.5 -77t-48 -59.5t-66 -26.5 q-37 -6 -100 -6q-61 0 -100 17.5t-62.5 39t-33 40t-9.5 20.5q-8 23 -10 55.5t-2 69.5zM123 207q0 -59 21.5 -89t50 -43.5t59.5 -16.5t47 -7h24.5t22.5 -2q0 2 2 2q10 -4 20.5 -4h20.5q37 2 59.5 22.5t35 47t17.5 55.5t5 49q0 82 1 180.5t4 199.5t5 200.5t5 181.5t4 140.5 t1 80.5q0 66 -18 96.5t-44 43t-56.5 13.5t-55.5 7q-23 -4 -42 -4h-36q-41 -8 -66.5 -27.5t-39.5 -43t-18.5 -49.5t-4.5 -46q0 -82 -2 -180.5t-4 -199.5t-6 -199.5t-6 -180.5t-4 -142.5t-2 -84.5zM123 1534q0 55 26.5 93t86.5 38q31 0 56 -10t49 -24.5t44.5 -32t42.5 -31.5 q8 -6 14 -6q8 0 16.5 10t18.5 26.5t24.5 36t37.5 35.5q20 14 30 14t11 -12q0 -14 -15 -31q-47 -53 -74.5 -86.5t-54.5 -33.5q-14 0 -33 14q-43 35 -74.5 53.5t-53 27.5t-34 10t-20.5 1q-20 0 -32.5 -15.5t-18.5 -62.5q-6 -39 -29 -39q-18 0 -18 25z" />
<glyph unicode="&#xd6;" horiz-adv-x="655" d="M80 246q0 66 4 175t8 236t8 260t4 248q0 37 8.5 78t27 77t48 59.5t74.5 23.5h2q23 4 46.5 6t47.5 2q61 0 100.5 -17.5t62 -39t32.5 -40t10 -20.5q8 -23 10 -56.5t2 -68.5q0 -68 -4 -176t-8 -236t-8 -261.5t-4 -245.5q0 -35 -10.5 -77t-29.5 -77t-48 -59.5t-66 -26.5 q-37 -6 -100 -6q-61 0 -100 17.5t-62.5 39t-33 40t-9.5 20.5q-8 23 -10 55.5t-2 69.5zM123 207q0 -59 21.5 -89t50 -43.5t59.5 -16.5t47 -7h24.5t22.5 -2q0 2 2 2q10 -4 20.5 -4h20.5q37 2 59.5 22.5t35 47t17.5 55.5t5 49q0 82 1 180.5t4 199.5t5 200.5t5 181.5t4 140.5 t1 80.5q0 66 -18 96.5t-44 43t-56.5 13.5t-55.5 7q-23 -4 -42 -4h-36q-41 -8 -66.5 -27.5t-39.5 -43t-18.5 -49.5t-4.5 -46q0 -82 -2 -180.5t-4 -199.5t-6 -199.5t-6 -180.5t-4 -142.5t-2 -84.5zM127 1612q0 23 16.5 48.5t32.5 25.5q18 0 31.5 -8.5t22 -20.5t11.5 -23.5 t3 -17.5q0 -12 -4.5 -22.5t-8.5 -14.5q-6 -8 -20 -18.5t-29 -10.5q-23 0 -39 19.5t-16 42.5zM446 1608q0 10 9.5 24.5t23 26.5t27.5 21.5t24 9.5q12 0 21.5 -10.5t16.5 -25t11.5 -26.5t4.5 -16q0 -14 -9.5 -25.5t-20.5 -21t-22.5 -14.5t-15.5 -5q-20 0 -33.5 12.5 t-15.5 16.5q-4 4 -12.5 16.5t-8.5 16.5z" />
<glyph unicode="&#xd7;" horiz-adv-x="737" d="M78 889q0 14 11 22.5t22 8.5q14 0 72.5 -67t162.5 -177q18 23 41 46t49 50q14 14 41 43t56.5 58.5t56 52t39.5 22.5q12 0 12 -20q0 -10 -3 -21.5t-5 -13.5q-86 -86 -142.5 -150.5t-97.5 -115.5q23 -23 45.5 -47.5t48.5 -49.5q14 -14 44 -41.5t58.5 -57.5t51.5 -55.5 t23 -37.5t-19 -12q-10 0 -22.5 3t-12.5 5q-86 84 -145 144.5t-107 107.5q-47 -59 -76.5 -98t-66.5 -68q-12 -12 -22.5 -28.5t-21.5 -32t-24.5 -26.5t-29.5 -11q-14 0 -21.5 11t-7.5 19q0 14 12.5 21.5t24.5 19.5q41 41 80 100.5t106 141.5q-47 51 -76.5 87t-56.5 71 q-12 12 -28.5 22t-33 21.5t-27.5 23.5t-11 29z" />
<glyph unicode="&#xd8;" horiz-adv-x="772" d="M25 66q0 16 6 28l114 205q2 76 6.5 181.5t8.5 223t7 237.5t3 224q0 37 8 78t26.5 77t48.5 59.5t75 23.5h2q23 4 46 6t48 2q61 0 100 -17.5t61.5 -39t33 -40t10.5 -20.5q10 -31 10 -71q23 45 42 77.5t32 32.5q16 0 23 -13t7 -15q0 -20 -23.5 -56.5t-78.5 -130.5 q-2 -76 -6 -181.5t-8 -224t-7.5 -238.5t-3.5 -224q0 -35 -10 -77t-29.5 -77t-48 -59.5t-65.5 -26.5q-37 -6 -101 -6q-61 0 -100 17.5t-62.5 39t-32.5 40t-9 20.5q-12 33 -13 90l-51 -94q-23 -41 -37 -55.5t-22 -14.5q-10 0 -10 19zM188 207q0 -59 21.5 -89t50.5 -43.5 t59.5 -16.5t47.5 -7h24t23 -2q0 2 2 2q10 -4 20 -4h21q37 2 59.5 22.5t34.5 47t17 55.5t5 49q0 88 2.5 195.5t4.5 217t5 213t5 183.5q-31 -53 -67 -120.5t-81 -155.5q-10 -23 -25.5 -47.5t-30.5 -47t-27.5 -42t-18.5 -29.5q-8 -16 -23.5 -48t-36 -72t-41 -81t-36.5 -72 l-15 -24v-84zM193 387q39 74 71.5 138.5t58 112.5t40 76.5t16.5 30.5l21 32q20 32 48.5 81t62.5 107.5t62 113.5l19 39q2 29 2 51.5v34.5q0 66 -18.5 96.5t-44 43t-56.5 13.5t-55 7q-23 -4 -42.5 -4h-35.5q-41 -8 -66.5 -27.5t-40 -43t-18.5 -49.5t-4 -46q0 -90 -2 -195.5 t-5 -214t-7 -212t-6 -185.5z" />
<glyph unicode="&#xd9;" horiz-adv-x="655" d="M82 164q0 -37 2 -70t10 -55q0 -2 9.5 -20.5t33 -40t62.5 -39t100 -17.5q63 0 100 6q37 2 66 27t48 59.5t29.5 76.5t10.5 77q0 82 1 193.5t3 231.5t5 237.5t5 212t3 154.5t1 65q0 80 -8 124t-37 44q-4 0 -6 -5.5t-2 -21.5q0 -29 3 -100.5t3 -212.5q0 -92 -1 -195.5 t-4 -206t-5 -199t-5 -171t-4 -123t-1 -56.5q0 -6 -4 -33.5t-17.5 -58.5t-38 -55.5t-65.5 -24.5h-23l-4 2q-2 0 -2 -2q-31 4 -55.5 5t-47 8.5t-44 26t-47.5 54.5q-14 18 -18.5 70.5t-4.5 149.5q0 94 1 206.5t3 229.5t4 229.5t4 204.5t3.5 157.5t1.5 90.5q0 35 -21 35 q-8 0 -15.5 -14.5t-7.5 -49.5q0 -102 -2 -227t-4 -253t-6 -251t-6 -223.5t-4 -168t-2 -83.5zM190 1753q0 16 13.5 23.5t23.5 7.5q8 0 12.5 -4t10.5 -15.5t17.5 -29t29.5 -43.5q25 -35 48.5 -49.5t40.5 -21.5t28.5 -14.5t11.5 -25.5q0 -8 -18 -8q-12 0 -33 4q-9 2 -19 4 q-10 8 -16 10t-10 2q-2 0 -3 -1t-3 -1q-4 0 -13.5 11.5t-40.5 54.5q-10 12 -23.5 22.5t-25.5 20.5t-21.5 22.5t-9.5 30.5z" />
<glyph unicode="&#xda;" horiz-adv-x="655" d="M82 164q0 -37 2 -70t10 -55q0 -2 9.5 -20.5t33 -40t62.5 -39t100 -17.5q63 0 100 6q37 2 66 27t48 59.5t29.5 76.5t10.5 77q0 82 1 193.5t3 231.5t5 237.5t5 212t3 154.5t1 65q0 80 -8 124t-37 44q-4 0 -6 -5.5t-2 -21.5q0 -29 3 -100.5t3 -212.5q0 -92 -1 -195.5 t-4 -206t-5 -199t-5 -171t-4 -123t-1 -56.5q0 -6 -4 -33.5t-17.5 -58.5t-38 -55.5t-65.5 -24.5h-23l-4 2q-2 0 -2 -2q-31 4 -55.5 5t-47 8.5t-44 26t-47.5 54.5q-14 18 -18.5 70.5t-4.5 149.5q0 94 1 206.5t3 229.5t4 229.5t4 204.5t3.5 157.5t1.5 90.5q0 35 -21 35 q-8 0 -15.5 -14.5t-7.5 -49.5q0 -102 -2 -227t-4 -253t-6 -251t-6 -223.5t-4 -168t-2 -83.5zM225 1585q0 8 4 12.5t15.5 10.5t30 16t47.5 29q27 18 39 36.5t18 34t11 25.5t20 10q6 0 11 -7t7 -16.5t2 -13.5l2 -12v-2q0 -4 1 -6t1 -6q0 -6 -13 -19.5t-67 -50.5 q-12 -10 -22 -23.5t-21.5 -25.5t-24 -20.5t-30.5 -8.5q-16 0 -23.5 14.5t-7.5 22.5z" />
<glyph unicode="&#xdb;" horiz-adv-x="655" d="M82 164q0 -37 2 -70t10 -55q0 -2 9.5 -20.5t33 -40t62.5 -39t100 -17.5q63 0 100 6q37 2 66 27t48 59.5t29.5 76.5t10.5 77q0 82 1 193.5t3 231.5t5 237.5t5 212t3 154.5t1 65q0 80 -8 124t-37 44q-4 0 -6 -5.5t-2 -21.5q0 -29 3 -100.5t3 -212.5q0 -92 -1 -195.5 t-4 -206t-5 -199t-5 -171t-4 -123t-1 -56.5q0 -6 -4 -33.5t-17.5 -58.5t-38 -55.5t-65.5 -24.5h-23l-4 2q-2 0 -2 -2q-31 4 -55.5 5t-47 8.5t-44 26t-47.5 54.5q-14 18 -18.5 70.5t-4.5 149.5q0 94 1 206.5t3 229.5t4 229.5t4 204.5t3.5 157.5t1.5 90.5q0 35 -21 35 q-8 0 -15.5 -14.5t-7.5 -49.5q0 -102 -2 -227t-4 -253t-6 -251t-6 -223.5t-4 -168t-2 -83.5zM123 1567q0 14 16.5 33.5t39 40t47 39t40.5 34.5l72 55l2 3h8q41 0 70 -39q14 -23 41.5 -45.5t54.5 -46t46.5 -44t19.5 -34.5q0 -10 -12.5 -15.5t-16.5 -5.5t-8 2t-12.5 10.5 t-21.5 25.5t-34 46q-27 37 -42 46t-27.5 11.5t-24.5 6.5t-31 32q-4 -12 -14 -18t-26.5 -14.5t-37 -22.5t-45.5 -41q-23 -27 -37 -42t-22 -23.5t-13 -10.5t-12 -2q-20 0 -20 19z" />
<glyph unicode="&#xdc;" horiz-adv-x="655" d="M82 164q0 16 2 83.5t4 168t6 223.5t6 251t4 253t2 227q0 35 7.5 49.5t15.5 14.5q20 0 21 -35q0 -25 -1.5 -90.5t-3.5 -157.5t-4 -204.5t-4 -229.5t-3 -229.5t-1 -206.5q0 -96 4 -148.5t19 -71.5q27 -37 48 -55t43.5 -25.5t47 -8.5t55.5 -5q0 2 2 2l4 -2h23 q41 0 65.5 24.5t38 55.5t17.5 58.5t4 33.5q0 8 1 56.5t4 123t5 171t5 199t4 206t1 195.5q0 141 -3 212.5t-3 100.5q0 16 2 21.5t6 5.5q29 0 37 -44.5t8 -123.5q0 -4 -1 -64.5t-3 -155t-5 -212t-5 -237.5t-3 -231.5t-1 -193.5q0 -35 -10.5 -77t-29.5 -76.5t-48 -59.5t-66 -27 q-37 -6 -100 -6q-61 0 -100 17.5t-62.5 39t-33 40t-9.5 20.5q-8 23 -10 55.5t-2 69.5zM117 1612q0 23 16.5 48.5t32.5 25.5q18 0 31.5 -8.5t21.5 -20.5t11 -23.5t3 -17.5q0 -12 -4 -22.5t-8 -14.5q-6 -8 -20.5 -18.5t-28.5 -10.5q-23 0 -39 19.5t-16 42.5zM436 1608 q0 10 9.5 24.5t22.5 26.5t27.5 21.5t24.5 9.5q12 0 21.5 -10.5t16.5 -25t11 -26.5t4 -16q0 -14 -9 -25.5t-20.5 -21t-22.5 -14.5t-15 -5q-20 0 -33.5 12.5t-15.5 16.5q-4 4 -12.5 16.5t-8.5 16.5z" />
<glyph unicode="&#xdd;" d="M0 1413q2 -29 12.5 -55.5t22.5 -52t24.5 -52t18.5 -53.5q29 -127 64.5 -245.5t76.5 -241.5q8 -25 19.5 -47.5t17.5 -49.5v-57q0 -74 1 -170t6 -181t15.5 -144.5t28.5 -59.5q20 0 21 21q0 4 -2 8q-6 12 -9.5 57t-5.5 97.5t-4 98.5t-2 60l-8 148q-2 23 -3 28.5t-1 20.5 q0 10 4 15t4 34q0 6 -4 18q16 88 40.5 183.5t51.5 181.5q35 106 47.5 223t20.5 229q0 23 -21 23q-18 0 -20 -18q-8 -111 -24.5 -223.5t-43.5 -221.5q-16 -68 -38.5 -147.5t-37.5 -147.5q-18 37 -22 71t-19 68q-14 35 -27.5 68t-25.5 68q-31 84 -41 137t-20 104 q-6 27 -16.5 52.5t-22.5 51t-22.5 50t-14.5 53.5q-6 16 -23 17q-16 -1 -18 -19zM168 1585q0 8 4 12.5t15.5 10.5t30 16t46.5 29q27 18 39 36.5t18.5 34t11.5 25.5t19 10q6 0 11.5 -7t7.5 -16.5t3 -13.5l1 -12v-2q0 -4 1 -6t1 -6q0 -6 -13.5 -19.5t-66.5 -50.5 q-12 -10 -22.5 -23.5t-21.5 -25.5t-23.5 -20.5t-30.5 -8.5q-16 0 -23.5 14.5t-7.5 22.5z" />
<glyph unicode="&#xde;" horiz-adv-x="589" d="M70 1389q2 18 18 18t23 -16q2 -57 8 -113.5t12 -114.5q31 39 81 63.5t101 24.5q57 0 95 -43t62 -109.5t34 -146.5t10 -153q0 -96 -13.5 -189.5t-33.5 -181.5q-8 -33 -19.5 -79t-30 -89t-46 -72.5t-68.5 -29.5q-45 0 -93 15t-71 40q-2 -23 -6 -43t-4 -41q0 -61 6 -119v-4 q-2 -16 -18 -16q-23 0 -25 26.5t-2 46.5q0 59 9.5 119t9.5 125q0 35 1 84t3 103.5t3 111t1 105.5v159q-2 131 -21.5 260.5t-25.5 258.5zM143 1102l15 -232q2 -20 2 -39.5v-37.5q0 -72 -4 -140.5t-4 -140.5q0 -37 3 -74t3 -76q0 -41 -6 -79q10 -35 47 -61.5t77 -26.5 q37 0 65 29.5t49.5 76.5t36.5 108.5t24.5 124t13.5 122t4 104.5q0 102 -12 198q-12 31 -19.5 74t-21 83t-38 68.5t-67.5 28.5q-25 0 -52.5 -10t-51 -25.5t-40.5 -35t-24 -39.5z" />
<glyph unicode="&#xdf;" horiz-adv-x="743" d="M78 426q0 16 1 22.5t3 12.5t3 16t1 33t1 75t2 119.5t3 142.5t3 140.5t2 113.5t1 64q0 35 10.5 77t30 78t49 60.5t68.5 24.5q4 0 9 -1t9 -1q8 0 14.5 1t14.5 1q57 0 101.5 -25.5t74 -62.5t45 -78t15.5 -74q0 -45 -15.5 -106.5t-36 -119.5t-38 -104.5t-19.5 -60.5 q-4 -20 -4 -31q0 -31 12.5 -58.5t34.5 -59.5q16 -18 42 -26.5t51.5 -14.5t48 -15.5t34.5 -29.5q20 -37 32.5 -88.5t12.5 -147.5q0 -131 -49 -207t-135 -76q-129 0 -129 21q0 25 133 25q2 0 22.5 5t45 27.5t45 66.5t20.5 122q0 92 -7 142t-19.5 73.5t-31 28t-41 8.5t-50 13 t-58.5 44q-25 27 -37 63.5t-12 71.5q0 27 6 51q2 18 19.5 61.5t36 96.5t34 108.5t15.5 96.5q0 14 -4 31q-12 53 -37 94q-23 35 -58.5 64.5t-93.5 29.5q-55 0 -88 -18.5t-50 -44t-23.5 -55t-6.5 -52.5q0 -31 -1 -103.5t-3 -162.5t-4 -188.5t-4 -180.5t-3 -137t-1 -60 q0 -76 4 -120.5t8 -71.5t8.5 -42t4.5 -30q0 -45 -10.5 -69.5t-22.5 -24.5t-21.5 23.5t-9.5 70.5v92q0 31 -1 65t-3 66.5t-3 60.5t-1 44z" />
<glyph unicode="&#xe0;" d="M68 846q0 -61 20 -62q23 2 28 30t5 89q0 37 14.5 58.5t34.5 34t44 16.5t44 6q39 0 63.5 -27.5t38 -67.5t17.5 -87.5t4 -85.5q0 -35 -2 -73t-6 -85q-16 8 -48 17t-69 9q-86 0 -135 -75.5t-49 -206.5q0 -14 1 -29.5t3 -32.5q6 -76 11 -109.5t10 -47t9.5 -17.5t10.5 -20 q4 -12 16 -26.5t30.5 -27t41 -20.5t45.5 -8q59 0 94 12.5t51 26.5q14 -31 49 -31q47 0 63.5 27.5t16.5 42.5q0 14 -12 14q-10 -2 -14 -8t-7.5 -13.5t-9.5 -13.5t-18 -6q-23 0 -36 47t-13 107q0 16 2 55t3 81t3 80t2 52l-2 11q-2 10 -3 38.5t-2 79.5t-1 135q0 68 -4 127.5 t-19.5 104.5t-46.5 71.5t-84 26.5q-63 0 -101 -20.5t-58.5 -52t-27.5 -70.5t-7 -76zM119 352q0 76 19.5 121t44 66.5t46 27.5t23.5 6q25 0 60.5 -7t58.5 -11q-4 -49 -5 -111.5t-1 -146.5q0 -76 3 -133.5t13 -93.5q-25 -4 -58.5 -10.5t-46.5 -6.5q-33 4 -61.5 16.5t-50 44 t-33.5 88t-12 150.5zM129 1343q0 16 13.5 23.5t23.5 7.5q8 0 12 -4t10.5 -15.5t17.5 -28.5t30 -44q25 -35 48 -49t40.5 -21.5t29 -14.5t11.5 -26q0 -8 -19 -8q-12 0 -33 4q-8 2 -18 4q-10 8 -16.5 10.5t-10.5 2.5q-2 0 -3 -1t-3 -1q-4 0 -13 11t-40 54q-10 12 -23.5 22.5 t-26 20.5t-21.5 22.5t-9 30.5z" />
<glyph unicode="&#xe1;" d="M68 846q0 -61 20 -62q23 2 28 30t5 89q0 37 14.5 58.5t34.5 34t44 16.5t44 6q39 0 63.5 -27.5t38 -67.5t17.5 -87.5t4 -85.5q0 -35 -2 -73t-6 -85q-16 8 -48 17t-69 9q-86 0 -135 -75.5t-49 -206.5q0 -14 1 -29.5t3 -32.5q6 -76 11 -109.5t10 -47t9.5 -17.5t10.5 -20 q4 -12 16 -26.5t30.5 -27t41 -20.5t45.5 -8q59 0 94 12.5t51 26.5q14 -31 49 -31q47 0 63.5 27.5t16.5 42.5q0 14 -12 14q-10 -2 -14 -8t-7.5 -13.5t-9.5 -13.5t-18 -6q-23 0 -36 47t-13 107q0 16 2 55t3 81t3 80t2 52l-2 11q-2 10 -3 38.5t-2 79.5t-1 135q0 68 -4 127.5 t-19.5 104.5t-46.5 71.5t-84 26.5q-63 0 -101 -20.5t-58.5 -52t-27.5 -70.5t-7 -76zM119 352q0 76 19.5 121t44 66.5t46 27.5t23.5 6q25 0 60.5 -7t58.5 -11q-4 -49 -5 -111.5t-1 -146.5q0 -76 3 -133.5t13 -93.5q-25 -4 -58.5 -10.5t-46.5 -6.5q-33 4 -61.5 16.5t-50 44 t-33.5 88t-12 150.5zM150 1176q0 8 4 12t15 10t29.5 16.5t47.5 28.5q27 18 39 36.5t18 34t11 26t20 10.5q6 0 11 -7.5t7 -16.5t2 -13l2 -13v-2q0 -4 1 -6t1 -6q0 -6 -13 -19.5t-66 -49.5q-12 -10 -22.5 -23.5t-22 -26t-23.5 -20.5t-31 -8q-16 0 -23 14t-7 23z" />
<glyph unicode="&#xe2;" d="M39 1153q0 14 16.5 33.5t39 40t47 39t40.5 34.5l72 56l2 2h8q41 0 70 -39q14 -23 41.5 -45.5t54.5 -46t46.5 -44t19.5 -34.5q0 -10 -12.5 -15.5t-16.5 -5.5t-8 2.5t-12.5 10.5t-21.5 25.5t-34 45.5q-27 37 -42 46.5t-27.5 11.5t-24.5 6t-31 33q-4 -12 -14 -18.5 t-26.5 -14.5t-37 -22.5t-45.5 -41.5q-23 -27 -37 -42t-22 -23t-13 -10t-12 -2q-20 0 -20 18zM68 846q0 -61 20 -62q23 2 28 30t5 89q0 37 14.5 58.5t34.5 34t44 16.5t44 6q39 0 63.5 -27.5t38 -67.5t17.5 -87.5t4 -85.5q0 -35 -2 -73t-6 -85q-16 8 -48 17t-69 9 q-86 0 -135 -75.5t-49 -206.5q0 -14 1 -29.5t3 -32.5q6 -76 11 -109.5t10 -47t9.5 -17.5t10.5 -20q4 -12 16 -26.5t30.5 -27t41 -20.5t45.5 -8q59 0 94 12.5t51 26.5q14 -31 49 -31q47 0 63.5 27.5t16.5 42.5q0 14 -12 14q-10 -2 -14 -8t-7.5 -13.5t-9.5 -13.5t-18 -6 q-23 0 -36 47t-13 107q0 16 2 55t3 81t3 80t2 52l-2 11q-2 10 -3 38.5t-2 79.5t-1 135q0 68 -4 127.5t-19.5 104.5t-46.5 71.5t-84 26.5q-63 0 -101 -20.5t-58.5 -52t-27.5 -70.5t-7 -76zM119 352q0 76 19.5 121t44 66.5t46 27.5t23.5 6q25 0 60.5 -7t58.5 -11 q-4 -49 -5 -111.5t-1 -146.5q0 -76 3 -133.5t13 -93.5q-25 -4 -58.5 -10.5t-46.5 -6.5q-33 4 -61.5 16.5t-50 44t-33.5 88t-12 150.5z" />
<glyph unicode="&#xe3;" d="M33 1124q0 55 26.5 93t85.5 38q31 0 56.5 -10t49 -24.5t44 -32t43.5 -31.5q8 -6 14 -6q8 0 16.5 10t18.5 26.5t24.5 36t37.5 36.5q20 14 30 14t10 -12q0 -14 -14 -31q-47 -53 -74.5 -87t-54.5 -34q-14 0 -33 14q-43 35 -74.5 53.5t-53 27.5t-34 10.5t-20.5 1.5 q-20 0 -32.5 -15.5t-18.5 -62.5q-6 -39 -29 -39q-18 0 -18 24zM68 846q0 37 7 76t27.5 70.5t58.5 52t101 20.5q53 0 84 -26.5t46.5 -71.5t19.5 -104.5t4 -127.5q0 -84 1 -135t2 -79.5t3 -38.5l2 -11q0 -14 -2 -52t-3 -80t-3 -81t-2 -55q0 -59 13 -106.5t36 -47.5q12 0 18 6 t9.5 13.5t7.5 13.5t14 8q12 0 12 -14t-16 -42t-64 -28q-35 0 -49 31q-16 -14 -51 -26.5t-94 -12.5q-23 0 -45.5 8t-41 20.5t-30.5 27t-16 26.5q-6 16 -10.5 20t-9.5 17.5t-10 47.5t-11 109q-2 16 -3 32t-1 30q0 131 49 206.5t135 75.5q37 0 68.5 -9t48.5 -17q4 47 6 85t2 73 q0 39 -4 86t-17.5 87t-38 67.5t-63.5 27.5q-20 -2 -44 -6t-44 -16.5t-34.5 -34t-14.5 -58.5q0 -61 -5 -89t-28 -30q-20 1 -20 62zM119 352q0 -94 12 -150.5t33.5 -88t50.5 -44t61 -16.5q12 0 46 6.5t59 10.5q-10 37 -13 94t-3 133q0 84 1 146.5t5 111.5q-23 4 -59 11t-60 7 q-2 0 -23.5 -6t-46 -27.5t-44 -66.5t-19.5 -121z" />
<glyph unicode="&#xe4;" d="M20 1202q0 23 16.5 48.5t33.5 25.5q18 0 31.5 -8t21.5 -20.5t11 -24t3 -17.5q0 -12 -4 -22.5t-8 -14.5q-6 -8 -20.5 -18t-28.5 -10q-23 0 -39.5 19.5t-16.5 41.5zM68 846q0 37 7 76t27.5 70.5t58.5 52t101 20.5q53 0 84 -26.5t46.5 -71.5t19.5 -104.5t4 -127.5 q0 -84 1 -135t2 -79.5t3 -38.5l2 -11q0 -14 -2 -52t-3 -80t-3 -81t-2 -55q0 -59 13 -106.5t36 -47.5q12 0 18 6t9.5 13.5t7.5 13.5t14 8q12 0 12 -14t-16 -42t-64 -28q-35 0 -49 31q-16 -14 -51 -26.5t-94 -12.5q-23 0 -45.5 8t-41 20.5t-30.5 27t-16 26.5q-6 16 -10.5 20 t-9.5 17.5t-10 47.5t-11 109q-2 16 -3 32t-1 30q0 131 49 206.5t135 75.5q37 0 68.5 -9t48.5 -17q4 47 6 85t2 73q0 39 -4 86t-17.5 87t-38 67.5t-63.5 27.5q-20 -2 -44 -6t-44 -16.5t-34.5 -34t-14.5 -58.5q0 -61 -5 -89t-28 -30q-20 1 -20 62zM119 352q0 -94 12 -150.5 t33.5 -88t50.5 -44t61 -16.5q12 0 46 6.5t59 10.5q-10 37 -13 94t-3 133q0 84 1 146.5t5 111.5q-23 4 -59 11t-60 7q-2 0 -23.5 -6t-46 -27.5t-44 -66.5t-19.5 -121zM340 1198q0 10 9 24.5t22.5 27t28 21.5t24.5 9q12 0 21.5 -10t16.5 -24.5t11 -27t4 -16.5q0 -14 -9 -25.5 t-20.5 -20.5t-22.5 -14t-15 -5q-20 0 -34 12t-16 16q-4 4 -12 16.5t-8 16.5z" />
<glyph unicode="&#xe5;" d="M68 846q0 -61 20 -62q23 2 28 30t5 89q0 37 14.5 58.5t34.5 34t44 16.5t44 6q39 0 63.5 -27.5t38 -67.5t17.5 -87.5t4 -85.5q0 -35 -2 -73t-6 -85q-16 8 -48 17t-69 9q-86 0 -135 -75.5t-49 -206.5q0 -14 1 -29.5t3 -32.5q6 -76 11 -109.5t10 -47t9.5 -17.5t10.5 -20 q4 -12 16 -26.5t30.5 -27t41 -20.5t45.5 -8q59 0 94 12.5t51 26.5q14 -31 49 -31q47 0 63.5 27.5t16.5 42.5q0 14 -12 14q-10 -2 -14 -8t-7.5 -13.5t-9.5 -13.5t-18 -6q-23 0 -36 47t-13 107q0 16 2 55t3 81t3 80t2 52l-2 11q-2 10 -3 38.5t-2 79.5t-1 135q0 68 -4 127.5 t-19.5 104.5t-46.5 71.5t-84 26.5q-63 0 -101 -20.5t-58.5 -52t-27.5 -70.5t-7 -76zM72 1309q0 14 10 40.5t31.5 54.5t56.5 48.5t82 20.5q71 -1 139 -60q16 -23 26.5 -47.5t10.5 -52.5q0 -14 -11 -48t-33 -70t-55.5 -62.5t-76.5 -26.5q-25 0 -46.5 11t-37.5 25.5t-27.5 29 t-15.5 20.5q-10 12 -31.5 44t-21.5 73zM106 1325q0 -25 13.5 -54.5t34 -56t46 -44t50.5 -17.5q27 0 51.5 19.5t40.5 44t26.5 50t10.5 38.5q0 30 -23 65q-63 51 -116 51q-20 0 -44 -8t-43.5 -21.5t-33 -31t-13.5 -35.5zM119 352q0 76 19.5 121t44 66.5t46 27.5t23.5 6 q25 0 60.5 -7t58.5 -11q-4 -49 -5 -111.5t-1 -146.5q0 -76 3 -133.5t13 -93.5q-25 -4 -58.5 -10.5t-46.5 -6.5q-33 4 -61.5 16.5t-50 44t-33.5 88t-12 150.5z" />
<glyph unicode="&#xe6;" horiz-adv-x="802" d="M68 764q0 37 7 76t27.5 70.5t58.5 52t101 20.5q57 0 88 -27.5t47 -74.5q10 37 36 65.5t85 28.5q55 0 105.5 -22.5t62.5 -59.5q6 -16 10 -17.5t8.5 -10.5t10.5 -39.5t12 -106.5q2 -16 3 -31.5t1 -30.5q0 -131 -49 -186t-135 -55q-39 0 -70 9t-47 17q-4 -47 -6 -85t-2 -72 q0 -39 4 -82t17.5 -78t38 -58.5t63.5 -23.5q20 2 43.5 3t44 9t35 26.5t14.5 55.5q0 31 1 47.5t5 23.5t11.5 9t21.5 2q4 0 9 -2t5 -39t-7 -69.5t-27.5 -58t-58.5 -40t-101 -14.5q-53 0 -83 21.5t-46 60.5v-15q0 -6 -7.5 -17t-26 -21.5t-50 -18.5t-78.5 -8q-23 0 -45.5 8 t-41 20.5t-30.5 27t-16 26.5q-6 16 -10.5 20t-9.5 17.5t-10 47.5t-11 109q-2 16 -3 32t-1 30q0 131 49 206.5t135 75.5q41 0 71.5 -10t47.5 -18q4 25 5 47t1 51q0 39 -4 83t-17.5 81t-38 60.5t-63.5 23.5q-20 -2 -44 -6t-44 -16.5t-34.5 -34t-14.5 -58.5q0 -61 -5 -88.5 t-28 -30.5q-20 0 -20 62zM119 352q0 -94 12 -150.5t33.5 -88t50.5 -44t61 -16.5h18.5t30 3t31 8.5t21.5 15.5v2q4 16 4 27q0 35 -8 84t-8 104q0 98 2 157.5t6 100.5q-23 4 -58.5 11t-62.5 7q-2 0 -23.5 -6t-46 -27.5t-44 -66.5t-19.5 -121zM403 92q4 -4 5 -6q0 2 -1 4t-1 6 q0 -2 -1.5 -2t-1.5 -2zM430 836q0 -23 4 -57t4 -83q0 -43 -1 -72.5t-2 -54t-2 -46t-1 -46.5q20 -4 53 -10t60 -6q12 0 23.5 1t24.5 10t29.5 29.5t36.5 59.5q14 27 19.5 37t5.5 43q0 92 -14.5 145.5t-37 82t-50 37.5t-56.5 14q-10 0 -26.5 -3.5t-31.5 -12.5t-26.5 -25.5 t-11.5 -42.5z" />
<glyph unicode="&#xe7;" horiz-adv-x="489" d="M74 528q0 125 4 227.5t22.5 174t55.5 111.5t102 40q25 0 53.5 -3t55 -11t44 -23.5t17.5 -42.5q0 -10 -16 -12q-29 12 -58 23q-25 10 -53.5 17t-52.5 7q-14 0 -33.5 -18.5t-36 -49t-29 -69.5t-12.5 -78q0 -45 -2 -76.5t-5 -63.5t-5 -72t-2 -101q0 -78 2 -120t5 -64.5 t6 -33.5t3 -26q0 -18 7.5 -48t23.5 -57.5t39.5 -47t58.5 -19.5q27 0 42.5 8.5t27.5 19.5t26.5 19t36.5 8q33 0 33 -16q0 -8 -9 -22.5t-29.5 -30t-53.5 -26.5t-78 -11q-55 0 -91 37t-57.5 83t-29.5 87t-8 49v44t1 31.5t1 30v37.5q0 16 -1 23.5t-2 14.5t-2 17.5t-1 32.5z M143 -244q2 10 11 11q16 0 23 -12.5t17.5 -28t32 -27.5t68.5 -12h12q6 0 27.5 -2t25.5 -2q51 6 62.5 30.5t11.5 38.5q-2 45 -11 57.5t-28.5 19.5t-49.5 21.5t-71 61.5q-25 29 -35 49.5t-10 32.5q0 16 10.5 22.5t20.5 6.5q23 0 23 -15q0 -6 -1 -12t-1 -10q0 -53 30.5 -76 t66.5 -37t66.5 -31.5t30.5 -60.5q0 -10 -1 -17.5t-1 -11.5q0 -12 -4 -31.5t-18.5 -38t-43 -31.5t-79.5 -13q-31 0 -63 12t-59.5 29.5t-45 38t-17.5 38.5z" />
<glyph unicode="&#xe8;" horiz-adv-x="497" d="M76 563l2 -10t3 -39t2 -80t1 -135q0 -68 4 -127t19.5 -104t46 -72t84.5 -27q63 0 101 14.5t58.5 40t27.5 58.5t7 70t-5 39t-9 2q-14 0 -21.5 -2.5t-11.5 -9.5t-5 -23.5t-1 -46.5q0 -37 -14.5 -55.5t-35 -27t-44 -9.5t-43.5 -3q-39 0 -63.5 28t-38 68t-17.5 87t-4 86 q0 35 2 72.5t6 84.5q16 -8 47 -17t70 -9q86 0 135 75.5t49 206.5q0 14 -1 29.5t-3 32.5q-6 76 -12 109.5t-10.5 47t-8.5 17.5t-10 20q-12 37 -62.5 59.5t-105.5 22.5q-49 0 -74.5 -21.5t-38 -53t-14.5 -67.5t-2 -63q0 -18 -2 -57t-3 -81t-3 -78.5t-2 -51.5zM119 1290 q0 16 13 23.5t24 7.5q8 0 12 -4t10 -15.5t17.5 -29t29.5 -43.5q25 -35 48.5 -49.5t41 -21.5t28.5 -14t11 -26q0 -8 -18 -8q-12 0 -33 4q-8 2 -18 4q-10 8 -16.5 10t-10.5 2q-2 0 -3 -1t-3 -1q-4 0 -13.5 11.5t-39.5 54.5q-10 12 -23.5 22.5t-26 20.5t-21.5 22.5t-9 30.5z M127 889q0 31 11.5 49t26.5 27.5t31.5 12.5t26.5 3q33 -4 61.5 -16.5t50 -44t34 -88t12.5 -150.5q0 -78 -20.5 -122t-45 -66.5t-45 -27.5t-22.5 -5q-27 0 -61.5 6l-57.5 10q2 49 4 111.5t2 148.5q0 49 -4 86t-4 66z" />
<glyph unicode="&#xe9;" horiz-adv-x="497" d="M76 563l2 -10t3 -39t2 -80t1 -135q0 -68 4 -127t19.5 -104t46 -72t84.5 -27q63 0 101 14.5t58.5 40t27.5 58.5t7 70t-5 39t-9 2q-14 0 -21.5 -2.5t-11.5 -9.5t-5 -23.5t-1 -46.5q0 -37 -14.5 -55.5t-35 -27t-44 -9.5t-43.5 -3q-39 0 -63.5 28t-38 68t-17.5 87t-4 86 q0 35 2 72.5t6 84.5q16 -8 47 -17t70 -9q86 0 135 75.5t49 206.5q0 14 -1 29.5t-3 32.5q-6 76 -12 109.5t-10.5 47t-8.5 17.5t-10 20q-12 37 -62.5 59.5t-105.5 22.5q-49 0 -74.5 -21.5t-38 -53t-14.5 -67.5t-2 -63q0 -18 -2 -57t-3 -81t-3 -78.5t-2 -51.5zM127 889 q0 31 11.5 49t26.5 27.5t31.5 12.5t26.5 3q33 -4 61.5 -16.5t50 -44t34 -88t12.5 -150.5q0 -78 -20.5 -122t-45 -66.5t-45 -27.5t-22.5 -5q-27 0 -61.5 6l-57.5 10q2 49 4 111.5t2 148.5q0 49 -4 86t-4 66zM143 1155q0 8 4.5 12t15.5 10.5t29.5 16.5t47.5 29q27 18 39 36.5 t18 34t11 25.5t20 10q6 0 11 -7t7 -16.5t2 -13.5l2 -12v-2q0 -4 1 -6t1 -6q0 -6 -13 -19.5t-67 -50.5q-12 -10 -22 -23.5t-21.5 -25.5t-23.5 -20.5t-31 -8.5q-16 0 -23.5 14.5t-7.5 22.5z" />
<glyph unicode="&#xea;" horiz-adv-x="497" d="M10 1153q0 14 16.5 33.5t39 40t47 39t41.5 34.5l71 56l2 2h9q41 0 69 -39q14 -23 42 -45.5t54.5 -46t46 -44t19.5 -34.5q0 -10 -12.5 -15.5t-16.5 -5.5t-8 2.5t-12 10.5t-21.5 25.5t-34.5 45.5q-27 37 -42 46.5t-27 11.5t-24.5 6t-30.5 33q-4 -12 -14.5 -18.5t-27 -14.5 t-37 -22.5t-44.5 -41.5q-23 -27 -37.5 -42t-22.5 -23t-13 -10t-11 -2q-20 0 -21 18zM76 563l2 -10t3 -39t2 -80t1 -135q0 -68 4 -127t19.5 -104t46 -72t84.5 -27q63 0 101 14.5t58.5 40t27.5 58.5t7 70t-5 39t-9 2q-14 0 -21.5 -2.5t-11.5 -9.5t-5 -23.5t-1 -46.5 q0 -37 -14.5 -55.5t-35 -27t-44 -9.5t-43.5 -3q-39 0 -63.5 28t-38 68t-17.5 87t-4 86q0 35 2 72.5t6 84.5q16 -8 47 -17t70 -9q86 0 135 75.5t49 206.5q0 14 -1 29.5t-3 32.5q-6 76 -12 109.5t-10.5 47t-8.5 17.5t-10 20q-12 37 -62.5 59.5t-105.5 22.5q-49 0 -74.5 -21.5 t-38 -53t-14.5 -67.5t-2 -63q0 -18 -2 -57t-3 -81t-3 -78.5t-2 -51.5zM127 889q0 31 11.5 49t26.5 27.5t31.5 12.5t26.5 3q33 -4 61.5 -16.5t50 -44t34 -88t12.5 -150.5q0 -78 -20.5 -122t-45 -66.5t-45 -27.5t-22.5 -5q-27 0 -61.5 6l-57.5 10q2 49 4 111.5t2 148.5 q0 49 -4 86t-4 66z" />
<glyph unicode="&#xeb;" horiz-adv-x="497" d="M12 1202q0 23 16.5 48.5t32.5 25.5q18 0 31.5 -8t22 -20.5t11.5 -24t3 -17.5q0 -12 -4 -22.5t-8 -14.5q-6 -8 -20.5 -18t-28.5 -10q-23 0 -39.5 19.5t-16.5 41.5zM76 563q0 14 2 51t3 79t3 81t2 57q0 27 2 63t14.5 67.5t38 53t74.5 21.5q55 0 105.5 -22.5t62.5 -59.5 q6 -16 10 -20t8.5 -17.5t10.5 -47t12 -109.5q2 -16 3 -31.5t1 -30.5q0 -131 -49 -206.5t-135 -75.5q-39 0 -70 9t-47 17q-4 -47 -6 -85t-2 -72q0 -39 4 -86t17.5 -87t38 -68t63.5 -28q20 2 43.5 3t44 9.5t35 27t14.5 55.5q0 31 1 47t5 23t11 9.5t22 2.5q4 0 9 -2t5 -39 t-7 -70t-27.5 -58.5t-58.5 -40t-101 -14.5q-53 0 -84 27t-46.5 72t-19.5 104t-4 127q0 84 -1 135t-2 80t-3 39zM127 889q0 -29 4 -66t4 -86q0 -86 -2 -148.5t-4 -111.5l57.5 -10t61.5 -6q2 0 22.5 5t45 27.5t45 66.5t20.5 122q0 94 -12.5 150.5t-34 88t-50 44t-61.5 16.5 q-10 0 -26.5 -3t-31.5 -12.5t-26.5 -27.5t-11.5 -49zM332 1198q0 10 9 24.5t22.5 27t28 21.5t24.5 9q12 0 21 -10t16.5 -24.5t11.5 -27t4 -16.5q0 -14 -9 -25.5t-20.5 -20.5t-22.5 -14t-16 -5q-20 0 -33.5 12t-15.5 16q-4 4 -12 16.5t-8 16.5z" />
<glyph unicode="&#xec;" horiz-adv-x="395" d="M16 1038q0 6 6.5 12.5t28 11.5t60.5 7t106 2q55 0 68.5 -8t13.5 -23q0 -12 -3 -34.5t-3 -63.5t3 -66.5t6 -59.5t6 -87t3 -151q0 -41 -2 -74t-2 -53q-2 -25 3 -76t5 -107l-4 -241q-2 -35 -8 -48.5t-10 -13.5q-12 0 -23.5 18.5t-11.5 20.5q0 102 -3 201.5t-7 178.5t-7 127 t-3 50t2 29.5t3 71t3 95.5t2 101q0 37 -5 73t-7 70h-41q-27 0 -48.5 7.5t-35.5 7.5t-24.5 -5t-23.5 -5q-20 0 -33.5 12t-13.5 20zM37 1343q0 16 13 23.5t24 7.5q8 0 12 -4t10 -15.5t17.5 -28.5t29.5 -44q25 -35 48.5 -49t41 -21.5t28.5 -14.5t11 -26q0 -8 -18 -8 q-12 0 -33 4q-8 2 -18 4q-10 8 -16.5 10.5t-10.5 2.5q-2 0 -3 -1t-3 -1q-4 0 -13.5 11t-39.5 54q-10 12 -23.5 22.5t-26 20.5t-21.5 22.5t-9 30.5z" />
<glyph unicode="&#xed;" horiz-adv-x="389" d="M14 1038q0 6 7.5 10.5t29 6.5t61.5 3t107 1h25q12 8 22 8q18 -4 24.5 -8t6.5 -19q0 -12 -3 -34.5t-3 -63.5q0 -31 1 -52.5t3 -45t3 -52t3 -72.5t3 -108.5t1 -160.5q0 -8 -1 -33t-3 -54.5t-2 -55v-38.5l10 -243q0 -35 -5 -48.5t-13 -13.5q-12 0 -23.5 18.5t-11.5 20.5 v199.5t-1 174.5t-1 123v48t1 30.5t1 72.5t1 97.5t1 102.5q0 41 -11 82t-14 82h-124q-14 0 -24.5 -5t-23.5 -5q-20 0 -33.5 12t-13.5 20zM63 1176q0 8 4.5 12t15.5 10t29.5 16.5t47.5 28.5q27 18 39 36.5t18 34t11 26t20 10.5q6 0 11 -7.5t7 -16.5t2 -13l2 -13v-2q0 -4 1 -6 t1 -6q0 -6 -13 -19.5t-66 -49.5q-12 -10 -22.5 -23.5t-22 -26t-23.5 -20.5t-31 -8q-16 0 -23.5 14t-7.5 23z" />
<glyph unicode="&#xee;" horiz-adv-x="395" d="M-57 1153q0 14 16 33.5t38.5 40t47.5 39t41 34.5l72 56l2 2h8q41 0 70 -39q14 -23 41.5 -45.5t54 -46t46 -44t19.5 -34.5q0 -10 -12 -15.5t-16 -5.5t-8.5 2.5t-12.5 10.5t-21.5 25.5t-33.5 45.5q-27 37 -42 46.5t-27.5 11.5t-25 6t-30.5 33q-4 -12 -14.5 -18.5 t-26.5 -14.5t-36.5 -22.5t-45.5 -41.5q-23 -27 -37 -42t-22 -23t-13.5 -10t-11.5 -2q-20 0 -20 18zM16 1038q0 6 6.5 12.5t28 11.5t60.5 7t106 2q55 0 68.5 -8t13.5 -23q0 -12 -3 -34.5t-3 -63.5t3 -66.5t6 -59.5t6 -87t3 -151q0 -41 -2 -74t-2 -53q-2 -25 3 -76t5 -107 l-4 -241q-2 -35 -8 -48.5t-10 -13.5q-12 0 -23.5 18.5t-11.5 20.5q0 102 -3 201.5t-7 178.5t-7 127t-3 50t2 29.5t3 71t3 95.5t2 101q0 37 -5 73t-7 70h-41q-27 0 -48.5 7.5t-35.5 7.5t-24.5 -5t-23.5 -5q-20 0 -33.5 12t-13.5 20z" />
<glyph unicode="&#xef;" horiz-adv-x="395" d="M-68 1202q0 23 16.5 48.5t33.5 25.5q18 0 31.5 -8t21.5 -20.5t11 -24t3 -17.5q0 -12 -4 -22.5t-8 -14.5q-6 -8 -20.5 -18t-28.5 -10q-23 0 -39.5 19.5t-16.5 41.5zM16 1038q0 6 6.5 12.5t28 11.5t60.5 7t106 2q55 0 68.5 -8t13.5 -23q0 -12 -3 -34.5t-3 -63.5t3 -66.5 t6 -59.5t6 -87t3 -151q0 -41 -2 -74t-2 -53q-2 -25 3 -76t5 -107l-4 -241q-2 -35 -8 -48.5t-10 -13.5q-12 0 -23.5 18.5t-11.5 20.5q0 102 -3 201.5t-7 178.5t-7 127t-3 50t2 29.5t3 71t3 95.5t2 101q0 37 -5 73t-7 70h-41q-27 0 -48.5 7.5t-35.5 7.5t-24.5 -5t-23.5 -5 q-20 0 -33.5 12t-13.5 20zM252 1198q0 10 9 24.5t22.5 27t28 21.5t24.5 9q12 0 21.5 -10t16.5 -24.5t11 -27t4 -16.5q0 -14 -9 -25.5t-20.5 -20.5t-22.5 -14t-15 -5q-20 0 -34 12t-16 16q-4 4 -12 16.5t-8 16.5z" />
<glyph unicode="&#xf0;" horiz-adv-x="507" d="M57 1077q0 12 17.5 18.5t58.5 34.5q-23 27 -39 51.5t-16 43.5q0 16 16 16t78 -84q23 14 31 21.5t12 12.5t8 11t19 19q4 2 10 2q8 0 9 -10.5t1 -12.5v-2q0 -4 1 -6t1 -6q0 -6 -12 -18.5t-55 -43.5q20 -43 43.5 -61.5t43 -25.5t35 -12t19.5 -19q35 -23 47 -52q6 -16 10 -20 t8.5 -17.5t9.5 -47t13 -109.5q10 -123 8 -225.5t-2 -178.5q0 -111 -6 -185.5t-27.5 -119.5t-62.5 -63.5t-109 -18.5q-47 0 -75.5 32t-44 82t-20.5 112.5t-5 123.5q0 57 2 107.5t2 85.5q0 51 -8 51q0 14 2 51t3 79t3 81t2 57q0 27 2 61t13.5 65.5t35 54t68.5 24.5l-47 62 q-20 -16 -42 -28.5t-42 -12.5q-18 0 -19 20zM123 330q0 -111 12 -174.5t30.5 -96t39 -42t39.5 -9.5q8 0 15 1t11 1q12 0 32 8.5t39 34t33.5 72.5t14.5 125q0 252 -5 394t-22.5 215t-50 94.5t-86.5 27.5q-59 0 -77.5 -35t-18.5 -82q0 -33 4 -65.5t4 -61.5q0 -31 -2 -78 t-5 -102t-5 -113.5t-2 -113.5z" />
<glyph unicode="&#xf1;" horiz-adv-x="534" d="M43 1124q0 55 26.5 93t86.5 38q31 0 56.5 -10t49 -24.5t44 -32t42.5 -31.5q8 -6 14 -6q8 0 16.5 10t19 26.5t24.5 36t37 36.5q20 14 30 14t11 -12q0 -14 -15 -31q-47 -53 -74.5 -87t-54.5 -34q-14 0 -32 14q-43 35 -75 53.5t-53.5 27.5t-33.5 10.5t-21 1.5 q-20 0 -32.5 -15.5t-18.5 -62.5q-6 -39 -29 -39q-18 0 -18 24zM76 25q0 31 3 110.5t8 170.5t8 173t3 117q0 10 -1 16t-2 13.5t-2 22t-1 38.5q0 29 1 63.5t1 68.5t1 60.5t1 41.5q0 29 -4 53t-4 43q0 57 27 57q2 0 14 -4q10 -4 13 -11t4 -15.5t2.5 -14.5t9.5 -6q16 0 49 21.5 t86 21.5q39 0 64.5 -15.5t42 -35t25.5 -41t15 -33.5q4 -10 5 -68.5t1 -136.5q0 -92 1.5 -163.5t3.5 -122.5q2 -59 4 -105q0 -27 -5.5 -66.5t-5.5 -74.5q0 -53 8.5 -92t8.5 -74q0 -10 -6 -20.5t-29 -10.5q-16 0 -20.5 8.5t-4.5 22.5q0 10 1 20.5t1 20.5v55t1.5 100.5t1.5 123 t1 126t1 108.5v71q0 4 2 27.5t2 60.5q0 39 -4.5 86t-17.5 87t-37.5 67.5t-63.5 27.5q-39 -6 -64.5 -12.5t-42 -17.5t-23.5 -31.5t-7 -53.5q0 -25 -2.5 -72t-5.5 -96t-5 -88t-2 -45q0 -123 1 -217t1 -162q0 -123 -7 -173t-32 -50q-4 0 -14 2t-10 23z" />
<glyph unicode="&#xf2;" horiz-adv-x="505" d="M80 319q0 -61 5 -123.5t20.5 -112.5t44 -82t75.5 -32q68 0 109 18.5t62.5 63.5t27.5 120t6 185q0 68 -1 153t-1 189q0 14 -1 29.5t-3 32.5q-6 76 -12 109.5t-10.5 47t-8.5 17.5t-10 20q-12 37 -62.5 59.5t-105.5 22.5q-49 0 -74.5 -21.5t-38 -53t-14.5 -67.5t-2 -63 q0 -76 -1 -140t-2 -123.5t-2 -120t-1 -128.5zM121 330q0 55 2 113.5t5 113.5t5 102t2 78q0 29 -4 61.5t-4 65.5q0 47 18.5 82t77.5 35q53 -6 86 -27.5t50.5 -94.5t22.5 -215t5 -394q0 -78 -14.5 -125t-34 -72.5t-38.5 -34t-32 -8.5q-4 0 -11 -1t-15 -1q-18 0 -39 9.5 t-39.5 42t-30.5 96t-12 174.5zM147 1343q0 16 13.5 23.5t23.5 7.5q8 0 12.5 -4t10.5 -15.5t17.5 -28.5t29.5 -44q25 -35 48.5 -49t40.5 -21.5t28.5 -14.5t11.5 -26q0 -8 -18 -8q-12 0 -33 4q-9 2 -19 4q-10 8 -16 10.5t-10 2.5q-2 0 -3 -1t-3 -1q-4 0 -13.5 11t-40.5 54 q-10 12 -23.5 22.5t-25.5 20.5t-21.5 22.5t-9.5 30.5z" />
<glyph unicode="&#xf3;" horiz-adv-x="505" d="M80 319q0 -61 5 -123.5t20.5 -112.5t44 -82t75.5 -32q68 0 109 18.5t62.5 63.5t27.5 120t6 185q0 68 -1 153t-1 189q0 14 -1 29.5t-3 32.5q-6 76 -12 109.5t-10.5 47t-8.5 17.5t-10 20q-12 37 -62.5 59.5t-105.5 22.5q-49 0 -74.5 -21.5t-38 -53t-14.5 -67.5t-2 -63 q0 -76 -1 -140t-2 -123.5t-2 -120t-1 -128.5zM121 330q0 55 2 113.5t5 113.5t5 102t2 78q0 29 -4 61.5t-4 65.5q0 47 18.5 82t77.5 35q53 -6 86 -27.5t50.5 -94.5t22.5 -215t5 -394q0 -78 -14.5 -125t-34 -72.5t-38.5 -34t-32 -8.5q-4 0 -11 -1t-15 -1q-18 0 -39 9.5 t-39.5 42t-30.5 96t-12 174.5zM168 1176q0 8 4 12t15.5 10t30 16.5t46.5 28.5q27 18 39 36.5t18.5 34t11.5 26t19 10.5q6 0 11.5 -7.5t7.5 -16.5t3 -13l1 -13v-2q0 -4 1 -6t1 -6q0 -6 -13.5 -19.5t-66.5 -49.5q-12 -10 -22.5 -23.5t-21.5 -26t-23.5 -20.5t-30.5 -8 q-16 0 -23.5 14t-7.5 23z" />
<glyph unicode="&#xf4;" horiz-adv-x="505" d="M16 1153q0 14 16.5 33.5t39 40t47 39t41.5 34.5l71 56l2 2h9q41 0 69 -39q14 -23 42 -45.5t54.5 -46t46 -44t19.5 -34.5q0 -10 -12 -15.5t-17 -5.5q-4 0 -8 2.5t-12 10.5t-21.5 25.5t-33.5 45.5q-27 37 -42.5 46.5t-27.5 11.5t-24.5 6t-30.5 33q-4 -12 -14.5 -18.5 t-27 -14.5t-37 -22.5t-44.5 -41.5q-23 -27 -37 -42t-22.5 -23t-13.5 -10t-11 -2q-20 0 -21 18zM80 319q0 -61 5 -123.5t20.5 -112.5t44 -82t75.5 -32q68 0 109 18.5t62.5 63.5t27.5 120t6 185q0 68 -1 153t-1 189q0 14 -1 29.5t-3 32.5q-6 76 -12 109.5t-10.5 47t-8.5 17.5 t-10 20q-12 37 -62.5 59.5t-105.5 22.5q-49 0 -74.5 -21.5t-38 -53t-14.5 -67.5t-2 -63q0 -76 -1 -140t-2 -123.5t-2 -120t-1 -128.5zM121 330q0 55 2 113.5t5 113.5t5 102t2 78q0 29 -4 61.5t-4 65.5q0 47 18.5 82t77.5 35q53 -6 86 -27.5t50.5 -94.5t22.5 -215t5 -394 q0 -78 -14.5 -125t-34 -72.5t-38.5 -34t-32 -8.5q-4 0 -11 -1t-15 -1q-18 0 -39 9.5t-39.5 42t-30.5 96t-12 174.5z" />
<glyph unicode="&#xf5;" horiz-adv-x="505" d="M16 1124q0 55 27 93t86 38q31 0 56.5 -10t49 -24.5t44 -32t43.5 -31.5q8 -6 14 -6q8 0 16 10t18.5 26.5t25 36t36.5 36.5q20 14 31 14q10 0 10 -12q0 -14 -14 -31q-47 -53 -75 -87t-54 -34q-14 0 -33 14q-43 35 -75 53.5t-53.5 27.5t-33.5 10.5t-20 1.5q-20 0 -33 -15.5 t-19 -62.5q-6 -39 -28 -39q-18 0 -19 24zM80 319q0 68 1 128.5t2 120t2 124t1 139.5q0 27 2 63t14.5 67.5t38 53t74.5 21.5q55 0 105.5 -22.5t62.5 -59.5q6 -16 10 -20t8.5 -17.5t10.5 -47t12 -109.5q2 -16 3 -32t1 -30q0 -104 1 -189t1 -153q0 -111 -6 -185.5t-27.5 -119.5 t-62.5 -63.5t-109 -18.5q-47 0 -75.5 32t-44 82t-20.5 112.5t-5 123.5zM121 330q0 -111 12 -174.5t30.5 -96t39 -42t39.5 -9.5q8 0 15 1t11 1q12 0 31.5 8.5t39 34t34 72.5t14.5 125q0 252 -5 394t-22.5 215t-50.5 94.5t-86 27.5q-59 0 -77.5 -35t-18.5 -82q0 -33 4 -65.5 t4 -61.5q0 -31 -2 -78t-5 -102t-5 -113.5t-2 -113.5z" />
<glyph unicode="&#xf6;" horiz-adv-x="505" d="M18 1202q0 23 16.5 48.5t33.5 25.5q18 0 31.5 -8t21.5 -20.5t11 -24t3 -17.5q0 -12 -4 -22.5t-8 -14.5q-6 -8 -20.5 -18t-28.5 -10q-23 0 -39.5 19.5t-16.5 41.5zM80 319q0 68 1 128.5t2 120t2 124t1 139.5q0 27 2 63t14.5 67.5t38 53t74.5 21.5q55 0 105.5 -22.5 t62.5 -59.5q6 -16 10 -20t8.5 -17.5t10.5 -47t12 -109.5q2 -16 3 -32t1 -30q0 -104 1 -189t1 -153q0 -111 -6 -185.5t-27.5 -119.5t-62.5 -63.5t-109 -18.5q-47 0 -75.5 32t-44 82t-20.5 112.5t-5 123.5zM121 330q0 -111 12 -174.5t30.5 -96t39 -42t39.5 -9.5q8 0 15 1t11 1 q12 0 31.5 8.5t39 34t34 72.5t14.5 125q0 252 -5 394t-22.5 215t-50.5 94.5t-86 27.5q-59 0 -77.5 -35t-18.5 -82q0 -33 4 -65.5t4 -61.5q0 -31 -2 -78t-5 -102t-5 -113.5t-2 -113.5zM338 1198q0 10 9 24.5t22.5 27t28 21.5t24.5 9q12 0 21.5 -10t16.5 -24.5t11 -27t4 -16.5 q0 -14 -9 -25.5t-20.5 -20.5t-22.5 -14t-15 -5q-20 0 -34 12t-16 16q-4 4 -12 16.5t-8 16.5z" />
<glyph unicode="&#xf7;" horiz-adv-x="903" d="M78 627q10 35 60 45t149 10q47 0 104.5 -1t126.5 -1q29 0 66 1t78 1q154 0 153 -27q0 -14 -20.5 -27.5t-22.5 -13.5q-115 0 -185.5 -1t-114.5 -2t-67.5 -2t-45 -3t-46 -3t-69.5 -1q-23 0 -35 -3t-22.5 -6t-22.5 -5t-35 -2t-37 9t-14 32zM367 993q0 20 20.5 47t42.5 27 q12 0 23.5 -10t20.5 -22.5t15.5 -24t6.5 -15.5q0 -29 -21.5 -49t-32.5 -20q-20 0 -38.5 15.5t-20.5 19.5q-4 4 -10 16t-6 16zM389 252v10h2q0 59 15.5 72.5t68.5 13.5q27 0 35 -13t8 -30q0 -41 -11 -73.5t-20 -32.5q-37 0 -67.5 8t-30.5 45zM389 264v2l2 2z" />
<glyph unicode="&#xf8;" horiz-adv-x="653" d="M6 -55q0 16 6 28q53 94 105.5 191.5t99.5 183.5q0 61 1 117.5t2 114t2 119t1 132.5q0 27 2 63t14.5 67.5t38 53t74.5 21.5q55 0 105.5 -22.5t62.5 -59.5q4 -14 8 -18t9 -12l18 34q16 33 35.5 77t39 83t37 66.5t27.5 27.5q16 0 23.5 -13t7.5 -15q0 -12 -9 -30.5 t-30.5 -52.5t-54.5 -89.5t-82 -143.5q4 -18 6 -43.5t6 -64.5q2 -16 3 -32t1 -30q0 -104 1 -189t1 -153q0 -111 -6 -185.5t-27.5 -119.5t-62.5 -63.5t-109 -18.5q-41 0 -68.5 24.5t-44 65.5t-23.5 92.5t-9 106.5q-8 -16 -16 -32.5t-17 -30.5l-108 -199q-23 -41 -37 -55.5 t-23 -14.5q-10 0 -10 19zM258 330q0 -111 12.5 -174.5t30.5 -96t38.5 -42t39.5 -9.5q8 0 15 1t12 1q12 0 31.5 8.5t39 34t33.5 72.5t14 125q0 203 -3 334t-13 209q-20 -35 -41 -75t-43 -85q-10 -23 -25.5 -47.5t-31 -47t-27.5 -42t-18 -29.5q-10 -16 -26.5 -52t-37.5 -77v-8 zM258 428l102 197l12 19q13 20 32.5 51.5t44 72.5t49.5 84q-8 39 -20.5 62.5t-29 37t-39 19.5t-49.5 10q-59 0 -77.5 -35t-18.5 -82q0 -33 4 -65.5t4 -61.5q0 -47 -6 -133t-8 -176z" />
<glyph unicode="&#xf9;" horiz-adv-x="534" d="M74 1032q0 -35 8 -73.5t8 -92.5q0 -35 -5 -74.5t-5 -66.5q2 -45 4 -104q2 -51 3 -123t1 -164q0 -78 1 -136.5t5 -68.5q6 -12 15.5 -33.5t26 -41t42 -35t64.5 -15.5q53 0 85.5 21.5t49.5 21.5q8 0 9 -6t2 -14.5t4.5 -16.5t13.5 -10q12 -4 14 -4q27 0 26 57q0 18 -4 43 t-4 54q0 14 1 40.5t1 60.5t1 68.5t1 63.5q0 25 -1 39t-2 21.5t-2 13.5t-1 16q0 35 3 117t8.5 173t8.5 171t3 110q0 20 -10.5 22.5t-14.5 2.5q-25 0 -32 -50t-7 -173q0 -68 1 -162t1 -217q0 -6 -2 -45t-5 -88t-5 -96.5t-2 -71.5q0 -35 -7 -54.5t-23.5 -30.5t-42 -17.5 t-64.5 -12.5q-39 0 -63.5 27.5t-38 67.5t-17.5 87.5t-4 85.5q0 37 2 60.5t2 28.5v70.5t1 108t1 126t1 123t1 99.5v56q0 10 1 20.5t1 20.5q0 14 -4 22.5t-20 8.5q-23 0 -29 -10.5t-6 -20.5zM127 1343q0 16 13.5 23.5t23.5 7.5q8 0 12 -4t10.5 -15.5t17.5 -28.5t29 -44 q25 -35 48.5 -49t41 -21.5t28.5 -14.5t11 -26q0 -8 -18 -8q-12 0 -33 4q-8 2 -18 4q-10 8 -16.5 10.5t-10.5 2.5q-2 0 -3 -1t-3 -1q-4 0 -13 11t-40 54q-10 12 -23.5 22.5t-26 20.5t-21.5 22.5t-9 30.5z" />
<glyph unicode="&#xfa;" horiz-adv-x="534" d="M74 1032q0 -35 8 -73.5t8 -92.5q0 -35 -5 -74.5t-5 -66.5q2 -45 4 -104q2 -51 3 -123t1 -164q0 -78 1 -136.5t5 -68.5q6 -12 15.5 -33.5t26 -41t42 -35t64.5 -15.5q53 0 85.5 21.5t49.5 21.5q8 0 9 -6t2 -14.5t4.5 -16.5t13.5 -10q12 -4 14 -4q27 0 26 57q0 18 -4 43 t-4 54q0 14 1 40.5t1 60.5t1 68.5t1 63.5q0 25 -1 39t-2 21.5t-2 13.5t-1 16q0 35 3 117t8.5 173t8.5 171t3 110q0 20 -10.5 22.5t-14.5 2.5q-25 0 -32 -50t-7 -173q0 -68 1 -162t1 -217q0 -6 -2 -45t-5 -88t-5 -96.5t-2 -71.5q0 -35 -7 -54.5t-23.5 -30.5t-42 -17.5 t-64.5 -12.5q-39 0 -63.5 27.5t-38 67.5t-17.5 87.5t-4 85.5q0 37 2 60.5t2 28.5v70.5t1 108t1 126t1 123t1 99.5v56q0 10 1 20.5t1 20.5q0 14 -4 22.5t-20 8.5q-23 0 -29 -10.5t-6 -20.5zM147 1176q0 8 4.5 12t15.5 10t29.5 16.5t47.5 28.5q27 18 39 36.5t18 34t11 26 t20 10.5q6 0 11 -7.5t7 -16.5t2 -13l2 -13v-2q0 -4 1 -6t1 -6q0 -6 -13 -19.5t-67 -49.5q-12 -10 -22 -23.5t-21.5 -26t-23.5 -20.5t-31 -8q-16 0 -23.5 14t-7.5 23z" />
<glyph unicode="&#xfb;" horiz-adv-x="534" d="M37 1153q0 14 16.5 33.5t39 40t47 39t40.5 34.5l72 56l2 2h8q41 0 70 -39q14 -23 41.5 -45.5t54.5 -46t46.5 -44t19.5 -34.5q0 -10 -12.5 -15.5t-16.5 -5.5t-8 2.5t-12.5 10.5t-21.5 25.5t-34 45.5q-27 37 -42 46.5t-27.5 11.5t-24.5 6t-31 33q-4 -12 -14 -18.5 t-26.5 -14.5t-37 -22.5t-45.5 -41.5q-23 -27 -37 -42t-22 -23t-13.5 -10t-11.5 -2q-20 0 -20 18zM74 1032q0 -35 8 -73.5t8 -92.5q0 -35 -5 -74.5t-5 -66.5q2 -45 4 -104q2 -51 3 -123t1 -164q0 -78 1 -136.5t5 -68.5q6 -12 15.5 -33.5t26 -41t42 -35t64.5 -15.5 q53 0 85.5 21.5t49.5 21.5q8 0 9 -6t2 -14.5t4.5 -16.5t13.5 -10q12 -4 14 -4q27 0 26 57q0 18 -4 43t-4 54q0 14 1 40.5t1 60.5t1 68.5t1 63.5q0 25 -1 39t-2 21.5t-2 13.5t-1 16q0 35 3 117t8.5 173t8.5 171t3 110q0 20 -10.5 22.5t-14.5 2.5q-25 0 -32 -50t-7 -173 q0 -68 1 -162t1 -217q0 -6 -2 -45t-5 -88t-5 -96.5t-2 -71.5q0 -35 -7 -54.5t-23.5 -30.5t-42 -17.5t-64.5 -12.5q-39 0 -63.5 27.5t-38 67.5t-17.5 87.5t-4 85.5q0 37 2 60.5t2 28.5v70.5t1 108t1 126t1 123t1 99.5v56q0 10 1 20.5t1 20.5q0 14 -4 22.5t-20 8.5 q-23 0 -29 -10.5t-6 -20.5z" />
<glyph unicode="&#xfc;" horiz-adv-x="534" d="M39 1202q0 23 16.5 48.5t32.5 25.5q18 0 31.5 -8t22 -20.5t11.5 -24t3 -17.5q0 -12 -4.5 -22.5t-8.5 -14.5q-6 -8 -20 -18t-29 -10q-23 0 -39 19.5t-16 41.5zM74 1032q0 10 6 20.5t29 10.5q16 0 20 -8t4 -23q0 -10 -1 -20.5t-1 -20.5v-56t-1 -99.5t-1 -123t-1 -126 t-1 -108.5v-70q0 -4 -2 -28t-2 -61q0 -39 4 -86t17.5 -87t38 -67.5t63.5 -27.5q39 6 64.5 12.5t42 17.5t23.5 30.5t7 54.5q0 25 2 72t5 96t5 88t2 45q0 123 -1 217t-1 162q0 123 7.5 173t31.5 50q4 0 14.5 -2t10.5 -23q0 -31 -3 -110.5t-8.5 -170.5t-8.5 -173t-3 -117 q0 -10 1 -16t2 -13.5t2 -21.5t1 -39q0 -29 -1 -63.5t-1 -68.5t-1 -60.5t-1 -40.5q0 -29 4 -53.5t4 -43.5q0 -57 -26 -57q-2 0 -14 4q-10 2 -13.5 10t-4.5 16.5t-2 14.5t-9 6q-16 0 -49 -21.5t-86 -21.5q-39 0 -64.5 15.5t-42 35t-26 41t-15.5 33.5q-4 10 -5 68.5t-1 136.5 q0 92 -1 163.5t-3 123.5q-2 59 -4 104q0 27 5 66.5t5 74.5q0 53 -8 92t-8 74zM358 1198q0 10 9.5 24.5t22.5 27t27.5 21.5t24.5 9q12 0 21.5 -10t16.5 -24.5t11.5 -27t4.5 -16.5q0 -14 -9.5 -25.5t-20.5 -20.5t-22.5 -14t-15.5 -5q-20 0 -33.5 12t-15.5 16q-4 4 -12.5 16.5 t-8.5 16.5z" />
<glyph unicode="&#xfd;" horiz-adv-x="546" d="M33 991q6 -84 23.5 -167t33.5 -165q27 -131 58.5 -252.5t70.5 -248.5q4 -16 4 -35t2 -40.5t10.5 -42t26.5 -38.5q-10 -55 -27.5 -105.5t-34 -99.5t-30.5 -98t-18 -105q2 -20 20 -20q14 0 21 16q6 90 35.5 167t58.5 163q12 37 15 75t15 75q51 160 81 338t67 342 q6 31 9 65.5t7 68.5t12.5 65.5t26.5 58.5q2 4 2 10q0 18 -18 18q-11 0 -17 -6q-29 -41 -38 -98.5t-15 -110.5v-2q-25 -92 -40 -178t-27.5 -167t-25.5 -161t-34 -161q-4 -18 -13 -35t-15 -37l-5 -10q-23 115 -52 228.5t-60 228t-55.5 230t-32.5 236.5q-6 16 -23 17 q-16 0 -18 -19zM168 1176q0 8 4 12t15.5 10t30 16.5t46.5 28.5q27 18 39 36.5t18.5 34t11.5 26t19 10.5q6 0 11.5 -7.5t7.5 -16.5t3 -13l1 -13v-2q0 -4 1 -6t1 -6q0 -6 -13.5 -19.5t-66.5 -49.5q-12 -10 -22.5 -23.5t-21.5 -26t-23.5 -20.5t-30.5 -8q-16 0 -23.5 14t-7.5 23 z" />
<glyph unicode="&#xfe;" horiz-adv-x="522" d="M66 -211q0 29 2 97.5t6 153.5t8 179t8 176t6 142.5t2 80.5q0 12 -2 23.5t-2 60.5q0 29 1 64t1 68.5t1 60.5t1 41q0 20 -2 53t-2 74q0 98 3 151.5t6 87t6.5 59t3.5 66.5t-3.5 64t-3.5 35q0 10 -2 16t-20 10h53q18 -2 25.5 -14t7.5 -31q0 -25 -6 -54.5t-6 -53.5 q-2 -45 -4 -93.5t-3 -93.5t-2.5 -79.5t-1.5 -53.5v-14q8 0 44 8t104 8q55 0 86 -24.5t45 -55t17 -59.5t3 -37q0 -27 -1 -61.5t-3 -70.5t-3 -68.5t-1 -55.5q0 -16 1 -23.5t2 -14.5t2 -17t1 -33q0 -121 -3 -223t-19 -179t-51 -120t-97 -43q-43 0 -79.5 13.5t-40.5 13.5 q0 2 -11.5 10t-21.5 24v-278v-25q0 -8 2 -16q-12 -8 -23.5 -10t-17.5 -2t-11 11t-5 52zM121 92q20 -10 64 -26.5t85 -16.5q14 0 36 12.5t41.5 36t32.5 55t13 72.5q0 45 1 84t3 79t3 86t1 108q0 154 -2 242.5t-2 117.5q0 37 -19.5 64.5t-86.5 27.5q-45 0 -73 -3t-43 -10 t-20 -19.5t-5 -28.5q0 -10 2 -22.5t2 -28.5t-2 -44t-4.5 -55.5t-4.5 -49t-2 -28.5q0 -125 -3 -214t-7 -160.5t-7 -137t-3 -141.5z" />
<glyph unicode="&#xff;" horiz-adv-x="546" d="M33 991q2 18 18 19q16 0 23 -17q8 -121 32.5 -236.5t55.5 -230t60.5 -228.5t51.5 -228l5 10q6 20 15 36.5t13 35.5q20 82 33.5 161.5t26 160.5t28 167t39.5 178v2q6 53 15 110.5t38 98.5q6 6 17 6q18 0 18 -18q0 -6 -2 -10q-18 -27 -26.5 -58.5t-12.5 -65.5t-7 -69 t-9 -65q-37 -164 -66.5 -342.5t-81.5 -337.5q-12 -37 -15 -75t-15 -75q-29 -86 -58.5 -162.5t-35.5 -167.5q-6 -16 -21 -16q-18 0 -20 20q4 55 18 104.5t30.5 98.5t34 99.5t27.5 105.5q-18 18 -26.5 38.5t-10.5 42t-2 40t-4 35.5q-39 127 -70.5 248.5t-58.5 252.5 q-16 82 -33.5 165t-23.5 167zM70 1202q0 23 16 48.5t33 25.5q18 0 31.5 -8t21.5 -20.5t11 -24t3 -17.5q0 -12 -4 -22.5t-8 -14.5q-6 -8 -20.5 -18t-28.5 -10q-23 0 -39 19.5t-16 41.5zM389 1198q0 10 9.5 24.5t22.5 27t27.5 21.5t24.5 9q12 0 21.5 -10t16.5 -24.5t11 -27 t4 -16.5q0 -14 -9 -25.5t-20.5 -20.5t-22.5 -14t-15 -5q-20 0 -33.5 12t-15.5 16q-4 4 -12.5 16.5t-8.5 16.5z" />
<glyph unicode="&#x152;" horiz-adv-x="663" d="M80 246q0 66 4 175t8 236t8 260.5t4 247.5q0 37 8.5 80t27 80t49 61.5t75.5 24.5h17q49 4 88 5t100 1h41t47.5 -3t37.5 -9t15 -21q0 -27 -10 -26q-68 0 -128 3t-89 3q-18 0 -18 -2v-12v-40.5t-1.5 -26.5t-3.5 -60t-6 -142h154q23 0 42 3t32 3q18 0 18 -14v-6 q-6 -25 -7 -30t-3 -5h-47t-61.5 -1t-54.5 -1h-26q-29 0 -49 4q-4 -98 -8 -220t-8 -242.5t-6 -229.5t-2 -180v-109q31 -6 102 -6q31 0 65.5 3t73.5 11q4 0 13 -16l8 -16v-9q0 -10 -5 -15t-23.5 -8t-53.5 -3h-96h-115q-2 -2 -8 -2q-59 0 -98 20.5t-60.5 45t-30.5 44.5l-8 19 q-8 23 -10 55.5t-2 69.5zM131 362q0 -94 4.5 -147.5t18.5 -71.5q35 -51 61.5 -65.5t56.5 -20.5q0 31 2 105t6.5 168t8.5 198.5t8 195.5t6 156.5t2 86.5q0 12 -2 23t-2 61q0 29 1 63.5t1 68.5t1 60.5t1 40.5t-1 34.5t-3 45.5q-49 -4 -78.5 -22.5t-47 -44t-23 -53t-5.5 -50.5 q0 -31 -1 -103.5t-3 -162.5t-4 -188.5t-4 -180.5t-3 -137t-1 -60z" />
<glyph unicode="&#x153;" horiz-adv-x="808" d="M76 563q0 14 2 51t3 79t3 81t2 57q0 27 2 63t14.5 67.5t38 53t74.5 21.5q82 0 125 -35.5t61 -82.5q8 45 34 81.5t91 36.5q55 0 105.5 -22.5t62.5 -59.5q6 -16 10.5 -20t8.5 -17.5t10 -47t12 -109.5q2 -16 3 -31.5t1 -30.5q0 -131 -49 -206.5t-135 -75.5q-39 0 -69.5 9 t-47.5 17q-4 -47 -6 -85t-2 -72q0 -39 4 -86t17.5 -87t38 -68t63.5 -28q20 2 44 3t44.5 9.5t34.5 27t14 55.5q0 31 1 47t5 23t11.5 9.5t21.5 2.5q4 0 9 -2t5 -39t-7 -70t-27.5 -58.5t-58.5 -40t-101 -14.5q-61 0 -92 34t-45 91q-18 -70 -60.5 -97.5t-126.5 -27.5 q-47 0 -75.5 32t-44 82t-20.5 112.5t-5 123.5q0 57 2 107.5t2 85.5q0 51 -8 51zM121 330q0 -111 12 -174.5t30.5 -96t39 -42t39.5 -9.5q8 0 15 1t11 1q12 0 31.5 8.5t39 34t34 72.5t14.5 125q0 252 -5 394t-22.5 215t-50.5 94.5t-86 27.5q-59 0 -77.5 -35t-18.5 -82 q0 -33 4 -65.5t4 -61.5q0 -31 -2 -78t-5 -102t-5 -113.5t-2 -113.5zM438 889q0 -29 4 -66t4 -86q0 -86 -2 -148.5t-4 -111.5l57.5 -10t61.5 -6q2 0 22.5 5t45 27.5t45 66.5t20.5 122q0 94 -12 150.5t-33.5 88t-50.5 44t-61 16.5q-10 0 -26.5 -3t-32 -12.5t-27 -27.5 t-11.5 -49z" />
<glyph unicode="&#x178;" d="M0 1413q2 18 18 19q16 0 23 -17q4 -29 14.5 -53.5t22.5 -50t22.5 -51t16.5 -52.5q10 -51 20 -104t41 -137q12 -35 25.5 -68t27.5 -68t18.5 -68.5t22.5 -70.5q14 68 37 148t39 147q27 109 43.5 221.5t24.5 223.5q2 18 20 18q20 0 21 -23q-8 -113 -20.5 -229.5 t-47.5 -222.5q-27 -86 -51.5 -181.5t-40.5 -183.5q4 -12 4 -18q0 -29 -4 -34t-4 -15q0 -14 1 -20.5t3 -28.5l8 -148q0 -14 2 -60t4 -98.5t5 -97.5t10 -57q2 -4 2 -8q0 -20 -21 -21q-18 0 -28.5 59.5t-15.5 144.5t-6 181t-1 170v57q-6 27 -17.5 49.5t-19.5 47.5 q-41 123 -77 241.5t-64 245.5q-6 27 -18.5 53.5t-24.5 52t-22.5 52t-12.5 55.5zM59 1612q0 23 16.5 48.5t33.5 25.5q18 0 31.5 -8.5t21.5 -20.5t11 -23.5t3 -17.5q0 -12 -4 -22.5t-8 -14.5q-6 -8 -20.5 -18.5t-28.5 -10.5q-23 0 -39.5 19.5t-16.5 42.5zM379 1608 q0 10 9 24.5t22.5 26.5t28 21.5t24.5 9.5q12 0 21.5 -10.5t16.5 -25t11 -26.5t4 -16q0 -14 -9 -25.5t-20.5 -21t-22.5 -14.5t-15 -5q-20 0 -34 12.5t-16 16.5q-4 4 -12 16.5t-8 16.5z" />
<glyph unicode="&#x2c6;" horiz-adv-x="1705" d="M442 1153q0 14 16.5 33.5t39 40t47 39t41.5 34.5l71 56l2 2h9q41 0 69 -39q14 -23 42 -45.5t54.5 -46t46 -44t19.5 -34.5q0 -10 -12.5 -15.5t-16.5 -5.5t-8 2.5t-12 10.5t-21.5 25.5t-33.5 45.5q-27 37 -42.5 46.5t-27.5 11.5t-24.5 6t-30.5 33q-4 -12 -14.5 -18.5 t-27 -14.5t-37 -22.5t-44.5 -41.5q-23 -27 -37 -42t-22.5 -23t-13.5 -10t-11 -2q-20 0 -21 18z" />
<glyph unicode="&#x2dc;" horiz-adv-x="1705" d="M410 1124q0 55 26.5 93t85.5 38q31 0 56.5 -10t49 -24.5t44 -32t43.5 -31.5q8 -6 14 -6q8 0 16.5 10t18.5 26.5t24.5 36t36.5 36.5q20 14 31 14q10 0 10 -12q0 -14 -14 -31q-47 -53 -74.5 -87t-54.5 -34q-14 0 -33 14q-43 35 -74.5 53.5t-53 27.5t-34 10.5t-20.5 1.5 q-20 0 -32.5 -15.5t-18.5 -62.5q-6 -39 -29 -39q-18 0 -18 24z" />
<glyph unicode="&#x2000;" horiz-adv-x="906" />
<glyph unicode="&#x2001;" horiz-adv-x="1812" />
<glyph unicode="&#x2002;" horiz-adv-x="906" />
<glyph unicode="&#x2003;" horiz-adv-x="1812" />
<glyph unicode="&#x2004;" horiz-adv-x="604" />
<glyph unicode="&#x2005;" horiz-adv-x="453" />
<glyph unicode="&#x2006;" horiz-adv-x="302" />
<glyph unicode="&#x2007;" horiz-adv-x="302" />
<glyph unicode="&#x2008;" horiz-adv-x="226" />
<glyph unicode="&#x2009;" horiz-adv-x="362" />
<glyph unicode="&#x200a;" horiz-adv-x="100" />
<glyph unicode="&#x2010;" horiz-adv-x="700" d="M84 553q6 29 27 29q8 0 17 -2t19 -2q29 0 39.5 1t15.5 4t14 5t37 5t82 4t150 1q66 0 95.5 -5t29.5 -15q0 -12 -17.5 -23.5t-19.5 -11.5q-117 0 -174 -3t-81.5 -6.5t-28.5 -5.5t-13 -2q-6 0 -45 6q-20 0 -31.5 -2t-20.5 -4t-19 -4t-31 -2q-18 0 -31.5 7.5t-13.5 25.5z" />
<glyph unicode="&#x2011;" horiz-adv-x="700" d="M84 553q6 29 27 29q8 0 17 -2t19 -2q29 0 39.5 1t15.5 4t14 5t37 5t82 4t150 1q66 0 95.5 -5t29.5 -15q0 -12 -17.5 -23.5t-19.5 -11.5q-117 0 -174 -3t-81.5 -6.5t-28.5 -5.5t-13 -2q-6 0 -45 6q-20 0 -31.5 -2t-20.5 -4t-19 -4t-31 -2q-18 0 -31.5 7.5t-13.5 25.5z" />
<glyph unicode="&#x2012;" horiz-adv-x="700" d="M84 553q6 29 27 29q8 0 17 -2t19 -2q29 0 39.5 1t15.5 4t14 5t37 5t82 4t150 1q66 0 95.5 -5t29.5 -15q0 -12 -17.5 -23.5t-19.5 -11.5q-117 0 -174 -3t-81.5 -6.5t-28.5 -5.5t-13 -2q-6 0 -45 6q-20 0 -31.5 -2t-20.5 -4t-19 -4t-31 -2q-18 0 -31.5 7.5t-13.5 25.5z" />
<glyph unicode="&#x2013;" horiz-adv-x="907" d="M96 543q0 16 20.5 29.5t22.5 13.5q115 0 185.5 1t114.5 2t67.5 2t45 3t46.5 3t70 1q23 0 35 2t22 5t22.5 6t34.5 3q23 0 37.5 -9t14.5 -32q-10 -35 -61.5 -45t-149.5 -10q-47 0 -103.5 1t-126.5 1q-29 0 -65.5 -1t-77.5 -1q-154 0 -154 25z" />
<glyph unicode="&#x2014;" horiz-adv-x="1255" d="M98 543q0 16 20.5 29.5t22.5 13.5q172 0 305.5 2t237.5 4t185 4t149 2q23 0 35 2t22 5t22.5 6t35.5 3t37 -9t14 -32q-6 -18 -47 -28t-107.5 -16.5t-149.5 -8.5t-171 -2q-82 0 -163 1t-151 1q-29 0 -65.5 -1t-77.5 -1q-154 0 -154 25z" />
<glyph unicode="&#x2018;" horiz-adv-x="217" d="M45 1044q0 14 10.5 32t22.5 32t24.5 23.5t18.5 9.5q14 0 14 -13q0 -12 -7 -19l-14.5 -14.5t-13.5 -15.5t-6 -20v-8q33 12 37 11t14 -1q16 0 20.5 -8.5t4.5 -18.5q0 -14 -5 -27.5t-5 -15.5q-4 -12 -18.5 -18t-30.5 -6q-23 0 -40.5 8t-17.5 22q0 10 4 23q-12 8 -12 24z" />
<glyph unicode="&#x2019;" horiz-adv-x="192" d="M25 1057q0 14 5 27.5t7 15.5q4 12 18.5 18t30.5 6q20 0 38.5 -8t18.5 -24q0 -2 -3 -9.5t-7 -9.5l4 -2q14 -8 15 -24q0 -14 -10.5 -32t-23 -32t-24.5 -23.5t-18 -9.5q-14 0 -15 13q0 10 7.5 17t14.5 14t13 16.5t6 21.5l-2 8q-10 -8 -19 -9t-18 -1q-23 0 -30.5 5t-7.5 22z " />
<glyph unicode="&#x201a;" horiz-adv-x="258" d="M66 33q0 14 5 27.5t7 15.5q4 12 18.5 18t30.5 6q20 0 38.5 -8t18.5 -24q0 -2 -3 -9.5t-7 -9.5l4 -2q14 -8 15 -24q0 -14 -10.5 -32t-23 -32t-24.5 -23.5t-18 -9.5q-14 0 -15 13q0 10 7.5 17t14.5 14t13 16.5t6 21.5l-2 8q-10 -8 -19 -9t-18 -1q-23 0 -30.5 5t-7.5 22z " />
<glyph unicode="&#x201c;" horiz-adv-x="391" d="M39 1047q0 14 10 31.5t22.5 31.5t25 23.5t18.5 9.5q14 0 14 -13q0 -12 -7 -19t-14.5 -14t-13.5 -15.5t-6 -20.5v-10q12 8 23.5 10t19.5 2q20 0 26.5 -6t6.5 -21q0 -14 -5 -27.5t-5 -15.5q-4 -12 -18.5 -18t-31.5 -6q-23 0 -40 8t-17 22q0 4 4 10.5t4 10.5l-2 2 q-14 8 -14 25zM223 1047q0 14 10.5 31.5t22.5 31.5t24.5 23.5t18.5 9.5q14 0 14 -13q0 -12 -7 -19l-14 -14t-13.5 -15.5t-6.5 -20.5v-10q12 8 23.5 10t19.5 2q20 0 26.5 -6t6.5 -21q0 -14 -5 -27.5t-5 -15.5q-4 -12 -18.5 -18t-30.5 -6q-23 0 -40.5 8t-17.5 22q0 4 4.5 10.5 t4.5 10.5l-2 2q-14 8 -15 25z" />
<glyph unicode="&#x201d;" horiz-adv-x="364" d="M20 1061q0 16 7.5 31.5t9.5 17.5q6 20 35 20q18 0 34.5 -9t16.5 -25q0 -4 -3 -12.5t-7 -10.5l4 -2q16 -10 16 -31q0 -14 -7 -30.5t-16.5 -29.5t-18.5 -21.5t-15 -8.5q-14 0 -15 13q2 23 11.5 33t9.5 36l-2 10q-12 -4 -19 -4q-41 0 -41 23zM203 1057q0 14 7 29.5t9 17.5 q6 23 39 22q18 0 33.5 -8t15.5 -22q0 -4 -3 -12.5t-7 -10.5l4 -2q16 -10 16 -31q0 -14 -7 -30.5t-16 -29.5t-18.5 -21.5t-15.5 -8.5q-14 0 -14 13q2 23 11 33t9 36l-2 8q-12 -6 -22 -6q-39 0 -39 23z" />
<glyph unicode="&#x201e;" horiz-adv-x="524" d="M66 33q0 14 5 27.5t7 15.5q4 12 18.5 18t30.5 6q20 0 38.5 -8t18.5 -24q0 -2 -3 -9.5t-7 -9.5l4 -2q14 -8 15 -24q0 -14 -10.5 -32t-23 -32t-24.5 -23.5t-18 -9.5q-14 0 -15 13q0 10 7.5 17t14.5 14t13 16.5t6 21.5l-2 8q-10 -8 -19 -9t-18 -1q-23 0 -30.5 5t-7.5 22z M332 33q0 14 5 27.5t7 15.5q4 12 18.5 18t30.5 6q20 0 39 -8t19 -24q0 -2 -3.5 -9.5t-7.5 -9.5l4 -2q14 -8 15 -24q0 -14 -10.5 -32t-22.5 -32t-24.5 -23.5t-18.5 -9.5q-14 0 -14 13q0 10 7 17l14 14t13.5 16.5t6.5 21.5l-2 8q-10 -8 -19.5 -9t-17.5 -1q-23 0 -31 5t-8 22z " />
<glyph unicode="&#x2022;" horiz-adv-x="626" d="M113 653q0 35 25.5 56.5t56 34t57.5 17.5t29 5q16 4 28 4q96 0 150.5 -40t54.5 -120q0 -31 -24.5 -54.5t-59.5 -37.5t-73 -21.5t-62 -7.5q-51 0 -86 19.5t-56.5 45.5t-30.5 53.5t-9 45.5z" />
<glyph unicode="&#x2026;" horiz-adv-x="923" d="M68 33q0 14 5 27.5t7 15.5q4 14 18.5 28.5t30.5 14.5q20 0 39.5 -30t19.5 -48q0 -20 -9 -32.5t-20.5 -18.5t-22.5 -8t-17 -2q-25 0 -38 18t-13 35zM403 35q0 41 16.5 60.5t59.5 19.5q12 0 19.5 -8.5t11.5 -18.5t5 -20.5t1 -14.5q0 -29 -17.5 -54.5t-27.5 -25.5t-21.5 7.5 t-20.5 16.5t-16 16.5t-7 9.5q-2 2 -3 12zM743 78q0 18 19.5 26.5t42.5 8.5q16 0 31.5 -19.5t15.5 -32.5q0 -35 -11.5 -60.5t-21.5 -25.5q-2 0 -20.5 8.5t-18.5 6.5q-10 0 -17 14t-11 29.5t-6 22.5z" />
<glyph unicode="&#x202f;" horiz-adv-x="362" />
<glyph unicode="&#x2039;" horiz-adv-x="647" d="M49 473q0 31 21.5 63.5t51.5 63.5t61.5 57.5t49.5 42.5l129 136q23 16 49.5 16t57.5 18q35 20 59 21q18 0 27.5 -9.5t9.5 -19.5q0 -20 -18 -28q-53 -31 -71.5 -41.5t-25 -13.5t-15.5 -6t-44 -17q-37 -16 -51 -28.5t-23.5 -26t-22.5 -30t-46 -36.5q-4 -4 -26.5 -18.5 t-47 -38t-44 -55t-19.5 -66.5q0 -23 10 -51.5t32.5 -59.5t58.5 -60.5t87 -49.5q33 -14 49.5 -20.5t30.5 -13.5t34.5 -18.5t63.5 -33.5q31 -16 50.5 -23.5t30.5 -16t15.5 -19.5t4.5 -32q0 -6 -33 -6h-14.5t-14.5 2q-12 2 -20.5 6.5t-21.5 10.5t-34.5 16t-58.5 25 q-45 16 -68.5 29.5t-40 26.5t-35 28.5t-51.5 33.5q-37 20 -63.5 50t-43 63t-23.5 66.5t-7 62.5z" />
<glyph unicode="&#x203a;" horiz-adv-x="649" d="M72 885q0 4 9 5t21 1q21 0 31 -2q12 -2 20.5 -6t21.5 -10.5t34.5 -16.5t58.5 -25q45 -16 67.5 -29.5t40 -26.5t35 -28.5t52.5 -33.5q37 -23 63.5 -52.5t43 -62.5t23.5 -65.5t7 -61.5q0 -31 -21.5 -63.5t-51 -63.5t-61.5 -57.5t-50 -42.5l-129 -135q-23 -16 -49.5 -16.5 t-57.5 -18.5q-35 -20 -59 -21q-18 0 -27.5 9.5t-9.5 19.5q0 16 18 29q53 31 72 41t25 13t15 6t44 17q37 14 51.5 27.5t23.5 27t21.5 29t46.5 37.5q4 2 27 17.5t47.5 39t44 55.5t19.5 66q0 20 -10.5 50t-33 61t-58.5 60.5t-87 50.5l-50 20t-29.5 13.5t-35 18.5t-63.5 34 q-31 14 -50.5 22t-30.5 16.5t-15 18.5t-4 33z" />
<glyph unicode="&#x205f;" horiz-adv-x="453" />
<glyph unicode="&#x20ac;" horiz-adv-x="876" d="M53 864q0 16 25.5 21.5t60.5 5.5q23 0 44.5 -2t37.5 -2h47q4 43 7.5 77.5t3.5 55.5q0 70 35.5 117t90 74.5t118 39t118.5 11.5q18 0 33.5 -1t27.5 -4h11q16 0 24 -7t8 -17q0 -14 -18 -14q-49 -4 -119.5 -9.5t-135 -22t-111 -50t-46.5 -93.5q0 -27 -3 -65.5t-7 -89.5h62 q47 0 111.5 -6t148.5 -6q10 0 30.5 1t42.5 1q33 0 58.5 -4.5t25.5 -20.5t-15 -19.5t-34 -3.5q-63 0 -134 7.5t-107 7.5h-116t-75 -2q-4 -66 -9 -146t-5 -170h37q47 0 68.5 -4t37.5 -4q20 0 47 7.5t62 7.5q8 0 16 -0.5t16 -2.5q53 0 114 12.5t108 12.5q14 0 14 -20 q-4 -23 -12.5 -29t-18.5 -6t-20 2t-21 2q-49 0 -75.5 -3t-64.5 -8.5t-106.5 -9.5t-201.5 -4q0 -154 22.5 -233.5t38.5 -106.5q20 -31 45 -47t49.5 -24.5t49 -12.5t45.5 -8q29 2 53 3t43 1q70 0 70 -12t-52.5 -25.5t-117.5 -13.5q-61 0 -105.5 21.5t-73 47t-43 48t-14.5 24.5 q-10 27 -20.5 67t-18.5 80t-14 75.5t-6 58.5v57h-35q-23 0 -46.5 1t-43 4t-31.5 8.5t-12 15.5q0 6 16 10t41 5t54.5 2t58.5 1q2 27 3 57.5t3 67.5t6 84t10 107h-39t-32.5 -1t-35 -1h-44.5q-53 0 -60 22z" />
<glyph unicode="&#x2122;" horiz-adv-x="1112" d="M74 1411q0 10 2 16q18 -2 34.5 -2h32.5q31 0 59.5 1t61.5 1h49q23 0 60 3.5t71 3.5q27 0 45.5 -4.5t18.5 -14.5q0 -8 -3 -22.5t-7 -14.5h-95.5t-111.5 -2q2 -18 3 -44.5t1 -61.5q0 -16 -2 -44t-4 -55.5t-4 -49t-2 -27.5v-173t-1 -119t-1 -78v-48v-40t4 -38 q-12 -8 -23.5 -10t-17.5 -2t-11.5 11t-5.5 52q0 90 6.5 174t6.5 144q0 12 -2 34.5t-2 49.5q0 29 1 63.5t1 68.5t1 60.5t1 40.5q0 16 -2 40t-2 52h-46q-37 0 -75.5 2t-38.5 11q-2 6 -2 22zM602 670q0 90 6 163.5t6 133.5q0 12 -2 23t-2 61q0 66 2 111.5t4 84.5t4.5 77t2.5 87 q4 16 20 16q4 2 12 3q12 0 27.5 -11.5t30 -27t27 -28.5t18.5 -15q16 -10 39.5 -32t29.5 -22q41 43 69 67.5t46.5 37t28.5 15.5t18 3h8q4 -4 7.5 -8t3.5 -14q0 -2 -1 -6.5t-1 -6.5q6 -33 10 -90t7 -119.5t4 -118t1 -81.5q0 -66 -2 -112t-4 -85t-4 -77t-2 -87q-4 -16 -21 -16 q-16 0 -18 12v-6q-8 0 -8 152q0 49 2 80.5t4 59.5t4 60.5t2 85.5q0 66 -11.5 114t-11.5 93q0 16 2.5 41t2.5 60q-43 -47 -78 -78t-64 -31q-12 0 -32.5 17.5t-39 38t-33 38t-16.5 19.5l-34 20q4 -23 4 -48.5v-53.5q0 -49 -2 -81t-4 -59.5t-4.5 -60.5t-2.5 -86v-117t-1 -82.5 t-1 -55v-36.5q0 -23 1 -37t3 -37q-12 -8 -23 -10t-18 -2q-6 0 -11 11.5t-5 52.5z" />
<glyph unicode="&#xe000;" horiz-adv-x="1024" d="M0 0v1024h1024v-1024h-1024z" />
<glyph unicode="&#xfb01;" horiz-adv-x="579" d="M23 977q0 18 22.5 29.5t32.5 11.5l86 2q0 39 2 91t5 104.5t7 101.5t8 84q2 25 23.5 44t55.5 31.5t75 19.5t84 7t87 -13t44 -38q0 -14 -13.5 -23.5t-31.5 -9.5q-4 0 -6 6.5t-11.5 14.5t-29 14t-55.5 6q-31 0 -58.5 -8t-49 -19.5t-34 -20.5t-10.5 -11q-12 -6 -20.5 -68.5 t-12.5 -154.5l-4 -146l4 -14q74 0 115 2t61.5 4t26.5 4t10 4v8v25q0 12 3 20.5t16 8.5q18 -4 24 -8.5t6 -18.5q0 -8 -1 -18.5t-3 -24.5q4 -8 4 -14q0 -8 -6 -15v-26q0 -41 1 -66.5t2 -59.5t2 -87.5t1 -149.5q0 -51 2 -84t5.5 -63.5t6.5 -68.5t3 -95l-4 -242q-2 -35 -8.5 -48 t-10.5 -13q-12 0 -23.5 18.5t-11.5 20.5q0 102 1 200.5t2.5 175t2.5 124t1 49.5t-3.5 30.5t-6.5 73.5t-5 98.5t-2 102.5v92q-29 -6 -64.5 -7t-76.5 -1h-74q-4 0 -5 -40t-1 -102q0 -125 1 -200.5t3 -123.5t5 -80t5 -65.5t3 -81t1 -129.5q0 -41 6.5 -81.5t6.5 -81.5 q0 -18 -7.5 -31.5t-25.5 -13.5q-18 4 -21.5 8t-3.5 18q0 12 3.5 35t3.5 63q0 41 -3.5 67t-6.5 59.5t-6 87t-3 151.5q0 41 2 74t2 53q0 29 -4 86t-4 117v104v34v19.5t-1 20.5t-1 39q-12 -10 -25.5 -12t-29 -2t-32 -2.5t-30.5 -10.5q-4 -2 -8 -2q-10 0 -15 12.5t-5 18.5z" />
<glyph unicode="&#xfb02;" horiz-adv-x="806" d="M12 1038q0 18 22.5 29.5t33.5 11.5l86 2q0 39 2 91.5t5 104.5t7 101t8 84q2 25 23.5 44.5t55.5 31.5t75 19.5t84 7.5q41 0 83 -13.5t48 -35.5v-7q-2 -10 -4 -21t-2 -48q0 -41 3 -66.5t6 -59.5t6 -87t3 -152q0 -41 -6 -73.5t-6 -53.5q0 -29 4 -86t4 -117v-104 q0 -88 -7 -170t-7 -135q0 -10 6 -46t6 -108q0 -49 18.5 -76.5t46 -42t59.5 -18.5t59.5 -5t46 -3t18.5 -10q0 -10 -22.5 -19.5t-51.5 -9.5q-49 2 -92 5t-74 30.5t-48 95.5t-17 199q0 123 2 251t5 231t6 170t3 69t-1 31.5t-1 73.5t-1 98.5t-1 103.5q0 41 -5 67.5t-7 63.5 q-4 8 -21.5 21.5t-75.5 13.5q-31 0 -58.5 -8.5t-49 -19.5t-33.5 -20.5t-10 -11.5q-12 -6 -20.5 -68.5t-12.5 -154.5l-4 -145l4 -15q4 0 9 -1t9 -1q20 0 46 3t48.5 6.5t40 6.5t21.5 3q12 0 29.5 -1t17.5 -24q0 -29 -46 -35t-109 -6h-70q-4 0 -5 -40t-1 -101q0 -125 1 -201 t3 -124t5 -79.5t5 -65.5t3 -81t1 -129q0 -41 6 -82t6 -82q0 -18 -7 -31.5t-25 -13.5q-18 4 -21.5 8t-3.5 19q0 12 3 34.5t3 63.5t-3 66.5t-6 59.5t-6 87t-3 151q0 41 2 74t2 53q0 29 -4 86.5t-4 116.5v105v34v19t-1 20.5t-1 38.5q-12 -10 -25.5 -12t-29 -2t-32 -2t-30.5 -10 q-4 -2 -8 -2q-10 0 -15.5 12t-5.5 18z" />
<glyph unicode="&#xfb03;" horiz-adv-x="974" d="M12 1038q0 18 22.5 29.5t33.5 11.5l86 2q0 39 2 91.5t5 104.5t7 101t8 84q2 25 23.5 44.5t55.5 31.5t75 19.5t84 7.5t87 -13.5t44 -38.5q0 -14 -13.5 -23t-31.5 -9q-4 0 -6 6t-11.5 14t-29 14.5t-56.5 6.5q-31 0 -58.5 -8.5t-49 -19.5t-33.5 -20.5t-10 -11.5 q-12 -6 -20.5 -68.5t-12.5 -154.5l-4 -145l4 -15q104 0 146 2t54.5 3t14.5 3.5t29 2.5q8 0 10 -3l96 -6q0 39 2 91.5t5 104.5t7.5 101t8.5 84q2 25 23.5 44.5t55 31.5t74.5 19.5t84 7.5t87 -13.5t44 -38.5q0 -14 -13 -23t-32 -9q-4 0 -6 6t-11 14t-28.5 14.5t-56.5 6.5 q-31 0 -58.5 -8.5t-49 -19.5t-34 -20.5t-10.5 -11.5q-12 -6 -20 -68.5t-12 -154.5l-5 -145l5 -15q106 0 149 3t55.5 6.5t9.5 6.5t13 3l14 -4q20 -4 21 -23q0 -12 -5.5 -35.5t-5.5 -62.5q0 -41 1.5 -66.5t2.5 -59.5t2 -87t1 -150q0 -51 2 -83.5t5 -63.5t6 -69t3 -95l-4 -242 q-2 -35 -8 -48t-11 -13q-12 0 -23 18.5t-11 20.5q0 102 1 200.5t2 175t2 124t1 49.5t-3 30.5t-6 73.5t-5.5 98.5t-2.5 102.5q0 39 1 74.5t1 72.5q-29 -4 -64.5 -5t-74.5 -1h-74q-4 0 -5 -40t-1 -101q0 -125 1 -201t3 -124t5.5 -79.5t5.5 -65.5t3 -81t1 -129q0 -41 6 -82 t6 -82q0 -18 -7 -31.5t-26 -13.5q-18 4 -21 8t-3 19q0 12 3 34.5t3 63.5t-3 66.5t-6 59.5t-6.5 87t-3.5 151q0 41 2.5 74t2.5 53q0 29 -4.5 86.5t-4.5 116.5v105v34v19t-1 20.5t-1 38.5q-10 0 -25.5 -1t-31.5 -1q-35 0 -78 6q-2 -2 -4 -2h-4q-29 -6 -64.5 -7t-76.5 -1h-74 q-4 0 -5 -40t-1 -101q0 -125 1 -201t3 -124t5 -79.5t5 -65.5t3 -81t1 -129q0 -41 6 -82t6 -82q0 -18 -7 -31.5t-25 -13.5q-18 4 -21.5 8t-3.5 19q0 12 3 34.5t3 63.5t-3 66.5t-6 59.5t-6 87t-3 151q0 41 2 74t2 53q0 29 -4 86.5t-4 116.5v105v34v19t-1 20.5t-1 38.5 q-12 -10 -25.5 -12t-29 -2t-32 -2t-30.5 -10q-4 -2 -8 -2q-10 0 -15.5 12t-5.5 18z" />
<glyph unicode="&#xfb04;" horiz-adv-x="1339" d="M12 1038q0 18 22.5 29.5t33.5 11.5l86 2q0 39 2 91.5t5 104.5t7 101t8 84q2 25 23.5 44.5t55.5 31.5t75 19.5t84 7.5t87 -13.5t44 -38.5q0 -14 -13.5 -23t-31.5 -9q-4 0 -6 6t-11.5 14t-29 14.5t-56.5 6.5q-31 0 -58.5 -8.5t-49 -19.5t-33.5 -20.5t-10 -11.5 q-12 -6 -20.5 -68.5t-12.5 -154.5l-4 -145l4 -15q104 0 146 2t54.5 3t14.5 3.5t29 2.5q8 0 10 -3l96 -6q0 39 2 91.5t5 104.5t7.5 101t8.5 84q2 25 23.5 44.5t55 31.5t74.5 19.5t84 7.5q45 0 88 -14.5t43 -37.5v-4q0 -12 -3 -34.5t-3 -63.5t3 -66.5t6.5 -59.5t6.5 -87 t3 -151q0 -41 -6.5 -74t-6.5 -53q0 -29 4.5 -86.5t4.5 -116.5v-105q0 -90 -7.5 -173t-7.5 -136q0 -12 4 -54t19.5 -87t45.5 -81t79 -36q41 0 84 11.5t82 11.5q20 0 43.5 -7.5t23.5 -23.5q0 -27 -51 -27h-12q-35 0 -77 -5t-85 -5q-37 0 -73 8t-62.5 31.5t-43 65.5t-16.5 112 v19q0 14 -1 43.5t-1 56.5q0 121 2 241.5t4 219t4.5 160t2.5 63.5q0 6 -2.5 59.5t-4.5 125t-5 149.5t-5 133q-4 8 -21.5 21.5t-74.5 13.5q-31 0 -58.5 -8.5t-49 -19.5t-34 -20.5t-10.5 -11.5q-12 -6 -20 -68.5t-12 -154.5l-5 -145l5 -15q96 0 138 2t57.5 5.5t16.5 6.5t15 3 q12 0 23.5 -4.5t11.5 -20.5q0 -14 -16.5 -22.5t-44 -12.5t-61.5 -5t-71 -1h-74q-4 0 -5 -40t-1 -101q0 -125 1 -201t3 -124t5.5 -79.5t5.5 -65.5t3 -81t1 -129q0 -41 6 -82t6 -82q0 -18 -7 -31.5t-26 -13.5q-18 4 -21 8t-3 19q0 12 3 34.5t3 63.5t-3 66.5t-6 59.5t-6.5 87 t-3.5 151q0 41 2.5 74t2.5 53q0 29 -4.5 86.5t-4.5 116.5v105v34v19t-1 20.5t-1 38.5q-10 0 -25.5 -1t-31.5 -1q-35 0 -78 6q-2 -2 -4 -2h-4q-29 -6 -64.5 -7t-76.5 -1h-74q-4 0 -5 -40t-1 -101q0 -125 1 -201t3 -124t5 -79.5t5 -65.5t3 -81t1 -129q0 -41 6 -82t6 -82 q0 -18 -7 -31.5t-25 -13.5q-18 4 -21.5 8t-3.5 19q0 12 3 34.5t3 63.5t-3 66.5t-6 59.5t-6 87t-3 151q0 41 2 74t2 53q0 29 -4 86.5t-4 116.5v105v34v19t-1 20.5t-1 38.5q-12 -10 -25.5 -12t-29 -2t-32 -2t-30.5 -10q-4 -2 -8 -2q-10 0 -15.5 12t-5.5 18z" />
</font>
</defs>
</svg>
