<svg width="195" height="15" viewBox="0 0 195 15" fill="none" xmlns="http://www.w3.org/2000/svg">
<path d="M73.5632 1.15384V12.2343H80.7692V14.9999H70.3846V1.15384H73.5632ZM157.541 2.39131C158.117 2.96623 158.449 3.74379 158.474 4.55907L158.473 4.80509C158.5 6.06498 157.8 7.22433 156.684 7.77043C158.258 8.3635 159.231 9.31241 159.231 11.1687V11.2043C159.231 13.7367 157.209 14.9999 154.143 14.9999H147.692V1.16366H153.998C155.292 1.08103 156.565 1.52231 157.541 2.39131ZM189.743 0.000641696C191.517 -0.0236215 193.242 0.640851 194.622 1.87946L193.118 4.27808C192.136 3.42765 190.946 2.92571 189.703 2.83765C188.577 2.83765 188.013 3.4013 188.013 4.09019V4.13403C188.013 5.09223 188.577 5.38658 190.83 6.05042C193.496 6.827 195 7.8854 195 10.4343V10.4782C195 13.3778 193.011 14.9999 190.177 14.9999C188.13 15.0093 186.152 14.1849 184.615 12.6826L186.306 10.4093C187.384 11.5122 188.785 12.142 190.25 12.1816C191.428 12.1816 192.143 11.6618 192.143 10.8038V10.7662C192.143 9.95209 191.692 9.5137 189.495 8.88743C186.852 8.13591 185.145 7.32802 185.145 4.42212V4.38454C185.145 1.73541 187.055 0.000641696 189.743 0.000641696ZM8.93204 1.15384L15 14.9999H11.8507L9.24757 8.98501L7.46966 4.68612L5.99515 8.24789L5.57646 9.24448H5.58252L3.08859 14.9999H0L6.06189 1.15384H8.93204ZM113.936 1.15384L120 14.9999H116.856L114.245 8.98501L112.473 4.68612L110.998 8.24789L110.579 9.24448H110.585L108.09 14.9999H105L111.064 1.15384H113.936ZM154.056 9.28275H150.6V12.3252H154.155C155.478 12.3252 156.27 11.8507 156.27 10.8247V10.7891C156.27 9.85803 155.589 9.28275 154.056 9.28275ZM38.6538 5.7692C39.6097 5.7692 40.3846 6.54409 40.3846 7.49996C40.3846 8.45583 39.6097 9.23072 38.6538 9.23072C37.698 9.23072 36.9231 8.45583 36.9231 7.49996C36.9231 6.54409 37.698 5.7692 38.6538 5.7692ZM153.555 3.83246H150.6V6.75629H153.357C154.679 6.75629 155.513 6.32335 155.513 5.29734V5.25583C155.513 4.34843 154.814 3.83246 153.555 3.83246Z" fill="white"/>
</svg>
