<svg width="140" height="26" viewBox="0 0 140 26" fill="none" xmlns="http://www.w3.org/2000/svg">
<path d="M130.877 5.52814C132.886 5.52814 134.081 6.34915 134.895 7.60803H135.004V5.96601H140V18.9927C140 21.401 139.185 23.262 137.936 24.3567C136.633 25.5061 134.787 25.9987 132.669 25.9987C128.65 26.0534 125.881 24.4114 125.392 21.0726H130.442C130.659 21.7294 131.311 22.3315 132.56 22.3315C134.244 22.3315 134.841 21.2915 134.841 19.7043V18.6096H134.732C133.918 19.5948 132.777 20.3063 131.148 20.3063C127.944 20.3063 125.12 17.898 125.12 13.1909C125.12 8.86692 127.401 5.52814 130.877 5.52814ZM32.7463 5.63761C37.4709 5.63761 40.4577 8.86692 40.4577 13.574C40.4577 18.3359 37.4709 21.5105 32.7463 21.5105C28.0217 21.5105 24.9806 18.3359 24.9806 13.574C24.9806 8.81218 28.0217 5.63761 32.7463 5.63761ZM48.8208 5.63761C53.5454 5.63761 56.4779 8.81218 56.4779 13.574C56.4779 18.3359 53.4911 21.5105 48.7665 21.5105C44.0962 21.5105 41.0551 18.3359 41.0551 13.574C41.0551 8.81218 44.0962 5.63761 48.8208 5.63761ZM87.595 0V7.5533H87.7036C88.6811 6.23968 90.0388 5.52814 91.9395 5.52814C95.6866 5.52814 97.8588 8.92165 97.8588 13.4646C97.8588 18.5548 95.5237 21.5105 91.6137 21.5105C89.9845 21.5105 88.301 20.7442 87.4321 19.0475H87.3778V21.0179H82.3817V0H87.595ZM106.005 5.58287C108.231 5.58287 109.915 6.29442 111.218 7.5533C112.956 9.25006 113.716 11.8773 113.662 14.9424H103.67C103.887 16.8034 104.756 17.7886 106.33 17.7886C107.254 17.7886 108.068 17.3507 108.394 16.3655H113.445C112.576 19.8137 109.915 21.5105 106.168 21.5105C101.552 21.4557 98.4562 18.2812 98.4562 13.5193C98.4562 8.81218 101.552 5.58287 106.005 5.58287ZM23.8945 0V21.0726H18.5182V0H23.8945ZM123.98 5.69234C124.414 5.69234 124.686 5.74708 124.849 5.85654V10.4542H124.74C121.645 9.90686 119.853 11.3847 119.853 14.7782V21.0726H114.585V6.02075H119.581V8.59325H119.69C120.776 6.51335 122.188 5.69234 123.98 5.69234ZM10.2638 0C12.2188 0 13.685 0.492607 14.7711 1.31362C15.9659 2.29883 16.6175 3.72192 16.6175 5.47341C16.6175 7.49857 15.8029 8.75745 14.1738 9.52373V9.63319C16.346 10.3447 17.595 12.3152 17.595 14.6687C17.595 16.9128 16.7261 18.6643 15.3142 19.759C14.1195 20.6347 12.5989 21.0179 10.5353 21.0179H0V0H10.2638ZM75.9193 5.58287C79.3949 5.58287 80.8611 8.15537 80.8611 11.6036V21.0179H75.6478V12.5341C75.6478 11.0015 75.159 10.0163 73.8557 10.0163C72.5524 10.0163 71.9007 11.2205 71.9007 12.8625V21.0179H66.6874V12.5341C66.6874 11.0015 66.1986 10.0163 64.8953 10.0163C63.5919 10.0163 62.9403 11.2205 62.9403 12.8625V21.0179H57.564V6.02075H62.5601V8.26484H62.6687C63.6462 6.51335 65.0039 5.58287 67.1761 5.58287C69.0768 5.58287 70.4888 6.51335 71.1947 8.15537H71.3033C72.4981 6.18495 74.0729 5.58287 75.9193 5.58287ZM32.6377 9.30479C31.0085 9.30479 30.2483 10.9468 30.2483 13.574C30.2483 16.2013 31.0085 17.898 32.6377 17.898C34.2669 17.8433 35.0815 16.2013 35.0815 13.574C35.0815 10.9468 34.2669 9.30479 32.6377 9.30479ZM48.7122 9.30479C47.083 9.30479 46.3227 10.9468 46.3227 13.574C46.3227 16.2013 47.083 17.898 48.7122 17.898C50.3414 17.8433 51.1559 16.2013 51.1559 13.574C51.1559 10.9468 50.3414 9.30479 48.7122 9.30479ZM90.0388 9.41426C88.4096 9.41426 87.4321 11.0015 87.4321 13.4098C87.4321 15.8181 88.4639 17.4054 90.0388 17.4054C91.6137 17.4054 92.4825 15.8729 92.4825 13.4098C92.4825 11.0015 91.6137 9.41426 90.0388 9.41426ZM9.72071 12.0962H5.70209V16.4202H9.72071V16.3655C10.9697 16.3655 11.8929 15.5992 11.8929 14.2309C11.8929 12.753 10.9154 12.0962 9.72071 12.0962ZM132.669 9.57846C131.202 9.57846 130.279 10.8921 130.279 12.972C130.279 14.9971 131.202 16.4202 132.669 16.4202C134.135 16.4202 135.058 14.9424 135.058 12.972C135.058 11.111 134.189 9.57846 132.669 9.57846ZM103.67 11.932H108.448C108.34 10.1258 107.362 9.19532 106.113 9.19532C104.647 9.14059 103.832 10.1805 103.67 11.932ZM9.17766 4.54293H5.64779V8.15537H9.23196V8.21011C10.3181 8.21011 11.1327 7.60803 11.1327 6.34915C11.1327 5.145 10.3181 4.54293 9.17766 4.54293Z" fill="white"/>
</svg>
