<svg width="157" height="26" viewBox="0 0 157 26" fill="none" xmlns="http://www.w3.org/2000/svg">
<path d="M20.2875 3.11395C21.053 3.66963 21.1449 4.36036 20.632 5.15528L20.0961 5.95406C19.5793 6.74898 18.9286 6.81844 18.0712 6.33994C16.5487 5.48628 14.8371 5.03369 13.095 5.02408C7.76283 5.02022 4.59339 8.89835 4.59339 13.5058C4.59339 18.1132 7.75517 21.9952 13.0797 21.9952C14.8254 21.9888 16.5411 21.5374 18.0673 20.6832C18.9248 20.197 19.5793 20.2665 20.0923 21.0691L20.6435 21.8409C21.1602 22.6358 21.1258 23.2609 20.4712 23.7472C18.3093 25.2685 15.7232 26.0564 13.0873 25.9969C4.94555 26.0046 0 20.2549 0 13.5058C0 6.75284 4.94555 1.00317 13.0873 1.00317C15.6454 0.945255 18.1591 1.68219 20.2875 3.11395ZM107 23C107.552 23 108 23.4477 108 24C108 24.5523 107.552 25 107 25H93C92.4477 25 92 24.5523 92 24C92 23.4477 92.4477 23 93 23H107ZM42.5 22C43.3284 22 44 22.6716 44 23.5C44 24.3284 43.3284 25 42.5 25H27.5C26.6716 25 26 24.3284 26 23.5C26 22.6716 26.6716 22 27.5 22H42.5ZM54.3044 1.38163C54.5945 1.66197 54.7368 2.0547 54.6909 2.44868V21.198H64.4671C64.8829 21.1598 65.2946 21.3028 65.5899 21.5881C65.8853 21.8734 66.0333 22.2712 65.9937 22.6729V23.5518C65.9937 24.4764 65.4242 24.9922 64.4671 24.9922H51.4954C51.0883 25.0353 50.683 24.8973 50.3937 24.6171C50.1045 24.337 49.9627 23.945 50.0084 23.5518V2.44486C49.964 2.05225 50.1064 1.66138 50.3954 1.38211C50.6845 1.10284 51.0891 0.965313 51.4954 1.00818H53.1999C53.6077 0.963841 54.0142 1.10129 54.3044 1.38163ZM75.3003 1.3804C75.5898 1.65983 75.7325 2.05144 75.6879 2.44479V21.1977H85.4694C85.8845 21.1594 86.2957 21.3024 86.5906 21.5877C86.8854 21.8731 87.0333 22.2709 86.9937 22.6725V23.5513C86.9937 24.476 86.425 24.9918 85.4694 24.9918H72.4972C72.09 25.0362 71.6841 24.8987 71.3944 24.6184C71.1047 24.338 70.9626 23.9453 71.0085 23.5513V2.44479C70.9639 2.05144 71.1066 1.65983 71.3961 1.3804C71.6857 1.10097 72.0908 0.964009 72.4972 1.00814H74.1992C74.6056 0.964009 75.0107 1.10097 75.3003 1.3804ZM133.663 2.21544C133.808 2.28352 133.916 2.41107 133.958 2.5645C134 2.71793 133.972 2.88183 133.881 3.01304L133.671 3.39835C133.624 3.55383 133.499 3.6741 133.34 3.71643C133.182 3.75876 133.013 3.71717 132.893 3.60642C130.906 2.30944 128.57 1.63786 126.191 1.67985C119.033 1.67985 114.879 6.62342 114.879 12.5033C114.879 18.3832 119.033 23.3267 126.191 23.3267C128.57 23.3687 130.906 22.6971 132.893 21.4002C133.013 21.2894 133.182 21.2478 133.34 21.2901C133.499 21.3325 133.624 21.4527 133.671 21.6082L133.916 22.0244C134.056 22.3365 134.021 22.5792 133.811 22.7141C131.591 24.2701 128.921 25.0705 126.202 24.9951C117.886 24.9682 113 19.227 113 12.4879C113 5.7449 117.886 0.00374478 126.195 0.00374478C128.858 -0.0609272 131.473 0.713497 133.663 2.21544ZM137.605 1.00379H156.433C156.591 0.993559 156.746 1.0522 156.854 1.16375C156.963 1.27529 157.015 1.42812 156.996 1.58062V1.96263C157.013 2.11389 156.96 2.26455 156.851 2.3743C156.743 2.48405 156.59 2.5417 156.433 2.53183H147.918V24.4134C147.94 24.5678 147.889 24.7236 147.779 24.8371C147.669 24.9506 147.512 25.0097 147.351 24.9979H146.678C146.515 25.0121 146.353 24.9551 146.236 24.8422C146.12 24.7294 146.061 24.5723 146.076 24.4134V2.53183H137.605C137.441 2.54604 137.279 2.48905 137.163 2.37621C137.07 2.28593 137.013 2.16736 137.002 2.04216L137.002 1.56534C136.989 1.40876 137.049 1.2548 137.166 1.14596C137.283 1.03713 137.444 0.984934 137.605 1.00379ZM42.5 12C43.3284 12 44 12.6716 44 13.5C44 14.3284 43.3284 15 42.5 15H27.5C26.6716 15 26 14.3284 26 13.5C26 12.6716 26.6716 12 27.5 12H42.5ZM107 12C107.552 12 108 12.4477 108 13C108 13.5523 107.552 14 107 14H93C92.4477 14 92 13.5523 92 13C92 12.4477 92.4477 12 93 12H107ZM42.5 2C43.3284 2 44 2.67157 44 3.5C44 4.32843 43.3284 5 42.5 5H27.5C26.6716 5 26 4.32843 26 3.5C26 2.67157 26.6716 2 27.5 2H42.5ZM107 2C107.552 2 108 2.44772 108 3C108 3.55228 107.552 4 107 4H93C92.4477 4 92 3.55228 92 3C92 2.44772 92.4477 2 93 2H107Z" fill="white"/>
</svg>
