<svg width="119" height="67" viewBox="0 0 119 67" fill="none" xmlns="http://www.w3.org/2000/svg">
<path fill-rule="evenodd" clip-rule="evenodd" d="M104.406 52.8391H109.882C109.882 52.0949 109.631 51.504 109.127 51.0694C108.624 50.6349 107.963 50.4176 107.144 50.4176C106.36 50.4176 105.708 50.6275 105.188 51.0453C104.667 51.462 104.406 52.0603 104.406 52.8391ZM113.548 51.1996C113.869 51.9837 114.028 52.8297 114.028 53.7366C114.028 53.9937 114.02 54.2141 114.002 54.3978C113.984 54.5847 113.949 54.8576 113.895 55.2186H104.463C104.463 55.6028 104.514 55.9639 104.616 56.3061C104.719 56.6472 104.879 56.9463 105.096 57.2025C105.314 57.4586 105.606 57.659 105.971 57.8028C106.337 57.9477 106.783 58.0212 107.308 58.0212C108.055 58.0212 108.616 57.8868 108.991 57.6192C109.364 57.3505 109.622 57.0209 109.765 56.6325H113.869C113.762 57.2497 113.538 57.828 113.195 58.3655C112.853 58.9029 112.411 59.3752 111.868 59.7793C111.326 60.1855 110.677 60.5078 109.922 60.745C109.165 60.9843 108.312 61.1019 107.36 61.1019C106.218 61.1019 105.207 60.9266 104.325 60.5728C103.443 60.2191 102.704 59.731 102.106 59.1065C101.509 58.4799 101.056 57.7493 100.751 56.9117C100.445 56.0741 100.293 55.1746 100.293 54.2141C100.293 53.2527 100.44 52.3573 100.737 51.5292C101.035 50.701 101.477 49.9747 102.066 49.3543C102.655 48.7329 103.376 48.2396 104.232 47.8785C105.087 47.5175 106.066 47.3369 107.173 47.3369C108.232 47.3369 109.183 47.5007 110.028 47.826C110.872 48.1514 111.59 48.6017 112.182 49.1685C112.772 49.7374 113.229 50.4134 113.548 51.1996Z" fill="white"/>
<path fill-rule="evenodd" clip-rule="evenodd" d="M30.8769 55.5094C30.7204 55.9157 30.5082 56.2652 30.2382 56.5612C29.9671 56.8561 29.6404 57.0933 29.2538 57.276C28.8692 57.4555 28.4406 57.5457 27.972 57.5457C27.5014 57.5457 27.0769 57.4555 26.6956 57.276C26.3142 57.0933 25.9885 56.8561 25.7185 56.5612C25.4474 56.2652 25.2342 55.9115 25.0787 55.5031C24.9243 55.0938 24.8465 54.6634 24.8465 54.2142C24.8465 53.7639 24.9243 53.3419 25.0787 52.9452C25.2342 52.5474 25.4474 52.1947 25.7185 51.8861C25.9885 51.5775 26.3142 51.334 26.6956 51.1587C27.0769 50.9834 27.5014 50.8952 27.972 50.8952C28.4501 50.8952 28.8808 50.9834 29.2611 51.1587C29.6414 51.334 29.9671 51.5775 30.2382 51.8861C30.5082 52.1947 30.7204 52.5474 30.8769 52.9452C31.0314 53.3419 31.1091 53.7639 31.1091 54.2142C31.1091 54.6718 31.0314 55.1032 30.8769 55.5094ZM31.1091 49.559C30.7456 48.9261 30.2025 48.4002 29.4796 47.9846C28.7579 47.5721 27.9048 47.3643 26.9214 47.3643C26.0389 47.3643 25.2184 47.5395 24.4609 47.8933C23.7024 48.2449 23.0416 48.7246 22.4753 49.3271C21.909 49.9327 21.4678 50.6517 21.1516 51.4893C20.8353 52.3269 20.6777 53.2349 20.6777 54.2142C20.6777 55.1925 20.8353 56.1004 21.1516 56.938C21.4678 57.7756 21.909 58.4988 22.4753 59.1066C23.0416 59.7143 23.7045 60.194 24.4672 60.5467C25.23 60.9004 26.0473 61.0757 26.9214 61.0757C27.9321 61.0757 28.801 60.8647 29.5269 60.4417C30.2539 60.0176 30.7803 59.5075 31.1091 58.9071V60.7461H35.2789V47.6938H31.1091V49.559Z" fill="white"/>
<path fill-rule="evenodd" clip-rule="evenodd" d="M88.0966 55.5217C87.94 55.9185 87.7278 56.2701 87.4568 56.5735C87.1868 56.8779 86.8558 57.1161 86.465 57.2872C86.0742 57.4594 85.6518 57.5454 85.199 57.5454C84.7189 57.5454 84.2892 57.4552 83.9068 57.2757C83.5254 57.0941 83.1976 56.8558 82.9266 56.5609C82.6555 56.2649 82.4433 55.9122 82.2878 55.5018C82.1323 55.0924 82.0546 54.6631 82.0546 54.2139C82.0546 53.7814 82.1281 53.3626 82.2752 52.9564C82.4212 52.5512 82.6303 52.1954 82.9014 51.8858C83.1714 51.5772 83.5044 51.3347 83.9005 51.1584C84.2955 50.982 84.7284 50.8939 85.199 50.8939C85.6697 50.8939 86.0962 50.982 86.4776 51.1584C86.86 51.3347 87.1868 51.5772 87.4568 51.8858C87.7278 52.1954 87.94 52.5481 88.0966 52.9438C88.2521 53.3406 88.3309 53.7636 88.3309 54.2139C88.3309 54.6894 88.2521 55.126 88.0966 55.5217ZM88.3309 49.5587C87.9306 48.8355 87.3612 48.2897 86.6247 47.9192C85.8882 47.5487 85.0562 47.365 84.1327 47.365C83.2176 47.365 82.3792 47.5403 81.6144 47.8919C80.8506 48.2456 80.1919 48.7232 79.6361 49.3278C79.0814 49.9314 78.6517 50.6462 78.3449 51.4754C78.0382 52.3046 77.8848 53.2083 77.8848 54.1876C77.8848 55.1648 78.0424 56.0644 78.3586 56.8842C78.6727 57.7039 79.1119 58.4135 79.6771 59.0128C80.2402 59.6122 80.9073 60.073 81.6753 60.3962C82.4433 60.7164 83.2712 60.878 84.16 60.878C85.1896 60.878 86.0563 60.6796 86.7592 60.2829C87.4599 59.8861 87.9842 59.4106 88.3309 58.8543V60.8938C88.3309 61.9539 88.0346 62.7243 87.4442 63.2009C86.8537 63.6785 86.1046 63.9188 85.199 63.9188C84.2125 63.9188 83.4876 63.7015 83.0201 63.2659C82.5536 62.8303 82.2857 62.3244 82.2143 61.7503H78.0445C78.0802 62.4735 78.2252 63.1536 78.4773 63.7929C78.7305 64.4321 79.1392 64.9874 79.7034 65.4597C80.2665 65.931 81.0082 66.3046 81.9285 66.5839C82.8478 66.861 83.9814 66.9995 85.3325 66.9995C87.7478 66.9995 89.5475 66.5041 90.7283 65.5122C91.9092 64.5203 92.4996 62.9049 92.4996 60.6649V47.6935H88.3309V49.5587Z" fill="white"/>
<path fill-rule="evenodd" clip-rule="evenodd" d="M13.4298 56.2792C12.6124 56.9226 11.5597 57.2438 10.2727 57.2438C9.39235 57.2438 8.6002 57.0874 7.89314 56.7683C7.18819 56.4513 6.5841 56.022 6.08191 55.4794C5.58078 54.9388 5.1868 54.2996 4.90314 53.568C4.61843 52.8364 4.4766 52.0565 4.4766 51.2283C4.4766 50.4516 4.60582 49.699 4.86322 48.9664C5.12062 48.2348 5.49358 47.5955 5.98211 47.0424C6.47063 46.4924 7.07263 46.0515 7.78703 45.7198C8.50249 45.3903 9.31355 45.2244 10.2192 45.2244C10.921 45.2244 11.5492 45.3231 12.1039 45.5215C12.6597 45.7198 13.1472 45.9938 13.5695 46.3423C13.9919 46.6897 14.3291 47.1012 14.5813 47.5714C14.8355 48.0427 15.0152 48.557 15.1223 49.1112H19.7323C19.6084 48.0364 19.2974 47.0182 18.8057 46.0578C18.313 45.0985 17.6574 44.2619 16.84 43.5513C16.0227 42.8428 15.0551 42.2844 13.9362 41.8792C12.8173 41.4751 11.5555 41.2715 10.1519 41.2715C8.5172 41.2715 7.06843 41.5444 5.80245 42.0902C4.53753 42.6371 3.47643 43.3718 2.61704 44.2923C1.75765 45.2139 1.10628 46.2751 0.663978 47.479C0.220626 48.6819 0 49.931 0 51.2283C0 52.5666 0.230081 53.8377 0.691294 55.0354C1.15146 56.2351 1.82279 57.291 2.70319 58.2032C3.58359 59.1164 4.6573 59.8438 5.92327 60.3854C7.18819 60.927 8.62016 61.1988 10.2192 61.1988C11.5429 61.1988 12.7543 61.0089 13.8553 60.631C14.9574 60.251 15.9124 59.7252 16.7213 59.0565C17.5282 58.3858 18.1922 57.6143 18.7122 56.7421C19.2323 55.8688 19.5811 54.9262 19.7597 53.9123H15.0687C14.7935 54.8464 14.2472 55.6358 13.4298 56.2792Z" fill="white"/>
<path fill-rule="evenodd" clip-rule="evenodd" d="M67.0057 52.8391C67.0057 52.0603 67.2673 51.462 67.7873 51.0453C68.3074 50.6275 68.9608 50.4176 69.7446 50.4176C70.563 50.4176 71.2238 50.6349 71.7271 51.0694C72.2292 51.504 72.4814 52.0949 72.4814 52.8391H67.0057ZM74.7812 49.1685C74.1897 48.6017 73.4711 48.1525 72.6274 47.826C71.7827 47.5007 70.8309 47.3369 69.774 47.3369C68.6667 47.3369 67.6854 47.5175 66.8313 47.8785C65.9761 48.2396 65.2543 48.7329 64.6649 49.3543C64.0777 49.9747 63.6332 50.701 63.338 51.5292C63.0407 52.3573 62.8926 53.2527 62.8926 54.2141C62.8926 55.1746 63.046 56.0741 63.3506 56.9117C63.6564 57.7493 64.1081 58.4799 64.7059 59.1065C65.3037 59.731 66.0433 60.2202 66.9248 60.5728C67.8062 60.9266 68.818 61.1019 69.961 61.1019C70.9128 61.1019 71.7659 60.9843 72.5213 60.745C73.2756 60.5078 73.926 60.1855 74.4691 59.7793C75.0102 59.3752 75.4525 58.9029 75.795 58.3655C76.1375 57.828 76.3623 57.2497 76.4684 56.6325H72.3648C72.2219 57.0209 71.9634 57.3505 71.5905 57.6192C71.2165 57.8868 70.6544 58.0212 69.9064 58.0212C69.3821 58.0212 68.9367 57.9487 68.5721 57.8028C68.2065 57.6601 67.9144 57.4586 67.697 57.2025C67.4784 56.9463 67.3187 56.6472 67.2168 56.3061C67.1139 55.9639 67.0624 55.6028 67.0624 55.2186H76.4947C76.5483 54.8576 76.584 54.5847 76.6018 54.3978C76.6197 54.2141 76.6281 53.9937 76.6281 53.7366C76.6281 52.8297 76.4684 51.9837 76.149 51.1996C75.8275 50.4134 75.3726 49.7374 74.7812 49.1685Z" fill="white"/>
<mask id="mask0" mask-type="alpha" maskUnits="userSpaceOnUse" x="0" y="0" width="119" height="67">
<path d="M0 66.9994H118.55V0H0V66.9994Z" fill="white"/>
</mask>
<g mask="url(#mask0)">
<path fill-rule="evenodd" clip-rule="evenodd" d="M94.5898 60.7467H98.7597V47.6934H94.5898V60.7467Z" fill="white"/>
<path fill-rule="evenodd" clip-rule="evenodd" d="M42.9965 48.1773C42.2779 48.6486 41.762 49.1934 41.4511 49.8116V47.6945H37.2812V60.7467H41.4511V55.6549C41.4511 54.05 41.7978 52.9185 42.4912 52.2572C43.1825 51.596 44.1206 51.2643 45.3026 51.2643C45.5589 51.2643 45.7879 51.28 45.9876 51.3105C46.1882 51.343 46.4341 51.3923 46.7272 51.4627V47.6945C46.3815 47.5444 45.9813 47.4698 45.5284 47.4698C44.5598 47.4698 43.7162 47.706 42.9965 48.1773Z" fill="white"/>
<path fill-rule="evenodd" clip-rule="evenodd" d="M98.5573 41.4869C98.3083 41.2528 98.0226 41.0702 97.699 40.9369C97.3743 40.8057 97.0213 40.7385 96.6389 40.7385C95.8751 40.7385 95.2374 40.9904 94.7268 41.4932C94.2162 41.996 93.9609 42.6163 93.9609 43.3563C93.9609 43.7195 94.0282 44.0585 94.1679 44.3755C94.3045 44.6925 94.4967 44.9728 94.7405 45.2152C94.9842 45.4577 95.2658 45.6477 95.5852 45.7841C95.9056 45.9206 96.2575 45.9888 96.6389 45.9888C97.0213 45.9888 97.3743 45.9206 97.699 45.7841C98.0226 45.6477 98.3083 45.4577 98.5573 45.2152C98.8063 44.9728 98.9965 44.6925 99.1299 44.3755C99.2633 44.0585 99.3305 43.7195 99.3305 43.3563C99.3305 42.9952 99.2633 42.652 99.1299 42.3256C98.9965 42.0002 98.8063 41.7199 98.5573 41.4869Z" fill="white"/>
<path fill-rule="evenodd" clip-rule="evenodd" d="M60.3357 48.858C59.9711 48.4266 59.4952 48.0697 58.909 47.7874C58.3227 47.5061 57.5768 47.3644 56.6712 47.3644C55.6322 47.3644 54.7392 47.5586 53.9932 47.9459C53.2473 48.3332 52.6926 48.8801 52.328 49.5854V47.695H48.1582V60.7462H52.328V54.187C52.328 53.1815 52.5381 52.3816 52.9605 51.7865C53.3818 51.1935 54.0289 50.8943 54.8999 50.8943C55.7519 50.8943 56.3476 51.1935 56.6849 51.7865C57.0221 52.3816 57.1912 53.1384 57.1912 54.0548V60.7462H61.3611V52.9967C61.3611 52.0636 61.2949 51.2638 61.1604 50.6036C61.028 49.9423 60.7528 49.3608 60.3357 48.858Z" fill="white"/>
<path fill-rule="evenodd" clip-rule="evenodd" d="M44.6277 36.6313C44.7832 36.2346 44.9954 35.8819 45.2654 35.5733C45.5364 35.2658 45.8611 35.0212 46.2424 34.8459C46.6238 34.6685 47.0493 34.5814 47.5189 34.5814C47.998 34.5814 48.4277 34.6685 48.808 34.8459C49.1894 35.0212 49.5161 35.2658 49.7861 35.5733C50.0561 35.8819 50.2683 36.2346 50.4249 36.6313C50.5793 37.027 50.6571 37.4511 50.6571 37.9014C50.6571 38.359 50.5793 38.7915 50.4249 39.1966C50.2683 39.6018 50.0561 39.9524 49.7861 40.2473C49.5161 40.5423 49.1873 40.7806 48.8027 40.9621C48.4161 41.1416 47.9896 41.2329 47.5189 41.2329C47.0493 41.2329 46.6238 41.1416 46.2424 40.9621C45.8611 40.7806 45.5364 40.5423 45.2654 40.2473C44.9954 39.9524 44.7832 39.5997 44.6277 39.1904C44.4722 38.7799 44.3955 38.3496 44.3955 37.9014C44.3955 37.4511 44.4722 37.027 44.6277 36.6313ZM42.0232 42.7938C42.5895 43.4015 43.2535 43.8812 44.0152 44.2349C44.7779 44.5865 45.5963 44.7629 46.4683 44.7629C47.479 44.7629 48.3478 44.5519 49.0749 44.1278C49.8008 43.7048 50.3282 43.1937 50.6571 42.5943V44.4333H54.8258V31.3811H50.6571V33.2452C50.2935 32.6112 49.7504 32.0864 49.0286 31.6707C48.3058 31.2582 47.4527 31.0504 46.4683 31.0504C45.5858 31.0504 44.7663 31.2278 44.0089 31.5805C43.2514 31.9311 42.5895 32.4107 42.0232 33.0143C41.457 33.6189 41.0157 34.3389 40.6995 35.1765C40.3822 36.0141 40.2246 36.9221 40.2246 37.9014C40.2246 38.8797 40.3822 39.7876 40.6995 40.6242C41.0157 41.4618 41.457 42.185 42.0232 42.7938Z" fill="white"/>
<path fill-rule="evenodd" clip-rule="evenodd" d="M56.8281 44.4323H60.9979V25.4706H56.8281V44.4323Z" fill="white"/>
<path fill-rule="evenodd" clip-rule="evenodd" d="M34.4888 37.0926C34.2356 37.7717 33.8657 38.3784 33.3835 38.9116C32.8981 39.4448 32.3056 39.8678 31.6049 40.1806C30.902 40.4934 30.1088 40.6498 29.22 40.6498H26.8477V29.278H29.22C30.1162 29.278 30.9136 29.4365 31.6112 29.7546C32.3088 30.0716 32.8981 30.4967 33.3835 31.0309C33.8657 31.5631 34.2356 32.1719 34.4888 32.8552C34.7419 33.5375 34.8691 34.2407 34.8691 34.9639C34.8691 35.705 34.7419 36.4145 34.4888 37.0926ZM39.3457 34.9639C39.3457 33.7558 39.1229 32.5833 38.6806 31.4455C38.2373 30.3088 37.5922 29.2969 36.7444 28.4121C35.8976 27.5272 34.8617 26.8166 33.6388 26.2824C32.4149 25.7492 31.0134 25.4825 29.4354 25.4825H22.4258V44.4442H29.4354C31.0134 44.4442 32.4191 44.1787 33.6514 43.6455C34.8838 43.1123 35.9239 42.4027 36.7707 41.5158C37.6174 40.6299 38.2583 39.618 38.6943 38.4802C39.1282 37.3434 39.3457 36.171 39.3457 34.9639Z" fill="white"/>
<path fill-rule="evenodd" clip-rule="evenodd" d="M67.4817 34.732C68.0038 34.3142 68.6552 34.1043 69.4389 34.1043C70.2573 34.1043 70.9192 34.3226 71.4214 34.7551C71.9247 35.1907 72.1768 35.7806 72.1768 36.5258H66.7011C66.7011 35.747 66.9616 35.1487 67.4817 34.732ZM64.3446 42.7932C64.9424 43.4198 65.682 43.9079 66.5634 44.2595C67.4449 44.6133 68.4566 44.7896 69.5986 44.7896C70.5505 44.7896 71.4046 44.671 72.16 44.4327C72.9143 44.1945 73.5646 43.8722 74.1067 43.4671C74.6488 43.0619 75.0901 42.5896 75.4337 42.0521C75.7761 41.5147 75.9999 40.9364 76.1071 40.3202H72.0024C71.8606 40.7097 71.6021 41.0382 71.2281 41.3059C70.8541 41.5746 70.2931 41.7079 69.545 41.7079C69.0208 41.7079 68.5753 41.6365 68.2097 41.4906C67.8452 41.3457 67.5531 41.1453 67.3356 40.8902C67.1171 40.633 66.9574 40.3349 66.8555 39.9928C66.7526 39.6516 66.7011 39.2895 66.7011 38.9053H76.1333C76.1869 38.5432 76.2226 38.2703 76.2405 38.0856C76.2573 37.9008 76.2668 37.6794 76.2668 37.4232C76.2668 36.5164 76.1071 35.6693 75.7867 34.8852C75.4662 34.1011 75.0113 33.4252 74.4198 32.8563C73.8283 32.2874 73.1108 31.8392 72.265 31.5127C71.4214 31.1874 70.4696 31.0247 69.4116 31.0247C68.3053 31.0247 67.3241 31.2052 66.4699 31.5663C65.6148 31.9273 64.893 32.4196 64.3036 33.041C63.7153 33.6613 63.2719 34.3877 62.9757 35.2159C62.6783 36.044 62.5312 36.9404 62.5312 37.9008C62.5312 38.8612 62.6836 39.7608 62.9893 40.5984C63.295 41.435 63.7468 42.1666 64.3446 42.7932Z" fill="white"/>
<path fill-rule="evenodd" clip-rule="evenodd" d="M19.6772 11.1664C19.6772 9.62444 20.9285 8.37537 22.4718 8.37537V-0.000732422H22.3268C16.765 -0.000732422 12.1528 4.05926 11.2945 9.37358C10.4351 4.05926 5.82299 -0.000732422 0.261119 -0.000732422H0.117188V8.37537C1.66052 8.37537 2.91073 9.62444 2.91073 11.1664C2.91073 12.7093 1.66052 13.9584 0.117188 13.9584V22.3345H0.261119C5.82299 22.3345 10.4351 18.2745 11.2945 12.9591C12.1528 18.2745 16.765 22.3345 22.3268 22.3345H22.4718V13.9584C20.9285 13.9584 19.6772 12.7093 19.6772 11.1664Z" fill="white"/>
<path fill-rule="evenodd" clip-rule="evenodd" d="M115.434 58.7947H114.727V58.6194H116.334V58.7947H115.629V60.7061H115.434V58.7947Z" fill="white"/>
<path fill-rule="evenodd" clip-rule="evenodd" d="M116.578 58.6194H116.844L117.566 60.4405H117.572L118.276 58.6194H118.55V60.7061H118.361V58.8891H118.355C118.355 58.8891 118.299 59.0539 118.255 59.1715L117.651 60.7061H117.478L116.867 59.1715C116.824 59.0644 116.765 58.8891 116.765 58.8891H116.76V60.7061H116.578V58.6194Z" fill="white"/>
</g>
</svg>
