<svg width="183" height="38" viewBox="0 0 183 38" fill="none" xmlns="http://www.w3.org/2000/svg">
<path d="M173.176 30.0266C177.509 30.0266 180.133 26.9384 180.133 23.6932C180.133 19.7502 177.009 18.5114 174.143 17.5344C171.743 16.7318 169.534 16.0688 169.534 14.0275C169.534 12.37 170.898 11.0964 173.021 11.0964C174.885 11.0964 176.283 11.8815 177.233 13.347L179.788 11.4278C178.182 9.54355 176.214 8.3048 173.021 8.3048C169.154 8.3048 166.323 10.8521 166.323 14.0624C166.323 17.9357 169.396 19.1046 172.227 20.0293C174.626 20.8144 176.922 21.5123 176.922 23.6758C176.922 25.5601 175.455 27.0605 173.142 27.0605C171.018 27.0605 169.361 25.9963 168.136 23.9898L165.391 26.1533C167.169 28.4912 169.603 30.0266 173.176 30.0266ZM155.568 29.7474H158.658V11.5674H164.579V8.6014H149.63V11.55H155.551V29.7474H155.568ZM144.192 29.7474H147.282V8.6014H144.192V17.6042H134.75V8.6014H131.625V29.73H134.75V20.6051H144.192V29.7474ZM118.937 30.0266C125.445 30.0266 129.312 25.0192 129.312 19.2791V18.145H118.54V21.1285H126.05C125.394 24.5481 122.908 26.9733 118.955 26.9733C114.449 26.9733 111.221 23.4664 111.221 19.157C111.221 14.8649 114.397 11.3057 118.92 11.3057C121.924 11.3057 124.254 12.8411 125.583 15.3884L128.311 13.7309C126.516 10.4857 123.098 8.28735 118.92 8.28735C112.654 8.28735 108.097 13.1202 108.097 19.1395C108.079 25.0716 112.619 30.0266 118.937 30.0266ZM102.434 29.7474H105.559V8.6014H102.434V29.7474ZM92.9573 30.0266C97.2902 30.0266 99.9141 26.9384 99.9141 23.6932C99.9141 19.7502 96.7896 18.5114 93.924 17.5344C91.5245 16.7318 89.3149 16.0688 89.3149 14.0275C89.3149 12.37 90.6959 11.0964 92.8019 11.0964C94.6663 11.0964 96.0645 11.8815 97.014 13.347L99.5688 11.4278C97.9634 9.54355 95.9955 8.3048 92.8019 8.3048C88.9351 8.3048 86.1041 10.8521 86.1041 14.0624C86.1041 17.9357 89.1595 19.1046 92.0078 20.0293C94.4073 20.8144 96.7032 21.5123 96.7032 23.6758C96.7032 25.5601 95.2359 27.0605 92.9227 27.0605C90.7995 27.0605 89.1423 25.9963 87.9166 23.9898L85.1719 26.1533C86.9327 28.4912 89.3667 30.0266 92.9573 30.0266Z" fill="white"/>
<path d="M75.3332 29.7474H78.4231V11.5675H84.3615V8.60144H69.4121V11.5675H75.3332V29.7474Z" fill="white"/>
<path d="M49.8359 29.7474H52.9605V13.5041L63.7668 29.7474H67.0639V8.60144H63.9739V24.5831L53.3748 8.60144H49.8359V29.7474Z" fill="white"/>
<path d="M46.73 8.60144H43.6055V29.73H46.73V8.60144Z" fill="white"/>
<path d="M11.791 18.843C13.6381 21.2681 16.1412 22.7511 18.8859 22.7511C21.6479 22.7511 24.1337 21.2332 25.9635 18.8081C24.1165 16.3829 21.6307 14.8999 18.8687 14.8999C16.1066 14.8999 13.6208 16.4178 11.791 18.843Z" fill="white"/>
<path d="M17.6592 25.2111C11.7209 25.2111 7.4398 21.1983 7.4398 15.9292C7.4398 10.6776 13.965 6.12391 19.9033 6.12391C26.9465 6.12391 31.7627 11.1487 33.7134 13.6088C30.3299 6.05412 24.8577 2.77405 18.7295 2.77405C10.1155 2.77405 2.86523 8.95036 2.86523 16.5748C2.86523 24.1992 8.97617 30.0615 17.5902 30.0615C25.1857 30.0615 28.7245 24.3737 28.1203 19.8025C26.6357 23.4664 22.3201 25.2111 17.6592 25.2111Z" fill="white"/>
<path d="M19.7143 12.7888C25.6526 12.7888 29.9337 16.8017 29.9337 22.0707C29.9337 27.3223 23.4085 31.876 17.4702 31.876C10.4271 31.876 5.61082 26.8512 3.66016 24.4086C7.04361 31.9633 12.5158 35.2434 18.644 35.2434C27.258 35.2434 34.5083 29.067 34.5083 21.4426C34.5083 13.8182 28.3974 7.95593 19.7834 7.95593C12.1706 7.95593 8.64903 13.6612 9.23595 18.2149C10.7378 14.5335 15.0534 12.7888 19.7143 12.7888Z" fill="white"/>
</svg>
