<svg width="168" height="68" viewBox="0 0 168 68" fill="none" xmlns="http://www.w3.org/2000/svg">
<g clip-path="url(#clip0)">
<path d="M165.829 42.9505V42.4851H166.122C166.277 42.4851 166.501 42.5024 166.501 42.692C166.501 42.8816 166.38 42.9505 166.191 42.9505H165.829V42.9505ZM165.829 43.278H166.035L166.501 44.0881H167.001L166.484 43.2435C166.742 43.2608 166.949 43.0712 166.966 42.8126V42.7437C166.966 42.2955 166.656 42.1577 166.139 42.1577H165.398V44.0881H165.829V43.278V43.278ZM168 43.1229C168 41.9853 167.121 41.3303 166.139 41.3303C165.156 41.3303 164.277 41.9853 164.277 43.1229C164.277 44.2605 165.156 44.9154 166.139 44.9154C167.121 44.9154 168 44.2605 168 43.1229ZM167.449 43.1229C167.483 43.8468 166.914 44.4673 166.191 44.5018H166.139C165.38 44.5362 164.743 43.933 164.708 43.1746C164.674 42.4162 165.277 41.7785 166.035 41.744C166.794 41.7095 167.432 42.3128 167.466 43.0712C167.449 43.0884 167.449 43.1056 167.449 43.1229V43.1229Z" fill="black"/>
<path d="M99.6585 23.9737V44.3123H105.398V23.9737H99.6585ZM54.5 23.9392V44.295H60.2913V28.4895L64.8072 28.5068C66.2895 28.5068 67.3236 28.8687 68.0303 29.6271C68.9438 30.5923 69.3058 32.1608 69.3058 35.0048V44.295H74.9247V33.0571C74.9247 25.0251 69.8056 23.9392 64.8072 23.9392H54.5V23.9392ZM108.914 23.9737V44.3123H118.222C123.186 44.3123 124.806 43.4849 126.547 41.6407C127.788 40.348 128.581 37.4868 128.581 34.367C128.581 31.5058 127.908 28.9549 126.719 27.3692C124.616 24.5252 121.548 23.9737 116.964 23.9737H108.914V23.9737ZM114.602 28.3861H117.067C120.652 28.3861 122.962 29.9891 122.962 34.1602C122.962 38.3313 120.652 39.9515 117.067 39.9515H114.602V28.3861V28.3861ZM91.3852 23.9737L86.5936 40.0894L82.0088 23.9737H75.8038L82.3535 44.3123H90.6268L97.2455 23.9737H91.3852V23.9737ZM131.269 44.3123H137.009V23.9737H131.269V44.3123ZM147.368 23.9737L139.353 44.295H145.007L146.282 40.6927H155.762L156.968 44.2778H163.122L155.038 23.9737H147.368V23.9737ZM151.091 27.6794L154.573 37.1938H147.506L151.091 27.6794Z" fill="white"/>
<path d="M17.4601 27.3518V24.5596C17.7359 24.5423 18.0117 24.5251 18.2875 24.5251C25.9403 24.2838 30.956 31.1093 30.956 31.1093C30.956 31.1093 25.5439 38.6242 19.7353 38.6242C18.9597 38.6242 18.2013 38.5036 17.4774 38.2623V29.7821C20.4592 30.1441 21.0625 31.454 22.8378 34.4358L26.8193 31.092C26.8193 31.092 23.9064 27.2829 19.0114 27.2829C18.4943 27.2656 17.9772 27.3001 17.4601 27.3518V27.3518ZM17.4601 18.1133V22.2844L18.2875 22.2327C28.9221 21.8707 35.8683 30.9542 35.8683 30.9542C35.8683 30.9542 27.9052 40.6408 19.6147 40.6408C18.8907 40.6408 18.1841 40.5719 17.4774 40.4512V43.0366C18.0634 43.1056 18.6667 43.1573 19.2527 43.1573C26.9745 43.1573 32.5589 39.2102 37.9711 34.5565C38.8673 35.2804 42.5386 37.0213 43.297 37.7796C38.1607 42.0887 26.1816 45.5531 19.3906 45.5531C18.7356 45.5531 18.1151 45.5186 17.4946 45.4497V49.0865H46.8304V18.1133H17.4601V18.1133ZM17.4601 38.2623V40.4685C10.3244 39.193 8.34226 31.7643 8.34226 31.7643C8.34226 31.7643 11.7722 27.9723 17.4601 27.3518V29.7649H17.4429C14.4611 29.4029 12.117 32.1952 12.117 32.1952C12.117 32.1952 13.4441 36.9006 17.4601 38.2623V38.2623ZM4.79163 31.454C4.79163 31.454 9.01447 25.2145 17.4774 24.5596V22.2844C8.10095 23.0428 0 30.9714 0 30.9714C0 30.9714 4.5848 44.2432 17.4601 45.4497V43.0366C8.01477 41.8646 4.79163 31.454 4.79163 31.454V31.454Z" fill="#76B900"/>
</g>
<defs>
<clipPath id="clip0">
<rect width="168" height="67.2" fill="white"/>
</clipPath>
</defs>
</svg>
