<svg width="141" height="39" viewBox="0 0 141 39" fill="none" xmlns="http://www.w3.org/2000/svg">
<path d="M14.6774 0C6.50048 0 0.555165 6.17291 0.555165 13.7059V13.7836C0.499868 20.3916 5.25667 26.0592 11.7741 27.1508V38.6251H17.5029V27.1342C24.016 25.9874 28.7544 20.3135 28.722 13.7003V13.6226C28.7163 6.1063 22.8543 0 14.6774 0ZM22.6267 13.778C22.6267 17.3363 20.6227 20.3728 17.5029 21.5497V13.7003H11.7741V21.472C8.61758 20.1973 6.578 17.1037 6.65036 13.7003V13.6226C6.66146 9.08728 9.90335 5.37354 14.5997 5.37354C19.296 5.37354 22.6267 9.15945 22.6267 13.7003V13.778Z" fill="#AC2228"/>
<path d="M48.3335 15.632C48.3335 19.8343 46.174 21.9937 42.6157 21.9937C39.0574 21.9937 36.898 19.7732 36.898 15.4433V0.455078H31.0859V15.5987C31.0859 23.3704 35.4381 27.3728 42.5547 27.3728C49.6713 27.3728 54.1733 23.437 54.1733 15.41V0.455078H48.3335V15.632Z" fill="#AC2228"/>
<path d="M71.2725 11.6574L64.3113 0.455078H58.0273V26.9509H63.7451V9.76441L71.1226 20.9722H71.2725L78.7332 9.65339V26.9509H84.5231V0.455078H78.2392L71.2725 11.6574Z" fill="#AC2228"/>
<path d="M110.802 9.27591V9.19819C110.892 6.95595 110.074 4.77221 108.532 3.14185C106.789 1.39878 104.18 0.455078 100.81 0.455078H88.6973V26.9509H94.526V18.4742H99.1057L104.785 26.9564H111.579L105.107 17.5194C108.493 16.2371 110.802 13.5503 110.802 9.27591ZM104.918 9.57567C104.918 11.7961 103.291 13.3227 100.477 13.3227H94.526V5.7176H100.316C103.153 5.7176 104.896 7.00547 104.896 9.5035L104.918 9.57567Z" fill="#AC2228"/>
<path d="M128.855 0.266357H123.481L112.135 26.9509H118.08L120.462 21.0111H131.669L134.09 26.9564H140.196L128.855 0.266357ZM122.571 15.8596L126.09 7.2664L129.61 15.8596H122.571Z" fill="#AC2228"/>
<path d="M23.7933 34.4172C23.7778 33.2407 24.2428 32.1088 25.0811 31.2831C25.9193 30.4575 27.0582 30.0095 28.2343 30.0429C29.6463 29.9764 30.9937 30.6386 31.8037 31.7971L30.0495 33.1571C29.6362 32.5463 28.9496 32.1771 28.2121 32.169C27.6477 32.1873 27.115 32.4341 26.7361 32.8528C26.3572 33.2714 26.1646 33.8261 26.2026 34.3895C26.1646 34.9529 26.3572 35.5075 26.7361 35.9262C27.115 36.3449 27.6477 36.5916 28.2121 36.6099C28.9753 36.6058 29.6866 36.2231 30.1106 35.5885L31.8648 36.8375C30.765 38.4013 28.7879 39.0857 26.9567 38.5366C25.1255 37.9875 23.8512 36.3281 23.7933 34.4172Z" fill="#B9AB97"/>
<path d="M45.6586 30.1262H47.8791L51.4596 38.6029H48.9616L48.351 37.0985H45.1257L44.5262 38.6029H42.0781L45.6586 30.1262ZM47.7015 35.2833L46.7633 32.8907L45.8141 35.2833H47.7015Z" fill="#B9AB97"/>
<path d="M63.1621 30.1873H66.7704C68.8965 30.1873 70.2676 31.2975 70.2676 33.146C70.2676 35.1278 68.741 36.177 66.6483 36.177H65.5047V38.5806H63.1732L63.1621 30.1873ZM66.6149 34.3728C67.4421 34.3728 67.9472 33.9399 67.9472 33.2626C67.9472 32.541 67.4421 32.1524 66.5983 32.1524H65.4881V34.3728H66.6149Z" fill="#B9AB97"/>
<path d="M81.8359 30.1873H84.1785V38.6028H81.8359V30.1873Z" fill="#B9AB97"/>
<path d="M98.7055 32.2301H96.1797V30.1873H103.557V32.2301H101.031V38.6028H98.6999L98.7055 32.2301Z" fill="#B9AB97"/>
<path d="M116.958 30.1262H119.178L122.759 38.6029H120.261L119.644 37.0985H116.397L115.797 38.6029H113.344L116.958 30.1262ZM119 35.2833L118.062 32.8907L117.13 35.2833H119Z" fill="#B9AB97"/>
<path d="M134.133 30.1873H136.464V36.56H140.539V38.6028H134.133V30.1873Z" fill="#B9AB97"/>
</svg>
