<svg width="101" height="24" viewBox="0 0 101 24" fill="none" xmlns="http://www.w3.org/2000/svg">
<path d="M63.4515 0.0994323L63.6606 0.157895C63.664 0.1596 63.6879 0.171753 63.8792 0.268789L63.9719 0.315789L64.053 0.322186C64.3631 0.368421 64.8148 0.657895 65.5281 0.947368C65.6682 1.08947 65.6822 1.10368 65.4567 1.22021L65.3725 1.26316L63.8162 3H63.6606C63.5272 2.86466 63.2795 2.72932 63.0154 2.69342L62.8825 2.68421H62.5712C61.376 2.68421 60.3242 3.41179 60.242 5.00664L60.2369 5.21053V7.57895H63.0381C63.1715 7.57895 63.1906 7.69495 63.1933 7.7281L63.1937 10.2632C63.1937 10.3985 63.0794 10.4178 63.0467 10.4206L63.0381 10.4211H60.5481C60.4147 10.4211 60.3957 10.5371 60.3929 10.5702L60.3925 23.8421C60.3925 23.9774 60.2781 23.9968 60.2455 23.9995L60.2369 24H57.5912C57.4578 24 57.4388 23.884 57.436 23.8509L57.4356 23.8421V10.7368C57.4356 10.6015 57.3212 10.5822 57.2886 10.5794L57.28 10.5789H55.5681C55.4347 10.5789 55.4156 10.4629 55.4129 10.4298L55.4125 7.73684C55.4125 7.6015 55.5268 7.58217 55.5595 7.57941L55.5681 7.57895H57.28V5.21053C57.28 1.89474 59.1475 0 61.9487 0C62.4823 0 63.0159 0 63.4515 0.0994323ZM100.686 0C100.82 0 100.955 0.115246 100.991 0.246956L101 0.313726V23.5294C101 23.6639 100.885 23.7983 100.753 23.834L100.686 23.8431H98.3276C98.1929 23.8431 98.0581 23.7279 98.0224 23.5962L98.0132 23.5294V22.5882C96.9128 23.5294 95.4981 24 94.0833 24C89.9961 24 86.8521 20.2353 86.8521 15.6863C86.8521 11.1373 90.1533 7.37255 94.0833 7.37255C95.4037 7.37255 96.7242 7.78248 97.7891 8.60235L98.0132 8.78431V0.313726C98.0132 0.179272 98.1287 0.0448179 98.2607 0.00914652L98.3276 0H100.686ZM22.8118 7.47541C25.1914 7.47541 27.2537 8.25487 28.6815 9.50201C28.8203 9.63842 28.8377 9.65547 28.7336 9.76203L28.6815 9.8138L27.0951 11.3727H26.7778C25.5087 10.4374 24.0809 9.96969 22.4945 9.96969C20.9081 9.96969 19.7976 10.7491 19.7976 11.9963C19.7976 14.9582 29.3161 13.0875 29.4747 19.0114C29.4747 21.6616 27.571 24 23.1291 24C20.1149 24 18.0526 23.0646 16.6248 21.6616C16.486 21.5252 16.4687 21.5082 16.5728 21.4016L16.6248 21.3498L18.2112 19.7909H18.5285C19.639 20.7263 21.2254 21.5057 23.1291 21.5057C25.5087 21.5057 26.4605 20.4145 26.4605 19.3232C26.4605 15.8936 16.9421 18.0761 16.9421 12.1522C16.9421 9.50201 19.3217 7.47541 22.8118 7.47541ZM7.23113 7.08197C7.54553 7.08197 7.85992 7.39975 7.85992 7.55864V9.94199C7.85992 10.2598 7.70272 10.4187 7.38833 10.4187C6.13074 10.4187 4.71595 10.4187 3.45837 11.6898C3.14397 12.0076 2.98677 12.4842 2.98677 13.4376V23.2888C2.98677 23.4477 2.82957 23.6066 2.67237 23.6066H0.314397C0.157198 23.6066 0 23.4477 0 23.2888V7.71753C0 7.39975 0.157198 7.24086 0.314397 7.24086H2.51518C2.67237 7.24086 2.82957 7.39975 2.82957 7.55864V9.46532C2.82957 9.46532 2.82957 9.62421 2.98677 9.46532C3.92996 8.1942 5.50195 7.24086 7.23113 7.08197ZM13.3639 7.47541C13.5258 7.47541 13.6878 7.63202 13.6878 7.78864V23.2933C13.8497 23.4499 13.6878 23.6066 13.5258 23.6066H10.9348C10.7728 23.6066 10.6109 23.4499 10.6109 23.2933V7.78864C10.6109 7.63202 10.7728 7.47541 10.9348 7.47541H13.3639ZM34.9712 18.6628L34.9767 18.715V23.4488C34.9767 23.4488 34.9767 23.5583 34.8882 23.5949L34.8238 23.6066L32.37 23.6061C32.3433 23.6038 32.2609 23.59 32.2341 23.5072L32.2257 23.4488V21.3974L34.671 18.5572C34.8068 18.4169 34.9427 18.526 34.9712 18.6628ZM51.9541 7.47541C52.1113 7.47541 52.2685 7.63202 52.2685 7.78864V23.2933C52.1113 23.4499 52.1113 23.6066 51.9541 23.6066H49.4389C49.2817 23.6066 49.1245 23.4499 49.1245 23.2933V7.78864C49.1245 7.63202 49.2817 7.47541 49.4389 7.47541H51.9541ZM68.3834 7.47541C68.5453 7.47541 68.7072 7.63202 68.7072 7.78864V23.2933C68.8692 23.4499 68.7072 23.6066 68.5453 23.6066H65.9542C65.7923 23.6066 65.6303 23.4499 65.6303 23.2933V7.78864C65.6303 7.63202 65.7923 7.47541 65.9542 7.47541H68.3834ZM78.4809 7.08197C80.9809 7.08197 82.2309 7.70554 83.3246 9.10857C84.207 10.4291 84.8126 12.0258 84.8807 14.0286L84.8872 14.4089V15.3443C84.8872 15.773 84.6246 16.0707 84.2197 16.1173L84.1059 16.1237H75.0433V16.7473C75.1996 19.3975 77.2308 21.4241 79.1059 21.4241C80.6684 21.4241 82.0746 20.8005 82.5434 20.4887C82.6801 20.3523 82.8168 20.3353 82.9535 20.4376L83.0121 20.4887L83.9497 21.4241L83.9492 22.0563C83.9469 22.0835 83.9332 22.1676 83.8512 22.1949L83.7934 22.2035L83.7159 22.2197C83.6479 22.2517 83.6183 22.3219 83.5452 22.3487L83.4809 22.3594L83.3379 22.4349C83.0345 22.6012 82.6327 22.8494 82.2309 22.983C81.2934 23.4507 80.0434 23.6066 78.7934 23.6066C76.6058 23.6066 75.0433 22.8271 73.7933 21.4241C72.6091 20.0949 71.9858 18.206 71.9235 16.0226L71.9183 15.656V15.0325C71.9183 12.6941 72.6995 10.8234 73.9496 9.26446C75.1996 7.86143 77.0746 7.08197 78.4809 7.08197ZM40.394 13.377L47.484 23.4516C47.6189 23.5872 47.5177 23.6041 47.4903 23.6063L44.0276 23.6061C43.9197 23.6038 43.8231 23.5903 43.7939 23.509L43.7849 23.4516L38.2362 15.7019C38.1014 15.7019 38.0845 15.5833 38.1856 15.5536L38.2362 15.5469L40.2399 13.377H40.394ZM94.0833 10.3529C91.5681 10.3529 89.6817 12.7059 89.6817 15.6863C89.6817 18.6667 91.7253 21.0196 94.0833 21.0196C95.7484 21.0196 97.2678 19.7105 97.9395 17.9327L98.0132 17.7255L98.0296 17.5536C98.0618 17.3849 98.1326 17.2548 98.1596 17.081L98.1704 16.9412V14.4314L98.1541 14.2595C98.1219 14.0908 98.0511 13.9607 98.024 13.7869L98.0132 13.6471L97.9395 13.4399C97.2678 11.6621 95.7484 10.3529 94.0833 10.3529ZM51.2224 0C51.5364 0 51.5364 0.158691 51.3794 0.317382L32.3827 19.995C32.3827 20.1537 32.2257 19.995 32.2257 19.995V9.83883C32.2257 9.68014 32.3827 9.52145 32.3827 9.52145L35.0516 6.66501C35.0516 6.66501 35.2086 6.66501 35.2086 6.82371V12.6953H35.3656L47.4544 0.158691C47.6114 0 47.6114 0 47.7684 0H51.2224ZM78.4809 9.57625C77.8558 9.57625 76.9183 10.0439 76.2933 10.8234C75.7204 11.5379 75.2788 12.3834 75.0888 13.48L75.0433 13.7853L81.9184 13.6294L81.9137 13.3647C81.8729 12.2288 81.5724 11.2465 81.1371 10.6675C80.5121 9.88803 80.0434 9.57625 78.4809 9.57625Z" fill="#42A77C"/>
<path d="M63.4515 0.0994323L63.6606 0.157895C63.664 0.1596 63.6879 0.171753 63.8792 0.268789L63.9719 0.315789L64.053 0.322186C64.3631 0.368421 64.8148 0.657895 65.5281 0.947368C65.6682 1.08947 65.6822 1.10368 65.4567 1.22021L65.3725 1.26316L63.8162 3H63.6606C63.5272 2.86466 63.2795 2.72932 63.0154 2.69342L62.8825 2.68421H62.5712C61.376 2.68421 60.3242 3.41179 60.242 5.00664L60.2369 5.21053V7.57895H63.0381C63.1715 7.57895 63.1906 7.69495 63.1933 7.7281L63.1937 10.2632C63.1937 10.3985 63.0794 10.4178 63.0467 10.4206L63.0381 10.4211H60.5481C60.4147 10.4211 60.3957 10.5371 60.3929 10.5702L60.3925 23.8421C60.3925 23.9774 60.2781 23.9968 60.2455 23.9995L60.2369 24H57.5912C57.4578 24 57.4388 23.884 57.436 23.8509L57.4356 23.8421V10.7368C57.4356 10.6015 57.3212 10.5822 57.2886 10.5794L57.28 10.5789H55.5681C55.4347 10.5789 55.4156 10.4629 55.4129 10.4298L55.4125 7.73684C55.4125 7.6015 55.5268 7.58217 55.5595 7.57941L55.5681 7.57895H57.28V5.21053C57.28 1.89474 59.1475 0 61.9487 0C62.4823 0 63.0159 0 63.4515 0.0994323ZM100.686 0C100.82 0 100.955 0.115246 100.991 0.246956L101 0.313726V23.5294C101 23.6639 100.885 23.7983 100.753 23.834L100.686 23.8431H98.3276C98.1929 23.8431 98.0581 23.7279 98.0224 23.5962L98.0132 23.5294V22.5882C96.9128 23.5294 95.4981 24 94.0833 24C89.9961 24 86.8521 20.2353 86.8521 15.6863C86.8521 11.1373 90.1533 7.37255 94.0833 7.37255C95.4037 7.37255 96.7242 7.78248 97.7891 8.60235L98.0132 8.78431V0.313726C98.0132 0.179272 98.1287 0.0448179 98.2607 0.00914652L98.3276 0H100.686ZM22.8118 7.47541C25.1914 7.47541 27.2537 8.25487 28.6815 9.50201C28.8203 9.63842 28.8377 9.65547 28.7336 9.76203L28.6815 9.8138L27.0951 11.3727H26.7778C25.5087 10.4374 24.0809 9.96969 22.4945 9.96969C20.9081 9.96969 19.7976 10.7491 19.7976 11.9963C19.7976 14.9582 29.3161 13.0875 29.4747 19.0114C29.4747 21.6616 27.571 24 23.1291 24C20.1149 24 18.0526 23.0646 16.6248 21.6616C16.486 21.5252 16.4687 21.5082 16.5728 21.4016L16.6248 21.3498L18.2112 19.7909H18.5285C19.639 20.7263 21.2254 21.5057 23.1291 21.5057C25.5087 21.5057 26.4605 20.4145 26.4605 19.3232C26.4605 15.8936 16.9421 18.0761 16.9421 12.1522C16.9421 9.50201 19.3217 7.47541 22.8118 7.47541ZM7.23113 7.08197C7.54553 7.08197 7.85992 7.39975 7.85992 7.55864V9.94199C7.85992 10.2598 7.70272 10.4187 7.38833 10.4187C6.13074 10.4187 4.71595 10.4187 3.45837 11.6898C3.14397 12.0076 2.98677 12.4842 2.98677 13.4376V23.2888C2.98677 23.4477 2.82957 23.6066 2.67237 23.6066H0.314397C0.157198 23.6066 0 23.4477 0 23.2888V7.71753C0 7.39975 0.157198 7.24086 0.314397 7.24086H2.51518C2.67237 7.24086 2.82957 7.39975 2.82957 7.55864V9.46532C2.82957 9.46532 2.82957 9.62421 2.98677 9.46532C3.92996 8.1942 5.50195 7.24086 7.23113 7.08197ZM13.3639 7.47541C13.5258 7.47541 13.6878 7.63202 13.6878 7.78864V23.2933C13.8497 23.4499 13.6878 23.6066 13.5258 23.6066H10.9348C10.7728 23.6066 10.6109 23.4499 10.6109 23.2933V7.78864C10.6109 7.63202 10.7728 7.47541 10.9348 7.47541H13.3639ZM34.9712 18.6628L34.9767 18.715V23.4488C34.9767 23.4488 34.9767 23.5583 34.8882 23.5949L34.8238 23.6066L32.37 23.6061C32.3433 23.6038 32.2609 23.59 32.2341 23.5072L32.2257 23.4488V21.3974L34.671 18.5572C34.8068 18.4169 34.9427 18.526 34.9712 18.6628ZM51.9541 7.47541C52.1113 7.47541 52.2685 7.63202 52.2685 7.78864V23.2933C52.1113 23.4499 52.1113 23.6066 51.9541 23.6066H49.4389C49.2817 23.6066 49.1245 23.4499 49.1245 23.2933V7.78864C49.1245 7.63202 49.2817 7.47541 49.4389 7.47541H51.9541ZM68.3834 7.47541C68.5453 7.47541 68.7072 7.63202 68.7072 7.78864V23.2933C68.8692 23.4499 68.7072 23.6066 68.5453 23.6066H65.9542C65.7923 23.6066 65.6303 23.4499 65.6303 23.2933V7.78864C65.6303 7.63202 65.7923 7.47541 65.9542 7.47541H68.3834ZM78.4809 7.08197C80.9809 7.08197 82.2309 7.70554 83.3246 9.10857C84.207 10.4291 84.8126 12.0258 84.8807 14.0286L84.8872 14.4089V15.3443C84.8872 15.773 84.6246 16.0707 84.2197 16.1173L84.1059 16.1237H75.0433V16.7473C75.1996 19.3975 77.2308 21.4241 79.1059 21.4241C80.6684 21.4241 82.0746 20.8005 82.5434 20.4887C82.6801 20.3523 82.8168 20.3353 82.9535 20.4376L83.0121 20.4887L83.9497 21.4241L83.9492 22.0563C83.9469 22.0835 83.9332 22.1676 83.8512 22.1949L83.7934 22.2035L83.7159 22.2197C83.6479 22.2517 83.6183 22.3219 83.5452 22.3487L83.4809 22.3594L83.3379 22.4349C83.0345 22.6012 82.6327 22.8494 82.2309 22.983C81.2934 23.4507 80.0434 23.6066 78.7934 23.6066C76.6058 23.6066 75.0433 22.8271 73.7933 21.4241C72.6091 20.0949 71.9858 18.206 71.9235 16.0226L71.9183 15.656V15.0325C71.9183 12.6941 72.6995 10.8234 73.9496 9.26446C75.1996 7.86143 77.0746 7.08197 78.4809 7.08197ZM40.394 13.377L47.484 23.4516C47.6189 23.5872 47.5177 23.6041 47.4903 23.6063L44.0276 23.6061C43.9197 23.6038 43.8231 23.5903 43.7939 23.509L43.7849 23.4516L38.2362 15.7019C38.1014 15.7019 38.0845 15.5833 38.1856 15.5536L38.2362 15.5469L40.2399 13.377H40.394ZM94.0833 10.3529C91.5681 10.3529 89.6817 12.7059 89.6817 15.6863C89.6817 18.6667 91.7253 21.0196 94.0833 21.0196C95.7484 21.0196 97.2678 19.7105 97.9395 17.9327L98.0132 17.7255L98.0296 17.5536C98.0618 17.3849 98.1326 17.2548 98.1596 17.081L98.1704 16.9412V14.4314L98.1541 14.2595C98.1219 14.0908 98.0511 13.9607 98.024 13.7869L98.0132 13.6471L97.9395 13.4399C97.2678 11.6621 95.7484 10.3529 94.0833 10.3529ZM78.4809 9.57625C77.8558 9.57625 76.9183 10.0439 76.2933 10.8234C75.7204 11.5379 75.2788 12.3834 75.0888 13.48L75.0433 13.7853L81.9184 13.6294L81.9137 13.3647C81.8729 12.2288 81.5724 11.2465 81.1371 10.6675C80.5121 9.88803 80.0434 9.57625 78.4809 9.57625Z" fill="white"/>
</svg>
