<svg width="117" height="39" viewBox="0 0 117 39" fill="none" xmlns="http://www.w3.org/2000/svg">
<path d="M68.9633 18.8402H66.1814L65.063 23.0664H63.6157L63.3448 23.9582H64.7889L62.5384 32.9299C61.0984 35.1937 58.5401 37.8754 55.8183 37.8754C53.7143 37.8754 52.8003 36.2072 52.8003 34.2692C52.8003 33.0685 53.1176 31.9821 53.3948 30.8967C60.7464 30.8586 63.2088 28.2996 63.2088 25.857C63.2088 23.9963 61.5401 22.6771 59.395 22.6771C54.6282 22.6771 49.7001 27.8342 49.7001 32.6803C49.7001 33.1457 49.7602 33.6059 49.8604 34.0534C48.3709 35.9946 46.2057 37.8754 43.9277 37.8754C41.8216 37.8754 40.9076 36.2072 40.9076 34.2692C40.9076 33.0685 41.226 31.9821 41.5043 30.8967C48.8547 30.8586 51.3172 28.2996 51.3172 25.857C51.3172 23.9963 49.6495 22.6771 47.5033 22.6771C43.5693 22.6771 39.5341 26.1903 38.2407 30.1424L37.1117 30.1678C37.6736 28.2425 37.974 26.3532 37.974 24.9272C37.974 23.7635 37.4343 22.6771 36.6616 22.6771C35.8889 22.6771 35.1542 23.1436 35.1542 23.9963C35.1542 26.0125 36.9314 25.1599 36.9314 26.5563C36.9314 28.2595 34.2276 37.6829 30.944 37.6829C29.4366 37.6829 29.2827 36.4029 29.2827 35.0848C29.2827 31.4785 31.1748 26.478 31.9876 23.0664H29.3206C28.0462 27.2524 26.4239 31.7113 24.1058 35.1239C23.2172 36.4039 22.2896 37.7993 21.1311 37.7993C20.6283 37.7993 20.3974 37.3708 20.3584 36.9445C20.3584 36.7118 23.3732 26.0125 23.3732 24.7325C23.3732 23.3362 22.6395 22.6771 21.324 22.6771C19.0713 22.6771 17.2182 24.9304 16.2737 27.063C13.9788 22.2667 6.33638 21.7631 6.33638 17.6776C6.33638 14.7304 8.69236 12.7924 11.3951 12.7924C14.139 12.7924 15.9933 14.1486 16.1482 19.1502L17.0759 19.2665L18.5432 12.6369H17.8085L16.3032 13.8397C14.9897 12.6761 13.3664 11.9387 11.6281 11.9387C7.33885 11.9387 4.36515 15.3514 4.36515 19.6548C4.36515 27.2143 14.177 26.2061 14.177 32.292C14.177 35.3556 11.5881 38.1473 8.34344 38.1473C4.17119 38.1473 2.58789 35.0446 2.58789 31.3241L1.66025 31.0914L0 38.4562H0.579772L2.7808 37.0217C4.17119 38.3409 6.06546 38.9999 7.91968 38.9999C14.0621 38.9999 16.9209 33.882 16.9209 30.0441C16.9209 29.3342 16.8292 28.6921 16.6668 28.1061H16.7649C17.1908 26.8652 18.968 23.9201 20.1655 23.9201C20.3584 23.9201 20.7063 24.2279 20.7063 24.2681C20.7063 25.2371 17.7705 36.2072 17.7705 36.5954C17.7705 37.8754 18.7361 38.8444 20.0496 38.8444C22.1736 38.8444 24.1058 37.6046 26.9646 31.7885L27.0405 31.8276C26.9267 32.7585 26.7707 34.4247 26.7707 34.8912C26.7707 36.5563 27.3905 38.8444 29.9774 38.8444C33.1777 38.8444 35.6032 34.8711 36.9051 30.8364H38.0372C37.8885 31.4398 37.8118 32.0587 37.8085 32.6803C37.8085 35.8602 40.272 38.8444 43.7685 38.8444C46.5293 38.8444 48.6766 37.1847 50.1566 35.0213C51.0209 37.1836 53.0544 38.8444 55.6591 38.8444C58.3872 38.8444 60.5134 37.2249 61.9913 35.0996C61.7667 35.9321 61.5844 36.4886 61.5844 36.9054C61.5844 38.2637 62.9758 38.8444 64.0584 38.8444C67.186 38.8444 69.3491 35.5503 70.0459 32.6803L69.3112 32.4095C68.4995 35.2392 66.8002 37.6829 65.0999 37.6829C64.5602 37.6829 64.3272 37.3708 64.3272 36.789C64.3272 36.5563 64.5212 35.9745 64.752 35.1239L67.574 23.9582H70.5466L70.8186 23.0664H67.8428L68.9633 18.8402ZM58.6792 23.5699C59.6321 23.5699 60.3869 24.4215 60.3869 25.3524C60.3869 27.9125 58.2828 30.0832 53.5941 30.0832C54.2297 27.8723 55.8995 23.5699 58.6792 23.5699ZM46.7886 23.5699C47.7415 23.5699 48.4963 24.4215 48.4963 25.3524C48.4963 27.9125 46.3912 30.0832 41.7035 30.0832C42.3391 27.8723 44.0068 23.5699 46.7876 23.5699H46.7886ZM116.266 32.9119C115.726 34.3475 114.45 37.6046 112.674 37.6046C112.21 37.6046 111.592 37.4491 111.592 36.8282C111.592 36.5182 114.335 27.0588 114.335 25.8951C114.335 23.3763 112.867 22.6771 110.936 22.6771C109.118 22.6771 106.529 24.1518 105.218 26.2442L105.141 26.2061L106.069 22.6771C104.599 22.8326 101.972 23.0664 100.891 23.0664H100.155L99.8862 23.9582H102.978L100.431 33.8841C99.7745 35.4593 98.6624 37.6046 97.2203 37.6046C96.7565 37.6046 96.1388 37.4491 96.1388 36.8282C96.1388 36.5182 98.8816 27.0588 98.8816 25.8951C98.8816 23.3763 97.4122 22.6771 95.4831 22.6771C93.6658 22.6771 91.0789 24.1518 89.7644 26.2442L89.6875 26.2061L90.6141 22.6771C89.1467 22.8326 86.5209 23.0664 85.4383 23.0664H84.7036L84.4337 23.9582H87.5223L84.7837 34.6458C83.7875 36.2495 82.2822 37.7739 80.7875 37.7739C79.5056 37.7739 79.2548 37.3761 79.24 36.7499C79.2316 36.4558 81.7193 27.3814 82.785 23.5488C82.6343 23.5628 82.4831 23.5705 82.3318 23.5721C81.8638 23.5703 81.3982 23.507 80.9466 23.3838C80.8821 23.3695 80.8181 23.3529 80.7548 23.334C80.492 23.2513 80.2362 23.148 79.9895 23.0251L76.9705 34.6574C76.8102 35.2784 76.5731 36.3257 76.5731 36.8282C76.5731 38.2245 78.2976 38.8444 79.5299 38.8444C81.7425 38.8444 83.2267 37.9601 84.3051 36.5066L83.8149 38.4181H86.5957L88.1811 32.0593C89.2247 27.7168 91.6197 23.8799 94.5544 23.8799C95.3661 23.8799 96.2927 24.1126 96.2927 25.3524C96.2927 26.6325 93.5509 34.4247 93.5509 36.7499C93.5509 38.1854 94.6714 38.8444 95.9838 38.8444C97.6188 38.8444 98.7857 37.995 99.6775 36.8133L99.2685 38.4181H102.049L103.634 32.0593C104.677 27.7168 107.073 23.8799 110.008 23.8799C110.82 23.8799 111.747 24.1126 111.747 25.3524C111.747 26.6325 109.003 34.4247 109.003 36.7499C109.003 38.1854 110.125 38.8444 111.437 38.8444C114.528 38.8444 115.956 35.82 117 33.2229L116.266 32.9119Z" fill="#00718F"/>
<mask id="mask0" mask-type="alpha" maskUnits="userSpaceOnUse" x="77" y="0" width="35" height="23">
<path d="M106.86 0.174072H106.866C107.182 0.176171 107.329 0.494068 107.329 0.494068L111.426 9.24411C111.654 9.73092 111.165 9.95754 111.165 9.95754L85.4724 21.8928C84.9837 22.1195 84.9827 22.1174 84.9827 22.1174L84.9816 22.1142C84.9521 22.1289 84.9269 22.1457 84.8974 22.1593C82.2023 23.4112 78.9987 22.2496 77.742 19.5647C76.4854 16.8799 77.6514 13.6886 80.3466 12.4367C80.375 12.4231 80.4055 12.4136 80.4329 12.401L80.4319 12.3968L106.615 0.233875C106.692 0.196486 106.775 0.176083 106.86 0.174072ZM78.8784 17.3699C78.8782 18.7172 79.5996 19.9623 80.7708 20.6361C81.942 21.31 83.3851 21.3102 84.5565 20.6367C85.7279 19.9631 86.4496 18.7183 86.4498 17.3709C86.4501 15.2881 84.7554 13.5995 82.6646 13.5992C80.5738 13.5989 78.8787 15.2871 78.8784 17.3699Z" fill="white"/>
</mask>
<g mask="url(#mask0)">
<path d="M74.0851 18.013L74.5917 19.0978L110.951 2.20836L110.428 1.12982L74.0851 18.014V18.013ZM74.0851 23.2546L74.5917 24.3395L113.287 6.36516L112.88 5.23311L74.0851 23.2546ZM74.0851 20.5698L74.5917 21.6546L111.939 4.30669L111.581 3.15261L74.0851 20.5698ZM72.8003 16.0122L73.3079 17.0971L109.779 0.157245L109.384 -0.981099L72.8003 16.0133V16.0122ZM71.5859 13.9768L72.0925 15.0627L108.563 -1.87918L108.168 -3.01648L71.5859 13.9768ZM75.171 25.4694L75.6786 26.5553L114.372 8.57994L113.966 7.44894L75.171 25.4694Z" fill="#00718F"/>
</g>
</svg>
