<svg width="187" height="18" viewBox="0 0 187 18" fill="none" xmlns="http://www.w3.org/2000/svg">
<path d="M4.92 4.632H0V0.24H15.504V4.632H10.584V17.04H4.92V4.632ZM27.576 14.112H21.192L20.064 17.04H14.304L21.648 0.24H27.216L34.56 17.04H28.704L27.576 14.112ZM26.016 10.032L24.384 5.808L22.752 10.032H26.016ZM43.152 17.424C40.576 17.424 38.568 16.728 37.128 15.336C35.688 13.944 34.968 11.992 34.968 9.48V0.24H40.632V9.312C40.632 10.544 40.852 11.44 41.292 12C41.732 12.56 42.368 12.84 43.2 12.84C44.032 12.84 44.668 12.56 45.108 12C45.548 11.44 45.768 10.544 45.768 9.312V0.24H51.336V9.48C51.336 11.992 50.616 13.944 49.176 15.336C47.736 16.728 45.728 17.424 43.152 17.424ZM70.176 0.24L62.856 17.04H59.784L52.44 0.24H55.824L61.416 13.2L67.056 0.24H70.176ZM84.552 14.424V17.04H71.952V0.24H84.216V2.856H75.072V7.224H83.184V9.792H75.072V14.424H84.552ZM102.96 0.24V17.04H100.392L91.128 5.664V17.04H88.032V0.24H90.6L99.864 11.616V0.24H102.96ZM110.88 2.88H105.312V0.24H119.568V2.88H114V17.04H110.88V2.88ZM128.832 17.28C126.512 17.28 124.704 16.628 123.408 15.324C122.112 14.02 121.464 12.152 121.464 9.72V0.24H124.584V9.6C124.584 12.896 126.008 14.544 128.856 14.544C131.688 14.544 133.104 12.896 133.104 9.6V0.24H136.176V9.72C136.176 12.152 135.532 14.02 134.244 15.324C132.956 16.628 131.152 17.28 128.832 17.28ZM151.536 17.04L148.104 12.12C147.96 12.136 147.744 12.144 147.456 12.144H143.664V17.04H140.544V0.24H147.456C148.912 0.24 150.18 0.479998 151.26 0.96C152.34 1.44 153.168 2.128 153.744 3.024C154.32 3.92 154.608 4.98399 154.608 6.216C154.608 7.48001 154.3 8.568 153.684 9.48C153.068 10.392 152.184 11.072 151.032 11.52L154.896 17.04H151.536ZM151.464 6.216C151.464 5.14399 151.112 4.32 150.408 3.744C149.704 3.168 148.672 2.88 147.312 2.88H143.664V9.576H147.312C148.672 9.576 149.704 9.284 150.408 8.7C151.112 8.116 151.464 7.28801 151.464 6.216ZM170.688 14.424V17.04H158.088V0.24H170.352V2.856H161.208V7.224H169.32V9.792H161.208V14.424H170.688ZM179.376 17.28C178.08 17.28 176.828 17.096 175.62 16.728C174.412 16.36 173.456 15.872 172.752 15.264L173.832 12.84C174.52 13.384 175.364 13.828 176.364 14.172C177.364 14.516 178.368 14.688 179.376 14.688C180.624 14.688 181.556 14.488 182.172 14.088C182.788 13.688 183.096 13.16 183.096 12.504C183.096 12.024 182.924 11.628 182.58 11.316C182.236 11.004 181.8 10.76 181.272 10.584C180.744 10.408 180.024 10.208 179.112 9.984C177.832 9.68 176.796 9.376 176.004 9.072C175.212 8.768 174.532 8.292 173.964 7.644C173.396 6.996 173.112 6.12001 173.112 5.016C173.112 4.088 173.364 3.244 173.868 2.484C174.372 1.724 175.132 1.12 176.148 0.672C177.164 0.223998 178.408 0 179.88 0C180.904 0 181.912 0.127999 182.904 0.384C183.896 0.640001 184.752 1.008 185.472 1.488L184.488 3.912C183.752 3.48 182.984 3.152 182.184 2.928C181.384 2.704 180.608 2.592 179.856 2.592C178.624 2.592 177.708 2.8 177.108 3.216C176.508 3.632 176.208 4.184 176.208 4.872C176.208 5.352 176.38 5.744 176.724 6.048C177.068 6.352 177.504 6.592 178.032 6.768C178.56 6.944 179.28 7.144 180.192 7.368C181.44 7.656 182.464 7.956 183.264 8.268C184.064 8.58 184.748 9.056 185.316 9.696C185.884 10.336 186.168 11.2 186.168 12.288C186.168 13.216 185.916 14.056 185.412 14.808C184.908 15.56 184.144 16.16 183.12 16.608C182.096 17.056 180.848 17.28 179.376 17.28Z" fill="white"/>
</svg>
