<svg width="119" height="46" viewBox="0 0 119 46" fill="none" xmlns="http://www.w3.org/2000/svg">
<path d="M14.8098 25.544C14.8098 30.3205 11.8896 32.8126 7.19632 32.8126C5.7362 32.8126 5.00613 32.0858 5.00613 30.5282V19.1061C5.00613 17.6524 5.84049 17.5485 7.09202 17.5485C11.7853 17.5485 14.8098 21.079 14.8098 25.544ZM17.3129 25.3363C17.3129 19.7291 12.9325 17.1332 7.71779 17.1332C5.42331 17.1332 3.12883 17.1332 0.834356 17.1332C0.730061 17.1332 0.417178 17.1332 0.417178 17.3409C0.417178 17.5485 0.730061 17.5485 0.834356 17.5485C2.08589 17.5485 2.71166 17.6524 2.71166 19.0023V31.3589C2.71166 32.7088 2.08589 32.8126 0.834356 32.8126C0.730061 32.8126 0.312883 32.8126 0.312883 33.0203C0.312883 33.228 0.730061 33.228 0.834356 33.228C1.8773 33.228 2.92025 33.228 3.96319 33.228C5.52761 33.228 7.19632 33.3318 8.86503 33.228C13.7669 33.0203 17.3129 30.5282 17.3129 25.3363ZM25.3436 33.1242C25.3436 32.9165 25.0307 32.9165 24.8221 32.9165C23.5706 32.9165 22.9448 32.8126 22.9448 31.4628V19.0023C22.9448 17.6524 23.5706 17.5485 24.8221 17.5485C24.9264 17.5485 25.3436 17.5485 25.3436 17.3409C25.3436 17.1332 25.0307 17.1332 24.9264 17.1332H18.9816C18.8773 17.1332 18.4601 17.1332 18.4601 17.3409C18.4601 17.5485 18.773 17.5485 18.8773 17.5485C20.1288 17.5485 20.7546 17.6524 20.7546 19.0023V31.3589C20.7546 32.7088 20.1288 32.8126 18.8773 32.8126C18.773 32.8126 18.3558 32.8126 18.3558 33.0203C18.3558 33.228 18.6687 33.228 18.773 33.228H24.8221C25.0307 33.3318 25.3436 33.228 25.3436 33.1242ZM36.2945 26.2709H31.184L33.7914 19.3138L36.2945 26.2709ZM42.7607 33.1242C42.7607 32.9165 42.4479 32.9165 42.2393 32.9165C40.7791 32.9165 40.1534 30.6321 39.7362 29.5937L35.0429 17.0293C34.5215 17.5485 34 17.9639 33.3742 18.2754L33.4785 18.5869L29.3067 29.5937C28.8896 30.7359 28.2638 32.9165 26.8037 32.9165C26.6994 32.9165 26.2822 32.9165 26.2822 33.1242C26.2822 33.3318 26.5951 33.3318 26.6994 33.3318H30.7669C30.8712 33.3318 31.0798 33.3318 31.0798 33.228C31.0798 32.605 28.9939 33.3318 28.9939 31.8781C28.9939 31.5666 29.0982 31.3589 29.2025 31.1512L30.7669 27.1016H36.5031L37.9632 31.1512C38.0675 31.3589 38.1718 31.6704 38.1718 31.8781C38.1718 33.3318 36.0859 32.605 36.0859 33.228C36.0859 33.3318 36.3988 33.3318 36.3988 33.3318H42.135C42.3436 33.3318 42.7607 33.3318 42.7607 33.1242ZM64.454 33.1242C64.454 32.9165 64.1411 32.9165 63.9325 32.9165C62.4724 32.9165 62.0552 32.605 62.0552 31.1512V25.3363V20.9752C62.0552 20.1445 62.0552 19.4176 62.0552 18.5869C62.1595 17.6524 63.2025 17.6524 63.9325 17.5485C64.0368 17.5485 64.2454 17.5485 64.2454 17.4447C64.2454 17.3409 64.0368 17.1332 63.9325 17.1332H59.7607L54.2331 30.2167L48.3926 17.1332H43.908C43.8037 17.1332 43.5951 17.3409 43.5951 17.4447C43.5951 17.6524 43.8037 17.6524 43.908 17.6524C44.638 17.7562 45.681 17.7562 45.7853 18.5869C45.8896 19.2099 45.8896 20.0406 45.8896 20.7675V31.2551C45.8896 32.605 45.2638 32.7088 44.0123 32.7088C43.908 32.7088 43.4908 32.7088 43.4908 32.9165C43.4908 33.1242 43.8037 33.1242 44.0123 33.1242H48.184C48.2883 33.1242 48.7055 33.1242 48.7055 32.9165C48.7055 32.7088 48.3926 32.7088 48.184 32.7088C46.9325 32.7088 46.3067 32.605 46.3067 31.2551V20.1445C46.3067 19.833 46.3067 19.0023 46.5153 18.7946C46.6196 18.7946 46.6196 18.8984 46.7239 19.0023L52.8773 32.2935C52.8773 32.3973 53.1902 33.0203 53.2945 33.0203C53.3988 33.0203 53.6074 32.7088 53.6074 32.605L59.3436 19.4176C59.3436 19.3138 59.6564 18.5869 59.7607 18.5869C59.865 18.5869 59.865 18.8984 59.865 19.0023V31.4628C59.865 32.8126 59.2393 32.9165 57.9877 32.9165C57.8834 32.9165 57.4663 32.9165 57.4663 33.1242C57.4663 33.3318 57.7791 33.3318 57.9877 33.3318H63.9325C64.0368 33.3318 64.454 33.228 64.454 33.1242ZM79.5767 25.4402C79.5767 28.8668 77.908 33.1242 73.9448 33.1242C69.6687 33.1242 68.4172 28.6591 68.4172 25.2325C68.4172 21.702 69.8773 17.4447 74.0491 17.4447C78.0123 17.4447 79.5767 22.1174 79.5767 25.4402ZM81.9755 25.3363C81.9755 20.7675 78.638 16.9255 73.9448 16.9255C69.1472 16.9255 65.9141 20.8713 65.9141 25.4402C65.9141 30.009 69.2515 33.6433 73.8405 33.6433C78.638 33.6433 81.9755 29.9052 81.9755 25.3363ZM100.748 17.237C100.748 17.0293 100.436 17.0293 100.227 17.0293H96.0552C95.9509 17.0293 95.5337 17.0293 95.5337 17.237C95.5337 17.4447 95.8466 17.4447 96.0552 17.4447C97.3067 17.4447 97.9325 17.5485 97.9325 18.8984V29.386L86.9816 16.9255H83.4356C83.3313 16.9255 83.1227 17.1332 83.1227 17.237C83.1227 17.4447 83.3313 17.4447 83.4356 17.4447C84.4785 17.5485 84.4785 17.7562 85.2086 18.4831C85.6258 19.0023 85.6258 19.9368 85.6258 20.456V31.2551C85.6258 32.605 85 32.7088 83.8528 32.7088C83.6442 32.7088 83.3313 32.7088 83.3313 32.9165C83.3313 33.1242 83.6442 33.1242 83.8528 33.1242H88.0245C88.1288 33.1242 88.546 33.1242 88.546 32.9165C88.546 32.7088 88.2331 32.7088 88.0245 32.7088C86.773 32.7088 86.2515 32.605 86.2515 31.2551V19.9368C86.2515 19.833 86.2515 19.6253 86.3558 19.5214C87.5031 20.456 88.546 22.0135 89.589 23.0519L96.0552 30.3205C96.5767 30.8397 98.2454 32.9165 98.6626 33.228C98.7669 33.228 98.7669 32.8126 98.7669 32.8126V19.0023C98.7669 17.6524 99.3926 17.5485 100.644 17.5485C100.436 17.5485 100.748 17.4447 100.748 17.237ZM116.497 25.544C116.497 30.3205 113.577 32.8126 108.883 32.8126C107.423 32.8126 106.693 32.0858 106.693 30.5282V19.1061C106.693 17.6524 107.528 17.5485 108.779 17.5485C113.368 17.5485 116.497 21.079 116.497 25.544ZM119 25.3363C119 19.7291 114.62 17.1332 109.405 17.1332C107.11 17.1332 104.816 17.1332 102.521 17.1332C102.417 17.1332 102.104 17.1332 102.104 17.3409C102.104 17.5485 102.417 17.5485 102.521 17.5485C103.773 17.5485 104.399 17.6524 104.399 19.0023V31.3589C104.399 32.7088 103.773 32.8126 102.521 32.8126C102.417 32.8126 102 32.8126 102 33.0203C102 33.228 102.417 33.228 102.417 33.228C103.46 33.228 104.503 33.228 105.546 33.228C107.11 33.228 108.779 33.3318 110.448 33.228C115.454 33.0203 119 30.5282 119 25.3363ZM12.6196 3.11512C12.6196 3.11512 11.9939 0.519187 11.8896 0.207675C11.8896 0.103837 11.8896 0 11.7853 0C11.5767 0 11.3681 0.103837 11.1595 0.103837C10.7423 0.207675 10.4294 0.207675 10.0123 0.207675C8.76074 0.207675 7.6135 0.207675 6.36196 0.207675C5.11043 0.207675 3.8589 0.207675 2.71166 0.207675C2.29448 0.207675 1.9816 0.207675 1.56442 0.103837C1.35583 0.103837 1.04294 0 0.834356 0C0.730061 0 0.730061 0.103837 0.730061 0.207675C0.625767 0.41535 0 3.11512 0 3.11512C0 3.11512 0 3.21896 0.104294 3.21896C0.521472 3.21896 0.834356 0.726862 3.12883 0.726862C3.54601 0.726862 5.42331 0.8307 5.42331 1.34989V11.2144C5.42331 12.2528 5.00614 12.3567 4.06748 12.3567C3.96319 12.3567 3.7546 12.3567 3.7546 12.4605C3.7546 12.5643 4.06748 12.6682 4.06748 12.6682H8.55215C8.65644 12.6682 8.96933 12.6682 8.96933 12.5643C8.96933 12.4605 8.65644 12.3567 8.65644 12.3567C7.71779 12.3567 7.30061 12.2528 7.30061 11.2144V1.34989C7.30061 0.8307 9.28221 0.726862 9.59509 0.726862C11.8896 0.726862 12.0982 3.21896 12.6196 3.21896V3.11512ZM26.8037 12.4605C26.8037 12.3567 26.4908 12.2528 26.4908 12.2528C25.5521 12.2528 25.0307 12.149 25.0307 11.1106V1.6614C25.0307 0.623025 25.5521 0.519187 26.3865 0.519187C26.4908 0.519187 26.6994 0.519187 26.6994 0.311512C26.6994 0.103837 26.4908 0.103837 26.3865 0.103837H21.9018C21.7975 0.103837 21.589 0.103837 21.589 0.207675C21.589 0.41535 21.7975 0.41535 21.9018 0.41535C22.8405 0.41535 23.362 0.519187 23.362 1.55756V6.02257H16.6871V1.6614C16.6871 0.623025 17.1043 0.519187 18.0429 0.519187C18.1472 0.519187 18.4601 0.519187 18.4601 0.311512C18.4601 0.103837 18.2515 0.103837 18.1472 0.103837H13.5583C13.454 0.103837 13.2454 0.103837 13.2454 0.207675C13.2454 0.41535 13.454 0.41535 13.5583 0.41535C14.4969 0.41535 15.0184 0.519187 15.0184 1.55756V11.0068C15.0184 12.0451 14.6012 12.149 13.6626 12.149C13.5583 12.149 13.3497 12.149 13.3497 12.2528C13.3497 12.3567 13.5583 12.4605 13.6626 12.4605H18.2515C18.3558 12.4605 18.6687 12.4605 18.6687 12.3567C18.6687 12.2528 18.4601 12.149 18.3558 12.149C17.4172 12.149 16.8957 12.0451 16.8957 11.0068V6.6456C17.5215 6.6456 18.1472 6.6456 18.773 6.6456H23.6748V11.1106C23.6748 12.149 23.2577 12.2528 22.319 12.2528C22.2147 12.2528 22.0061 12.2528 22.0061 12.3567C22.0061 12.4605 22.2147 12.5643 22.319 12.5643H26.908C26.4908 12.5643 26.8037 12.5643 26.8037 12.4605ZM38.589 9.24154C38.589 9.24154 38.589 9.03386 38.4847 9.03386C38.3804 9.03386 38.3804 9.24154 38.2761 9.24154C37.546 11.0068 37.0245 12.149 34.8344 12.149H32.4356C31.6012 12.149 30.9755 12.0451 30.9755 11.1106V6.74944C31.184 6.74944 31.3926 6.6456 31.6012 6.6456C33.7914 6.6456 34.5215 6.33409 34.8344 8.72235C34.8344 8.82618 34.8344 8.93002 35.0429 8.93002C35.2515 8.93002 35.2515 8.307 35.2515 8.20316V4.56885C35.2515 4.46501 35.2515 3.84199 35.0429 3.84199C34.9387 3.84199 34.9387 4.04966 34.9387 4.04966C34.6258 5.91874 34.3129 6.12641 32.4356 6.12641H31.6012C31.3926 6.12641 31.184 6.02257 30.9755 6.02257V1.6614C30.9755 0.41535 31.8098 0.623025 32.7485 0.623025C33.4785 0.623025 34.2086 0.519187 34.9387 0.623025C36.7117 0.8307 37.1288 3.11512 37.546 3.11512C37.6503 3.11512 37.7546 2.90745 37.7546 2.90745C37.7546 2.59594 37.3374 0.623025 37.1288 0.41535C37.0245 0.311512 36.9202 0.311512 36.7117 0.311512C34.5215 0.311512 32.4356 0.311512 30.2454 0.311512C29.5153 0.311512 28.681 0.311512 27.9509 0.311512C27.8466 0.311512 27.638 0.311512 27.638 0.519187C27.638 0.726862 27.9509 0.726862 28.0552 0.726862C28.9939 0.726862 29.411 0.8307 29.411 1.86907V11.3183C29.411 12.3567 28.8896 12.4605 28.0552 12.4605C27.9509 12.4605 27.638 12.4605 27.638 12.5643C27.638 12.772 27.9509 12.772 28.0552 12.772C30.1411 12.772 32.3313 12.772 34.5215 12.772C34.7301 12.772 37.9632 12.8758 38.1718 12.6682C38.1718 12.3567 38.589 9.65689 38.589 9.24154ZM51.5215 12.4605C51.5215 12.3567 51.2086 12.2528 51.2086 12.2528C50.2699 12.2528 49.8528 12.149 49.8528 11.1106V1.6614C49.8528 0.623025 50.3742 0.519187 51.2086 0.519187C51.3129 0.519187 51.5215 0.519187 51.5215 0.311512C51.5215 0.103837 51.3129 0.103837 51.2086 0.103837H46.6196C46.5153 0.103837 46.3067 0.103837 46.3067 0.207675C46.3067 0.41535 46.5153 0.41535 46.6196 0.41535C47.5583 0.41535 47.9755 0.519187 47.9755 1.55756V11.0068C47.9755 12.0451 47.5583 12.149 46.6196 12.149C46.5153 12.149 46.3067 12.149 46.3067 12.2528C46.3067 12.3567 46.5153 12.4605 46.6196 12.4605H51.2086C51.3129 12.5643 51.5215 12.5643 51.5215 12.4605ZM61.3252 9.24154C61.3252 5.29571 54.7546 5.91874 54.7546 3.11512C54.7546 1.55756 55.7975 0.623025 57.362 0.623025C58.7178 0.623025 59.6564 1.76524 60.0736 3.01129C60.1779 3.3228 60.2822 3.63431 60.3865 3.84199C60.3865 3.94582 60.4908 4.04966 60.5951 4.04966C60.8037 4.04966 60.8037 3.73815 60.8037 3.63431C60.8037 2.69977 60.6994 1.76524 60.6994 0.934537C60.6994 0.934537 60.6994 0.519187 60.5951 0.519187C60.3865 0.519187 60.0736 1.24605 59.7607 1.24605C59.6564 1.24605 58.8221 0.311512 57.362 0.311512C55.2761 0.311512 53.6074 1.55756 53.6074 3.73815C53.6074 7.89165 60.0736 7.06095 60.0736 10.0722C60.0736 11.7336 58.8221 12.6682 57.2577 12.6682C55.7975 12.6682 54.6503 11.7336 54.0245 10.4876C53.9202 10.1761 53.8159 9.86456 53.7117 9.55305C53.7117 9.44921 53.6074 9.34537 53.3988 9.34537C53.2945 9.34537 53.1902 9.44921 53.1902 9.55305C53.1902 10.4876 53.2945 11.526 53.2945 12.4605C53.2945 12.5643 53.2945 12.772 53.3988 12.772C53.5031 12.772 53.9202 12.3567 54.1288 12.3567C54.9632 12.772 56.2147 13.1874 57.1534 13.1874C59.4479 12.772 61.3252 11.6298 61.3252 9.24154ZM70.5031 3.42664C70.5031 6.12641 68.3129 6.43792 66.1227 6.43792C65.9141 6.43792 66.0184 6.02257 66.0184 5.91874V1.55756C66.0184 0.623025 66.4356 0.519187 67.2699 0.519187C69.2515 0.519187 70.5031 1.34989 70.5031 3.42664ZM74.7791 12.4605C74.7791 12.3567 74.5705 12.2528 74.4663 12.2528C73.6319 12.149 71.7546 9.34537 71.1288 8.61851C70.7117 7.99549 70.1902 7.37246 69.6687 6.74944L69.5644 6.6456C69.6687 6.54176 69.773 6.54176 69.8773 6.54176C71.3374 6.12641 72.3804 5.19187 72.3804 3.53047C72.3804 0.41535 69.4601 0.207675 66.9571 0.207675C66.1227 0.207675 65.3926 0.207675 64.5583 0.311512C63.9325 0.311512 63.411 0.311512 62.7853 0.311512C62.681 0.311512 62.3681 0.311512 62.3681 0.519187C62.3681 0.726862 62.681 0.726862 62.681 0.726862C63.6196 0.726862 64.0368 0.8307 64.0368 1.86907V11.3183C64.0368 12.3567 63.5153 12.4605 62.681 12.4605C62.5767 12.4605 62.2638 12.4605 62.2638 12.5643C62.2638 12.772 62.5767 12.772 62.5767 12.772H67.1656C67.2699 12.772 67.4785 12.772 67.4785 12.5643C67.4785 12.4605 67.1656 12.3567 67.1656 12.3567C66.227 12.3567 65.8098 12.2528 65.8098 11.2144V7.58014C65.8098 7.4763 65.8098 6.85327 66.0184 6.85327C66.9571 6.85327 67.4785 7.06095 68.1043 7.78781C69.3558 9.34537 70.5031 11.0068 71.7546 12.5643C72.589 12.5643 73.319 12.5643 74.1534 12.5643C74.4663 12.5643 74.7791 12.6682 74.7791 12.4605ZM82.9141 7.26862H78.9509L80.9325 1.97291L82.9141 7.26862ZM87.9202 12.4605C87.9202 12.3567 87.6074 12.2528 87.6074 12.2528C86.4601 12.2528 86.0429 10.5914 85.7301 9.76072L82.1841 0.207675C81.7669 0.519187 81.3497 0.8307 80.9325 1.14221L81.0368 1.34989L77.8037 9.65689C77.4908 10.4876 77.0736 12.149 75.9264 12.149C75.8221 12.149 75.6135 12.149 75.6135 12.2528C75.6135 12.4605 75.8221 12.4605 75.9264 12.4605H79.0552C79.1595 12.4605 79.3681 12.4605 79.3681 12.3567C79.3681 11.8375 77.8037 12.4605 77.8037 11.3183C77.8037 11.1106 77.908 10.9029 77.908 10.6953L79.0552 7.58014H83.4356L84.5828 10.6953C84.6871 10.9029 84.6871 11.1106 84.6871 11.3183C84.6871 12.4605 83.1227 11.8375 83.1227 12.3567C83.1227 12.4605 83.3313 12.4605 83.4356 12.4605H87.8159C87.6074 12.6682 87.8159 12.5643 87.9202 12.4605ZM99.8098 9.24154C99.8098 9.24154 99.8098 9.03386 99.7055 9.03386C99.6012 9.03386 99.6012 9.24154 99.4969 9.24154C98.7669 11.0068 98.2454 12.149 96.0552 12.149H93.6564C92.8221 12.149 92.1963 12.0451 92.1963 11.1106V6.74944C92.4049 6.74944 92.6135 6.6456 92.8221 6.6456C95.0123 6.6456 95.7423 6.33409 96.1595 8.72235C96.1595 8.82618 96.2638 8.93002 96.3681 8.93002C96.5767 8.93002 96.5767 8.307 96.5767 8.20316V4.56885C96.5767 4.46501 96.5767 3.84199 96.3681 3.84199C96.2638 3.84199 96.2638 4.04966 96.2638 4.04966C95.9509 5.91874 95.638 6.12641 93.7607 6.12641H92.8221C92.6135 6.12641 92.4049 6.02257 92.1963 6.02257V1.6614C92.1963 0.41535 93.0307 0.623025 93.9693 0.623025C94.6994 0.623025 95.4294 0.519187 96.1595 0.623025C97.8282 0.8307 98.2454 3.11512 98.6626 3.11512C98.7669 3.11512 98.8712 2.90745 98.8712 2.90745C98.8712 2.59594 98.454 0.623025 98.2454 0.41535C98.1411 0.311512 98.0368 0.311512 97.8282 0.311512C95.638 0.311512 93.5521 0.311512 91.362 0.311512C90.6319 0.311512 89.7975 0.311512 89.0675 0.311512C88.9632 0.311512 88.7546 0.311512 88.7546 0.519187C88.7546 0.726862 89.0675 0.726862 89.1718 0.726862C90.1104 0.726862 90.5276 0.8307 90.5276 1.86907V11.3183C90.5276 12.3567 90.0061 12.4605 89.1718 12.4605C89.0675 12.4605 88.7546 12.4605 88.7546 12.5643C88.7546 12.772 89.0675 12.772 89.1718 12.772C91.362 12.772 93.4479 12.772 95.638 12.772C95.8466 12.772 99.0798 12.8758 99.3926 12.6682C99.3926 12.3567 99.8098 9.65689 99.8098 9.24154ZM112.325 9.24154C112.325 9.24154 112.325 9.03386 112.221 9.03386C112.117 9.03386 112.117 9.24154 112.012 9.24154C111.282 11.0068 110.761 12.149 108.571 12.149H106.172C105.337 12.149 104.712 12.0451 104.712 11.1106V1.6614C104.712 0.623025 105.233 0.519187 106.067 0.519187C106.172 0.519187 106.485 0.519187 106.485 0.311512C106.485 0.103837 106.172 0.103837 106.067 0.103837H101.583C101.479 0.103837 101.166 0.103837 101.166 0.207675C101.166 0.41535 101.479 0.41535 101.583 0.41535C102.521 0.41535 102.939 0.519187 102.939 1.55756V11.0068C102.939 12.0451 102.417 12.149 101.583 12.149C101.479 12.149 101.166 12.149 101.166 12.2528C101.166 12.4605 101.479 12.4605 101.583 12.4605C104.816 12.4605 108.049 12.4605 111.282 12.4605C111.491 12.4605 111.595 12.4605 111.699 12.3567C111.908 12.3567 112.325 9.65689 112.325 9.24154ZM119 12.4605C119 12.3567 118.687 12.2528 118.687 12.2528C117.748 12.2528 117.331 12.149 117.331 11.1106V1.6614C117.331 0.623025 117.748 0.519187 118.687 0.519187C118.791 0.519187 119 0.519187 119 0.311512C119 0.103837 118.791 0.103837 118.687 0.103837H114.098C113.994 0.103837 113.785 0.103837 113.785 0.207675C113.785 0.41535 113.994 0.41535 114.098 0.41535C115.037 0.41535 115.454 0.519187 115.454 1.55756V11.0068C115.454 12.0451 115.037 12.149 114.098 12.149C113.994 12.149 113.785 12.149 113.785 12.2528C113.785 12.3567 113.994 12.4605 114.098 12.4605H118.687C118.687 12.5643 118.896 12.5643 119 12.4605ZM3.33742 45.5847C3.33742 45.4808 3.12883 45.4808 3.12883 45.4808C2.60736 45.4808 2.29448 45.377 2.29448 44.754V39.0429C2.19018 38.4199 2.50307 38.4199 3.12883 38.4199C3.12883 38.4199 3.33742 38.4199 3.33742 38.316C3.33742 38.2122 3.23313 38.2122 3.12883 38.2122H0.312883C0.208589 38.2122 0.104294 38.2122 0.104294 38.316C0.104294 38.4199 0.312883 38.4199 0.312883 38.4199C0.93865 38.4199 1.14724 38.5237 1.14724 39.1467V44.8578C1.14724 45.4808 0.834356 45.5847 0.312883 45.5847C0.208589 45.5847 0.104294 45.5847 0.104294 45.6885H0.312883H3.12883C3.12883 45.6885 3.33742 45.6885 3.33742 45.5847ZM21.0675 38.316C21.0675 38.2122 20.9632 38.2122 20.8589 38.2122H18.8773C18.773 38.2122 18.6687 38.2122 18.6687 38.316C18.6687 38.4199 18.8773 38.4199 18.8773 38.4199C19.3988 38.4199 19.7117 38.5237 19.7117 39.1467V44.0271L14.6012 38.316H12.9325C12.8282 38.316 12.8282 38.4199 12.8282 38.4199C12.8282 38.5237 12.9325 38.5237 12.9325 38.5237C13.454 38.5237 13.454 38.6275 13.7669 39.0429C13.9755 39.2506 13.9755 39.6659 13.9755 39.9774V44.9616C13.9755 45.5846 13.6626 45.6885 13.1411 45.6885C13.0368 45.6885 12.9325 45.6885 12.9325 45.7923C12.9325 45.8962 13.1411 45.8962 13.1411 45.8962H15.1227C15.227 45.8962 15.3313 45.8962 15.3313 45.7923C15.3313 45.6885 15.227 45.6885 15.1227 45.6885C14.6012 45.6885 14.2883 45.5846 14.2883 44.9616V39.7698V39.5621C14.8098 39.9774 15.3313 40.7043 15.7485 41.2235L18.773 44.6501C18.9816 44.8578 19.816 45.8962 20.0245 46V45.7923V39.2506C20.0245 38.6275 20.3374 38.5237 20.8589 38.5237C20.8589 38.4199 21.0675 38.4199 21.0675 38.316ZM37.4417 42.158C37.4417 44.3386 36.0859 45.4808 33.8957 45.4808C33.1656 45.4808 32.8528 45.1693 32.8528 44.4424V39.0429C32.8528 38.316 33.2699 38.316 33.7914 38.316C35.9816 38.4199 37.4417 40.0813 37.4417 42.158ZM38.589 41.9503C38.589 39.3544 36.6074 38.1084 34.2086 38.1084C33.1656 38.1084 32.1227 38.1084 30.9755 38.1084C30.9755 38.1084 30.7669 38.1084 30.7669 38.2122C30.7669 38.316 30.9755 38.316 30.9755 38.316C31.4969 38.316 31.8098 38.4199 31.8098 39.0429V44.754C31.8098 45.377 31.4969 45.4808 30.9755 45.4808C30.9755 45.4808 30.7669 45.4808 30.7669 45.5847C30.7669 45.6885 30.9755 45.6885 30.9755 45.6885C31.4969 45.6885 31.9141 45.6885 32.4356 45.6885C33.1656 45.6885 33.8957 45.6885 34.7301 45.6885C36.9202 45.5847 38.589 44.4424 38.589 41.9503ZM55.9018 38.2122C55.9018 38.1084 55.6933 38.1084 55.6933 38.1084H53.7117C53.7117 38.1084 53.5031 38.1084 53.5031 38.2122C53.5031 38.316 53.7117 38.316 53.7117 38.316C54.2331 38.316 54.546 38.4199 54.546 39.0429V43.1964C54.546 44.6501 53.816 45.5847 52.3558 45.5847C51.2086 45.5847 50.1656 44.9616 50.1656 43.7156V39.1467C50.1656 38.5237 50.4785 38.4199 51 38.4199C51 38.4199 51.2086 38.4199 51.2086 38.316C51.2086 38.2122 51 38.2122 51 38.2122H48.184C48.184 38.2122 47.9755 38.2122 47.9755 38.316C47.9755 38.4199 48.184 38.4199 48.184 38.4199C48.7055 38.4199 49.0184 38.5237 49.0184 39.1467C49.0184 40.6005 49.0184 41.9503 49.0184 43.4041C49.0184 45.2731 50.2699 45.8962 51.9387 45.8962C53.7117 45.8962 54.6503 45.0655 54.6503 43.3002V39.1467C54.6503 38.5237 54.9632 38.4199 55.4847 38.4199C55.6933 38.4199 55.9018 38.316 55.9018 38.2122ZM70.1902 43.6117C70.1902 41.2235 66.227 41.535 66.227 39.8736C66.227 38.9391 66.8528 38.316 67.7914 38.316C68.6258 38.316 69.1472 39.0429 69.4601 39.7698C69.5644 39.9774 69.5644 40.0813 69.6687 40.2889L69.773 40.3928C69.8773 40.3928 69.8773 40.1851 69.8773 40.1851C69.8773 39.6659 69.8773 39.0429 69.773 38.5237C69.773 38.5237 69.773 38.316 69.6687 38.316C69.5644 38.316 69.3558 38.7314 69.1472 38.7314C69.0429 38.7314 68.5215 38.2122 67.6871 38.2122C66.4356 38.2122 65.3926 38.9391 65.3926 40.2889C65.3926 42.781 69.2515 42.3657 69.2515 44.1309C69.2515 45.1693 68.5215 45.6885 67.5828 45.6885C66.7485 45.6885 66.0184 45.1693 65.6012 44.3386C65.7055 44.0271 65.7055 43.8194 65.6012 43.6117C65.6012 43.6117 65.4969 43.5079 65.3926 43.5079C65.2883 43.5079 65.2883 43.6117 65.2883 43.6117C65.2883 44.2348 65.3926 44.754 65.3926 45.377C65.3926 45.377 65.3926 45.5847 65.4969 45.5847C65.4969 45.5847 65.8098 45.377 65.9141 45.2731C66.4356 45.5846 67.1656 45.7923 67.7914 45.7923C69.0429 45.7923 70.1902 45.0655 70.1902 43.6117ZM87.1902 39.8736C87.1902 39.8736 86.773 38.316 86.773 38.1084C86.773 38.1084 86.773 38.0045 86.6687 38.0045C86.5644 38.0045 86.3558 38.1084 86.2515 38.1084C86.0429 38.1084 85.8344 38.2122 85.5215 38.2122C84.7914 38.2122 84.0614 38.2122 83.3313 38.2122C82.6012 38.2122 81.8712 38.2122 81.0368 38.2122C80.8282 38.2122 80.6196 38.2122 80.3067 38.1084C80.2025 38.1084 79.9939 38.0045 79.8896 38.0045C79.7853 38.0045 79.7853 38.0045 79.7853 38.1084C79.7853 38.316 79.3681 39.8736 79.3681 39.8736C79.3681 39.8736 79.3681 39.9774 79.4724 39.9774C79.7853 39.9774 79.8896 38.4199 81.3497 38.4199C81.5583 38.4199 82.7055 38.4199 82.7055 38.7314V44.754C82.7055 45.377 82.3926 45.4808 81.8712 45.4808C81.7669 45.4808 81.6626 45.4808 81.6626 45.5847C81.6626 45.6885 81.8712 45.6885 81.8712 45.6885H84.5828C84.6871 45.6885 84.7914 45.6885 84.7914 45.5847C84.7914 45.4808 84.5828 45.4808 84.5828 45.4808C83.9571 45.4808 83.7485 45.377 83.7485 44.754V38.7314C83.7485 38.4199 84.8957 38.4199 85.1043 38.4199C86.6687 38.4199 86.8773 39.9774 87.1902 39.8736C87.1902 39.9774 87.1902 39.9774 87.1902 39.8736ZM101.479 40.1851C101.479 41.8465 100.123 42.0542 98.7669 42.0542C98.6626 42.0542 98.6626 41.7427 98.6626 41.7427V39.0429C98.6626 38.5237 98.9755 38.4199 99.3926 38.4199C100.748 38.316 101.479 38.8352 101.479 40.1851ZM104.086 45.5847C104.086 45.4808 103.982 45.4808 103.877 45.4808C103.356 45.377 102.209 43.7156 101.896 43.1964C101.583 42.781 101.27 42.4695 101.061 42.0542L100.957 41.9503C101.061 41.9503 101.061 41.9503 101.166 41.8465C102 41.6388 102.73 41.0158 102.73 40.0813C102.73 38.2122 100.957 38.1084 99.4969 38.1084C98.9755 38.1084 98.5583 38.1084 98.0368 38.1084C97.7239 38.1084 97.3067 38.1084 96.9939 38.1084C96.8896 38.1084 96.7853 38.1084 96.7853 38.2122C96.7853 38.316 96.9939 38.316 96.9939 38.316C97.5153 38.316 97.8282 38.4199 97.8282 39.0429V44.754C97.8282 45.377 97.5153 45.4808 96.9939 45.4808C96.8896 45.4808 96.7853 45.4808 96.7853 45.5847C96.7853 45.6885 96.9939 45.6885 96.9939 45.6885H99.8098C99.8098 45.6885 100.018 45.6885 100.018 45.5847C100.018 45.4808 99.8098 45.4808 99.8098 45.4808C99.2883 45.4808 98.9755 45.377 98.9755 44.754V42.5734C98.9755 42.4695 98.9755 42.158 99.0798 42.158C99.6012 42.158 100.018 42.2619 100.331 42.781C101.061 43.7156 101.791 44.754 102.521 45.6885C103.043 45.6885 103.46 45.6885 103.982 45.6885C103.877 45.6885 104.086 45.6885 104.086 45.5847ZM118.896 38.2122C118.896 38.1084 118.687 38.1084 118.687 38.1084H116.184C116.184 38.1084 116.08 38.1084 116.08 38.2122C116.08 38.5237 117.227 38.2122 117.227 38.8352C117.227 38.9391 117.123 39.0429 117.123 39.1467L115.767 41.6388C115.558 41.2235 114.202 39.2506 114.202 38.9391C114.202 38.316 115.141 38.4199 115.141 38.2122C115.141 38.2122 115.037 38.2122 114.933 38.2122H111.908C111.804 38.2122 111.699 38.2122 111.699 38.316C111.699 38.4199 111.908 38.4199 111.908 38.4199C112.638 38.5237 112.951 39.4582 113.264 39.9774L114.62 42.158V44.8578C114.62 45.4808 114.307 45.5847 113.785 45.5847C113.681 45.5847 113.577 45.5847 113.577 45.6885C113.577 45.7923 113.785 45.7923 113.785 45.7923H116.497C116.601 45.7923 116.706 45.7923 116.706 45.6885C116.706 45.5847 116.497 45.5847 116.497 45.5847C115.975 45.5847 115.663 45.4808 115.663 44.8578V41.9503L116.706 39.9774C117.123 39.2506 117.54 38.4199 118.479 38.4199C118.687 38.4199 118.896 38.316 118.896 38.2122Z" fill="white"/>
</svg>
